<svg width="64" height="64" viewBox="0 0 64 64" fill="none" xmlns="http://www.w3.org/2000/svg">
<path d="M40.8279 16.6328C42.551 16.6328 43.9529 15.2309 43.9529 13.5078C43.9529 11.7846 42.551 10.3826 40.8279 10.3826C39.1048 10.3826 37.7029 11.7846 37.7029 13.5078C37.7029 14.2115 37.9369 14.8615 38.331 15.3845L33.1965 22.5596C32.8901 22.459 32.5633 22.4038 32.2235 22.4038C31.4024 22.4038 30.6546 22.7226 30.0964 23.2424L26.674 21.3004C26.7196 21.0884 26.7441 20.8686 26.7441 20.6433C26.7441 18.9201 25.3423 17.5183 23.6191 17.5183C21.896 17.5183 20.4941 18.9201 20.4941 20.6433C20.4941 20.8686 20.5186 21.0884 20.5643 21.3004L17.1419 23.2424C16.5836 22.7226 15.8359 22.4039 15.0148 22.4039C13.2916 22.4039 11.8898 23.8059 11.8898 25.529C11.8898 27.2521 13.2916 28.6541 15.0148 28.6541C16.7379 28.6541 18.1398 27.2521 18.1398 25.529C18.1398 25.3036 18.1153 25.0839 18.0696 24.8719L21.492 22.9299C22.0503 23.4496 22.798 23.7685 23.6191 23.7685C24.4403 23.7685 25.1879 23.4496 25.7463 22.93L29.1686 24.872C29.123 25.084 29.0985 25.3038 29.0985 25.5291C29.0985 27.2523 30.5004 28.6543 32.2235 28.6543C33.9468 28.6543 35.3486 27.2523 35.3486 25.5291C35.3486 24.8253 35.1145 24.1751 34.7204 23.6521L39.8549 16.477C40.1611 16.5775 40.4881 16.6328 40.8279 16.6328ZM40.8279 12.2576C41.5171 12.2576 42.0779 12.8184 42.0779 13.5078C42.0779 14.197 41.5171 14.7578 40.8279 14.7578C40.1386 14.7578 39.5779 14.197 39.5779 13.5078C39.5778 12.8184 40.1385 12.2576 40.8279 12.2576ZM15.0144 26.7789C14.3251 26.7789 13.7644 26.2181 13.7644 25.5288C13.7644 24.8394 14.3251 24.2786 15.0144 24.2786C15.7036 24.2786 16.2644 24.8394 16.2644 25.5288C16.2644 26.2181 15.7036 26.7789 15.0144 26.7789ZM23.6189 21.8933C22.9296 21.8933 22.3689 21.3325 22.3689 20.6431C22.3689 19.9539 22.9296 19.3931 23.6189 19.3931C24.3081 19.3931 24.8689 19.9539 24.8689 20.6431C24.869 21.3325 24.3081 21.8933 23.6189 21.8933ZM32.2234 26.7789C31.5341 26.7789 30.9734 26.2181 30.9734 25.5288C30.9734 24.8394 31.5341 24.2786 32.2234 24.2786C32.9128 24.2786 33.4735 24.8394 33.4735 25.5288C33.4735 26.2181 32.9126 26.7789 32.2234 26.7789Z" fill="white"/>
<path d="M52.3495 47.1206H45.7887H10.0535H2.65188C2.2235 47.1206 1.875 46.7721 1.875 46.3438V7.6664C1.875 7.23803 2.2235 6.88953 2.65188 6.88953H7.07137C7.58912 6.88953 8.00887 6.4699 8.00887 5.95203C8.00887 5.43415 7.58912 5.01453 7.07137 5.01453H2.65188C1.18963 5.01453 0 6.20415 0 7.6664V46.3438C0 47.806 1.18963 48.9956 2.65188 48.9956H9.116V51.0589C9.116 52.2343 10.0723 53.1905 11.2476 53.1905H20.6319L16.2144 61.8153C15.9784 62.2761 16.1605 62.841 16.6214 63.0771C16.7581 63.1473 16.9041 63.1804 17.048 63.1804C17.3886 63.1804 17.7173 62.9941 17.8831 62.67L22.7385 53.1905H33.1037L37.9591 62.67C38.1251 62.9941 38.4536 63.1804 38.7943 63.1804C38.9381 63.1804 39.0841 63.147 39.2209 63.0771C39.6818 62.841 39.864 62.2761 39.6279 61.8153L35.2104 53.1905H44.5946C45.77 53.1905 46.7262 52.2344 46.7262 51.0589V48.9956H52.3495C52.8672 48.9956 53.287 48.576 53.287 48.0581C53.287 47.5403 52.8672 47.1206 52.3495 47.1206ZM44.8512 51.0589C44.8512 51.2004 44.7361 51.3155 44.5946 51.3155H11.2476C11.1061 51.3155 10.991 51.2004 10.991 51.0589V48.9956H44.8512V51.0589Z" fill="white"/>
<path d="M10.8214 6.88951H23.6554H32.1868H53.1903C53.6186 6.88951 53.9671 7.23801 53.9671 7.66639V16.5803C53.9671 17.0981 54.3869 17.5178 54.9046 17.5178C55.4224 17.5178 55.8421 17.0981 55.8421 16.5803V7.66639C55.8421 6.20414 54.6525 5.01451 53.1903 5.01451H33.1244V3.17176C33.1244 1.87489 32.0693 0.819763 30.7723 0.819763H25.07C23.7731 0.819763 22.7179 1.87489 22.7179 3.17176V5.01451H10.8214C10.3036 5.01451 9.88388 5.43414 9.88388 5.95201C9.88388 6.46989 10.3036 6.88951 10.8214 6.88951ZM24.5929 3.17176C24.5929 2.90876 24.8069 2.69476 25.07 2.69476H30.7723C31.0353 2.69476 31.2494 2.90876 31.2494 3.17176V5.01451H24.593V3.17176H24.5929Z" fill="white"/>
<path d="M13.1127 33.447C12.595 33.447 12.1752 33.8666 12.1752 34.3845V42.6685C12.1752 43.1864 12.595 43.606 13.1127 43.606H16.9161C17.4339 43.606 17.8536 43.1864 17.8536 42.6685V34.3845C17.8536 33.8666 17.4339 33.447 16.9161 33.447H13.1127ZM15.9786 41.7312H14.0502V35.3221H15.9786V41.7312Z" fill="white"/>
<path d="M21.7171 28.6559C21.1994 28.6559 20.7796 29.0756 20.7796 29.5934V42.6686C20.7796 43.1864 21.1994 43.6061 21.7171 43.6061H25.5205C26.0383 43.6061 26.458 43.1864 26.458 42.6686V29.5934C26.458 29.0756 26.0383 28.6559 25.5205 28.6559H21.7171ZM24.5831 41.7311H22.6548V30.5309H24.5831V41.7311Z" fill="white"/>
<path d="M30.3216 33.447C29.8039 33.447 29.3841 33.8666 29.3841 34.3845V42.6685C29.3841 43.1864 29.8039 43.606 30.3216 43.606H34.125C34.6427 43.606 35.0625 43.1864 35.0625 42.6685V34.3845C35.0625 33.8666 34.6427 33.447 34.125 33.447H30.3216ZM33.1875 41.7312H31.2591V35.3221H33.1875V41.7312Z" fill="white"/>
<path d="M38.9261 38.9789C38.4084 38.9789 37.9886 39.3986 37.9886 39.9164V42.6686C37.9886 43.1864 38.4084 43.6061 38.9261 43.6061H42.7295C43.2472 43.6061 43.667 43.1864 43.667 42.6686C43.667 42.1507 43.2472 41.7311 42.7295 41.7311H39.8636V39.9164C39.8636 39.3986 39.4439 38.9789 38.9261 38.9789Z" fill="white"/>
<path d="M63.5219 48.0024L58.1435 38.6866C59.5061 37.2342 60.4984 35.4596 61.0284 33.4816C61.8755 30.3202 61.4408 27.0181 59.8043 24.1836C56.426 18.332 48.9171 16.3204 43.0659 19.6985C37.2145 23.0766 35.2026 30.5855 38.5809 36.4369C40.2174 39.2714 42.8598 41.2989 46.0211 42.1461C47.0769 42.429 48.148 42.5689 49.2124 42.5689C50.1426 42.5689 51.0675 42.4619 51.972 42.2501L57.3493 51.5661C58.0084 52.7082 59.2086 53.3474 60.4414 53.3472C61.0455 53.3472 61.6575 53.1936 62.2174 52.8706C63.3169 52.236 64 51.0526 64 49.7824C64 49.16 63.8348 48.5446 63.5219 48.0024ZM46.5064 40.335C43.8288 39.6175 41.5906 37.9001 40.2045 35.4994C37.3432 30.5434 39.0474 24.1836 44.0033 21.3222C45.6336 20.381 47.4153 19.934 49.175 19.934C52.7644 19.934 56.2604 21.7956 58.1804 25.1211C59.5664 27.5219 59.9346 30.3186 59.2171 32.9964C58.4996 35.6741 56.7823 37.912 54.3815 39.2981C51.9809 40.6842 49.1841 41.0522 46.5064 40.335ZM61.2803 51.2466C60.4736 51.7124 59.4386 51.4351 58.9733 50.6289L53.7998 41.6659C54.3183 41.4542 54.826 41.2067 55.3193 40.922C55.8129 40.637 56.2804 40.3197 56.723 39.9762L61.898 48.9396C62.0465 49.1972 62.125 49.4887 62.125 49.7825C62.125 50.3847 61.8013 50.9459 61.2803 51.2466Z" fill="white"/>
<path d="M57.6928 32.9514C58.3546 30.8194 58.197 28.5369 57.2489 26.5244C57.0281 26.0559 56.4696 25.8551 56.0013 26.0758C55.5328 26.2965 55.332 26.855 55.5528 27.3234C56.3006 28.9109 56.4248 30.712 55.9021 32.3953C55.3766 34.0878 54.2414 35.5081 52.7055 36.3949C51.0803 37.3334 49.1866 37.5824 47.374 37.0968C45.5613 36.611 44.046 35.4484 43.1078 33.8231C41.1706 30.468 42.3244 26.1625 45.6795 24.2254C48.1326 22.8093 51.177 22.9985 53.4359 24.7075C53.8489 25.02 54.4368 24.9386 54.7491 24.5256C55.0615 24.1128 54.9801 23.5248 54.5671 23.2124C51.7058 21.0473 47.849 20.8076 44.7419 22.6015C42.6829 23.7903 41.21 25.7098 40.5946 28.0063C39.9793 30.3028 40.2951 32.7015 41.4839 34.7605C42.6726 36.8196 44.5921 38.2924 46.8886 38.9079C47.6555 39.1134 48.4338 39.215 49.2069 39.215C50.7491 39.215 52.2715 38.8105 53.6429 38.0186C55.5888 36.8954 57.027 35.0959 57.6928 32.9514Z" fill="white"/>
</svg>
