<svg width="60" height="10" viewBox="0 0 60 10" fill="none" xmlns="http://www.w3.org/2000/svg">
<g clip-path="url(#clip0)">
<path d="M0.919258 4.88243L59.0807 4.88244C59.5882 4.88244 60 4.9654 60 5.06762C60 5.16985 59.5882 5.25281 59.0807 5.25281L0.919258 5.2528C0.411827 5.2528 7.25282e-09 5.16984 1.61894e-08 5.06762C2.51259e-08 4.9654 0.411827 4.88243 0.919258 4.88243Z" fill="url(#paint0_linear)"/>
<path d="M55.3827 0.239493C55.4281 0.239493 55.4734 0.257641 55.5081 0.293567L59.9483 4.93727C59.9812 4.97209 60 5.01912 60 5.06838C60 5.11764 59.9812 5.16468 59.9483 5.19949L55.5077 9.84097C55.4387 9.9132 55.3264 9.9132 55.2574 9.84097C55.1883 9.76875 55.1883 9.65134 55.2574 9.57912L59.5725 5.06838L55.2574 0.55579C55.1883 0.483567 55.1883 0.36616 55.2574 0.293937C55.2921 0.257641 55.3374 0.239493 55.3827 0.239493Z" fill="url(#paint1_linear)"/>
</g>
<defs>
<linearGradient id="paint0_linear" x1="30" y1="5.2528" x2="30" y2="4.88244" gradientUnits="userSpaceOnUse">
<stop stop-color="#7085FE"/>
<stop offset="1" stop-color="#7E7BFC"/>
</linearGradient>
<linearGradient id="paint1_linear" x1="57.6028" y1="9.89514" x2="57.6028" y2="0.239493" gradientUnits="userSpaceOnUse">
<stop stop-color="#7085FE"/>
<stop offset="1" stop-color="#7E7BFC"/>
</linearGradient>
<clipPath id="clip0">
<rect width="60" height="10" fill="white" transform="translate(60 10) rotate(-180)"/>
</clipPath>
</defs>
</svg>
