<svg width="60" height="10" viewBox="0 0 60 10" fill="none" xmlns="http://www.w3.org/2000/svg">
<g clip-path="url(#clip0)">
<path d="M0.919258 4.88231L59.0807 4.88232C59.5882 4.88232 60 4.96528 60 5.0675C60 5.16972 59.5882 5.25269 59.0807 5.25269L0.919258 5.25268C0.411827 5.25268 7.25282e-09 5.16972 1.61894e-08 5.0675C2.51259e-08 4.96527 0.411827 4.88231 0.919258 4.88231Z" fill="#F6F6F6"/>
<path d="M55.3827 0.239371C55.4281 0.239371 55.4734 0.257519 55.5081 0.293445L59.9483 4.93715C59.9812 4.97196 60 5.019 60 5.06826C60 5.11752 59.9812 5.16456 59.9483 5.19937L55.5077 9.84085C55.4387 9.91307 55.3264 9.91307 55.2574 9.84085C55.1883 9.76863 55.1883 9.65122 55.2574 9.579L59.5725 5.06826L55.2574 0.555667C55.1883 0.483445 55.1883 0.366038 55.2574 0.293815C55.2921 0.257519 55.3374 0.239371 55.3827 0.239371Z" fill="#F6F6F6"/>
</g>
<defs>
<clipPath id="clip0">
<rect width="60" height="10" fill="white" transform="translate(60 10) rotate(-180)"/>
</clipPath>
</defs>
</svg>
