<svg width="64" height="64" viewBox="0 0 64 64" fill="none" xmlns="http://www.w3.org/2000/svg">
<path d="M56.5757 1.625H7.42383C3.33057 1.625 0 4.95557 0 9.04883V54.9131C0 59.0068 3.33057 62.3374 7.42383 62.3374H56.5757C60.6694 62.3374 64 59.0068 64 54.9131V9.04883C64 4.95557 60.6694 1.625 56.5757 1.625V1.625ZM1.90088 54.9131V16.2017H9.49756C10.0225 16.2017 10.4482 15.7759 10.4482 15.251C10.4482 14.7261 10.0225 14.3008 9.49756 14.3008H1.90088V9.04883C1.90088 6.00342 4.37842 3.52588 7.42383 3.52588H56.5757C59.6211 3.52588 62.0991 6.00342 62.0991 9.04883V14.3008H13.2998C12.7749 14.3008 12.3491 14.7261 12.3491 15.251C12.3491 15.7759 12.7749 16.2017 13.2998 16.2017H21.4854V60.4365H7.42383C4.37842 60.4365 1.90088 57.9585 1.90088 54.9131ZM56.5757 60.4365H23.3862V16.2017H62.0991V54.9131C62.0991 57.9585 59.6216 60.4365 56.5757 60.4365Z" fill="white"/>
<path d="M7.78125 5.68115C5.99902 5.68115 4.54883 7.13135 4.54883 8.91309C4.54883 10.6953 5.99902 12.1455 7.78125 12.1455C9.56348 12.1455 11.0132 10.6953 11.0132 8.91309C11.0132 7.13135 9.56348 5.68115 7.78125 5.68115ZM7.78125 10.2446C7.04688 10.2446 6.4502 9.64746 6.4502 8.91309C6.4502 8.1792 7.04736 7.58203 7.78125 7.58203C8.51514 7.58203 9.1123 8.1792 9.1123 8.91309C9.1123 9.64746 8.51514 10.2446 7.78125 10.2446Z" fill="white"/>
<path d="M16.4673 12.1455C18.2495 12.1455 19.6992 10.6953 19.6992 8.91309C19.6992 7.13086 18.249 5.68115 16.4673 5.68115C14.6851 5.68115 13.2349 7.13135 13.2349 8.91309C13.2349 10.6953 14.6851 12.1455 16.4673 12.1455ZM16.4673 7.58203C17.2012 7.58203 17.7983 8.1792 17.7983 8.91309C17.7983 9.64746 17.2012 10.2446 16.4673 10.2446C15.7334 10.2446 15.1362 9.64746 15.1362 8.91309C15.1362 8.1792 15.7334 7.58203 16.4673 7.58203Z" fill="white"/>
<path d="M25.1533 12.1455C26.9355 12.1455 28.3853 10.6953 28.3853 8.91309C28.3853 7.13086 26.9351 5.68115 25.1533 5.68115C23.3711 5.68115 21.9209 7.13135 21.9209 8.91309C21.9209 10.6953 23.3711 12.1455 25.1533 12.1455ZM25.1533 7.58203C25.8872 7.58203 26.4844 8.1792 26.4844 8.91309C26.4844 9.64746 25.8872 10.2446 25.1533 10.2446C24.4194 10.2446 23.8218 9.64746 23.8218 8.91309C23.8218 8.1792 24.4189 7.58203 25.1533 7.58203Z" fill="white"/>
<path d="M10.3389 23.4038H18.0938C18.6187 23.4038 19.0439 22.9785 19.0439 22.4536C19.0439 21.9282 18.6187 21.5029 18.0938 21.5029H10.3389C9.81396 21.5029 9.38867 21.9282 9.38867 22.4536C9.38867 22.9785 9.81396 23.4038 10.3389 23.4038Z" fill="white"/>
<path d="M18.0938 29.2788H10.3389C9.81396 29.2788 9.38867 29.7046 9.38867 30.2295C9.38867 30.7544 9.81396 31.1797 10.3389 31.1797H18.0938C18.6187 31.1797 19.0439 30.7544 19.0439 30.2295C19.0439 29.7046 18.6187 29.2788 18.0938 29.2788Z" fill="white"/>
<path d="M18.0938 37.0547H10.3389C9.81396 37.0547 9.38867 37.4805 9.38867 38.0054C9.38867 38.5303 9.81396 38.9561 10.3389 38.9561H18.0938C18.6187 38.9561 19.0439 38.5303 19.0439 38.0054C19.0439 37.4805 18.6187 37.0547 18.0938 37.0547Z" fill="white"/>
<path d="M18.0938 44.8311H10.3389C9.81396 44.8311 9.38867 45.2563 9.38867 45.7812C9.38867 46.3062 9.81396 46.7319 10.3389 46.7319H18.0938C18.6187 46.7319 19.0439 46.3062 19.0439 45.7812C19.0439 45.2563 18.6187 44.8311 18.0938 44.8311Z" fill="white"/>
<path d="M6.41554 22.0894C6.26173 21.7246 5.88917 21.4834 5.49123 21.5034C5.12794 21.522 4.80031 21.7539 4.66066 22.0894C4.50831 22.4546 4.60499 22.8926 4.89992 23.1577C5.20216 23.4297 5.65138 23.4785 6.00587 23.2798C6.41896 23.0483 6.59621 22.5259 6.41554 22.0894Z" fill="white"/>
<path d="M6.41553 29.8658C6.2583 29.4928 5.87402 29.2506 5.46826 29.2818C5.09619 29.3101 4.76904 29.5582 4.64355 29.9097C4.34814 30.734 5.27588 31.4903 6.02637 31.045C6.42578 30.8077 6.59277 30.294 6.41553 29.8658Z" fill="white"/>
<path d="M6.41553 37.6421C6.25488 37.2612 5.8584 37.0176 5.44434 37.0601C5.04785 37.1006 4.71485 37.3877 4.61621 37.7739C4.40869 38.5884 5.33545 39.2554 6.0459 38.8076C6.4292 38.5659 6.59326 38.0615 6.41553 37.6421Z" fill="white"/>
<path d="M6.41553 45.418C6.26709 45.0587 5.90381 44.8223 5.51465 44.8316C5.12501 44.8414 4.77491 45.0953 4.64356 45.4615C4.34571 46.2891 5.28614 47.0465 6.03418 46.5914C6.42579 46.3531 6.59473 45.8419 6.41553 45.418Z" fill="white"/>
<path d="M57.3311 21.5029H26.7002C26.1753 21.5029 25.7495 21.9282 25.7495 22.4536C25.7495 22.9785 26.1753 23.4038 26.7002 23.4038H57.3311C57.856 23.4038 58.2812 22.9785 58.2812 22.4536C58.2812 21.9282 57.856 21.5029 57.3311 21.5029Z" fill="white"/>
<path d="M57.3311 25.6899H52.1143C51.5894 25.6899 51.1636 26.1152 51.1636 26.6401C51.1636 27.165 51.5894 27.5908 52.1143 27.5908H57.3311C57.856 27.5908 58.2812 27.165 58.2812 26.6401C58.2812 26.1152 57.856 25.6899 57.3311 25.6899Z" fill="white"/>
<path d="M26.7002 27.5908H48.3125C48.8374 27.5908 49.2627 27.165 49.2627 26.6401C49.2627 26.1152 48.8374 25.6899 48.3125 25.6899H26.7002C26.1753 25.6899 25.7495 26.1152 25.7495 26.6401C25.7495 27.165 26.1753 27.5908 26.7002 27.5908Z" fill="white"/>
<path d="M57.3311 29.877H26.7002C26.1753 29.877 25.7495 30.3022 25.7495 30.8271C25.7495 31.3521 26.1753 31.7778 26.7002 31.7778H57.3311C57.856 31.7778 58.2812 31.3521 58.2812 30.8271C58.2812 30.3022 57.856 29.877 57.3311 29.877Z" fill="white"/>
<path d="M57.3311 34.0635H26.7002C26.1753 34.0635 25.7495 34.4893 25.7495 35.0142C25.7495 35.5391 26.1753 35.9648 26.7002 35.9648H57.3311C57.856 35.9648 58.2812 35.5391 58.2812 35.0142C58.2812 34.4893 57.856 34.0635 57.3311 34.0635Z" fill="white"/>
<path d="M42.1807 38.2505H26.7002C26.1753 38.2505 25.7495 38.6763 25.7495 39.2012C25.7495 39.7261 26.1753 40.1514 26.7002 40.1514H42.1807C42.7056 40.1514 43.1313 39.7261 43.1313 39.2012C43.1313 38.6763 42.7056 38.2505 42.1807 38.2505Z" fill="white"/>
</svg>
