<svg width="26" height="26" viewBox="0 0 26 26" fill="none" xmlns="http://www.w3.org/2000/svg">
<g clip-path="url(#clip0)">
<path d="M10.7921 25.9999H1.71703C0.770244 25.9999 0 25.2297 0 24.2831V15.208C0 14.2612 0.770244 13.491 1.71703 13.491H10.7921C11.7387 13.491 12.509 14.2612 12.509 15.208V24.2831C12.509 25.2297 11.7387 25.9999 10.7921 25.9999ZM1.71703 14.5066C1.33022 14.5066 1.01562 14.8212 1.01562 15.208V24.2831C1.01562 24.6697 1.33022 24.9843 1.71703 24.9843H10.7921C11.1788 24.9843 11.4934 24.6697 11.4934 24.2831V15.208C11.4934 14.8212 11.1788 14.5066 10.7921 14.5066H1.71703Z" fill="white"/>
<path d="M10.7921 12.5097H1.71703C0.770244 12.5097 0 11.7394 0 10.7926V1.71752C0 0.770732 0.770244 0.000488281 1.71703 0.000488281H10.7921C11.7387 0.000488281 12.509 0.770732 12.509 1.71752V2.15015C12.509 2.43063 12.2817 2.65796 12.0012 2.65796C11.7209 2.65796 11.4934 2.43063 11.4934 2.15015V1.71752C11.4934 1.33091 11.1788 1.01611 10.7921 1.01611H1.71703C1.33022 1.01611 1.01562 1.33091 1.01562 1.71752V10.7926C1.01562 11.1794 1.33022 11.494 1.71703 11.494H10.7921C11.1788 11.494 11.4934 11.1794 11.4934 10.7926V6.26995C11.4934 5.98967 11.7209 5.76214 12.0012 5.76214C12.2817 5.76214 12.509 5.98967 12.509 6.26995V10.7926C12.509 11.7394 11.7387 12.5097 10.7921 12.5097Z" fill="white"/>
<path d="M12.001 4.63801C11.968 4.63801 11.9345 4.63484 11.902 4.62829C11.8694 4.62174 11.8375 4.61202 11.8072 4.59933C11.776 4.58663 11.7467 4.57096 11.7193 4.55271C11.6913 4.53387 11.6653 4.51264 11.6421 4.48924C11.6187 4.46583 11.5973 4.43984 11.579 4.41207C11.5608 4.3845 11.5451 4.35514 11.5324 4.32459C11.5197 4.29365 11.51 4.26171 11.5035 4.22978C11.4967 4.19665 11.4933 4.16312 11.4933 4.1302C11.4933 4.09707 11.4967 4.06355 11.5035 4.03121C11.51 3.99868 11.5197 3.96655 11.5324 3.9362C11.5451 3.90525 11.5608 3.87569 11.579 3.84832C11.5973 3.82035 11.6187 3.79437 11.6421 3.77116C11.6653 3.74775 11.6913 3.72652 11.7193 3.70827C11.7467 3.69003 11.776 3.67416 11.8072 3.66146C11.8375 3.64877 11.8694 3.63924 11.902 3.6325C11.9676 3.61941 12.0351 3.61941 12.1005 3.6325C12.1331 3.63924 12.1646 3.64877 12.1956 3.66146C12.2261 3.67416 12.2555 3.69003 12.2828 3.70827C12.3108 3.72652 12.3368 3.74775 12.36 3.77116C12.3834 3.79456 12.4048 3.82035 12.4235 3.84832C12.4419 3.87569 12.4576 3.90525 12.4703 3.9362C12.483 3.96674 12.4927 3.99868 12.4993 4.03121C12.5058 4.06374 12.5088 4.09707 12.5088 4.1302C12.5088 4.16312 12.5058 4.19665 12.4993 4.22978C12.4927 4.26171 12.483 4.29365 12.4703 4.32459C12.4576 4.35514 12.4419 4.3845 12.4235 4.41207C12.4048 4.43984 12.3834 4.46583 12.36 4.48924C12.3368 4.51264 12.3108 4.53387 12.2828 4.55271C12.2555 4.57096 12.2261 4.58663 12.1956 4.59933C12.165 4.61202 12.1331 4.62174 12.1005 4.62829C12.0676 4.63503 12.0341 4.63801 12.001 4.63801Z" fill="white"/>
<path d="M24.2828 25.9999H15.2077C14.2611 25.9999 13.4908 25.2297 13.4908 24.2831V15.208C13.4908 14.2612 14.2611 13.491 15.2077 13.491H24.2828C25.2296 13.491 25.9998 14.2612 25.9998 15.208V19.7307C25.9998 20.011 25.7725 20.2385 25.492 20.2385C25.2115 20.2385 24.9842 20.011 24.9842 19.7307V15.208C24.9842 14.8212 24.6696 14.5066 24.2828 14.5066H15.2077C14.8211 14.5066 14.5065 14.8212 14.5065 15.208V24.2831C14.5065 24.6697 14.8211 24.9843 15.2077 24.9843H24.2828C24.6696 24.9843 24.9842 24.6697 24.9842 24.2831V23.8505C24.9842 23.57 25.2115 23.3427 25.492 23.3427C25.7725 23.3427 25.9998 23.57 25.9998 23.8505V24.2831C25.9998 25.2297 25.2296 25.9999 24.2828 25.9999Z" fill="white"/>
<path d="M25.4921 22.3779C25.3586 22.3779 25.2274 22.3235 25.133 22.2291C25.1096 22.2057 25.0884 22.1797 25.0701 22.1517C25.0519 22.1243 25.036 22.095 25.0233 22.064C25.0106 22.0335 25.0005 22.0016 24.9944 21.969C24.9878 21.9365 24.9843 21.903 24.9843 21.87C24.9843 21.7359 25.0386 21.605 25.133 21.511C25.2509 21.3928 25.4262 21.3384 25.5912 21.3719C25.6238 21.3785 25.6557 21.388 25.6867 21.4007C25.7172 21.4134 25.7466 21.4293 25.7739 21.4475C25.8019 21.4664 25.8279 21.4876 25.8511 21.511C25.9457 21.6054 26.0001 21.7359 26.0001 21.87C26.0001 21.903 25.9965 21.9365 25.99 21.969C25.9832 22.0016 25.9737 22.0335 25.961 22.064C25.9483 22.095 25.9324 22.1243 25.9142 22.1517C25.8959 22.1797 25.8747 22.2057 25.8513 22.2291C25.8279 22.2525 25.8019 22.2737 25.7741 22.292C25.7466 22.3102 25.7172 22.3261 25.6867 22.3388C25.6557 22.3515 25.6238 22.361 25.5912 22.3675C25.5585 22.3743 25.525 22.3779 25.4921 22.3779Z" fill="white"/>
<path d="M24.2828 12.5093H15.2077C14.2611 12.5093 13.4908 11.7391 13.4908 10.7923V1.71715C13.4908 0.770366 14.2611 0.00012207 15.2077 0.00012207H24.2828C25.2296 0.00012207 25.9998 0.770366 25.9998 1.71715V10.7923C25.9998 11.7391 25.2296 12.5093 24.2828 12.5093ZM15.2077 1.01574C14.8211 1.01574 14.5065 1.33054 14.5065 1.71715V10.7923C14.5065 11.1791 14.8211 11.4937 15.2077 11.4937H24.2828C24.6696 11.4937 24.9842 11.1791 24.9842 10.7923V1.71715C24.9842 1.33054 24.6696 1.01574 24.2828 1.01574H15.2077Z" fill="white"/>
<path d="M7.22978 9.93698H5.27927C4.99898 9.93698 4.77145 9.70966 4.77145 9.42917V7.73772H3.0802C2.79971 7.73772 2.57239 7.51039 2.57239 7.2299V5.27959C2.57239 4.9991 2.79971 4.77177 3.0802 4.77177H4.77145V3.08032C4.77145 2.79984 4.99898 2.57251 5.27927 2.57251H7.22978C7.51027 2.57251 7.7376 2.79984 7.7376 3.08032V4.77177H9.42905C9.70934 4.77177 9.93686 4.9991 9.93686 5.27959V7.2299C9.93686 7.51039 9.70934 7.73772 9.42905 7.73772H7.7376V9.42917C7.7376 9.70966 7.51027 9.93698 7.22978 9.93698ZM5.78708 8.92136H6.72197V7.2299C6.72197 6.94962 6.9493 6.72209 7.22978 6.72209H8.92124V5.7874H7.22978C6.9493 5.7874 6.72197 5.55988 6.72197 5.27959V3.58813H5.78708V5.27959C5.78708 5.55988 5.55975 5.7874 5.27927 5.7874H3.58801V6.72209H5.27927C5.55975 6.72209 5.78708 6.94962 5.78708 7.2299V8.92136Z" fill="white"/>
<path d="M7.68701 23.0975C7.55232 23.0975 7.42319 23.044 7.32797 22.9488L6.13203 21.7528L4.9359 22.9488C4.73753 23.1471 4.41618 23.1469 4.21782 22.9488L2.83859 21.5695C2.74338 21.4743 2.68982 21.3452 2.68982 21.2105C2.68982 21.0758 2.74338 20.9467 2.83859 20.8515L4.03453 19.6555L2.83859 18.4596C2.64023 18.2612 2.64023 17.9397 2.83859 17.7413L4.21782 16.3621C4.31303 16.2669 4.44217 16.2135 4.57686 16.2135C4.71155 16.2135 4.84068 16.2669 4.9359 16.3621L6.13203 17.5582L7.32797 16.3621C7.42319 16.2669 7.55232 16.2135 7.68701 16.2135C7.8217 16.2135 7.95084 16.2669 8.04605 16.3621L9.42528 17.7413C9.62344 17.9397 9.62344 18.2612 9.42528 18.4596L8.22914 19.6555L9.42528 20.8515C9.62344 21.0498 9.62344 21.3714 9.42528 21.5697L8.04605 22.949C7.95084 23.044 7.8217 23.0975 7.68701 23.0975ZM6.13203 20.5269C6.26196 20.5269 6.39189 20.5765 6.49107 20.6757L7.68701 21.8716L8.34816 21.2105L7.15202 20.0146C6.95386 19.8162 6.95386 19.4948 7.15202 19.2965L8.34816 18.1003L7.68701 17.4394L6.49107 18.6353C6.39586 18.7305 6.26672 18.7841 6.13203 18.7841C5.99735 18.7841 5.86821 18.7305 5.773 18.6353L4.57686 17.4394L3.91591 18.1005L5.11185 19.2965C5.20706 19.3917 5.26062 19.5208 5.26062 19.6555C5.26062 19.7902 5.20706 19.9193 5.11185 20.0146L3.91591 21.2105L4.57686 21.8716L5.773 20.6755C5.87218 20.5765 6.00211 20.5269 6.13203 20.5269Z" fill="white"/>
<path d="M22.9197 17.4218H16.5709C16.2906 17.4218 16.063 17.6491 16.063 17.9296V21.8304C16.063 22.1109 16.2906 22.3382 16.5709 22.3382H22.9197C23.2002 22.3382 23.4275 22.1109 23.4275 21.8304V17.9296C23.4275 17.6491 23.2002 17.4218 22.9197 17.4218ZM17.0787 18.4374H22.4119V19.3723H17.0787V18.4374ZM22.4119 21.3226H17.0787V20.3879H22.4119V21.3226Z" fill="white"/>
<path d="M22.9197 7.96968H16.5709C16.2906 7.96968 16.063 7.74236 16.063 7.46187V5.51135C16.063 5.23087 16.2906 5.00354 16.5709 5.00354H22.9197C23.2002 5.00354 23.4275 5.23087 23.4275 5.51135V7.46187C23.4275 7.74236 23.2002 7.96968 22.9197 7.96968ZM17.0787 6.95406H22.4119V6.01917H17.0787V6.95406Z" fill="white"/>
</g>
<defs>
<clipPath id="clip0">
<rect width="26" height="26" fill="white"/>
</clipPath>
</defs>
</svg>
