<svg width="30" height="26" viewBox="0 0 30 26" fill="none" xmlns="http://www.w3.org/2000/svg">
<path d="M27.0703 3.3457H2.92969C1.31426 3.3457 0 4.48274 0 5.88033V20.0742C0 21.4718 1.31426 22.6089 2.92969 22.6089H27.0703C28.6857 22.6089 30 21.4718 30 20.0742V5.88033C30 4.48274 28.6857 3.3457 27.0703 3.3457ZM26.4142 4.35955L24.4221 6.0831H14.136C13.8124 6.0831 13.55 6.3101 13.55 6.59003C13.55 6.86995 13.8124 7.09695 14.136 7.09695H23.2502L21.6096 8.51634H17.275C16.9514 8.51634 16.6891 8.74335 16.6891 9.02327C16.6891 9.30319 16.9514 9.5302 17.275 9.5302H20.4377L17.5724 12.0091C16.1539 13.2362 13.8461 13.2362 12.4276 12.0091L3.58576 4.35955H26.4142ZM27.0703 21.595H2.92969C2.64053 21.595 2.36766 21.5339 2.12678 21.4264L4.91754 19.012C5.14635 18.814 5.14635 18.493 4.91754 18.2951C4.80311 18.1961 4.65316 18.1466 4.50322 18.1466C4.35328 18.1466 4.20328 18.1961 4.08891 18.2951L1.32229 20.6886C1.2259 20.5006 1.17188 20.2928 1.17188 20.0742V5.88033C1.17188 5.29179 1.56059 4.78066 2.1273 4.52795C2.13967 4.54103 2.15291 4.55376 2.16703 4.56597L11.0625 12.2619L7.36254 15.4629C7.13373 15.6609 7.13373 15.9818 7.36254 16.1798C7.59135 16.3778 7.96236 16.3778 8.19123 16.1798L11.9046 12.9672C13.6876 14.2667 16.3124 14.2667 18.0956 12.9672L27.8733 21.4265C27.6323 21.5339 27.3595 21.595 27.0703 21.595ZM28.8281 20.0742C28.8281 20.2928 28.7741 20.5006 28.6777 20.6886L18.9376 12.2618L27.833 4.56592C27.8471 4.55371 27.8603 4.54103 27.8728 4.5279C28.4394 4.78066 28.8281 5.29179 28.8281 5.88033V20.0742Z" fill="#DD4F24"/>
<path d="M12.1523 6.23159C12.0433 6.13725 11.8928 6.08301 11.7381 6.08301C11.584 6.08301 11.4328 6.13725 11.3238 6.23159C11.2148 6.32583 11.1521 6.45661 11.1521 6.58993C11.1521 6.72325 11.2148 6.85404 11.3238 6.94833C11.4328 7.04262 11.584 7.09686 11.7381 7.09686C11.8928 7.09686 12.0433 7.04267 12.1523 6.94833C12.2619 6.85404 12.324 6.72325 12.324 6.58993C12.324 6.45661 12.2619 6.32583 12.1523 6.23159Z" fill="#DD4F24"/>
<path d="M6.61873 16.8233C6.50974 16.729 6.35857 16.6748 6.20388 16.6748C6.04978 16.6748 5.89919 16.729 5.78962 16.8233C5.68064 16.9176 5.61853 17.0484 5.61853 17.1817C5.61853 17.3156 5.68064 17.4458 5.78962 17.5401C5.89919 17.6349 6.04978 17.6887 6.20388 17.6887C6.35857 17.6887 6.50974 17.6349 6.61873 17.5401C6.72771 17.4458 6.78982 17.3156 6.78982 17.1817C6.78982 17.0484 6.72771 16.9176 6.61873 16.8233Z" fill="#DD4F24"/>
</svg>
