<svg width="1406" height="377" viewBox="0 0 1406 377" fill="none" xmlns="http://www.w3.org/2000/svg">
<circle cx="961.5" cy="270.5" r="1" transform="rotate(90 961.5 270.5)" fill="#FED671" stroke="#FEE6AA"/>
<circle cx="979.5" cy="270.5" r="1" transform="rotate(90 979.5 270.5)" fill="#FED671" stroke="#FEE6AA"/>
<circle cx="997.5" cy="270.5" r="1" transform="rotate(90 997.5 270.5)" fill="#FED671" stroke="#FEE6AA"/>
<circle cx="1015.5" cy="270.5" r="1" transform="rotate(90 1015.5 270.5)" fill="#FED671" stroke="#FEE6AA"/>
<circle cx="1033.5" cy="270.5" r="1" transform="rotate(90 1033.5 270.5)" fill="#FED671" stroke="#FEE6AA"/>
<circle cx="1051.5" cy="270.5" r="1" transform="rotate(90 1051.5 270.5)" fill="#FED671" stroke="#FEE6AA"/>
<circle cx="1069.5" cy="270.5" r="1" transform="rotate(90 1069.5 270.5)" fill="#FED671" stroke="#FEE6AA"/>
<circle cx="1087.5" cy="270.5" r="1" transform="rotate(90 1087.5 270.5)" fill="#FED671" stroke="#FEE6AA"/>
<circle cx="1105.5" cy="270.5" r="1" transform="rotate(90 1105.5 270.5)" fill="#FED671" stroke="#FEE6AA"/>
<circle cx="1123.5" cy="270.5" r="1" transform="rotate(90 1123.5 270.5)" fill="#FED671" stroke="#FEE6AA"/>
<circle cx="1141.5" cy="270.5" r="1" transform="rotate(90 1141.5 270.5)" fill="#FED671" stroke="#FEE6AA"/>
<circle cx="1159.5" cy="270.5" r="1" transform="rotate(90 1159.5 270.5)" fill="#FED671" stroke="#FEE6AA"/>
<circle cx="961.5" cy="285.5" r="1" transform="rotate(90 961.5 285.5)" fill="#FED671" stroke="#FEE6AA"/>
<circle cx="979.5" cy="285.5" r="1" transform="rotate(90 979.5 285.5)" fill="#FED671" stroke="#FEE6AA"/>
<circle cx="997.5" cy="285.5" r="1" transform="rotate(90 997.5 285.5)" fill="#FED671" stroke="#FEE6AA"/>
<circle cx="1015.5" cy="285.5" r="1" transform="rotate(90 1015.5 285.5)" fill="#FED671" stroke="#FEE6AA"/>
<circle cx="1033.5" cy="285.5" r="1" transform="rotate(90 1033.5 285.5)" fill="#FED671" stroke="#FEE6AA"/>
<circle cx="1051.5" cy="285.5" r="1" transform="rotate(90 1051.5 285.5)" fill="#FED671" stroke="#FEE6AA"/>
<circle cx="1069.5" cy="285.5" r="1" transform="rotate(90 1069.5 285.5)" fill="#FED671" stroke="#FEE6AA"/>
<circle cx="1087.5" cy="285.5" r="1" transform="rotate(90 1087.5 285.5)" fill="#FED671" stroke="#FEE6AA"/>
<circle cx="1105.5" cy="285.5" r="1" transform="rotate(90 1105.5 285.5)" fill="#FED671" stroke="#FEE6AA"/>
<circle cx="1123.5" cy="285.5" r="1" transform="rotate(90 1123.5 285.5)" fill="#FED671" stroke="#FEE6AA"/>
<circle cx="1141.5" cy="285.5" r="1" transform="rotate(90 1141.5 285.5)" fill="#FED671" stroke="#FEE6AA"/>
<circle cx="1159.5" cy="285.5" r="1" transform="rotate(90 1159.5 285.5)" fill="#FED671" stroke="#FEE6AA"/>
<circle cx="961.5" cy="300.5" r="1" transform="rotate(90 961.5 300.5)" fill="#FED671" stroke="#FEE6AA"/>
<circle cx="979.5" cy="300.5" r="1" transform="rotate(90 979.5 300.5)" fill="#FED671" stroke="#FEE6AA"/>
<circle cx="997.5" cy="300.5" r="1" transform="rotate(90 997.5 300.5)" fill="#FED671" stroke="#FEE6AA"/>
<circle cx="1015.5" cy="300.5" r="1" transform="rotate(90 1015.5 300.5)" fill="#FED671" stroke="#FEE6AA"/>
<circle cx="1033.5" cy="300.5" r="1" transform="rotate(90 1033.5 300.5)" fill="#FED671" stroke="#FEE6AA"/>
<circle cx="1051.5" cy="300.5" r="1" transform="rotate(90 1051.5 300.5)" fill="#FED671" stroke="#FEE6AA"/>
<circle cx="1069.5" cy="300.5" r="1" transform="rotate(90 1069.5 300.5)" fill="#FED671" stroke="#FEE6AA"/>
<circle cx="1087.5" cy="300.5" r="1" transform="rotate(90 1087.5 300.5)" fill="#FED671" stroke="#FEE6AA"/>
<circle cx="1105.5" cy="300.5" r="1" transform="rotate(90 1105.5 300.5)" fill="#FED671" stroke="#FEE6AA"/>
<circle cx="1123.5" cy="300.5" r="1" transform="rotate(90 1123.5 300.5)" fill="#FED671" stroke="#FEE6AA"/>
<circle cx="1141.5" cy="300.5" r="1" transform="rotate(90 1141.5 300.5)" fill="#FED671" stroke="#FEE6AA"/>
<circle cx="1159.5" cy="300.5" r="1" transform="rotate(90 1159.5 300.5)" fill="#FED671" stroke="#FEE6AA"/>
<circle cx="961.5" cy="315.5" r="1" transform="rotate(90 961.5 315.5)" fill="#FED671" stroke="#FEE6AA"/>
<circle cx="979.5" cy="315.5" r="1" transform="rotate(90 979.5 315.5)" fill="#FED671" stroke="#FEE6AA"/>
<circle cx="997.5" cy="315.5" r="1" transform="rotate(90 997.5 315.5)" fill="#FED671" stroke="#FEE6AA"/>
<circle cx="1015.5" cy="315.5" r="1" transform="rotate(90 1015.5 315.5)" fill="#FED671" stroke="#FEE6AA"/>
<circle cx="1033.5" cy="315.5" r="1" transform="rotate(90 1033.5 315.5)" fill="#FED671" stroke="#FEE6AA"/>
<circle cx="1051.5" cy="315.5" r="1" transform="rotate(90 1051.5 315.5)" fill="#FED671" stroke="#FEE6AA"/>
<circle cx="1069.5" cy="315.5" r="1" transform="rotate(90 1069.5 315.5)" fill="#FED671" stroke="#FEE6AA"/>
<circle cx="1087.5" cy="315.5" r="1" transform="rotate(90 1087.5 315.5)" fill="#FED671" stroke="#FEE6AA"/>
<circle cx="1105.5" cy="315.5" r="1" transform="rotate(90 1105.5 315.5)" fill="#FED671" stroke="#FEE6AA"/>
<circle cx="1123.5" cy="315.5" r="1" transform="rotate(90 1123.5 315.5)" fill="#FED671" stroke="#FEE6AA"/>
<circle cx="1141.5" cy="315.5" r="1" transform="rotate(90 1141.5 315.5)" fill="#FED671" stroke="#FEE6AA"/>
<circle cx="1159.5" cy="315.5" r="1" transform="rotate(90 1159.5 315.5)" fill="#FED671" stroke="#FEE6AA"/>
<circle cx="961.5" cy="330.5" r="1" transform="rotate(90 961.5 330.5)" fill="#FED671" stroke="#FEE6AA"/>
<circle cx="979.5" cy="330.5" r="1" transform="rotate(90 979.5 330.5)" fill="#FED671" stroke="#FEE6AA"/>
<circle cx="997.5" cy="330.5" r="1" transform="rotate(90 997.5 330.5)" fill="#FED671" stroke="#FEE6AA"/>
<circle cx="1015.5" cy="330.5" r="1" transform="rotate(90 1015.5 330.5)" fill="#FED671" stroke="#FEE6AA"/>
<circle cx="1033.5" cy="330.5" r="1" transform="rotate(90 1033.5 330.5)" fill="#FED671" stroke="#FEE6AA"/>
<circle cx="1051.5" cy="330.5" r="1" transform="rotate(90 1051.5 330.5)" fill="#FED671" stroke="#FEE6AA"/>
<circle cx="1069.5" cy="330.5" r="1" transform="rotate(90 1069.5 330.5)" fill="#FED671" stroke="#FEE6AA"/>
<circle cx="1087.5" cy="330.5" r="1" transform="rotate(90 1087.5 330.5)" fill="#FED671" stroke="#FEE6AA"/>
<circle cx="1105.5" cy="330.5" r="1" transform="rotate(90 1105.5 330.5)" fill="#FED671" stroke="#FEE6AA"/>
<circle cx="1123.5" cy="330.5" r="1" transform="rotate(90 1123.5 330.5)" fill="#FED671" stroke="#FEE6AA"/>
<circle cx="1141.5" cy="330.5" r="1" transform="rotate(90 1141.5 330.5)" fill="#FED671" stroke="#FEE6AA"/>
<circle cx="1159.5" cy="330.5" r="1" transform="rotate(90 1159.5 330.5)" fill="#FED671" stroke="#FEE6AA"/>
<circle cx="961.5" cy="345.5" r="1" transform="rotate(90 961.5 345.5)" fill="#FED671" stroke="#FEE6AA"/>
<circle cx="979.5" cy="345.5" r="1" transform="rotate(90 979.5 345.5)" fill="#FED671" stroke="#FEE6AA"/>
<circle cx="997.5" cy="345.5" r="1" transform="rotate(90 997.5 345.5)" fill="#FED671" stroke="#FEE6AA"/>
<circle cx="1015.5" cy="345.5" r="1" transform="rotate(90 1015.5 345.5)" fill="#FED671" stroke="#FEE6AA"/>
<circle cx="1033.5" cy="345.5" r="1" transform="rotate(90 1033.5 345.5)" fill="#FED671" stroke="#FEE6AA"/>
<circle cx="1051.5" cy="345.5" r="1" transform="rotate(90 1051.5 345.5)" fill="#FED671" stroke="#FEE6AA"/>
<circle cx="1069.5" cy="345.5" r="1" transform="rotate(90 1069.5 345.5)" fill="#FED671" stroke="#FEE6AA"/>
<circle cx="1087.5" cy="345.5" r="1" transform="rotate(90 1087.5 345.5)" fill="#FED671" stroke="#FEE6AA"/>
<circle cx="1105.5" cy="345.5" r="1" transform="rotate(90 1105.5 345.5)" fill="#FED671" stroke="#FEE6AA"/>
<circle cx="1123.5" cy="345.5" r="1" transform="rotate(90 1123.5 345.5)" fill="#FED671" stroke="#FEE6AA"/>
<circle cx="1141.5" cy="345.5" r="1" transform="rotate(90 1141.5 345.5)" fill="#FED671" stroke="#FEE6AA"/>
<circle cx="1159.5" cy="345.5" r="1" transform="rotate(90 1159.5 345.5)" fill="#FED671" stroke="#FEE6AA"/>
<circle cx="961.5" cy="360.5" r="1" transform="rotate(90 961.5 360.5)" fill="#FED671" stroke="#FEE6AA"/>
<circle cx="979.5" cy="360.5" r="1" transform="rotate(90 979.5 360.5)" fill="#FED671" stroke="#FEE6AA"/>
<circle cx="997.5" cy="360.5" r="1" transform="rotate(90 997.5 360.5)" fill="#FED671" stroke="#FEE6AA"/>
<circle cx="1015.5" cy="360.5" r="1" transform="rotate(90 1015.5 360.5)" fill="#FED671" stroke="#FEE6AA"/>
<circle cx="1033.5" cy="360.5" r="1" transform="rotate(90 1033.5 360.5)" fill="#FED671" stroke="#FEE6AA"/>
<circle cx="1051.5" cy="360.5" r="1" transform="rotate(90 1051.5 360.5)" fill="#FED671" stroke="#FEE6AA"/>
<circle cx="1069.5" cy="360.5" r="1" transform="rotate(90 1069.5 360.5)" fill="#FED671" stroke="#FEE6AA"/>
<circle cx="1087.5" cy="360.5" r="1" transform="rotate(90 1087.5 360.5)" fill="#FED671" stroke="#FEE6AA"/>
<circle cx="1105.5" cy="360.5" r="1" transform="rotate(90 1105.5 360.5)" fill="#FED671" stroke="#FEE6AA"/>
<circle cx="1123.5" cy="360.5" r="1" transform="rotate(90 1123.5 360.5)" fill="#FED671" stroke="#FEE6AA"/>
<circle cx="1141.5" cy="360.5" r="1" transform="rotate(90 1141.5 360.5)" fill="#FED671" stroke="#FEE6AA"/>
<circle cx="1159.5" cy="360.5" r="1" transform="rotate(90 1159.5 360.5)" fill="#FED671" stroke="#FEE6AA"/>
<circle cx="961.5" cy="375.5" r="1" transform="rotate(90 961.5 375.5)" fill="#FED671" stroke="#FEE6AA"/>
<circle cx="979.5" cy="375.5" r="1" transform="rotate(90 979.5 375.5)" fill="#FED671" stroke="#FEE6AA"/>
<circle cx="997.5" cy="375.5" r="1" transform="rotate(90 997.5 375.5)" fill="#FED671" stroke="#FEE6AA"/>
<circle cx="1015.5" cy="375.5" r="1" transform="rotate(90 1015.5 375.5)" fill="#FED671" stroke="#FEE6AA"/>
<circle cx="1033.5" cy="375.5" r="1" transform="rotate(90 1033.5 375.5)" fill="#FED671" stroke="#FEE6AA"/>
<circle cx="1051.5" cy="375.5" r="1" transform="rotate(90 1051.5 375.5)" fill="#FED671" stroke="#FEE6AA"/>
<circle cx="1069.5" cy="375.5" r="1" transform="rotate(90 1069.5 375.5)" fill="#FED671" stroke="#FEE6AA"/>
<circle cx="1087.5" cy="375.5" r="1" transform="rotate(90 1087.5 375.5)" fill="#FED671" stroke="#FEE6AA"/>
<circle cx="1105.5" cy="375.5" r="1" transform="rotate(90 1105.5 375.5)" fill="#FED671" stroke="#FEE6AA"/>
<circle cx="1123.5" cy="375.5" r="1" transform="rotate(90 1123.5 375.5)" fill="#FED671" stroke="#FEE6AA"/>
<circle cx="1141.5" cy="375.5" r="1" transform="rotate(90 1141.5 375.5)" fill="#FED671" stroke="#FEE6AA"/>
<circle cx="1159.5" cy="375.5" r="1" transform="rotate(90 1159.5 375.5)" fill="#FED671" stroke="#FEE6AA"/>
<circle cx="745.5" cy="270.5" r="1" transform="rotate(90 745.5 270.5)" fill="#FED671" stroke="#FEE6AA"/>
<circle cx="763.5" cy="270.5" r="1" transform="rotate(90 763.5 270.5)" fill="#FED671" stroke="#FEE6AA"/>
<circle cx="781.5" cy="270.5" r="1" transform="rotate(90 781.5 270.5)" fill="#FED671" stroke="#FEE6AA"/>
<circle cx="799.5" cy="270.5" r="1" transform="rotate(90 799.5 270.5)" fill="#FED671" stroke="#FEE6AA"/>
<circle cx="817.5" cy="270.5" r="1" transform="rotate(90 817.5 270.5)" fill="#FED671" stroke="#FEE6AA"/>
<circle cx="835.5" cy="270.5" r="1" transform="rotate(90 835.5 270.5)" fill="#FED671" stroke="#FEE6AA"/>
<circle cx="853.5" cy="270.5" r="1" transform="rotate(90 853.5 270.5)" fill="#FED671" stroke="#FEE6AA"/>
<circle cx="871.5" cy="270.5" r="1" transform="rotate(90 871.5 270.5)" fill="#FED671" stroke="#FEE6AA"/>
<circle cx="889.5" cy="270.5" r="1" transform="rotate(90 889.5 270.5)" fill="#FED671" stroke="#FEE6AA"/>
<circle cx="907.5" cy="270.5" r="1" transform="rotate(90 907.5 270.5)" fill="#FED671" stroke="#FEE6AA"/>
<circle cx="925.5" cy="270.5" r="1" transform="rotate(90 925.5 270.5)" fill="#FED671" stroke="#FEE6AA"/>
<circle cx="943.5" cy="270.5" r="1" transform="rotate(90 943.5 270.5)" fill="#FED671" stroke="#FEE6AA"/>
<circle cx="745.5" cy="285.5" r="1" transform="rotate(90 745.5 285.5)" fill="#FED671" stroke="#FEE6AA"/>
<circle cx="763.5" cy="285.5" r="1" transform="rotate(90 763.5 285.5)" fill="#FED671" stroke="#FEE6AA"/>
<circle cx="781.5" cy="285.5" r="1" transform="rotate(90 781.5 285.5)" fill="#FED671" stroke="#FEE6AA"/>
<circle cx="799.5" cy="285.5" r="1" transform="rotate(90 799.5 285.5)" fill="#FED671" stroke="#FEE6AA"/>
<circle cx="817.5" cy="285.5" r="1" transform="rotate(90 817.5 285.5)" fill="#FED671" stroke="#FEE6AA"/>
<circle cx="835.5" cy="285.5" r="1" transform="rotate(90 835.5 285.5)" fill="#FED671" stroke="#FEE6AA"/>
<circle cx="853.5" cy="285.5" r="1" transform="rotate(90 853.5 285.5)" fill="#FED671" stroke="#FEE6AA"/>
<circle cx="871.5" cy="285.5" r="1" transform="rotate(90 871.5 285.5)" fill="#FED671" stroke="#FEE6AA"/>
<circle cx="889.5" cy="285.5" r="1" transform="rotate(90 889.5 285.5)" fill="#FED671" stroke="#FEE6AA"/>
<circle cx="907.5" cy="285.5" r="1" transform="rotate(90 907.5 285.5)" fill="#FED671" stroke="#FEE6AA"/>
<circle cx="925.5" cy="285.5" r="1" transform="rotate(90 925.5 285.5)" fill="#FED671" stroke="#FEE6AA"/>
<circle cx="943.5" cy="285.5" r="1" transform="rotate(90 943.5 285.5)" fill="#FED671" stroke="#FEE6AA"/>
<circle cx="745.5" cy="300.5" r="1" transform="rotate(90 745.5 300.5)" fill="#FED671" stroke="#FEE6AA"/>
<circle cx="763.5" cy="300.5" r="1" transform="rotate(90 763.5 300.5)" fill="#FED671" stroke="#FEE6AA"/>
<circle cx="781.5" cy="300.5" r="1" transform="rotate(90 781.5 300.5)" fill="#FED671" stroke="#FEE6AA"/>
<circle cx="799.5" cy="300.5" r="1" transform="rotate(90 799.5 300.5)" fill="#FED671" stroke="#FEE6AA"/>
<circle cx="817.5" cy="300.5" r="1" transform="rotate(90 817.5 300.5)" fill="#FED671" stroke="#FEE6AA"/>
<circle cx="835.5" cy="300.5" r="1" transform="rotate(90 835.5 300.5)" fill="#FED671" stroke="#FEE6AA"/>
<circle cx="853.5" cy="300.5" r="1" transform="rotate(90 853.5 300.5)" fill="#FED671" stroke="#FEE6AA"/>
<circle cx="871.5" cy="300.5" r="1" transform="rotate(90 871.5 300.5)" fill="#FED671" stroke="#FEE6AA"/>
<circle cx="889.5" cy="300.5" r="1" transform="rotate(90 889.5 300.5)" fill="#FED671" stroke="#FEE6AA"/>
<circle cx="907.5" cy="300.5" r="1" transform="rotate(90 907.5 300.5)" fill="#FED671" stroke="#FEE6AA"/>
<circle cx="925.5" cy="300.5" r="1" transform="rotate(90 925.5 300.5)" fill="#FED671" stroke="#FEE6AA"/>
<circle cx="943.5" cy="300.5" r="1" transform="rotate(90 943.5 300.5)" fill="#FED671" stroke="#FEE6AA"/>
<circle cx="745.5" cy="315.5" r="1" transform="rotate(90 745.5 315.5)" fill="#FED671" stroke="#FEE6AA"/>
<circle cx="763.5" cy="315.5" r="1" transform="rotate(90 763.5 315.5)" fill="#FED671" stroke="#FEE6AA"/>
<circle cx="781.5" cy="315.5" r="1" transform="rotate(90 781.5 315.5)" fill="#FED671" stroke="#FEE6AA"/>
<circle cx="799.5" cy="315.5" r="1" transform="rotate(90 799.5 315.5)" fill="#FED671" stroke="#FEE6AA"/>
<circle cx="817.5" cy="315.5" r="1" transform="rotate(90 817.5 315.5)" fill="#FED671" stroke="#FEE6AA"/>
<circle cx="835.5" cy="315.5" r="1" transform="rotate(90 835.5 315.5)" fill="#FED671" stroke="#FEE6AA"/>
<circle cx="853.5" cy="315.5" r="1" transform="rotate(90 853.5 315.5)" fill="#FED671" stroke="#FEE6AA"/>
<circle cx="871.5" cy="315.5" r="1" transform="rotate(90 871.5 315.5)" fill="#FED671" stroke="#FEE6AA"/>
<circle cx="889.5" cy="315.5" r="1" transform="rotate(90 889.5 315.5)" fill="#FED671" stroke="#FEE6AA"/>
<circle cx="907.5" cy="315.5" r="1" transform="rotate(90 907.5 315.5)" fill="#FED671" stroke="#FEE6AA"/>
<circle cx="925.5" cy="315.5" r="1" transform="rotate(90 925.5 315.5)" fill="#FED671" stroke="#FEE6AA"/>
<circle cx="943.5" cy="315.5" r="1" transform="rotate(90 943.5 315.5)" fill="#FED671" stroke="#FEE6AA"/>
<circle cx="745.5" cy="330.5" r="1" transform="rotate(90 745.5 330.5)" fill="#FED671" stroke="#FEE6AA"/>
<circle cx="763.5" cy="330.5" r="1" transform="rotate(90 763.5 330.5)" fill="#FED671" stroke="#FEE6AA"/>
<circle cx="781.5" cy="330.5" r="1" transform="rotate(90 781.5 330.5)" fill="#FED671" stroke="#FEE6AA"/>
<circle cx="799.5" cy="330.5" r="1" transform="rotate(90 799.5 330.5)" fill="#FED671" stroke="#FEE6AA"/>
<circle cx="817.5" cy="330.5" r="1" transform="rotate(90 817.5 330.5)" fill="#FED671" stroke="#FEE6AA"/>
<circle cx="835.5" cy="330.5" r="1" transform="rotate(90 835.5 330.5)" fill="#FED671" stroke="#FEE6AA"/>
<circle cx="853.5" cy="330.5" r="1" transform="rotate(90 853.5 330.5)" fill="#FED671" stroke="#FEE6AA"/>
<circle cx="871.5" cy="330.5" r="1" transform="rotate(90 871.5 330.5)" fill="#FED671" stroke="#FEE6AA"/>
<circle cx="889.5" cy="330.5" r="1" transform="rotate(90 889.5 330.5)" fill="#FED671" stroke="#FEE6AA"/>
<circle cx="907.5" cy="330.5" r="1" transform="rotate(90 907.5 330.5)" fill="#FED671" stroke="#FEE6AA"/>
<circle cx="925.5" cy="330.5" r="1" transform="rotate(90 925.5 330.5)" fill="#FED671" stroke="#FEE6AA"/>
<circle cx="943.5" cy="330.5" r="1" transform="rotate(90 943.5 330.5)" fill="#FED671" stroke="#FEE6AA"/>
<circle cx="745.5" cy="345.5" r="1" transform="rotate(90 745.5 345.5)" fill="#FED671" stroke="#FEE6AA"/>
<circle cx="763.5" cy="345.5" r="1" transform="rotate(90 763.5 345.5)" fill="#FED671" stroke="#FEE6AA"/>
<circle cx="781.5" cy="345.5" r="1" transform="rotate(90 781.5 345.5)" fill="#FED671" stroke="#FEE6AA"/>
<circle cx="799.5" cy="345.5" r="1" transform="rotate(90 799.5 345.5)" fill="#FED671" stroke="#FEE6AA"/>
<circle cx="817.5" cy="345.5" r="1" transform="rotate(90 817.5 345.5)" fill="#FED671" stroke="#FEE6AA"/>
<circle cx="835.5" cy="345.5" r="1" transform="rotate(90 835.5 345.5)" fill="#FED671" stroke="#FEE6AA"/>
<circle cx="853.5" cy="345.5" r="1" transform="rotate(90 853.5 345.5)" fill="#FED671" stroke="#FEE6AA"/>
<circle cx="871.5" cy="345.5" r="1" transform="rotate(90 871.5 345.5)" fill="#FED671" stroke="#FEE6AA"/>
<circle cx="889.5" cy="345.5" r="1" transform="rotate(90 889.5 345.5)" fill="#FED671" stroke="#FEE6AA"/>
<circle cx="907.5" cy="345.5" r="1" transform="rotate(90 907.5 345.5)" fill="#FED671" stroke="#FEE6AA"/>
<circle cx="925.5" cy="345.5" r="1" transform="rotate(90 925.5 345.5)" fill="#FED671" stroke="#FEE6AA"/>
<circle cx="943.5" cy="345.5" r="1" transform="rotate(90 943.5 345.5)" fill="#FED671" stroke="#FEE6AA"/>
<circle cx="745.5" cy="360.5" r="1" transform="rotate(90 745.5 360.5)" fill="#FED671" stroke="#FEE6AA"/>
<circle cx="763.5" cy="360.5" r="1" transform="rotate(90 763.5 360.5)" fill="#FED671" stroke="#FEE6AA"/>
<circle cx="781.5" cy="360.5" r="1" transform="rotate(90 781.5 360.5)" fill="#FED671" stroke="#FEE6AA"/>
<circle cx="799.5" cy="360.5" r="1" transform="rotate(90 799.5 360.5)" fill="#FED671" stroke="#FEE6AA"/>
<circle cx="817.5" cy="360.5" r="1" transform="rotate(90 817.5 360.5)" fill="#FED671" stroke="#FEE6AA"/>
<circle cx="835.5" cy="360.5" r="1" transform="rotate(90 835.5 360.5)" fill="#FED671" stroke="#FEE6AA"/>
<circle cx="853.5" cy="360.5" r="1" transform="rotate(90 853.5 360.5)" fill="#FED671" stroke="#FEE6AA"/>
<circle cx="871.5" cy="360.5" r="1" transform="rotate(90 871.5 360.5)" fill="#FED671" stroke="#FEE6AA"/>
<circle cx="889.5" cy="360.5" r="1" transform="rotate(90 889.5 360.5)" fill="#FED671" stroke="#FEE6AA"/>
<circle cx="907.5" cy="360.5" r="1" transform="rotate(90 907.5 360.5)" fill="#FED671" stroke="#FEE6AA"/>
<circle cx="925.5" cy="360.5" r="1" transform="rotate(90 925.5 360.5)" fill="#FED671" stroke="#FEE6AA"/>
<circle cx="943.5" cy="360.5" r="1" transform="rotate(90 943.5 360.5)" fill="#FED671" stroke="#FEE6AA"/>
<circle cx="745.5" cy="375.5" r="1" transform="rotate(90 745.5 375.5)" fill="#FED671" stroke="#FEE6AA"/>
<circle cx="763.5" cy="375.5" r="1" transform="rotate(90 763.5 375.5)" fill="#FED671" stroke="#FEE6AA"/>
<circle cx="781.5" cy="375.5" r="1" transform="rotate(90 781.5 375.5)" fill="#FED671" stroke="#FEE6AA"/>
<circle cx="799.5" cy="375.5" r="1" transform="rotate(90 799.5 375.5)" fill="#FED671" stroke="#FEE6AA"/>
<circle cx="817.5" cy="375.5" r="1" transform="rotate(90 817.5 375.5)" fill="#FED671" stroke="#FEE6AA"/>
<circle cx="835.5" cy="375.5" r="1" transform="rotate(90 835.5 375.5)" fill="#FED671" stroke="#FEE6AA"/>
<circle cx="853.5" cy="375.5" r="1" transform="rotate(90 853.5 375.5)" fill="#FED671" stroke="#FEE6AA"/>
<circle cx="871.5" cy="375.5" r="1" transform="rotate(90 871.5 375.5)" fill="#FED671" stroke="#FEE6AA"/>
<circle cx="889.5" cy="375.5" r="1" transform="rotate(90 889.5 375.5)" fill="#FED671" stroke="#FEE6AA"/>
<circle cx="907.5" cy="375.5" r="1" transform="rotate(90 907.5 375.5)" fill="#FED671" stroke="#FEE6AA"/>
<circle cx="925.5" cy="375.5" r="1" transform="rotate(90 925.5 375.5)" fill="#FED671" stroke="#FEE6AA"/>
<circle cx="943.5" cy="375.5" r="1" transform="rotate(90 943.5 375.5)" fill="#FED671" stroke="#FEE6AA"/>
<circle cx="529.5" cy="270.5" r="1" transform="rotate(90 529.5 270.5)" fill="#FED671" stroke="#FEE6AA"/>
<circle cx="547.5" cy="270.5" r="1" transform="rotate(90 547.5 270.5)" fill="#FED671" stroke="#FEE6AA"/>
<circle cx="565.5" cy="270.5" r="1" transform="rotate(90 565.5 270.5)" fill="#FED671" stroke="#FEE6AA"/>
<circle cx="583.5" cy="270.5" r="1" transform="rotate(90 583.5 270.5)" fill="#FED671" stroke="#FEE6AA"/>
<circle cx="601.5" cy="270.5" r="1" transform="rotate(90 601.5 270.5)" fill="#FED671" stroke="#FEE6AA"/>
<circle cx="619.5" cy="270.5" r="1" transform="rotate(90 619.5 270.5)" fill="#FED671" stroke="#FEE6AA"/>
<circle cx="637.5" cy="270.5" r="1" transform="rotate(90 637.5 270.5)" fill="#FED671" stroke="#FEE6AA"/>
<circle cx="655.5" cy="270.5" r="1" transform="rotate(90 655.5 270.5)" fill="#FED671" stroke="#FEE6AA"/>
<circle cx="673.5" cy="270.5" r="1" transform="rotate(90 673.5 270.5)" fill="#FED671" stroke="#FEE6AA"/>
<circle cx="691.5" cy="270.5" r="1" transform="rotate(90 691.5 270.5)" fill="#FED671" stroke="#FEE6AA"/>
<circle cx="709.5" cy="270.5" r="1" transform="rotate(90 709.5 270.5)" fill="#FED671" stroke="#FEE6AA"/>
<circle cx="727.5" cy="270.5" r="1" transform="rotate(90 727.5 270.5)" fill="#FED671" stroke="#FEE6AA"/>
<circle cx="529.5" cy="285.5" r="1" transform="rotate(90 529.5 285.5)" fill="#FED671" stroke="#FEE6AA"/>
<circle cx="547.5" cy="285.5" r="1" transform="rotate(90 547.5 285.5)" fill="#FED671" stroke="#FEE6AA"/>
<circle cx="565.5" cy="285.5" r="1" transform="rotate(90 565.5 285.5)" fill="#FED671" stroke="#FEE6AA"/>
<circle cx="583.5" cy="285.5" r="1" transform="rotate(90 583.5 285.5)" fill="#FED671" stroke="#FEE6AA"/>
<circle cx="601.5" cy="285.5" r="1" transform="rotate(90 601.5 285.5)" fill="#FED671" stroke="#FEE6AA"/>
<circle cx="619.5" cy="285.5" r="1" transform="rotate(90 619.5 285.5)" fill="#FED671" stroke="#FEE6AA"/>
<circle cx="637.5" cy="285.5" r="1" transform="rotate(90 637.5 285.5)" fill="#FED671" stroke="#FEE6AA"/>
<circle cx="655.5" cy="285.5" r="1" transform="rotate(90 655.5 285.5)" fill="#FED671" stroke="#FEE6AA"/>
<circle cx="673.5" cy="285.5" r="1" transform="rotate(90 673.5 285.5)" fill="#FED671" stroke="#FEE6AA"/>
<circle cx="691.5" cy="285.5" r="1" transform="rotate(90 691.5 285.5)" fill="#FED671" stroke="#FEE6AA"/>
<circle cx="709.5" cy="285.5" r="1" transform="rotate(90 709.5 285.5)" fill="#FED671" stroke="#FEE6AA"/>
<circle cx="727.5" cy="285.5" r="1" transform="rotate(90 727.5 285.5)" fill="#FED671" stroke="#FEE6AA"/>
<circle cx="529.5" cy="300.5" r="1" transform="rotate(90 529.5 300.5)" fill="#FED671" stroke="#FEE6AA"/>
<circle cx="547.5" cy="300.5" r="1" transform="rotate(90 547.5 300.5)" fill="#FED671" stroke="#FEE6AA"/>
<circle cx="565.5" cy="300.5" r="1" transform="rotate(90 565.5 300.5)" fill="#FED671" stroke="#FEE6AA"/>
<circle cx="583.5" cy="300.5" r="1" transform="rotate(90 583.5 300.5)" fill="#FED671" stroke="#FEE6AA"/>
<circle cx="601.5" cy="300.5" r="1" transform="rotate(90 601.5 300.5)" fill="#FED671" stroke="#FEE6AA"/>
<circle cx="619.5" cy="300.5" r="1" transform="rotate(90 619.5 300.5)" fill="#FED671" stroke="#FEE6AA"/>
<circle cx="637.5" cy="300.5" r="1" transform="rotate(90 637.5 300.5)" fill="#FED671" stroke="#FEE6AA"/>
<circle cx="655.5" cy="300.5" r="1" transform="rotate(90 655.5 300.5)" fill="#FED671" stroke="#FEE6AA"/>
<circle cx="673.5" cy="300.5" r="1" transform="rotate(90 673.5 300.5)" fill="#FED671" stroke="#FEE6AA"/>
<circle cx="691.5" cy="300.5" r="1" transform="rotate(90 691.5 300.5)" fill="#FED671" stroke="#FEE6AA"/>
<circle cx="709.5" cy="300.5" r="1" transform="rotate(90 709.5 300.5)" fill="#FED671" stroke="#FEE6AA"/>
<circle cx="727.5" cy="300.5" r="1" transform="rotate(90 727.5 300.5)" fill="#FED671" stroke="#FEE6AA"/>
<circle cx="529.5" cy="315.5" r="1" transform="rotate(90 529.5 315.5)" fill="#FED671" stroke="#FEE6AA"/>
<circle cx="547.5" cy="315.5" r="1" transform="rotate(90 547.5 315.5)" fill="#FED671" stroke="#FEE6AA"/>
<circle cx="565.5" cy="315.5" r="1" transform="rotate(90 565.5 315.5)" fill="#FED671" stroke="#FEE6AA"/>
<circle cx="583.5" cy="315.5" r="1" transform="rotate(90 583.5 315.5)" fill="#FED671" stroke="#FEE6AA"/>
<circle cx="601.5" cy="315.5" r="1" transform="rotate(90 601.5 315.5)" fill="#FED671" stroke="#FEE6AA"/>
<circle cx="619.5" cy="315.5" r="1" transform="rotate(90 619.5 315.5)" fill="#FED671" stroke="#FEE6AA"/>
<circle cx="637.5" cy="315.5" r="1" transform="rotate(90 637.5 315.5)" fill="#FED671" stroke="#FEE6AA"/>
<circle cx="655.5" cy="315.5" r="1" transform="rotate(90 655.5 315.5)" fill="#FED671" stroke="#FEE6AA"/>
<circle cx="673.5" cy="315.5" r="1" transform="rotate(90 673.5 315.5)" fill="#FED671" stroke="#FEE6AA"/>
<circle cx="691.5" cy="315.5" r="1" transform="rotate(90 691.5 315.5)" fill="#FED671" stroke="#FEE6AA"/>
<circle cx="709.5" cy="315.5" r="1" transform="rotate(90 709.5 315.5)" fill="#FED671" stroke="#FEE6AA"/>
<circle cx="727.5" cy="315.5" r="1" transform="rotate(90 727.5 315.5)" fill="#FED671" stroke="#FEE6AA"/>
<circle cx="529.5" cy="330.5" r="1" transform="rotate(90 529.5 330.5)" fill="#FED671" stroke="#FEE6AA"/>
<circle cx="547.5" cy="330.5" r="1" transform="rotate(90 547.5 330.5)" fill="#FED671" stroke="#FEE6AA"/>
<circle cx="565.5" cy="330.5" r="1" transform="rotate(90 565.5 330.5)" fill="#FED671" stroke="#FEE6AA"/>
<circle cx="583.5" cy="330.5" r="1" transform="rotate(90 583.5 330.5)" fill="#FED671" stroke="#FEE6AA"/>
<circle cx="601.5" cy="330.5" r="1" transform="rotate(90 601.5 330.5)" fill="#FED671" stroke="#FEE6AA"/>
<circle cx="619.5" cy="330.5" r="1" transform="rotate(90 619.5 330.5)" fill="#FED671" stroke="#FEE6AA"/>
<circle cx="637.5" cy="330.5" r="1" transform="rotate(90 637.5 330.5)" fill="#FED671" stroke="#FEE6AA"/>
<circle cx="655.5" cy="330.5" r="1" transform="rotate(90 655.5 330.5)" fill="#FED671" stroke="#FEE6AA"/>
<circle cx="673.5" cy="330.5" r="1" transform="rotate(90 673.5 330.5)" fill="#FED671" stroke="#FEE6AA"/>
<circle cx="691.5" cy="330.5" r="1" transform="rotate(90 691.5 330.5)" fill="#FED671" stroke="#FEE6AA"/>
<circle cx="709.5" cy="330.5" r="1" transform="rotate(90 709.5 330.5)" fill="#FED671" stroke="#FEE6AA"/>
<circle cx="727.5" cy="330.5" r="1" transform="rotate(90 727.5 330.5)" fill="#FED671" stroke="#FEE6AA"/>
<circle cx="529.5" cy="345.5" r="1" transform="rotate(90 529.5 345.5)" fill="#FED671" stroke="#FEE6AA"/>
<circle cx="547.5" cy="345.5" r="1" transform="rotate(90 547.5 345.5)" fill="#FED671" stroke="#FEE6AA"/>
<circle cx="565.5" cy="345.5" r="1" transform="rotate(90 565.5 345.5)" fill="#FED671" stroke="#FEE6AA"/>
<circle cx="583.5" cy="345.5" r="1" transform="rotate(90 583.5 345.5)" fill="#FED671" stroke="#FEE6AA"/>
<circle cx="601.5" cy="345.5" r="1" transform="rotate(90 601.5 345.5)" fill="#FED671" stroke="#FEE6AA"/>
<circle cx="619.5" cy="345.5" r="1" transform="rotate(90 619.5 345.5)" fill="#FED671" stroke="#FEE6AA"/>
<circle cx="637.5" cy="345.5" r="1" transform="rotate(90 637.5 345.5)" fill="#FED671" stroke="#FEE6AA"/>
<circle cx="655.5" cy="345.5" r="1" transform="rotate(90 655.5 345.5)" fill="#FED671" stroke="#FEE6AA"/>
<circle cx="673.5" cy="345.5" r="1" transform="rotate(90 673.5 345.5)" fill="#FED671" stroke="#FEE6AA"/>
<circle cx="691.5" cy="345.5" r="1" transform="rotate(90 691.5 345.5)" fill="#FED671" stroke="#FEE6AA"/>
<circle cx="709.5" cy="345.5" r="1" transform="rotate(90 709.5 345.5)" fill="#FED671" stroke="#FEE6AA"/>
<circle cx="727.5" cy="345.5" r="1" transform="rotate(90 727.5 345.5)" fill="#FED671" stroke="#FEE6AA"/>
<circle cx="529.5" cy="360.5" r="1" transform="rotate(90 529.5 360.5)" fill="#FED671" stroke="#FEE6AA"/>
<circle cx="547.5" cy="360.5" r="1" transform="rotate(90 547.5 360.5)" fill="#FED671" stroke="#FEE6AA"/>
<circle cx="565.5" cy="360.5" r="1" transform="rotate(90 565.5 360.5)" fill="#FED671" stroke="#FEE6AA"/>
<circle cx="583.5" cy="360.5" r="1" transform="rotate(90 583.5 360.5)" fill="#FED671" stroke="#FEE6AA"/>
<circle cx="601.5" cy="360.5" r="1" transform="rotate(90 601.5 360.5)" fill="#FED671" stroke="#FEE6AA"/>
<circle cx="619.5" cy="360.5" r="1" transform="rotate(90 619.5 360.5)" fill="#FED671" stroke="#FEE6AA"/>
<circle cx="637.5" cy="360.5" r="1" transform="rotate(90 637.5 360.5)" fill="#FED671" stroke="#FEE6AA"/>
<circle cx="655.5" cy="360.5" r="1" transform="rotate(90 655.5 360.5)" fill="#FED671" stroke="#FEE6AA"/>
<circle cx="673.5" cy="360.5" r="1" transform="rotate(90 673.5 360.5)" fill="#FED671" stroke="#FEE6AA"/>
<circle cx="691.5" cy="360.5" r="1" transform="rotate(90 691.5 360.5)" fill="#FED671" stroke="#FEE6AA"/>
<circle cx="709.5" cy="360.5" r="1" transform="rotate(90 709.5 360.5)" fill="#FED671" stroke="#FEE6AA"/>
<circle cx="727.5" cy="360.5" r="1" transform="rotate(90 727.5 360.5)" fill="#FED671" stroke="#FEE6AA"/>
<circle cx="529.5" cy="375.5" r="1" transform="rotate(90 529.5 375.5)" fill="#FED671" stroke="#FEE6AA"/>
<circle cx="547.5" cy="375.5" r="1" transform="rotate(90 547.5 375.5)" fill="#FED671" stroke="#FEE6AA"/>
<circle cx="565.5" cy="375.5" r="1" transform="rotate(90 565.5 375.5)" fill="#FED671" stroke="#FEE6AA"/>
<circle cx="583.5" cy="375.5" r="1" transform="rotate(90 583.5 375.5)" fill="#FED671" stroke="#FEE6AA"/>
<circle cx="601.5" cy="375.5" r="1" transform="rotate(90 601.5 375.5)" fill="#FED671" stroke="#FEE6AA"/>
<circle cx="619.5" cy="375.5" r="1" transform="rotate(90 619.5 375.5)" fill="#FED671" stroke="#FEE6AA"/>
<circle cx="637.5" cy="375.5" r="1" transform="rotate(90 637.5 375.5)" fill="#FED671" stroke="#FEE6AA"/>
<circle cx="655.5" cy="375.5" r="1" transform="rotate(90 655.5 375.5)" fill="#FED671" stroke="#FEE6AA"/>
<circle cx="673.5" cy="375.5" r="1" transform="rotate(90 673.5 375.5)" fill="#FED671" stroke="#FEE6AA"/>
<circle cx="691.5" cy="375.5" r="1" transform="rotate(90 691.5 375.5)" fill="#FED671" stroke="#FEE6AA"/>
<circle cx="709.5" cy="375.5" r="1" transform="rotate(90 709.5 375.5)" fill="#FED671" stroke="#FEE6AA"/>
<circle cx="727.5" cy="375.5" r="1" transform="rotate(90 727.5 375.5)" fill="#FED671" stroke="#FEE6AA"/>
<circle cx="313.5" cy="270.5" r="1" transform="rotate(90 313.5 270.5)" fill="#FED671" stroke="#FEE6AA"/>
<circle cx="331.5" cy="270.5" r="1" transform="rotate(90 331.5 270.5)" fill="#FED671" stroke="#FEE6AA"/>
<circle cx="349.5" cy="270.5" r="1" transform="rotate(90 349.5 270.5)" fill="#FED671" stroke="#FEE6AA"/>
<circle cx="367.5" cy="270.5" r="1" transform="rotate(90 367.5 270.5)" fill="#FED671" stroke="#FEE6AA"/>
<circle cx="385.5" cy="270.5" r="1" transform="rotate(90 385.5 270.5)" fill="#FED671" stroke="#FEE6AA"/>
<circle cx="403.5" cy="270.5" r="1" transform="rotate(90 403.5 270.5)" fill="#FED671" stroke="#FEE6AA"/>
<circle cx="421.5" cy="270.5" r="1" transform="rotate(90 421.5 270.5)" fill="#FED671" stroke="#FEE6AA"/>
<circle cx="439.5" cy="270.5" r="1" transform="rotate(90 439.5 270.5)" fill="#FED671" stroke="#FEE6AA"/>
<circle cx="457.5" cy="270.5" r="1" transform="rotate(90 457.5 270.5)" fill="#FED671" stroke="#FEE6AA"/>
<circle cx="475.5" cy="270.5" r="1" transform="rotate(90 475.5 270.5)" fill="#FED671" stroke="#FEE6AA"/>
<circle cx="493.5" cy="270.5" r="1" transform="rotate(90 493.5 270.5)" fill="#FED671" stroke="#FEE6AA"/>
<circle cx="511.5" cy="270.5" r="1" transform="rotate(90 511.5 270.5)" fill="#FED671" stroke="#FEE6AA"/>
<circle cx="313.5" cy="285.5" r="1" transform="rotate(90 313.5 285.5)" fill="#FED671" stroke="#FEE6AA"/>
<circle cx="331.5" cy="285.5" r="1" transform="rotate(90 331.5 285.5)" fill="#FED671" stroke="#FEE6AA"/>
<circle cx="349.5" cy="285.5" r="1" transform="rotate(90 349.5 285.5)" fill="#FED671" stroke="#FEE6AA"/>
<circle cx="367.5" cy="285.5" r="1" transform="rotate(90 367.5 285.5)" fill="#FED671" stroke="#FEE6AA"/>
<circle cx="385.5" cy="285.5" r="1" transform="rotate(90 385.5 285.5)" fill="#FED671" stroke="#FEE6AA"/>
<circle cx="403.5" cy="285.5" r="1" transform="rotate(90 403.5 285.5)" fill="#FED671" stroke="#FEE6AA"/>
<circle cx="421.5" cy="285.5" r="1" transform="rotate(90 421.5 285.5)" fill="#FED671" stroke="#FEE6AA"/>
<circle cx="439.5" cy="285.5" r="1" transform="rotate(90 439.5 285.5)" fill="#FED671" stroke="#FEE6AA"/>
<circle cx="457.5" cy="285.5" r="1" transform="rotate(90 457.5 285.5)" fill="#FED671" stroke="#FEE6AA"/>
<circle cx="475.5" cy="285.5" r="1" transform="rotate(90 475.5 285.5)" fill="#FED671" stroke="#FEE6AA"/>
<circle cx="493.5" cy="285.5" r="1" transform="rotate(90 493.5 285.5)" fill="#FED671" stroke="#FEE6AA"/>
<circle cx="511.5" cy="285.5" r="1" transform="rotate(90 511.5 285.5)" fill="#FED671" stroke="#FEE6AA"/>
<circle cx="313.5" cy="300.5" r="1" transform="rotate(90 313.5 300.5)" fill="#FED671" stroke="#FEE6AA"/>
<circle cx="331.5" cy="300.5" r="1" transform="rotate(90 331.5 300.5)" fill="#FED671" stroke="#FEE6AA"/>
<circle cx="349.5" cy="300.5" r="1" transform="rotate(90 349.5 300.5)" fill="#FED671" stroke="#FEE6AA"/>
<circle cx="367.5" cy="300.5" r="1" transform="rotate(90 367.5 300.5)" fill="#FED671" stroke="#FEE6AA"/>
<circle cx="385.5" cy="300.5" r="1" transform="rotate(90 385.5 300.5)" fill="#FED671" stroke="#FEE6AA"/>
<circle cx="403.5" cy="300.5" r="1" transform="rotate(90 403.5 300.5)" fill="#FED671" stroke="#FEE6AA"/>
<circle cx="421.5" cy="300.5" r="1" transform="rotate(90 421.5 300.5)" fill="#FED671" stroke="#FEE6AA"/>
<circle cx="439.5" cy="300.5" r="1" transform="rotate(90 439.5 300.5)" fill="#FED671" stroke="#FEE6AA"/>
<circle cx="457.5" cy="300.5" r="1" transform="rotate(90 457.5 300.5)" fill="#FED671" stroke="#FEE6AA"/>
<circle cx="475.5" cy="300.5" r="1" transform="rotate(90 475.5 300.5)" fill="#FED671" stroke="#FEE6AA"/>
<circle cx="493.5" cy="300.5" r="1" transform="rotate(90 493.5 300.5)" fill="#FED671" stroke="#FEE6AA"/>
<circle cx="511.5" cy="300.5" r="1" transform="rotate(90 511.5 300.5)" fill="#FED671" stroke="#FEE6AA"/>
<circle cx="313.5" cy="315.5" r="1" transform="rotate(90 313.5 315.5)" fill="#FED671" stroke="#FEE6AA"/>
<circle cx="331.5" cy="315.5" r="1" transform="rotate(90 331.5 315.5)" fill="#FED671" stroke="#FEE6AA"/>
<circle cx="349.5" cy="315.5" r="1" transform="rotate(90 349.5 315.5)" fill="#FED671" stroke="#FEE6AA"/>
<circle cx="367.5" cy="315.5" r="1" transform="rotate(90 367.5 315.5)" fill="#FED671" stroke="#FEE6AA"/>
<circle cx="385.5" cy="315.5" r="1" transform="rotate(90 385.5 315.5)" fill="#FED671" stroke="#FEE6AA"/>
<circle cx="403.5" cy="315.5" r="1" transform="rotate(90 403.5 315.5)" fill="#FED671" stroke="#FEE6AA"/>
<circle cx="421.5" cy="315.5" r="1" transform="rotate(90 421.5 315.5)" fill="#FED671" stroke="#FEE6AA"/>
<circle cx="439.5" cy="315.5" r="1" transform="rotate(90 439.5 315.5)" fill="#FED671" stroke="#FEE6AA"/>
<circle cx="457.5" cy="315.5" r="1" transform="rotate(90 457.5 315.5)" fill="#FED671" stroke="#FEE6AA"/>
<circle cx="475.5" cy="315.5" r="1" transform="rotate(90 475.5 315.5)" fill="#FED671" stroke="#FEE6AA"/>
<circle cx="493.5" cy="315.5" r="1" transform="rotate(90 493.5 315.5)" fill="#FED671" stroke="#FEE6AA"/>
<circle cx="511.5" cy="315.5" r="1" transform="rotate(90 511.5 315.5)" fill="#FED671" stroke="#FEE6AA"/>
<circle cx="313.5" cy="330.5" r="1" transform="rotate(90 313.5 330.5)" fill="#FED671" stroke="#FEE6AA"/>
<circle cx="331.5" cy="330.5" r="1" transform="rotate(90 331.5 330.5)" fill="#FED671" stroke="#FEE6AA"/>
<circle cx="349.5" cy="330.5" r="1" transform="rotate(90 349.5 330.5)" fill="#FED671" stroke="#FEE6AA"/>
<circle cx="367.5" cy="330.5" r="1" transform="rotate(90 367.5 330.5)" fill="#FED671" stroke="#FEE6AA"/>
<circle cx="385.5" cy="330.5" r="1" transform="rotate(90 385.5 330.5)" fill="#FED671" stroke="#FEE6AA"/>
<circle cx="403.5" cy="330.5" r="1" transform="rotate(90 403.5 330.5)" fill="#FED671" stroke="#FEE6AA"/>
<circle cx="421.5" cy="330.5" r="1" transform="rotate(90 421.5 330.5)" fill="#FED671" stroke="#FEE6AA"/>
<circle cx="439.5" cy="330.5" r="1" transform="rotate(90 439.5 330.5)" fill="#FED671" stroke="#FEE6AA"/>
<circle cx="457.5" cy="330.5" r="1" transform="rotate(90 457.5 330.5)" fill="#FED671" stroke="#FEE6AA"/>
<circle cx="475.5" cy="330.5" r="1" transform="rotate(90 475.5 330.5)" fill="#FED671" stroke="#FEE6AA"/>
<circle cx="493.5" cy="330.5" r="1" transform="rotate(90 493.5 330.5)" fill="#FED671" stroke="#FEE6AA"/>
<circle cx="511.5" cy="330.5" r="1" transform="rotate(90 511.5 330.5)" fill="#FED671" stroke="#FEE6AA"/>
<circle cx="313.5" cy="345.5" r="1" transform="rotate(90 313.5 345.5)" fill="#FED671" stroke="#FEE6AA"/>
<circle cx="331.5" cy="345.5" r="1" transform="rotate(90 331.5 345.5)" fill="#FED671" stroke="#FEE6AA"/>
<circle cx="349.5" cy="345.5" r="1" transform="rotate(90 349.5 345.5)" fill="#FED671" stroke="#FEE6AA"/>
<circle cx="367.5" cy="345.5" r="1" transform="rotate(90 367.5 345.5)" fill="#FED671" stroke="#FEE6AA"/>
<circle cx="385.5" cy="345.5" r="1" transform="rotate(90 385.5 345.5)" fill="#FED671" stroke="#FEE6AA"/>
<circle cx="403.5" cy="345.5" r="1" transform="rotate(90 403.5 345.5)" fill="#FED671" stroke="#FEE6AA"/>
<circle cx="421.5" cy="345.5" r="1" transform="rotate(90 421.5 345.5)" fill="#FED671" stroke="#FEE6AA"/>
<circle cx="439.5" cy="345.5" r="1" transform="rotate(90 439.5 345.5)" fill="#FED671" stroke="#FEE6AA"/>
<circle cx="457.5" cy="345.5" r="1" transform="rotate(90 457.5 345.5)" fill="#FED671" stroke="#FEE6AA"/>
<circle cx="475.5" cy="345.5" r="1" transform="rotate(90 475.5 345.5)" fill="#FED671" stroke="#FEE6AA"/>
<circle cx="493.5" cy="345.5" r="1" transform="rotate(90 493.5 345.5)" fill="#FED671" stroke="#FEE6AA"/>
<circle cx="511.5" cy="345.5" r="1" transform="rotate(90 511.5 345.5)" fill="#FED671" stroke="#FEE6AA"/>
<circle cx="313.5" cy="360.5" r="1" transform="rotate(90 313.5 360.5)" fill="#FED671" stroke="#FEE6AA"/>
<circle cx="331.5" cy="360.5" r="1" transform="rotate(90 331.5 360.5)" fill="#FED671" stroke="#FEE6AA"/>
<circle cx="349.5" cy="360.5" r="1" transform="rotate(90 349.5 360.5)" fill="#FED671" stroke="#FEE6AA"/>
<circle cx="367.5" cy="360.5" r="1" transform="rotate(90 367.5 360.5)" fill="#FED671" stroke="#FEE6AA"/>
<circle cx="385.5" cy="360.5" r="1" transform="rotate(90 385.5 360.5)" fill="#FED671" stroke="#FEE6AA"/>
<circle cx="403.5" cy="360.5" r="1" transform="rotate(90 403.5 360.5)" fill="#FED671" stroke="#FEE6AA"/>
<circle cx="421.5" cy="360.5" r="1" transform="rotate(90 421.5 360.5)" fill="#FED671" stroke="#FEE6AA"/>
<circle cx="439.5" cy="360.5" r="1" transform="rotate(90 439.5 360.5)" fill="#FED671" stroke="#FEE6AA"/>
<circle cx="457.5" cy="360.5" r="1" transform="rotate(90 457.5 360.5)" fill="#FED671" stroke="#FEE6AA"/>
<circle cx="475.5" cy="360.5" r="1" transform="rotate(90 475.5 360.5)" fill="#FED671" stroke="#FEE6AA"/>
<circle cx="493.5" cy="360.5" r="1" transform="rotate(90 493.5 360.5)" fill="#FED671" stroke="#FEE6AA"/>
<circle cx="511.5" cy="360.5" r="1" transform="rotate(90 511.5 360.5)" fill="#FED671" stroke="#FEE6AA"/>
<circle cx="313.5" cy="375.5" r="1" transform="rotate(90 313.5 375.5)" fill="#FED671" stroke="#FEE6AA"/>
<circle cx="331.5" cy="375.5" r="1" transform="rotate(90 331.5 375.5)" fill="#FED671" stroke="#FEE6AA"/>
<circle cx="349.5" cy="375.5" r="1" transform="rotate(90 349.5 375.5)" fill="#FED671" stroke="#FEE6AA"/>
<circle cx="367.5" cy="375.5" r="1" transform="rotate(90 367.5 375.5)" fill="#FED671" stroke="#FEE6AA"/>
<circle cx="385.5" cy="375.5" r="1" transform="rotate(90 385.5 375.5)" fill="#FED671" stroke="#FEE6AA"/>
<circle cx="403.5" cy="375.5" r="1" transform="rotate(90 403.5 375.5)" fill="#FED671" stroke="#FEE6AA"/>
<circle cx="421.5" cy="375.5" r="1" transform="rotate(90 421.5 375.5)" fill="#FED671" stroke="#FEE6AA"/>
<circle cx="439.5" cy="375.5" r="1" transform="rotate(90 439.5 375.5)" fill="#FED671" stroke="#FEE6AA"/>
<circle cx="457.5" cy="375.5" r="1" transform="rotate(90 457.5 375.5)" fill="#FED671" stroke="#FEE6AA"/>
<circle cx="475.5" cy="375.5" r="1" transform="rotate(90 475.5 375.5)" fill="#FED671" stroke="#FEE6AA"/>
<circle cx="493.5" cy="375.5" r="1" transform="rotate(90 493.5 375.5)" fill="#FED671" stroke="#FEE6AA"/>
<circle cx="511.5" cy="375.5" r="1" transform="rotate(90 511.5 375.5)" fill="#FED671" stroke="#FEE6AA"/>
<path d="M1365.29 194.659C1365.22 199.881 1364.98 205.732 1364.45 211.897L1379.48 193.139L1379.59 193.433C1378.36 189.199 1376.54 185.161 1374.18 181.436L1374.3 181.712L1365.29 194.659Z" fill="#57B894"/>
<path d="M1365.3 193.742L1374.03 181.201C1371.52 177.419 1368.51 174.49 1365.08 172.704C1364.9 172.611 1364.72 172.524 1364.54 172.438C1364.68 173.852 1365.41 182.155 1365.3 193.742Z" fill="#57B894"/>
<path d="M1381.36 230.149C1381.73 227.962 1382.02 225.78 1382.22 223.603L1359.55 241.42L1359.52 241.263C1359.18 242.548 1358.82 243.812 1358.45 245.053L1381.31 229.802L1381.36 230.149Z" fill="#57B894"/>
<path d="M1362.14 229.422L1382.43 210.605L1382.51 210.93C1382.25 205.112 1381.3 199.345 1379.68 193.75L1364.36 212.865C1363.83 218.64 1363.09 224.16 1362.14 229.422Z" fill="#57B894"/>
<path d="M1363.98 212.54L1336.83 185.551L1336.95 185.221C1334.75 188.737 1332.91 192.465 1331.45 196.351L1362.34 225.663C1363.08 221.082 1363.6 216.656 1363.98 212.54Z" fill="#57B894"/>
<path d="M1361.64 229.764C1361.84 228.645 1362.04 227.533 1362.22 226.428L1331.22 197.008L1331.33 196.676C1330.82 198.045 1330.34 199.458 1329.89 200.915L1330 200.582L1361.64 229.764Z" fill="#57B894"/>
<path d="M1359.71 240.516L1382.2 222.846L1382.26 223.184C1382.62 219.237 1382.71 215.271 1382.53 211.312L1361.96 230.385C1361.31 233.89 1360.56 237.267 1359.71 240.516Z" fill="#57B894"/>
<path d="M1327.73 228.565L1353.16 258.055C1354.88 254.186 1356.37 250.218 1357.62 246.171L1327.03 217.528C1326.96 221.334 1327.15 225.14 1327.59 228.921L1327.73 228.565Z" fill="#57B894"/>
<path d="M1364.11 172.438L1364.32 172.331C1358.98 169.863 1353.39 170.484 1348.18 173.601L1364.88 193.745C1364.99 181.209 1364.12 172.562 1364.11 172.438Z" fill="#57B894"/>
<path d="M1357.81 247.162C1356.65 250.805 1355.31 254.382 1353.77 257.878L1376.83 244.192L1376.88 244.533C1378.49 241.402 1379.71 238.077 1380.49 234.64C1380.79 233.289 1381.06 231.935 1381.29 230.58L1358.16 246.012C1358.04 246.396 1357.93 246.782 1357.81 247.162Z" fill="#57B894"/>
<path d="M1364.87 194.679L1347.79 174.073L1347.92 173.758C1344.01 176.165 1340.33 179.98 1337.12 184.949L1364.05 211.719C1364.57 205.623 1364.81 199.841 1364.87 194.679Z" fill="#57B894"/>
<path d="M1357.84 245.46C1359.33 240.546 1360.55 235.555 1361.49 230.51L1329.78 201.256C1329.18 203.233 1328.64 205.284 1328.17 207.409C1327.51 210.455 1327.14 213.554 1327.05 216.668L1357.82 245.475L1357.84 245.46Z" fill="#57B894"/>
<path d="M1390.51 277.111C1387.13 281.091 1383.21 285.445 1378.87 289.851L1402.41 284.999L1402.3 285.292C1404.05 281.246 1405.23 276.973 1405.79 272.6L1405.7 272.889L1390.51 277.111Z" fill="#57B894"/>
<path d="M1404.34 260.069C1404.26 259.884 1404.18 259.702 1404.1 259.522C1403.3 260.696 1398.57 267.555 1391.1 276.412L1405.82 272.322C1406.3 267.808 1405.85 263.635 1404.34 260.069Z" fill="#57B894"/>
<path d="M1356.36 309.323C1355.27 310.095 1354.2 310.841 1353.12 311.561L1380.44 314.402L1380.26 314.703C1381.94 313.254 1383.56 311.757 1385.1 310.21L1356.28 309.464L1356.36 309.323Z" fill="#57B894"/>
<path d="M1365.92 301.874L1393.54 300.331L1393.4 300.632C1396.91 295.984 1399.85 290.937 1402.17 285.596L1378.19 290.54C1374.1 294.651 1370.01 298.429 1365.92 301.874Z" fill="#57B894"/>
<path d="M1356.98 308.87L1385.56 309.61L1385.4 309.912C1388.19 307.099 1390.78 304.101 1393.17 300.938L1365.17 302.502C1362.43 304.783 1359.7 306.906 1356.98 308.87Z" fill="#57B894"/>
<path d="M1322.96 324.972C1323.15 324.755 1323.34 324.535 1323.54 324.306C1329.29 323.042 1334.87 321.089 1340.15 318.49L1339.73 297.979C1339.93 297.443 1340.13 296.903 1340.31 296.36L1340.75 318.195C1344.55 316.316 1348.22 314.212 1351.77 311.892L1346.92 273.918C1347.12 273.801 1347.32 273.68 1347.52 273.556L1352.36 311.482L1352.39 311.485C1356.66 308.648 1360.78 305.582 1364.73 302.301L1359.69 264.951C1359.88 264.79 1360.08 264.628 1360.27 264.464L1365.32 301.816C1366.19 301.087 1367.05 300.355 1367.89 299.62L1363.32 261.779C1363.52 261.6 1363.71 261.42 1363.9 261.239L1368.48 299.11C1371.96 296.051 1375.19 292.978 1378.1 290.044L1374.4 251.935L1374.7 251.756C1373.65 252.093 1372.6 252.477 1371.54 252.896C1373.44 250.446 1375.13 247.836 1376.59 245.094L1353.3 258.911C1351.83 262.155 1350.14 265.298 1348.26 268.319C1347.84 268.757 1347.43 269.202 1347.02 269.658L1347.08 270.121C1346.9 270.39 1346.72 270.657 1346.54 270.922L1346.46 270.306C1346.23 270.573 1346 270.845 1345.77 271.118C1348.52 267.2 1350.91 263.032 1352.88 258.668L1327.64 229.394C1327.96 232.114 1328.38 234.846 1328.88 237.55C1326.5 234.142 1323.67 231.07 1320.47 228.417L1320.67 228.643L1316.1 243.742C1317.65 248.73 1319.23 254.368 1320.62 260.397L1329.01 238.219C1329.07 238.554 1329.14 238.889 1329.2 239.223L1320.84 261.344C1322.12 267.001 1323.12 272.479 1323.84 277.779L1334.33 258.976C1334.41 259.233 1334.49 259.489 1334.57 259.742L1323.97 278.748C1324.43 282.285 1324.76 285.728 1324.96 289.078L1337.99 269.641C1338.08 269.881 1338.16 270.116 1338.25 270.347L1325.08 289.989L1325.01 289.849C1325.08 291.177 1325.13 292.488 1325.16 293.783L1340.04 274.938C1340.14 275.182 1340.23 275.408 1340.31 275.614L1325.18 294.786C1325.19 295.187 1325.2 295.591 1325.2 295.989C1325.23 299.81 1325.05 303.629 1324.67 307.43L1326.11 305.786C1325.86 306.406 1325.61 307.018 1325.37 307.621L1324.54 308.556C1324.48 309.122 1324.41 309.683 1324.33 310.241C1324.05 310.964 1323.78 311.67 1323.52 312.358C1323.73 311.065 1323.92 309.764 1324.07 308.455L1291.02 288.42C1300.54 309.164 1317.32 328.449 1318.4 329.673C1319.12 328.114 1319.77 326.519 1320.35 324.889C1320.55 324.859 1320.74 324.826 1320.94 324.794C1320.87 324.989 1320.81 325.186 1320.74 325.38C1320.63 325.397 1320.53 325.416 1320.43 325.432C1320.51 325.451 1320.6 325.471 1320.69 325.491C1320.28 326.633 1319.84 327.748 1319.37 328.838C1320.03 328.17 1321.02 327.138 1322.22 325.803C1329.81 327.279 1350.18 330.191 1367.06 323.166L1340.32 318.947C1334.8 321.669 1328.97 323.692 1322.96 324.972ZM1339.58 290.459L1340.18 289.78L1340.2 290.744L1339.6 291.422L1339.58 290.459Z" fill="#57B894"/>
<path d="M1403.77 259.244L1403.99 259.294C1401.46 253.987 1396.76 250.9 1390.76 249.976L1390.78 276.148C1398.85 266.563 1403.7 259.348 1403.77 259.244Z" fill="#57B894"/>
<path d="M1351.28 312.771C1348.07 314.843 1344.75 316.738 1341.33 318.448L1367.82 322.628L1367.64 322.918C1370.88 321.538 1373.93 319.752 1376.73 317.603C1377.82 316.754 1378.89 315.882 1379.93 314.988L1352.28 312.112C1351.95 312.333 1351.61 312.556 1351.28 312.771Z" fill="#57B894"/>
<path d="M1378.68 289.457C1382.97 285.098 1386.83 280.794 1390.17 276.86L1390.15 250.088L1390.45 249.929C1385.91 249.289 1380.64 249.874 1375.01 251.658L1378.68 289.457Z" fill="#57B894"/>
<path d="M1320.25 228.241C1316.69 225.42 1312.93 223.565 1309.12 222.927C1308.92 222.894 1308.72 222.867 1308.52 222.841C1309.09 224.144 1312.34 231.815 1315.82 242.867L1320.25 228.241Z" fill="#57B894"/>
<path d="M1320.37 261.155L1286.22 243.882L1286.23 243.532C1285.22 247.556 1284.62 251.672 1284.44 255.816L1322.87 274.139C1322.16 269.555 1321.29 265.184 1320.37 261.155Z" fill="#57B894"/>
<path d="M1322.99 274.905L1284.42 256.514L1284.42 256.163C1284.36 257.623 1284.34 259.116 1284.36 260.64L1284.36 260.289L1323.47 278.258C1323.32 277.129 1323.16 276.012 1322.99 274.905Z" fill="#57B894"/>
<path d="M1324.72 295.103L1286.77 277.325C1287.88 280.966 1289.24 284.527 1290.83 287.986L1290.85 287.603L1324.14 307.786C1324.59 303.574 1324.78 299.338 1324.72 295.103Z" fill="#57B894"/>
<path d="M1308.11 222.974L1308.27 222.808C1302.44 222.112 1297.31 224.431 1293.32 229.006L1315.43 243C1311.66 231.043 1308.16 223.088 1308.11 222.974Z" fill="#57B894"/>
<path d="M1315.71 243.891L1293.09 229.577L1293.12 229.236C1290.15 232.734 1287.82 237.503 1286.31 243.219L1320.19 260.351C1318.8 254.392 1317.24 248.82 1315.71 243.891Z" fill="#57B894"/>
<path d="M1324.71 294.36C1324.6 289.227 1324.22 284.104 1323.56 279.012L1284.36 260.999C1284.4 263.065 1284.53 265.181 1284.73 267.35C1285.05 270.449 1285.65 273.512 1286.53 276.502L1324.69 294.381L1324.71 294.36Z" fill="#57B894"/>
<path d="M1292.77 203.433L1178.92 189.074C1173.76 146.129 1181.56 104.203 1194.87 62.5088L1308.71 76.8673C1291.53 117.771 1286.49 159.989 1292.77 203.433Z" fill="#F2F2F2"/>
<path d="M1280.34 86.4397L1210.77 77.665L1209.83 85.1439L1279.4 93.9186L1280.34 86.4397Z" fill="#6C63FF"/>
<path opacity="0.3" d="M1288.99 105.939L1194.69 94.0464L1194.22 97.7858L1288.51 109.679L1288.99 105.939Z" fill="#6C63FF"/>
<path opacity="0.3" d="M1287.46 118.02L1193.17 106.127L1192.7 109.867L1286.99 121.76L1287.46 118.02Z" fill="#6C63FF"/>
<path opacity="0.3" d="M1285.94 130.102L1191.65 118.209L1191.17 121.948L1285.47 133.841L1285.94 130.102Z" fill="#6C63FF"/>
<path opacity="0.3" d="M1284.42 142.183L1190.12 130.29L1189.65 134.029L1283.95 145.922L1284.42 142.183Z" fill="#6C63FF"/>
<path opacity="0.3" d="M1282.9 154.264L1188.6 142.371L1188.13 146.111L1282.43 158.003L1282.9 154.264Z" fill="#6C63FF"/>
<path opacity="0.3" d="M1281.38 166.345L1187.08 154.452L1186.61 158.192L1280.9 170.085L1281.38 166.345Z" fill="#6C63FF"/>
<path opacity="0.3" d="M1279.85 178.427L1185.56 166.534L1185.09 170.273L1279.38 182.166L1279.85 178.427Z" fill="#6C63FF"/>
<path d="M1238.85 161.124L1132.35 118.41C1138.21 75.5556 1156.36 36.9676 1179.78 0L1286.29 42.7144C1259.32 77.9378 1243.77 117.505 1238.85 161.124Z" fill="#E6E6E6"/>
<path d="M1256.42 44.7932L1191.33 18.6899L1188.53 25.6869L1253.62 51.7901L1256.42 44.7932Z" fill="#6C63FF"/>
<path opacity="0.3" d="M1259.85 65.8459L1171.63 30.4663L1170.23 33.9648L1258.45 69.3444L1259.85 65.8459Z" fill="#6C63FF"/>
<path opacity="0.3" d="M1255.32 77.1487L1167.1 41.769L1165.7 45.2675L1253.92 80.6471L1255.32 77.1487Z" fill="#6C63FF"/>
<path opacity="0.3" d="M1250.8 88.4514L1162.58 53.0718L1161.18 56.5702L1249.4 91.9498L1250.8 88.4514Z" fill="#6C63FF"/>
<path opacity="0.3" d="M1246.27 99.7541L1158.05 64.3745L1156.65 67.873L1244.87 103.253L1246.27 99.7541Z" fill="#6C63FF"/>
<path opacity="0.3" d="M1241.74 111.057L1153.52 75.6772L1152.12 79.1757L1240.34 114.555L1241.74 111.057Z" fill="#6C63FF"/>
<path opacity="0.3" d="M1237.21 122.36L1148.99 86.98L1147.59 90.4784L1235.81 125.858L1237.21 122.36Z" fill="#6C63FF"/>
<path opacity="0.3" d="M1232.69 133.662L1144.47 98.2827L1143.06 101.781L1231.28 137.161L1232.69 133.662Z" fill="#6C63FF"/>
<path d="M1212.51 171.411H1097.77C1087.28 129.449 1089.77 86.8764 1097.77 43.8442H1212.51C1200.58 86.5766 1200.86 129.094 1212.51 171.411Z" fill="#F2F2F2"/>
<path d="M1185.57 56.8911H1115.44V64.4292H1185.57V56.8911Z" fill="#6C63FF"/>
<path opacity="0.3" d="M1196.58 75.1562H1101.53V78.9253H1196.58V75.1562Z" fill="#6C63FF"/>
<path opacity="0.3" d="M1196.58 87.333H1101.53V91.102H1196.58V87.333Z" fill="#6C63FF"/>
<path opacity="0.3" d="M1196.58 99.5098H1101.53V103.279H1196.58V99.5098Z" fill="#6C63FF"/>
<path opacity="0.3" d="M1196.58 111.687H1101.53V115.456H1196.58V111.687Z" fill="#6C63FF"/>
<path opacity="0.3" d="M1196.58 123.864H1101.53V127.633H1196.58V123.864Z" fill="#6C63FF"/>
<path opacity="0.3" d="M1196.58 136.041H1101.53V139.81H1196.58V136.041Z" fill="#6C63FF"/>
<path opacity="0.3" d="M1196.58 148.217H1101.53V151.986H1196.58V148.217Z" fill="#6C63FF"/>
<path d="M1135.17 145.944L1095.64 115.194C1095.24 114.506 1094.67 113.934 1093.99 113.537C1093.3 113.139 1092.52 112.93 1091.73 112.93H1070.39C1069.19 112.93 1068.05 113.405 1067.2 114.252C1066.35 115.099 1065.88 116.247 1065.88 117.445V305.864C1065.88 309.748 1067.42 313.473 1070.16 316.219C1072.91 318.966 1076.63 320.509 1080.51 320.509H1299.54C1301.46 320.509 1303.36 320.13 1305.14 319.394C1306.91 318.658 1308.53 317.579 1309.89 316.219C1311.25 314.86 1312.32 313.245 1313.06 311.468C1313.79 309.691 1314.17 307.787 1314.17 305.864V159.256C1314.17 155.725 1312.77 152.34 1310.28 149.843C1307.78 147.347 1304.4 145.944 1300.87 145.944H1135.17Z" fill="#3F3D56"/>
<path d="M1306.72 189.64H1267V203.552H1306.72V189.64Z" fill="#6C63FF"/>
<path d="M996 349.136C996 349.136 1177.7 245.166 1397.1 349.136H996Z" fill="#F2F2F2"/>
<path d="M9.30967 313.69C10.4948 313.524 11.6251 313.085 12.6116 312.407C13.598 311.73 14.4137 310.832 14.9941 309.786C15.5745 308.739 15.9039 307.572 15.9564 306.376C16.0088 305.181 15.7828 303.989 15.2963 302.896C14.8097 301.803 14.0758 300.837 13.1525 300.076C12.2291 299.314 11.1416 298.778 9.97553 298.509C8.80947 298.239 7.59678 298.244 6.43306 298.524C5.26934 298.803 4.18641 299.349 3.26959 300.118L5.30533 303.54L2.04501 301.412C0.820673 303.044 0.294511 305.096 0.582183 307.116C0.67998 307.825 0.877791 308.517 1.16972 309.171C1.8506 310.707 3.01361 311.979 4.48247 312.794C5.95132 313.61 7.64599 313.924 9.30967 313.69Z" fill="#57B894"/>
<path d="M39.1638 350.069C36.991 347.393 38.1273 343.395 39.7246 340.34C41.3219 337.285 43.3582 334.036 42.664 330.66C41.6663 325.807 35.9569 323.909 31.3415 322.108C27.9169 320.772 24.6628 319.034 21.6474 316.931C20.4384 316.088 19.2497 315.167 18.4072 313.958C17.1941 312.216 16.8088 310.046 16.4688 307.951C15.3359 300.971 14.3682 293.968 13.5656 286.94" stroke="#3F3D56" stroke-miterlimit="10"/>
<path d="M9.1108 312.637C10.296 312.47 11.4263 312.031 12.4128 311.354C13.3992 310.676 14.2148 309.778 14.7952 308.732C15.3757 307.685 15.7051 306.518 15.7575 305.323C15.8099 304.127 15.584 302.936 15.0974 301.842C14.6108 300.749 13.8769 299.783 12.9536 299.022C12.0302 298.261 10.9427 297.724 9.77664 297.455C8.61059 297.185 7.3979 297.191 6.23418 297.47C5.07046 297.749 3.98753 298.295 3.07071 299.064L5.1065 302.486L1.84613 300.358C0.621798 301.991 0.0956748 304.042 0.383347 306.062C0.481144 306.772 0.678956 307.463 0.970882 308.117C1.65176 309.653 2.81473 310.925 4.28359 311.741C5.75245 312.556 7.44712 312.871 9.1108 312.637V312.637Z" stroke="#3F3D56" stroke-miterlimit="10"/>
<path d="M5.91242 289.448C5.73122 288.165 5.87575 286.857 6.33274 285.645C6.78973 284.433 7.54445 283.355 8.52735 282.512L10.8623 285.553L10.0421 281.492C11.5001 280.746 13.1576 280.482 14.7753 280.739C16.393 280.996 17.8872 281.76 19.0422 282.922C20.1972 284.083 20.9532 285.582 21.201 287.201C21.4488 288.82 21.1757 290.476 20.421 291.93C19.6664 293.383 18.4692 294.56 17.0024 295.289C15.5356 296.018 13.875 296.262 12.2605 295.986C10.646 295.71 9.161 294.927 8.01997 293.752C6.87893 292.577 6.14087 291.07 5.91238 289.448L5.91242 289.448Z" fill="#57B894"/>
<path d="M5.64691 288.043C5.46571 286.76 5.61024 285.453 6.06723 284.24C6.52421 283.028 7.27893 281.951 8.26183 281.107L10.5967 284.148L9.77657 280.088C11.2346 279.341 12.8921 279.077 14.5098 279.334C16.1275 279.591 17.6217 280.355 18.7767 281.517C19.9317 282.678 20.6877 284.177 20.9355 285.796C21.1833 287.415 20.9102 289.071 20.1555 290.525C19.4008 291.979 18.2037 293.155 16.7369 293.884C15.2701 294.613 13.6095 294.857 11.995 294.581C10.3805 294.305 8.89549 293.523 7.75445 292.347C6.61342 291.172 5.87536 289.665 5.64687 288.043L5.64691 288.043Z" stroke="#3F3D56" stroke-miterlimit="10"/>
<path d="M30.1793 322.812C32.0582 322.547 33.7739 321.6 34.9994 320.151C36.225 318.703 36.8746 316.854 36.8245 314.957C36.7745 313.06 36.0282 311.248 34.728 309.866C33.4278 308.485 31.6645 307.629 29.7743 307.464L30.4046 310.584L28.0431 307.507C28.0361 307.507 28.0291 307.508 28.0222 307.509C27.017 307.65 26.0494 307.988 25.1747 308.503C24.3 309.019 23.5354 309.701 22.9246 310.512C22.3138 311.323 21.8688 312.246 21.6148 313.229C21.3609 314.211 21.3032 315.235 21.4449 316.24C21.5866 317.245 21.9249 318.212 22.4406 319.087C22.9563 319.961 23.6392 320.725 24.4503 321.336C25.2615 321.946 26.1849 322.39 27.1679 322.644C28.1509 322.897 29.1742 322.954 30.1793 322.812L30.1793 322.812Z" fill="#57B894"/>
<path d="M29.8556 321.418C31.7345 321.153 33.4502 320.207 34.6757 318.758C35.9012 317.309 36.5509 315.46 36.5008 313.564C36.4507 311.667 35.7045 309.855 34.4042 308.473C33.104 307.091 31.3408 306.236 29.4505 306.07L30.0809 309.191L27.7194 306.113C27.7123 306.113 27.7054 306.114 27.6985 306.116C26.6932 306.257 25.7256 306.595 24.851 307.11C23.9763 307.625 23.2117 308.307 22.6009 309.118C21.9901 309.929 21.545 310.852 21.2911 311.835C21.0372 312.818 20.9794 313.841 21.1211 314.846C21.2628 315.851 21.6012 316.819 22.1169 317.693C22.6326 318.568 23.3155 319.332 24.1266 319.942C24.9377 320.552 25.8612 320.997 26.8442 321.25C27.8272 321.504 28.8505 321.561 29.8555 321.418L29.8556 321.418Z" stroke="#3F3D56" stroke-miterlimit="10"/>
<path d="M29.0908 337.918C30.1799 339.316 31.7166 340.297 33.4429 340.696C35.1693 341.095 36.9803 340.888 38.5724 340.111C40.1645 339.333 41.4408 338.032 42.1872 336.425C42.9337 334.818 43.1049 333.003 42.6721 331.285C42.2393 329.566 41.2289 328.049 39.8103 326.988C38.3917 325.926 36.6512 325.384 34.8807 325.454C33.1102 325.523 31.4173 326.199 30.086 327.368C28.7547 328.537 27.8659 330.129 27.5688 331.876L33.0394 334.838L27.5947 334.615C27.8216 335.82 28.3347 336.953 29.0908 337.918Z" fill="#57B894"/>
<path d="M28.8918 336.865C29.981 338.262 31.5176 339.243 33.2439 339.642C34.9702 340.041 36.7813 339.835 38.3734 339.057C39.9655 338.279 41.2418 336.978 41.9883 335.371C42.7347 333.764 42.9059 331.949 42.4731 330.231C42.0403 328.513 41.0299 326.996 39.6113 325.934C38.1927 324.872 36.4522 324.331 34.6817 324.4C32.9111 324.469 31.2183 325.145 29.887 326.314C28.5557 327.484 27.6669 329.075 27.3697 330.822L32.8404 333.785L27.3958 333.561C27.6226 334.766 28.1357 335.899 28.8918 336.865V336.865Z" stroke="#3F3D56" stroke-miterlimit="10"/>
<path d="M92.8797 254.42C90.5349 255.272 88.0242 255.568 85.5453 255.285C83.0665 255.001 80.6873 254.146 78.5955 252.786C76.5036 251.426 74.7562 249.599 73.4909 247.449C72.2256 245.299 71.477 242.884 71.3042 240.395C71.1314 237.906 71.539 235.411 72.4949 233.106C73.4509 230.802 74.9291 228.751 76.8129 227.115C78.6968 225.479 80.9349 224.303 83.3507 223.68C85.7666 223.056 88.2942 223.003 90.7343 223.523L90.3311 231.815L94.2541 224.709C98.1044 226.518 101.079 229.781 102.524 233.783C103.037 235.184 103.349 236.651 103.451 238.14C103.698 241.634 102.8 245.114 100.893 248.051C98.9852 250.989 96.1721 253.225 92.8797 254.42Z" fill="#57B894"/>
<path d="M73.4684 350.591C74.8532 343.54 68.8525 337.288 62.9251 333.224C56.9977 329.161 50.0718 325.168 48.0494 318.272C45.1428 308.361 53.8006 299.284 60.5393 291.457C65.5387 285.649 69.8321 279.268 73.3295 272.448C74.7313 269.714 76.0198 266.856 76.3888 263.805C76.9201 259.412 75.5086 255.04 74.0867 250.85C69.3499 236.89 64.2854 223.048 58.8932 209.322" stroke="#3F3D56" stroke-miterlimit="10"/>
<path d="M92.2161 252.285C89.8713 253.138 87.3605 253.434 84.8817 253.151C82.4028 252.867 80.0237 252.012 77.9319 250.652C75.84 249.292 74.0926 247.465 72.8273 245.315C71.562 243.165 70.8133 240.75 70.6405 238.261C70.4677 235.772 70.8754 233.277 71.8313 230.972C72.7873 228.667 74.2655 226.616 76.1493 224.981C78.0332 223.345 80.2713 222.169 82.6871 221.546C85.103 220.922 87.6306 220.869 90.0707 221.389L89.6674 229.681L93.5905 222.574C97.4408 224.383 100.415 227.647 101.86 231.648C102.373 233.05 102.685 234.517 102.787 236.006C103.035 239.5 102.137 242.979 100.229 245.917C98.3216 248.854 95.5085 251.09 92.2161 252.285V252.285Z" stroke="#3F3D56" stroke-miterlimit="10"/>
<path d="M75.4373 206.459C74.5171 203.92 72.9727 201.653 70.9464 199.868C68.92 198.082 66.4768 196.836 63.8421 196.243L62.5156 204.126L60.0565 195.847C56.642 195.897 53.3319 197.032 50.6042 199.086C47.8765 201.141 45.8724 204.009 44.881 207.277C43.8896 210.544 43.9623 214.043 45.0887 217.266C46.2151 220.49 48.3369 223.272 51.1476 225.212C53.9584 227.151 57.3128 228.147 60.7264 228.055C64.14 227.964 67.4362 226.79 70.1392 224.703C72.8422 222.616 74.8121 219.725 75.7644 216.445C76.7167 213.166 76.6022 209.669 75.4374 206.459H75.4373Z" fill="#57B894"/>
<path d="M74.5529 203.612C73.6327 201.073 72.0883 198.806 70.062 197.021C68.0356 195.236 65.5924 193.989 62.9577 193.396L61.6312 201.279L59.1721 193C55.7576 193.051 52.4476 194.185 49.7199 196.24C46.9922 198.294 44.988 201.162 43.9966 204.43C43.0052 207.698 43.0779 211.196 44.2043 214.42C45.3307 217.643 47.4525 220.426 50.2632 222.365C53.074 224.304 56.4284 225.3 59.842 225.209C63.2556 225.117 66.5518 223.943 69.2548 221.857C71.9578 219.77 73.9277 216.878 74.88 213.599C75.8323 210.319 75.7178 206.822 74.553 203.612H74.5529Z" stroke="#3F3D56" stroke-miterlimit="10"/>
<path d="M63.3674 291.617C59.6487 292.966 55.5637 292.9 51.891 291.43C48.2183 289.961 45.2147 287.191 43.4527 283.65C41.6907 280.108 41.2936 276.042 42.3369 272.226C43.3803 268.411 45.7911 265.112 49.1101 262.96L50.9997 269.322L52.3396 261.346C52.3529 261.34 52.3666 261.335 52.3807 261.331C54.3696 260.608 56.4816 260.284 58.5958 260.378C60.71 260.471 62.785 260.981 64.7023 261.876C66.6197 262.772 68.3416 264.037 69.7699 265.599C71.1982 267.16 72.3048 268.988 73.0265 270.977C73.7482 272.967 74.0708 275.079 73.9759 277.193C73.881 279.307 73.3705 281.382 72.4735 283.299C71.5765 285.215 70.3106 286.937 68.7482 288.364C67.1857 289.791 65.3573 290.897 63.3675 291.617H63.3674Z" fill="#57B894"/>
<path d="M62.6009 288.734C58.8822 290.083 54.7972 290.016 51.1245 288.547C47.4518 287.077 44.4482 284.308 42.6862 280.766C40.9242 277.224 40.5271 273.158 41.5704 269.342C42.6137 265.527 45.0246 262.228 48.3436 260.076L50.2332 266.438L51.5731 258.462C51.5864 258.456 51.6001 258.451 51.6141 258.447C53.6031 257.724 55.7151 257.4 57.8293 257.494C59.9435 257.587 62.0185 258.097 63.9358 258.993C65.8531 259.888 67.5751 261.153 69.0034 262.715C70.4317 264.276 71.5383 266.104 72.26 268.094C72.9817 270.083 73.3043 272.195 73.2094 274.309C73.1145 276.423 72.604 278.498 71.707 280.415C70.81 282.332 69.5441 284.053 67.9817 285.48C66.4192 286.908 64.5908 288.013 62.601 288.734H62.6009Z" stroke="#3F3D56" stroke-miterlimit="10"/>
<path d="M80.1389 318.37C79.4995 322.009 77.6285 325.316 74.8399 327.739C72.0512 330.161 68.5143 331.551 64.8225 331.676C61.1306 331.8 57.5083 330.651 54.5629 328.422C51.6176 326.192 49.5283 323.018 48.6456 319.431C47.7629 315.844 48.1404 312.063 49.7148 308.721C51.2891 305.379 53.9647 302.681 57.2926 301.077C60.6206 299.474 64.3985 299.064 67.993 299.916C71.5874 300.767 74.7797 302.829 77.0345 305.755L69.857 316.558L79.6642 310.824C80.4246 313.265 80.5874 315.853 80.1389 318.37Z" fill="#57B894"/>
<path d="M79.4752 316.235C78.8358 319.873 76.9649 323.181 74.1762 325.604C71.3876 328.026 67.8506 329.416 64.1588 329.54C60.4669 329.665 56.8446 328.516 53.8992 326.286C50.9539 324.057 48.8646 320.883 47.9819 317.296C47.0992 313.709 47.4768 309.927 49.0512 306.586C50.6255 303.244 53.3011 300.545 56.629 298.942C59.957 297.339 63.7349 296.929 67.3294 297.781C70.9238 298.632 74.1161 300.694 76.3709 303.62L69.1933 314.423L79.0005 308.689C79.7609 311.13 79.9237 313.718 79.4752 316.235V316.235Z" stroke="#3F3D56" stroke-miterlimit="10"/>
</svg>
