<svg width="148" height="136" viewBox="0 0 148 136" fill="none" xmlns="http://www.w3.org/2000/svg">
<path d="M19.4379 21.351C24.3213 21.351 28.2801 17.3922 28.2801 12.5087C28.2801 7.62531 24.3213 3.6665 19.4379 3.6665C14.5544 3.6665 10.5956 7.62531 10.5956 12.5087C10.5956 17.3922 14.5544 21.351 19.4379 21.351Z" fill="#2F2E41"/>
<path d="M41.0042 64.2679C54.7017 64.2679 65.8056 49.8811 65.8056 32.134C65.8056 14.3869 54.7017 0 41.0042 0C27.3068 0 16.2029 14.3869 16.2029 32.134C16.2029 49.8811 27.3068 64.2679 41.0042 64.2679Z" fill="#2F2E41"/>
<path opacity="0.1" d="M41.0046 54.5628C28.5802 54.5628 18.2901 42.7259 16.4845 27.2812C16.2967 28.8919 16.2027 30.5121 16.2032 32.1337C16.2032 49.8808 27.3072 64.2677 41.0046 64.2677C54.702 64.2677 65.8059 49.8808 65.8059 32.1337C65.8064 30.5121 65.7125 28.8919 65.5246 27.2812C63.719 42.7259 53.4289 54.5628 41.0046 54.5628Z" fill="black"/>
<path d="M91.4722 126.24C90.9396 128.428 88.643 130.181 86.0996 131.406C80.7524 133.981 74.1567 134.749 67.759 135.007C66.127 135.106 64.4896 135.076 62.8623 134.917C59.7089 134.612 56.7507 133.252 54.466 131.057C54.3029 130.951 54.1694 130.805 54.078 130.633C53.9866 130.461 53.9402 130.269 53.9432 130.074C53.9462 129.879 53.9984 129.689 54.0951 129.52C54.1918 129.351 54.3297 129.209 54.496 129.108C57.9019 125.366 63.5857 123.072 69.3113 121.421C73.6528 120.168 81.2241 116.924 85.9593 117.362C90.5457 117.786 92.1447 123.476 91.4722 126.24Z" fill="#3F3D56"/>
<path opacity="0.1" d="M91.4722 126.24C90.9396 128.428 88.643 130.181 86.0996 131.406C80.7524 133.981 74.1567 134.749 67.759 135.007C66.127 135.106 64.4896 135.076 62.8623 134.917C59.7089 134.612 56.7507 133.252 54.466 131.057C54.3029 130.951 54.1694 130.805 54.078 130.633C53.9866 130.461 53.9402 130.269 53.9432 130.074C53.9462 129.879 53.9984 129.689 54.0951 129.52C54.1918 129.351 54.3297 129.209 54.496 129.108C57.9019 125.366 63.5857 123.072 69.3113 121.421C73.6528 120.168 81.2241 116.924 85.9593 117.362C90.5457 117.786 92.1447 123.476 91.4722 126.24Z" fill="black"/>
<path d="M23.4835 109.881C21.8512 113.08 21.5558 116.796 22.662 120.213C23.7871 123.604 25.8931 126.585 28.7134 128.778C35.6321 134.324 45.1542 135.087 54.0209 135.01C61.7917 134.943 69.5516 134.411 77.259 133.418C79.8417 133.189 82.3797 132.599 84.7991 131.667C87.6931 130.415 90.2362 128.118 91.2664 125.138C92.2967 122.158 91.5654 118.509 89.1185 116.52C86.9686 114.772 84.0038 114.532 81.2382 114.366L65.4143 113.415C66.9777 111.833 69.0593 110.938 70.9631 109.788C73.4889 108.262 75.167 105.7 77.0035 103.39C79.8332 100.008 82.912 96.8426 86.214 93.92C86.729 96.8743 88.5979 99.3002 90.7974 101.339C92.9969 103.377 95.5323 105.018 97.8184 106.959C103.355 111.659 107.342 118.039 113.166 122.38C117.171 121.328 120.916 119.458 124.165 116.889L121.902 112.789C121.713 112.367 121.42 112.001 121.049 111.725C120.408 111.331 119.582 111.534 118.838 111.422C116.85 111.124 115.982 108.829 115.202 106.976C113.06 101.889 108.959 97.9428 105.457 93.6771C102.872 90.5282 100.579 87.1507 98.6062 83.5863C97.4297 81.4605 96.3527 79.2471 94.7561 77.4157C93.1596 75.5842 90.9224 74.1443 88.4927 74.1392C86.346 74.1346 84.3659 75.2245 82.5202 76.3208C76.8985 79.66 71.4895 83.3451 66.3245 87.3547C63.6215 89.4531 60.9353 91.6702 57.7645 92.957C56.4298 93.4987 55.0227 93.8689 53.7418 94.528C51.4985 95.6825 49.796 97.6358 47.9632 99.3697C41.4263 105.554 32.4765 109.561 23.4835 109.881Z" fill="#3F3D56"/>
<path d="M56.5711 65.8636C56.4976 67.754 56.0955 69.6171 55.3828 71.3695C55.0215 72.2435 54.4841 73.0337 53.804 73.6908C53.1238 74.348 52.3156 74.8579 51.4297 75.1889C50.1717 75.526 48.853 75.5687 47.5758 75.314C46.462 75.1977 45.3888 74.8321 44.4357 74.2443C42.9519 73.2242 42.2122 71.404 41.9426 69.6226C41.673 67.8433 41.7938 66.0253 41.6213 64.2332C41.4532 62.7856 41.1778 61.3525 40.7974 59.9458C40.681 59.4778 40.5624 59.0119 40.4459 58.5461C40.3316 58.0803 40.2194 57.6144 40.1159 57.1486C40.021 56.7108 39.9326 56.2709 39.8571 55.8287C39.7946 55.4556 39.7385 55.0804 39.6975 54.703C39.6598 53.5841 39.4734 52.4752 39.1433 51.4055C38.8334 50.7117 38.4456 50.0554 37.9873 49.4494C37.7911 49.169 37.6012 48.8887 37.4266 48.5975C36.9213 47.8409 36.6865 46.9358 36.7602 46.029C36.781 45.8888 36.8149 45.7509 36.8616 45.617C36.8788 45.5653 36.8982 45.5136 36.9198 45.4639C37.1138 45.4113 37.292 45.312 37.439 45.1748C37.5859 45.0376 37.6972 44.8667 37.7631 44.6767C37.8372 44.2687 37.8023 43.8484 37.6617 43.4582C37.5005 42.9131 37.28 42.3873 37.0039 41.8903C36.8228 41.5625 36.2081 40.9716 36.2038 40.5963C36.1952 39.8415 37.6703 39.2333 38.2677 38.9357C40.0912 38.0226 42.1245 37.6103 44.1596 37.7409C45.4644 37.8294 46.8792 38.2305 47.5995 39.3239C48.2465 40.3095 48.1602 41.5862 48.4363 42.7314C48.4653 42.8979 48.5358 43.0543 48.6411 43.1865C48.7819 43.3147 48.959 43.3961 49.1479 43.4194C49.4674 43.4829 49.7949 43.496 50.1185 43.4582H50.1206C50.2062 43.4514 50.2911 43.4392 50.3751 43.4215C50.8789 43.3286 51.3552 43.1229 51.7683 42.8198C52.0357 42.7487 52.3053 42.6904 52.577 42.6451C52.588 42.644 52.5988 42.6419 52.6094 42.6387C53.6899 46.0483 53.8301 49.7038 54.7143 53.176C55.1521 54.9035 55.7797 56.6094 55.8681 58.3865C55.8745 58.4641 55.8767 58.5439 55.8789 58.6237C55.8918 59.1952 55.8465 59.771 55.8702 60.3404C55.8785 60.5968 55.9073 60.8521 55.9565 61.1038C56.0532 61.5088 56.1735 61.9077 56.3167 62.2986L56.3231 62.318C56.3641 62.4431 56.4029 62.5704 56.4353 62.6976C56.459 62.7903 56.4806 62.8809 56.4979 62.9736L56.5 62.9801C56.6596 63.9331 56.6836 64.9039 56.5711 65.8636Z" fill="#FBBEBE"/>
<path d="M41.4356 43.5641C48.463 43.5641 54.1598 37.8673 54.1598 30.8399C54.1598 23.8125 48.463 18.1157 41.4356 18.1157C34.4082 18.1157 28.7114 23.8125 28.7114 30.8399C28.7114 37.8673 34.4082 43.5641 41.4356 43.5641Z" fill="#FBBEBE"/>
<path d="M122.219 100.167C121.85 96.6958 120.616 93.3723 118.63 90.5012C118.96 92.4637 119.291 94.4256 119.623 96.3867C119.211 96.5059 118.773 96.5022 118.363 96.3762C117.953 96.2502 117.589 96.0072 117.315 95.6771C116.779 95.0081 116.369 94.2475 116.105 93.4321C114.659 89.8434 112.769 86.4504 110.478 83.3325C102.378 82.6575 94.3704 79.2996 87.247 75.3853C80.1214 71.4731 73.4531 66.7824 66.4225 62.7042C65.2037 61.9675 63.9338 61.3188 62.6225 60.7632C60.4227 59.8811 57.9533 59.424 55.8678 58.3866C55.7277 58.3176 55.5875 58.2443 55.4495 58.1688C54.9783 57.9126 54.5321 57.6129 54.1167 57.2738C53.8921 57.0915 53.6789 56.8955 53.4783 56.6872C52.4378 55.4766 51.6127 54.0965 51.0391 52.6068C49.9199 50.131 49.5209 47.144 48.4038 44.6682C48.9172 44.1884 49.4941 43.7813 50.1183 43.4583H50.1204C50.211 43.4109 50.3016 43.3656 50.3943 43.3225C50.8363 43.1143 51.2961 42.9461 51.7681 42.82C52.0355 42.7488 52.3051 42.6906 52.5768 42.6453C52.5878 42.6442 52.5986 42.642 52.6092 42.6388C53.8693 42.4335 55.1604 42.5356 56.3725 42.9364C58.1453 43.536 59.6398 44.7329 61.1301 45.8652C63.5511 47.5708 65.8733 49.4126 68.0853 51.3818C69.3145 52.5593 70.436 53.8533 71.758 54.923C72.8566 55.7709 74.0148 56.5385 75.2237 57.2199C82.3773 61.4814 89.5316 65.7422 96.6866 70.0023C99.1085 71.4451 101.533 72.8879 103.901 74.4148C107.498 76.7353 110.966 79.25 114.431 81.7624C116.474 83.2419 118.515 84.7221 120.556 86.203C121.226 86.6301 121.814 87.1735 122.292 87.8075C122.715 88.5274 122.978 89.3299 123.062 90.1604C123.575 93.5158 123.286 96.9449 122.219 100.167Z" fill="#FBBEBE"/>
<path d="M59.7262 75.4329C58.8679 79.2825 54.9774 81.6096 52.9436 84.9911C50.416 89.188 51.4469 94.0663 52.3958 98.8735C50.6619 100.368 48.9272 101.863 47.1918 103.357C46.2343 104.179 45.2768 105.005 44.2459 105.732C42.7427 106.739 41.1718 107.641 39.5444 108.432C38.0088 109.221 36.4733 110.011 34.9378 110.802C33.5103 111.604 31.9978 112.245 30.4283 112.713C27.4025 113.489 24.1891 112.946 21.1957 112.046C20.8427 111.954 20.5033 111.815 20.1864 111.634C19.9996 111.523 19.8369 111.376 19.7076 111.201C19.4125 110.672 19.3053 110.058 19.4035 109.46C19.7076 104.423 20.9391 99.4902 22.1662 94.5947C22.8221 91.6577 23.7039 88.7757 24.8037 85.9746C25.8825 83.5744 27.1226 81.2499 28.5154 79.0173C30.0525 76.2081 31.8736 73.5639 33.9501 71.1261C34.961 70.1878 35.8118 69.0908 36.469 67.8782C37.2346 66.1313 36.9392 64.1278 37.0945 62.2256C37.2133 60.7965 37.5926 59.4012 38.2138 58.1086V58.1065C38.546 57.4102 38.9462 56.7485 39.4085 56.131C39.6177 56.6184 39.8269 57.105 40.0361 57.591C40.1741 57.9102 40.3107 58.2287 40.4459 58.5464C40.6227 58.9562 40.7981 59.3645 40.9721 59.7714C41.4746 60.9403 41.9764 62.1085 42.4775 63.2759C43.0189 64.7464 43.7906 66.1215 44.7635 67.3499C45.2082 67.9789 45.8085 68.4818 46.5056 68.8095C47.2028 69.1372 47.973 69.2785 48.7411 69.2196C49.5091 69.1607 50.2488 68.9037 50.8879 68.4735C51.527 68.0434 52.0436 67.4548 52.3872 66.7654C53.1121 65.4785 53.6371 64.0888 53.9443 62.6441C54.3702 60.8849 54.429 59.0569 54.1169 57.274C53.5971 53.8406 52.137 50.334 51.0759 47.1443C50.644 46.0808 50.394 44.9522 50.3363 43.8058C50.3384 43.677 50.3514 43.5485 50.375 43.4219C50.3815 43.3896 50.388 43.355 50.3945 43.3227C50.8365 43.1145 51.2962 42.9464 51.7682 42.8202C52.0357 42.749 52.3052 42.6908 52.577 42.6455C53.5108 47.7007 54.4461 52.7558 55.3828 57.811C55.4044 57.9296 55.4281 58.0482 55.4496 58.169C55.5833 58.8936 55.7192 59.6183 55.8702 60.3408C56.0061 60.9964 56.1527 61.6498 56.3166 62.299L56.3231 62.3184C56.3792 62.5384 56.4374 62.7562 56.4978 62.974L56.4999 62.9805C56.666 63.5757 56.8515 64.1666 57.0606 64.7489C58.3288 68.2578 60.5393 71.7903 59.7262 75.4329Z" fill="#6C63FF"/>
<path d="M111.366 129.532C111.326 130.274 111.469 131.014 111.784 131.686C112.58 133.142 114.491 133.473 116.144 133.609C125.803 134.403 135.52 134.107 145.113 132.726C145.633 132.691 146.138 132.534 146.587 132.269C147.951 131.312 147.11 128.982 145.621 128.236C144.132 127.49 142.365 127.67 140.731 127.347C139.107 126.938 137.561 126.268 136.154 125.362C132.84 123.458 129.575 121.473 126.357 119.407C124.442 118.177 122.182 116.865 120.025 117.594C114.182 119.57 111.327 123.229 111.366 129.532Z" fill="#3F3D56"/>
<path d="M40.1653 56.8791V56.8813C40.1502 56.9718 40.1351 57.0603 40.1157 57.1487C40.092 57.2954 40.064 57.4441 40.0359 57.5908C39.7685 58.9602 39.4407 60.3232 39.0633 61.6776C38.0281 65.4194 36.6414 69.1008 35.2654 72.7282C31.5733 82.4547 27.8804 92.1818 24.1868 101.91C23.2551 104.36 22.3256 106.812 21.2666 109.212C20.913 110.012 20.5485 110.819 20.1862 111.634C18.8879 114.552 17.6413 117.565 17.2273 120.67C16.8412 122.714 16.7967 124.808 17.0957 126.866C17.5098 128.902 18.7456 130.891 20.6801 131.643C21.6247 132.012 22.9768 132.506 22.7181 133.487C22.5779 134.026 21.9654 134.29 21.4154 134.38C20.6892 134.496 19.9464 134.45 19.2398 134.247C18.5331 134.043 17.8799 133.687 17.3265 133.203C16.2934 132.286 15.4998 130.861 14.126 130.707C13.1749 130.604 12.2993 131.173 11.428 131.572C7.8739 133.196 3.73314 132.06 0 130.906C0.293302 129.394 1.8116 128.398 3.31909 128.096C4.82658 127.792 6.38579 128.007 7.92345 127.966C8.41589 127.993 8.90452 127.867 9.32312 127.606C9.69837 127.262 9.96137 126.812 10.0779 126.316C11.0684 123.382 11.8051 120.367 12.2799 117.306C12.7759 114.108 12.983 110.86 13.6903 107.7C14.2403 105.235 15.09 102.848 15.8189 100.428C17.2285 95.446 18.386 90.3959 19.2868 85.2971C19.7423 83.1788 20.0685 81.0347 20.2638 78.8768C20.3867 77.0868 20.3285 75.2882 20.501 73.5046C20.7905 71.1842 21.2747 68.8923 21.9481 66.653C22.6081 64.2095 23.2672 61.7675 23.9258 59.3269C24.9027 55.7145 25.9508 51.9619 28.4267 49.154C29.2866 48.1655 30.3403 47.3641 31.5226 46.7994C32.7049 46.2348 33.9906 45.919 35.2999 45.8716C35.7909 45.871 36.2804 45.9238 36.7599 46.029C36.8397 46.0484 36.9195 46.0678 36.9993 46.0894C37.5219 46.226 38.0233 46.4336 38.4896 46.7062C39.253 46.221 39.6412 46.3913 40.148 47.1397C40.5923 47.9317 40.8018 48.8339 40.7519 49.7406C40.7946 52.1337 40.5981 54.5251 40.1653 56.8791Z" fill="#FBBEBE"/>
<path d="M41.0045 59.7389L40.9721 59.7712L40.7975 59.9459L39.0635 61.6777L38.2138 58.1085L35.3002 45.8717C35.7911 45.8711 36.2807 45.9239 36.7602 46.0291C36.781 45.8889 36.8149 45.751 36.8616 45.6172L36.9996 46.0895L37.9873 49.4495L39.8571 55.8289L40.1655 56.8792V56.8813L41.0045 59.7389Z" fill="#6C63FF"/>
<path d="M52.0076 20.7006C52.0061 21.8336 51.7814 22.9553 51.3462 24.0015C50.911 25.0476 50.2739 25.9978 49.4714 26.7976C49.1807 27.0887 48.8691 27.3582 48.5392 27.6038C47.0509 28.7257 45.2381 29.333 43.3744 29.3339H33.0278C30.7416 29.3303 28.5501 28.4196 26.9347 26.8018C25.3194 25.1839 24.412 22.991 24.412 20.7048C24.412 18.4185 25.3194 16.2257 26.9347 14.6078C28.5501 12.9899 30.7416 12.0792 33.0278 12.0757H43.3744C45.6608 12.0816 47.8519 12.992 49.4694 14.6079C51.0869 16.2239 51.9994 18.4142 52.0076 20.7006Z" fill="#2F2E41"/>
<path d="M61.7083 21.351C66.5918 21.351 70.5506 17.3922 70.5506 12.5087C70.5506 7.62531 66.5918 3.6665 61.7083 3.6665C56.8249 3.6665 52.8661 7.62531 52.8661 12.5087C52.8661 17.3922 56.8249 21.351 61.7083 21.351Z" fill="#2F2E41"/>
<path opacity="0.1" d="M61.4925 3.6665C61.384 3.6665 61.2766 3.67081 61.169 3.67468C63.4564 3.75784 65.6223 4.72497 67.2111 6.37259C68.7999 8.02021 69.6877 10.2199 69.6877 12.5087C69.6877 14.7976 68.7999 16.9973 67.2111 18.6449C65.6223 20.2925 63.4564 21.2596 61.169 21.3428C61.2766 21.3467 61.384 21.351 61.4925 21.351C63.8376 21.351 66.0866 20.4194 67.7449 18.7611C69.4031 17.1029 70.3347 14.8538 70.3347 12.5087C70.3347 10.1636 69.4031 7.91458 67.7449 6.25634C66.0866 4.5981 63.8376 3.6665 61.4925 3.6665Z" fill="black"/>
<path opacity="0.1" d="M19.4381 3.6665C19.5466 3.6665 19.654 3.67081 19.7616 3.67468C17.4743 3.75784 15.3083 4.72497 13.7195 6.37259C12.1307 8.02021 11.2429 10.2199 11.2429 12.5087C11.2429 14.7976 12.1307 16.9973 13.7195 18.6449C15.3083 20.2925 17.4743 21.2596 19.7616 21.3428C19.654 21.3467 19.5466 21.351 19.4381 21.351C17.0944 21.3489 14.8473 20.4164 13.1908 18.7584C11.5342 17.1004 10.6037 14.8525 10.6037 12.5087C10.6037 10.165 11.5342 7.9171 13.1908 6.25909C14.8473 4.60107 17.0944 3.66857 19.4381 3.6665Z" fill="black"/>
<path opacity="0.1" d="M48.5389 27.6035C47.0507 28.7254 45.2379 29.3327 43.3741 29.3335H33.0276C31.1638 29.3327 29.351 28.7254 27.8627 27.6035H48.5389Z" fill="black"/>
<path d="M115.353 91.6736C115.353 91.6736 117.582 98.0967 119.623 96.3865L117.996 87.9907L115.353 91.6736Z" fill="#FBBEBE"/>
</svg>
