<svg width="64" height="64" viewBox="0 0 64 64" fill="none" xmlns="http://www.w3.org/2000/svg">
<path d="M10.8125 3.125C10.123 3.125 9.5625 3.68555 9.5625 4.375C9.5625 5.06445 10.123 5.625 10.8125 5.625C11.502 5.625 12.0625 5.06445 12.0625 4.375C12.0625 3.68555 11.502 3.125 10.8125 3.125Z" fill="white"/>
<path d="M15.1875 3.125C14.498 3.125 13.9375 3.68555 13.9375 4.375C13.9375 5.06445 14.498 5.625 15.1875 5.625C15.877 5.625 16.4375 5.06445 16.4375 4.375C16.4375 3.68555 15.877 3.125 15.1875 3.125Z" fill="white"/>
<path d="M19.5625 3.125C18.873 3.125 18.3125 3.68555 18.3125 4.375C18.3125 5.06445 18.873 5.625 19.5625 5.625C20.252 5.625 20.8125 5.06445 20.8125 4.375C20.8125 3.68555 20.252 3.125 19.5625 3.125Z" fill="white"/>
<path d="M54.0625 0H9.9375C8.04199 0 6.5 1.54199 6.5 3.4375V54.9385C6.5 55.4565 6.91992 55.876 7.4375 55.876C7.95508 55.876 8.375 55.4565 8.375 54.9385V29.875H24.1611C24.5483 30.9663 25.5903 31.75 26.8125 31.75H37.1875C38.4097 31.75 39.4517 30.9663 39.8389 29.875H55.625V60.5625C55.625 61.4243 54.9243 62.125 54.0625 62.125H9.9375C9.07568 62.125 8.375 61.4243 8.375 60.5625V59.3135C8.375 58.7959 7.95508 58.376 7.4375 58.376C6.91992 58.376 6.5 58.7959 6.5 59.3135V60.5625C6.5 62.458 8.04199 64 9.9375 64H54.0625C55.958 64 57.5 62.458 57.5 60.5625V3.4375C57.5 1.54199 55.958 0 54.0625 0ZM37.1875 29.875H26.8125C26.2954 29.875 25.875 29.4546 25.875 28.9375C25.875 28.4204 26.2954 28 26.8125 28H37.1875C37.7046 28 38.125 28.4204 38.125 28.9375C38.125 29.4546 37.7046 29.875 37.1875 29.875ZM55.625 28H39.8389C39.4517 26.9087 38.4097 26.125 37.1875 26.125H26.8125C25.5903 26.125 24.5483 26.9087 24.1611 28H8.375V8.75H52.1875C52.7051 8.75 53.125 8.33057 53.125 7.8125C53.125 7.29443 52.7051 6.875 52.1875 6.875H8.375V3.4375C8.375 2.57568 9.07568 1.875 9.9375 1.875H54.0625C54.9243 1.875 55.625 2.57568 55.625 3.4375V28Z" fill="white"/>
<path d="M24.4375 14.625C24.4375 14.1069 24.0176 13.6875 23.5 13.6875H16.5C15.9824 13.6875 15.5625 14.1069 15.5625 14.625C15.5625 15.1431 15.9824 15.5625 16.5 15.5625H23.5C24.0176 15.5625 24.4375 15.1431 24.4375 14.625Z" fill="white"/>
<path d="M27.25 15.5625H36.75C37.2676 15.5625 37.6875 15.1431 37.6875 14.625C37.6875 14.1069 37.2676 13.6875 36.75 13.6875H27.25C26.7324 13.6875 26.3125 14.1069 26.3125 14.625C26.3125 15.1431 26.7324 15.5625 27.25 15.5625Z" fill="white"/>
<path d="M47.5 13.6875H40.5C39.9824 13.6875 39.5625 14.1069 39.5625 14.625C39.5625 15.1431 39.9824 15.5625 40.5 15.5625H47.5C48.0176 15.5625 48.4375 15.1431 48.4375 14.625C48.4375 14.1069 48.0176 13.6875 47.5 13.6875Z" fill="white"/>
<path d="M31.0625 18.375C31.0625 17.8569 30.6426 17.4375 30.125 17.4375H21.25C20.7324 17.4375 20.3125 17.8569 20.3125 18.375C20.3125 18.8931 20.7324 19.3125 21.25 19.3125H30.125C30.6426 19.3125 31.0625 18.8931 31.0625 18.375Z" fill="white"/>
<path d="M42.75 17.4375H33.875C33.3574 17.4375 32.9375 17.8569 32.9375 18.375C32.9375 18.8931 33.3574 19.3125 33.875 19.3125H42.75C43.2676 19.3125 43.6875 18.8931 43.6875 18.375C43.6875 17.8569 43.2676 17.4375 42.75 17.4375Z" fill="white"/>
<path d="M38.625 21.1875H26C25.4824 21.1875 25.0625 21.6069 25.0625 22.125C25.0625 22.6431 25.4824 23.0625 26 23.0625H38.625C39.1426 23.0625 39.5625 22.6431 39.5625 22.125C39.5625 21.6069 39.1426 21.1875 38.625 21.1875Z" fill="white"/>
<path d="M17.875 33.5625C15.0493 33.5625 12.75 35.8618 12.75 38.6875C12.75 41.5132 15.0493 43.8125 17.875 43.8125C20.7007 43.8125 23 41.5132 23 38.6875C23 35.8618 20.7007 33.5625 17.875 33.5625ZM17.875 41.9375C16.083 41.9375 14.625 40.4795 14.625 38.6875C14.625 36.8955 16.083 35.4375 17.875 35.4375C19.667 35.4375 21.125 36.8955 21.125 38.6875C21.125 40.4795 19.667 41.9375 17.875 41.9375Z" fill="white"/>
<path d="M14.625 45.6875C14.1074 45.6875 13.6875 46.1069 13.6875 46.625C13.6875 47.1431 14.1074 47.5625 14.625 47.5625H21.125C21.6426 47.5625 22.0625 47.1431 22.0625 46.625C22.0625 46.1069 21.6426 45.6875 21.125 45.6875H14.625Z" fill="white"/>
<path d="M32 33.5625C29.1743 33.5625 26.875 35.8618 26.875 38.6875C26.875 41.5132 29.1743 43.8125 32 43.8125C34.8257 43.8125 37.125 41.5132 37.125 38.6875C37.125 35.8618 34.8257 33.5625 32 33.5625ZM32 41.9375C30.208 41.9375 28.75 40.4795 28.75 38.6875C28.75 36.8955 30.208 35.4375 32 35.4375C33.792 35.4375 35.25 36.8955 35.25 38.6875C35.25 40.4795 33.792 41.9375 32 41.9375Z" fill="white"/>
<path d="M36.1875 46.625C36.1875 46.1069 35.7676 45.6875 35.25 45.6875H28.75C28.2324 45.6875 27.8125 46.1069 27.8125 46.625C27.8125 47.1431 28.2324 47.5625 28.75 47.5625H35.25C35.7676 47.5625 36.1875 47.1431 36.1875 46.625Z" fill="white"/>
<path d="M46.125 33.5625C43.2993 33.5625 41 35.8618 41 38.6875C41 41.5132 43.2993 43.8125 46.125 43.8125C48.9507 43.8125 51.25 41.5132 51.25 38.6875C51.25 35.8618 48.9507 33.5625 46.125 33.5625ZM46.125 41.9375C44.333 41.9375 42.875 40.4795 42.875 38.6875C42.875 36.8955 44.333 35.4375 46.125 35.4375C47.917 35.4375 49.375 36.8955 49.375 38.6875C49.375 40.4795 47.917 41.9375 46.125 41.9375Z" fill="white"/>
<path d="M42.875 45.6875C42.3574 45.6875 41.9375 46.1069 41.9375 46.625C41.9375 47.1431 42.3574 47.5625 42.875 47.5625H49.375C49.8926 47.5625 50.3125 47.1431 50.3125 46.625C50.3125 46.1069 49.8926 45.6875 49.375 45.6875H42.875Z" fill="white"/>
<path d="M12.625 58.6875C12.625 59.5493 13.3257 60.25 14.1875 60.25H28.8125C29.6743 60.25 30.375 59.5493 30.375 58.6875V51.5625C30.375 50.7007 29.6743 50 28.8125 50H14.1875C13.3257 50 12.625 50.7007 12.625 51.5625V58.6875ZM19.3564 58.375L20.8364 56.895C21.2021 56.5293 21.7969 56.5298 22.1626 56.895L23.6426 58.375H19.3564ZM14.5 51.875H28.5V58.375H26.2939L23.4883 55.5693C22.3916 54.4727 20.6074 54.4727 19.5107 55.5693L16.7046 58.375H14.5V51.875Z" fill="white"/>
<path d="M33.625 51.5625V58.6875C33.625 59.5493 34.3257 60.25 35.1875 60.25H49.8125C50.6743 60.25 51.375 59.5493 51.375 58.6875V51.5625C51.375 50.7007 50.6743 50 49.8125 50H35.1875C34.3257 50 33.625 50.7007 33.625 51.5625ZM40.3564 58.375L41.8364 56.895C42.2021 56.5293 42.7969 56.5298 43.1626 56.895L44.6426 58.375H40.3564ZM35.5 51.875H49.5V58.375H47.2939L44.4883 55.5693C43.3916 54.4727 41.6074 54.4727 40.5107 55.5693L37.7046 58.375H35.5V51.875Z" fill="white"/>
</svg>
