<svg width="31" height="33" viewBox="0 0 31 33" fill="none" xmlns="http://www.w3.org/2000/svg">
<g clip-path="url(#clip0)">
<path d="M28.2754 0H2.72461C1.22226 0 0 1.26212 0 2.81347V31.3858C0 31.7311 0.271068 32.011 0.605469 32.011H30.3945C30.7289 32.011 31 31.7311 31 31.3858V2.81347C31 1.26212 29.7777 0 28.2754 0ZM29.7891 30.7606H1.21094V7.25249H24.4004C24.7348 7.25249 25.0059 6.97258 25.0059 6.62727C25.0059 6.28197 24.7348 6.00206 24.4004 6.00206H1.21094V2.81347C1.21094 1.95161 1.88997 1.25043 2.72461 1.25043H28.2754C29.11 1.25043 29.7891 1.95161 29.7891 2.81347V30.7606Z" fill="white"/>
<path d="M5.08594 1.75049C4.08437 1.75049 3.26953 2.5919 3.26953 3.62613C3.26953 4.66036 4.08437 5.50178 5.08594 5.50178C6.0875 5.50178 6.90234 4.66036 6.90234 3.62613C6.90234 2.5919 6.0875 1.75049 5.08594 1.75049ZM5.08594 4.25135C4.75208 4.25135 4.48047 3.97088 4.48047 3.62613C4.48047 3.28139 4.75208 3.00092 5.08594 3.00092C5.41979 3.00092 5.69141 3.28139 5.69141 3.62613C5.69141 3.97088 5.41979 4.25135 5.08594 4.25135Z" fill="white"/>
<path d="M9.73541 1.75049C8.73385 1.75049 7.91901 2.5919 7.91901 3.62613C7.91901 4.66036 8.73385 5.50178 9.73541 5.50178C10.737 5.50178 11.5518 4.66036 11.5518 3.62613C11.5518 2.5919 10.737 1.75049 9.73541 1.75049ZM9.73541 4.25135C9.40156 4.25135 9.12994 3.97088 9.12994 3.62613C9.12994 3.28139 9.40156 3.00092 9.73541 3.00092C10.0693 3.00092 10.3409 3.28139 10.3409 3.62613C10.3409 3.97088 10.0693 4.25135 9.73541 4.25135Z" fill="white"/>
<path d="M14.3848 1.75049C13.3833 1.75049 12.5684 2.5919 12.5684 3.62613C12.5684 4.66036 13.3833 5.50178 14.3848 5.50178C15.3864 5.50178 16.2012 4.66036 16.2012 3.62613C16.2012 2.5919 15.3864 1.75049 14.3848 1.75049ZM14.3848 4.25135C14.051 4.25135 13.7794 3.97088 13.7794 3.62613C13.7794 3.28139 14.051 3.00092 14.3848 3.00092C14.7187 3.00092 14.9903 3.28139 14.9903 3.62613C14.9903 3.97088 14.7187 4.25135 14.3848 4.25135Z" fill="white"/>
<path d="M27.125 8.91406H18.3457C18.0113 8.91406 17.7402 9.19397 17.7402 9.53928C17.7402 9.88458 18.0113 10.1645 18.3457 10.1645H26.5195V17.417H4.48047V10.1645H12.7148C13.0492 10.1645 13.3203 9.88458 13.3203 9.53928C13.3203 9.19397 13.0492 8.91406 12.7148 8.91406H3.875C3.5406 8.91406 3.26953 9.19397 3.26953 9.53928V18.0422C3.26953 18.3875 3.5406 18.6674 3.875 18.6674H27.125C27.4594 18.6674 27.7305 18.3875 27.7305 18.0422V9.53928C27.7305 9.19403 27.4594 8.91406 27.125 8.91406Z" fill="white"/>
<path d="M10.1719 20.8823H3.875C3.5406 20.8823 3.26953 21.1622 3.26953 21.5075V28.0098C3.26953 28.3551 3.5406 28.635 3.875 28.635H10.1719C10.5063 28.635 10.7773 28.3551 10.7773 28.0098V21.5075C10.7773 21.1622 10.5063 20.8823 10.1719 20.8823ZM9.56641 27.3846H4.48047V22.1328H9.56641V27.3846Z" fill="white"/>
<path d="M18.6484 20.8823H12.3516C12.0172 20.8823 11.7461 21.1622 11.7461 21.5075V28.0098C11.7461 28.3551 12.0172 28.635 12.3516 28.635H18.6484C18.9828 28.635 19.2539 28.3551 19.2539 28.0098V21.5075C19.2539 21.1622 18.9828 20.8823 18.6484 20.8823ZM18.043 27.3846H12.957V22.1328H18.043V27.3846Z" fill="white"/>
<path d="M27.125 20.8823H20.8281C20.4937 20.8823 20.2227 21.1622 20.2227 21.5075V28.0098C20.2227 28.3551 20.4937 28.635 20.8281 28.635H27.125C27.4594 28.635 27.7305 28.3551 27.7305 28.0098V21.5075C27.7305 21.1622 27.4594 20.8823 27.125 20.8823ZM26.5195 27.3846H21.4336V22.1328H26.5195V27.3846Z" fill="white"/>
<path d="M27.5531 6.18514C27.4404 6.06885 27.2842 6.00195 27.125 6.00195C26.9658 6.00195 26.8096 6.06885 26.6969 6.18514C26.5843 6.30143 26.5195 6.46274 26.5195 6.62717C26.5195 6.7916 26.5843 6.9529 26.6969 7.06919C26.8096 7.18548 26.9658 7.25238 27.125 7.25238C27.2842 7.25238 27.4404 7.18548 27.5531 7.06919C27.6657 6.9529 27.7305 6.7916 27.7305 6.62717C27.7305 6.46274 27.6657 6.30143 27.5531 6.18514Z" fill="white"/>
<path d="M16.0237 9.09725C15.9111 8.98096 15.7555 8.91406 15.5956 8.91406C15.4364 8.91406 15.2802 8.98096 15.1676 9.09725C15.055 9.21354 14.9902 9.37485 14.9902 9.53928C14.9902 9.70433 15.055 9.86501 15.1676 9.9813C15.2802 10.0982 15.4364 10.1645 15.5956 10.1645C15.7549 10.1645 15.9111 10.0982 16.0237 9.9813C16.1363 9.86501 16.2011 9.70433 16.2011 9.53928C16.2011 9.37485 16.1363 9.21354 16.0237 9.09725Z" fill="white"/>
</g>
<defs>
<clipPath id="clip0">
<rect width="31" height="32.011" fill="white"/>
</clipPath>
</defs>
</svg>
