<svg width="429" height="427" viewBox="0 0 429 427" fill="none" xmlns="http://www.w3.org/2000/svg">
<path opacity="0.1" d="M210.81 427C256.581 427 293.685 424.387 293.685 421.163C293.685 417.939 256.581 415.326 210.81 415.326C165.039 415.326 127.934 417.939 127.934 421.163C127.934 424.387 165.039 427 210.81 427Z" fill="#6C63FF"/>
<path opacity="0.1" d="M429 242.27C428.986 264.904 424.063 287.266 414.569 307.813C405.075 328.36 391.237 346.602 374.01 361.28C356.782 375.959 336.575 386.725 314.784 392.835C292.992 398.945 270.135 400.254 247.789 396.671H80.8867C71.3129 397.985 67.7821 355.034 58.1186 355.034C51.1812 355.034 78.6698 318.513 71.8997 317.851C19.8091 312.793 93.2721 302.053 58.1186 263.277C22.9652 224.5 71.8461 279.036 71.8995 226.694C71.8995 110.315 -35.4714 169.121 80.8869 169.121C174.6 169.121 144.148 38.406 171.514 123.02C199.743 99.0004 235.612 85.8375 272.675 85.8961C358.999 85.8961 429 155.905 429 242.27Z" fill="#6C63FF"/>
<path opacity="0.1" d="M368.939 365.472C351.973 378.72 332.459 388.329 311.614 393.697C290.77 399.065 269.042 400.077 247.789 396.671H95.8657C86.2919 397.985 114.654 317.421 40.1437 359.232C121.245 267.644 46.9138 326.909 40.1437 326.247C-0.906973 322.22 76.9931 321.622 44.937 295.661C12.8809 269.701 57.4123 310.993 44.9371 271.673C65.119 228.543 -1.47397 264.476 59.3169 264.476C118.555 264.476 12.9594 206.933 34.151 248.335C44.5862 246.437 55.1715 245.485 65.7779 245.492C127.176 245.492 179.452 276.819 199.19 320.597C215.54 315.64 232.536 313.14 249.621 313.178C299.697 313.201 343.708 334.022 368.939 365.472Z" fill="#6C63FF"/>
<path d="M306.321 379.884C306.325 381.406 306.169 382.924 305.854 384.413C305.796 384.693 305.732 384.968 305.667 385.236C304.01 391.884 299.335 396.747 293.755 397.056C293.569 397.056 293.382 397.056 293.172 397.056C287.271 397.056 282.281 391.966 280.635 384.956C280.589 384.769 280.548 384.582 280.507 384.372C280.192 382.883 280.036 381.365 280.04 379.843C280.04 370.346 285.917 362.653 293.172 362.653C300.426 362.653 306.321 370.387 306.321 379.884Z" fill="#3F3D56"/>
<path opacity="0.1" d="M306.321 379.883C306.326 381.406 306.169 382.924 305.854 384.413C305.796 384.693 305.732 384.968 305.667 385.236C305.469 385.236 305.276 385.236 305.084 385.236C303.639 385.158 302.202 384.963 300.788 384.652C299.536 385.04 298.256 385.332 296.96 385.528C295.966 385.678 294.964 385.771 293.96 385.808C293.621 385.808 293.283 385.808 292.944 385.808C291.742 385.808 290.541 385.728 289.349 385.569C287.422 385.311 285.529 384.842 283.705 384.168C282.707 384.5 281.69 384.773 280.659 384.985C280.612 384.798 280.571 384.611 280.53 384.401C280.216 382.912 280.059 381.394 280.064 379.872C280.064 370.375 285.941 362.682 293.195 362.682C300.45 362.682 306.321 370.387 306.321 379.883Z" fill="black"/>
<path d="M334.335 347.862C334.341 343.683 333.361 339.561 331.475 335.832L316.032 340.635L329.59 332.668C327.317 329.382 324.335 326.648 320.864 324.669C317.393 322.69 313.522 321.516 309.537 321.233C308.902 320.271 308.207 319.35 307.453 318.478L285.275 325.383L303.467 314.684C299.987 312.013 295.902 310.241 291.575 309.525C287.247 308.808 282.809 309.17 278.654 310.578C274.5 311.985 270.756 314.395 267.754 317.595C264.753 320.794 262.586 324.684 261.446 328.92L280.443 350.792L259.835 335.884C254.614 339.587 250.898 345.043 249.363 351.257C247.827 357.47 248.575 364.029 251.47 369.738C254.365 375.446 259.215 379.925 265.135 382.357C271.055 384.789 277.651 385.014 283.723 382.989C289.215 385.008 295.216 385.174 300.811 383.462C304.712 384.316 308.754 384.284 312.641 383.37C316.528 382.456 320.161 380.682 323.272 378.18C326.383 375.677 328.894 372.508 330.619 368.907C332.345 365.306 333.242 361.363 333.244 357.37C333.244 356.786 333.244 356.203 333.185 355.619C333.949 353.104 334.337 350.49 334.335 347.862V347.862Z" fill="#6C63FF"/>
<path opacity="0.1" d="M333.874 352.811C325.719 351.265 317.355 351.159 309.163 352.496C299.889 354.031 290.411 357.405 281.342 354.942C276.019 353.494 271.42 350.144 266.22 348.282C261.202 346.531 255.798 346.208 250.608 347.348C248.63 352.08 248.056 357.281 248.955 362.331C249.854 367.38 252.187 372.064 255.676 375.823C259.166 379.581 263.663 382.256 268.631 383.527C273.6 384.797 278.829 384.611 283.694 382.989C289.185 385.008 295.187 385.174 300.782 383.462C304.685 384.321 308.73 384.293 312.621 383.381C316.511 382.47 320.148 380.697 323.263 378.193C326.377 375.69 328.891 372.519 330.618 368.916C332.346 365.312 333.243 361.367 333.244 357.37C333.244 356.786 333.244 356.203 333.185 355.619C333.466 354.696 333.696 353.759 333.874 352.811Z" fill="black"/>
<path d="M176.767 123.381H174.269C173.531 123.381 172.932 123.98 172.932 124.718V164.667C172.932 165.405 173.531 166.003 174.269 166.003H176.767C177.505 166.003 178.103 165.405 178.103 164.667V124.718C178.103 123.98 177.505 123.381 176.767 123.381Z" fill="#3A3768"/>
<path d="M2.6525 89.9878H2.42488C1.68674 89.9878 1.08838 90.5863 1.08838 91.3245V102.683C1.08838 103.422 1.68674 104.02 2.42488 104.02H2.6525C3.39063 104.02 3.98902 103.422 3.98902 102.683V91.3245C3.98902 90.5863 3.39063 89.9878 2.6525 89.9878Z" fill="#3A3768"/>
<path d="M2.915 115.682H2.31968C1.58154 115.682 0.983154 116.281 0.983154 117.019V138.768C0.983154 139.506 1.58154 140.104 2.31968 140.104H2.915C3.65313 140.104 4.2515 139.506 4.2515 138.768V117.019C4.2515 116.281 3.65313 115.682 2.915 115.682Z" fill="#3A3768"/>
<path d="M2.8101 148.65H2.37238C1.63425 148.65 1.03589 149.248 1.03589 149.987V171.945C1.03589 172.684 1.63425 173.282 2.37238 173.282H2.8101C3.54822 173.282 4.1466 172.684 4.1466 171.945V149.987C4.1466 149.248 3.54822 148.65 2.8101 148.65Z" fill="#3A3768"/>
<path d="M152.966 43.6185H25.4899C12.9222 43.6185 2.73413 53.8078 2.73413 66.377V372.476C2.73413 385.045 12.9222 395.235 25.4899 395.235H152.966C165.534 395.235 175.722 385.045 175.722 372.476V66.377C175.722 53.8078 165.534 43.6185 152.966 43.6185Z" fill="#3F3D56"/>
<path d="M94.4401 54.1193H74.8009C73.5535 54.1193 72.5422 55.1307 72.5422 56.3782V56.7635C72.5422 58.011 73.5535 59.0224 74.8009 59.0224H94.4401C95.6875 59.0224 96.6987 58.011 96.6987 56.7635V56.3782C96.6987 55.1307 95.6875 54.1193 94.4401 54.1193Z" fill="#E6E8EC"/>
<path d="M103.13 59.3551C104.668 59.3551 105.914 58.1086 105.914 56.5708C105.914 55.0331 104.668 53.7866 103.13 53.7866C101.593 53.7866 100.346 55.0331 100.346 56.5708C100.346 58.1086 101.593 59.3551 103.13 59.3551Z" fill="#E6E8EC"/>
<path d="M151.28 52.7768H131.495V55.1641C131.495 58.1643 130.303 61.0416 128.182 63.163C126.061 65.2844 123.184 66.4763 120.184 66.4763H57.0467C54.0469 66.4763 51.17 65.2844 49.0488 63.163C46.9277 61.0416 45.736 58.1643 45.736 55.1641V52.7768H27.1532C25.3493 52.7768 23.5631 53.1322 21.8965 53.8228C20.23 54.5134 18.7159 55.5256 17.4406 56.8016C16.1653 58.0776 15.1539 59.5923 14.4641 61.2594C13.7743 62.9264 13.4196 64.713 13.4204 66.5171V372.336C13.4196 374.14 13.7743 375.927 14.4641 377.594C15.1539 379.261 16.1653 380.776 17.4406 382.052C18.7159 383.328 20.23 384.34 21.8965 385.031C23.5631 385.721 25.3493 386.077 27.1532 386.077H151.28C154.923 386.077 158.418 384.629 160.994 382.052C163.571 379.475 165.018 375.98 165.018 372.336V66.5171C165.018 62.873 163.571 59.378 160.994 56.8012C158.418 54.2244 154.923 52.7768 151.28 52.7768V52.7768Z" fill="#6C63FF"/>
<path opacity="0.1" d="M106.737 107.651H19.7761V121.659H106.737V107.651Z" fill="black" stroke="#6C63FF" stroke-miterlimit="10"/>
<path opacity="0.1" d="M40.7867 203.378C51.1013 203.378 59.4629 195.015 59.4629 184.699C59.4629 174.384 51.1013 166.021 40.7867 166.021C30.4722 166.021 22.1106 174.384 22.1106 184.699C22.1106 195.015 30.4722 203.378 40.7867 203.378Z" fill="black" stroke="#6C63FF" stroke-miterlimit="10"/>
<path d="M35.5342 181.197V188.202H40.2032L46.0395 194.301V175.092L40.2032 181.197H35.5342Z" fill="white"/>
<path opacity="0.1" d="M90.3954 203.378C100.71 203.378 109.072 195.015 109.072 184.699C109.072 174.384 100.71 166.021 90.3954 166.021C80.0808 166.021 71.7192 174.384 71.7192 184.699C71.7192 195.015 80.0808 203.378 90.3954 203.378Z" fill="black" stroke="#6C63FF" stroke-miterlimit="10"/>
<path d="M90.3954 192.498C89.954 192.495 89.5218 192.624 89.1537 192.868C88.7855 193.111 88.4979 193.459 88.3274 193.866C88.1568 194.273 88.111 194.722 88.1957 195.155C88.2804 195.588 88.4918 195.987 88.8032 196.3C89.1145 196.613 89.5117 196.826 89.9445 196.913C90.3773 197 90.8262 196.957 91.2342 196.788C91.6423 196.62 91.9912 196.334 92.2367 195.967C92.4822 195.6 92.6132 195.169 92.6132 194.727C92.6132 194.138 92.3799 193.573 91.9644 193.155C91.5488 192.737 90.9847 192.501 90.3954 192.498V192.498ZM83.8588 172.442C83.4171 172.438 82.9844 172.566 82.6154 172.809C82.2465 173.052 81.958 173.399 81.7866 173.806C81.6152 174.213 81.5685 174.662 81.6525 175.096C81.7366 175.529 81.9475 175.928 82.2586 176.242C82.5697 176.555 82.9669 176.769 83.3999 176.857C83.8328 176.944 84.282 176.901 84.6904 176.733C85.0988 176.565 85.448 176.279 85.6938 175.912C85.9395 175.545 86.0707 175.113 86.0708 174.671C86.0708 174.083 85.8383 173.519 85.424 173.101C85.0096 172.683 84.447 172.446 83.8588 172.442V172.442ZM83.8588 179.131C83.4169 179.127 82.9839 179.255 82.6148 179.498C82.2458 179.742 81.9573 180.089 81.7861 180.496C81.6148 180.904 81.5685 181.353 81.653 181.787C81.7375 182.221 81.949 182.62 82.2607 182.933C82.5724 183.246 82.9701 183.46 83.4034 183.547C83.8368 183.634 84.2861 183.59 84.6944 183.421C85.1027 183.251 85.4516 182.965 85.6966 182.597C85.9417 182.229 86.0719 181.797 86.0708 181.355C86.0708 180.767 85.8381 180.203 85.4236 179.786C85.0091 179.37 84.4465 179.134 83.8588 179.131V179.131ZM83.8588 185.814C83.4171 185.811 82.9844 185.939 82.6154 186.181C82.2465 186.424 81.958 186.771 81.7866 187.178C81.6152 187.586 81.5685 188.034 81.6525 188.468C81.7366 188.902 81.9475 189.301 82.2586 189.614C82.5697 189.928 82.9669 190.142 83.3999 190.23C83.8328 190.317 84.282 190.274 84.6904 190.106C85.0988 189.937 85.448 189.652 85.6938 189.285C85.9395 188.918 86.0707 188.486 86.0708 188.044C86.0708 187.456 85.8383 186.891 85.424 186.473C85.0096 186.056 84.447 185.819 83.8588 185.814V185.814ZM96.9321 176.901C97.3735 176.903 97.8057 176.775 98.1739 176.531C98.542 176.287 98.8296 175.94 99.0001 175.533C99.1707 175.126 99.2165 174.677 99.1318 174.244C99.0471 173.81 98.8357 173.412 98.5243 173.099C98.213 172.786 97.8158 172.572 97.383 172.485C96.9502 172.398 96.5014 172.442 96.0933 172.61C95.6852 172.779 95.3364 173.064 95.0909 173.431C94.8454 173.798 94.7143 174.23 94.7143 174.671C94.7135 174.963 94.7703 175.253 94.8813 175.523C94.9924 175.793 95.1555 176.039 95.3614 176.246C95.5674 176.453 95.8121 176.617 96.0816 176.73C96.3511 176.842 96.6401 176.9 96.9321 176.901V176.901ZM90.3954 185.814C89.954 185.812 89.5218 185.941 89.1537 186.184C88.7855 186.428 88.4979 186.775 88.3274 187.183C88.1568 187.59 88.111 188.038 88.1957 188.472C88.2804 188.905 88.4918 189.303 88.8032 189.616C89.1145 189.929 89.5117 190.143 89.9445 190.23C90.3773 190.317 90.8262 190.273 91.2342 190.105C91.6423 189.937 91.9912 189.651 92.2367 189.284C92.4822 188.917 92.6132 188.485 92.6132 188.044C92.6132 187.455 92.3799 186.889 91.9644 186.471C91.5488 186.054 90.9847 185.817 90.3954 185.814V185.814ZM96.9321 185.814C96.4906 185.812 96.0585 185.941 95.6903 186.184C95.3221 186.428 95.0346 186.775 94.864 187.183C94.6935 187.59 94.6477 188.038 94.7324 188.472C94.8171 188.905 95.0285 189.303 95.3398 189.616C95.6511 189.929 96.0484 190.143 96.4811 190.23C96.9139 190.317 97.3628 190.273 97.7709 190.105C98.1789 189.937 98.5278 189.651 98.7733 189.284C99.0188 188.917 99.1499 188.485 99.1499 188.044C99.1499 187.455 98.9166 186.889 98.501 186.471C98.0854 186.054 97.5213 185.817 96.9321 185.814V185.814ZM96.9321 179.131C96.4904 179.129 96.058 179.257 95.6897 179.501C95.3214 179.745 95.0338 180.093 94.8634 180.501C94.6931 180.908 94.6476 181.357 94.7328 181.791C94.818 182.224 95.03 182.622 95.3419 182.935C95.6538 183.248 96.0516 183.461 96.4847 183.547C96.9179 183.634 97.367 183.589 97.7749 183.42C98.1829 183.251 98.5314 182.964 98.7762 182.596C99.0209 182.229 99.151 181.796 99.1499 181.355C99.1499 180.766 98.9164 180.201 98.5007 179.784C98.0849 179.367 97.5208 179.132 96.9321 179.131V179.131ZM90.3954 179.131C89.9537 179.129 89.5213 179.257 89.153 179.501C88.7848 179.745 88.4972 180.093 88.3268 180.501C88.1565 180.908 88.111 181.357 88.1962 181.791C88.2813 182.224 88.4933 182.622 88.8052 182.935C89.1171 183.248 89.5149 183.461 89.9481 183.547C90.3813 183.634 90.8303 183.589 91.2383 183.42C91.6462 183.251 91.9947 182.964 92.2395 182.596C92.4843 182.229 92.6144 181.796 92.6132 181.355C92.6132 180.766 92.3798 180.201 91.964 179.784C91.5483 179.367 90.9842 179.132 90.3954 179.131V179.131ZM90.3954 172.442C89.954 172.439 89.5218 172.568 89.1537 172.812C88.7855 173.055 88.4979 173.403 88.3274 173.81C88.1568 174.217 88.111 174.666 88.1957 175.099C88.2804 175.532 88.4918 175.931 88.8032 176.244C89.1145 176.557 89.5117 176.77 89.9445 176.857C90.3773 176.944 90.8262 176.901 91.2342 176.732C91.6423 176.564 91.9912 176.278 92.2367 175.911C92.4822 175.544 92.6132 175.113 92.6132 174.671C92.6132 174.082 92.3799 173.517 91.9644 173.099C91.5488 172.681 90.9847 172.445 90.3954 172.442V172.442Z" fill="white"/>
<g opacity="0.4">
<path opacity="0.1" d="M40.7867 259.413C51.1013 259.413 59.4629 251.051 59.4629 240.735C59.4629 230.419 51.1013 222.056 40.7867 222.056C30.4722 222.056 22.1106 230.419 22.1106 240.735C22.1106 251.051 30.4722 259.413 40.7867 259.413Z" fill="black" stroke="#6C63FF" stroke-miterlimit="10"/>
<path opacity="0.4" d="M49.5411 241.902H41.9539V249.49H39.6194V241.902H32.0322V239.567H39.6194V231.979H41.9539V239.567H49.5411V241.902Z" fill="white"/>
</g>
<path opacity="0.1" d="M140.004 203.378C150.319 203.378 158.68 195.015 158.68 184.699C158.68 174.384 150.319 166.021 140.004 166.021C129.689 166.021 121.328 174.384 121.328 184.699C121.328 195.015 129.689 203.378 140.004 203.378Z" fill="black" stroke="#6C63FF" stroke-miterlimit="10"/>
<path d="M140.004 173.311C138.606 173.33 137.225 173.623 135.941 174.175C134.656 174.727 133.493 175.527 132.517 176.528C131.542 177.53 130.773 178.714 130.255 180.013C129.737 181.312 129.48 182.7 129.499 184.098V192.486C129.493 192.952 129.578 193.415 129.751 193.848C129.924 194.281 130.18 194.675 130.505 195.009C130.83 195.343 131.218 195.61 131.646 195.794C132.074 195.978 132.535 196.075 133.001 196.082H136.502V186.445H131.833V184.11C131.833 181.943 132.694 179.864 134.226 178.331C135.759 176.799 137.837 175.938 140.004 175.938C142.171 175.938 144.249 176.799 145.782 178.331C147.314 179.864 148.175 181.943 148.175 184.11V186.445H143.506V196.076H147.008C147.474 196.07 147.935 195.973 148.363 195.789C148.792 195.606 149.18 195.339 149.505 195.005C149.83 194.671 150.087 194.276 150.259 193.843C150.431 193.409 150.516 192.946 150.509 192.48V184.098C150.528 182.7 150.271 181.312 149.753 180.013C149.235 178.714 148.466 177.53 147.491 176.528C146.515 175.527 145.352 174.727 144.067 174.175C142.783 173.623 141.402 173.33 140.004 173.311Z" fill="white"/>
<g opacity="0.4">
<path opacity="0.1" d="M90.3954 259.413C100.71 259.413 109.072 251.051 109.072 240.735C109.072 230.419 100.71 222.056 90.3954 222.056C80.0808 222.056 71.7192 230.419 71.7192 240.735C71.7192 251.051 80.0808 259.413 90.3954 259.413Z" fill="black" stroke="#6C63FF" stroke-miterlimit="10"/>
<path opacity="0.4" d="M97.3989 238.733V234.063C97.3966 233.886 97.3595 233.711 97.2896 233.548C97.2197 233.386 97.1185 233.238 96.9917 233.115C96.8649 232.991 96.715 232.894 96.5505 232.828C96.386 232.763 96.2103 232.73 96.0332 232.732H79.4932C79.1366 232.729 78.7933 232.867 78.5385 233.117C78.2836 233.366 78.1379 233.706 78.1333 234.063V247.377C78.1394 247.733 78.2856 248.073 78.5401 248.322C78.7947 248.571 79.1371 248.71 79.4932 248.708H96.0274C96.3845 248.711 96.7284 248.573 96.9842 248.324C97.2399 248.075 97.3869 247.734 97.3931 247.377V242.708L102.646 248.031V233.409L97.3989 238.733Z" fill="white"/>
</g>
<path opacity="0.1" d="M140.004 259.413C150.319 259.413 158.68 251.051 158.68 240.735C158.68 230.419 150.319 222.056 140.004 222.056C129.689 222.056 121.328 230.419 121.328 240.735C121.328 251.051 129.689 259.413 140.004 259.413Z" fill="black" stroke="#6C63FF" stroke-miterlimit="10"/>
<path d="M139.082 245.544C138.077 246.114 136.942 246.414 135.787 246.414C134.632 246.414 133.497 246.114 132.492 245.544C129.913 246.332 128.331 248.942 127.748 251.236H143.827C143.243 248.942 141.667 246.332 139.082 245.544ZM135.79 233.287C134.643 233.286 133.522 233.625 132.568 234.261C131.614 234.898 130.87 235.803 130.431 236.862C129.992 237.921 129.876 239.087 130.1 240.212C130.323 241.337 130.875 242.37 131.686 243.181C132.497 243.992 133.53 244.544 134.655 244.768C135.78 244.991 136.945 244.876 138.005 244.437C139.064 243.997 139.969 243.253 140.605 242.299C141.242 241.345 141.581 240.224 141.58 239.077C141.58 237.541 140.97 236.069 139.884 234.983C138.798 233.897 137.326 233.287 135.79 233.287V233.287ZM135.79 243.49C134.919 243.474 134.071 243.203 133.352 242.712C132.632 242.22 132.072 241.529 131.74 240.723H139.835C139.504 241.529 138.945 242.221 138.226 242.713C137.508 243.206 136.661 243.478 135.79 243.496V243.49Z" fill="white"/>
<path d="M143.646 247.733H152.26C151.992 246.522 151.413 245.401 150.581 244.48C149.75 243.559 148.693 242.87 147.515 242.48C146.51 243.05 145.374 243.349 144.218 243.35C143.442 243.357 142.672 243.226 141.942 242.964C141.535 243.679 141.019 244.325 140.413 244.879C141.748 245.491 142.873 246.484 143.646 247.733V247.733ZM142.77 237.664H148.268C147.934 238.468 147.373 239.157 146.654 239.646C145.934 240.136 145.088 240.404 144.218 240.42C143.744 240.416 143.275 240.333 142.829 240.174C142.757 240.642 142.637 241.102 142.473 241.546C143.27 241.801 144.113 241.879 144.944 241.777C145.774 241.674 146.573 241.393 147.284 240.953C147.996 240.512 148.604 239.923 149.066 239.225C149.528 238.527 149.834 237.738 149.962 236.91C150.09 236.083 150.037 235.238 149.807 234.433C149.578 233.628 149.176 232.883 148.631 232.248C148.086 231.613 147.41 231.104 146.649 230.755C145.888 230.406 145.061 230.227 144.224 230.228C143.249 230.229 142.291 230.476 141.438 230.945C140.584 231.415 139.862 232.091 139.339 232.913C140.214 233.418 140.972 234.102 141.564 234.921C142.155 235.74 142.566 236.675 142.77 237.664V237.664Z" fill="white"/>
<path d="M90.3954 334.127C100.71 334.127 109.072 325.764 109.072 315.449C109.072 305.133 100.71 296.77 90.3954 296.77C80.0808 296.77 71.7192 305.133 71.7192 315.449C71.7192 325.764 80.0808 334.127 90.3954 334.127Z" fill="#FF6F61"/>
<path d="M80.8065 320.06C81.8281 319.095 82.9913 318.292 84.2557 317.678C84.4514 317.591 84.6173 317.449 84.7325 317.268C84.8476 317.087 84.9072 316.877 84.9036 316.663L85.0028 313.032C88.572 311.971 92.3861 312.073 95.8933 313.324L95.7941 316.955C95.7913 317.165 95.8436 317.373 95.946 317.558C96.0484 317.742 96.1972 317.896 96.3777 318.005C97.6456 318.665 98.7938 319.534 99.7745 320.574C99.8798 320.685 100.006 320.775 100.146 320.838C100.286 320.901 100.437 320.935 100.591 320.939C100.744 320.944 100.897 320.918 101.04 320.863C101.184 320.808 101.315 320.726 101.426 320.62L104.391 317.807C104.615 317.594 104.745 317.302 104.754 316.993C104.763 316.685 104.649 316.386 104.438 316.161C102.645 314.268 100.498 312.748 98.1182 311.685C95.7383 310.623 93.1725 310.04 90.5673 309.969C87.962 309.899 85.3685 310.342 82.9346 311.275C80.5008 312.207 78.2744 313.609 76.3826 315.402C76.2713 315.508 76.182 315.634 76.1197 315.775C76.0575 315.915 76.0234 316.066 76.0196 316.219C76.0158 316.373 76.0424 316.526 76.0976 316.669C76.1529 316.812 76.2358 316.943 76.3417 317.054L79.149 320.019C79.2547 320.13 79.3813 320.22 79.5215 320.282C79.6618 320.344 79.8129 320.378 79.9663 320.382C80.1198 320.386 80.2724 320.359 80.4156 320.304C80.5587 320.249 80.6896 320.166 80.8006 320.06H80.8065Z" fill="white"/>
<path opacity="0.1" d="M142.339 133.917C150.397 133.917 156.929 127.384 156.929 119.325C156.929 111.265 150.397 104.732 142.339 104.732C134.28 104.732 127.748 111.265 127.748 119.325C127.748 127.384 134.28 133.917 142.339 133.917Z" fill="black" stroke="#6C63FF" stroke-miterlimit="10"/>
<path d="M145.636 122.599C144.631 123.169 143.494 123.469 142.339 123.469C141.183 123.469 140.047 123.169 139.041 122.599C136.461 123.387 134.88 125.996 134.296 128.296H150.381C149.797 125.996 148.216 123.387 145.636 122.599ZM142.339 110.341C141.192 110.34 140.071 110.679 139.117 111.315C138.163 111.952 137.42 112.857 136.98 113.916C136.541 114.975 136.425 116.14 136.648 117.265C136.871 118.39 137.422 119.423 138.233 120.234C139.043 121.045 140.076 121.598 141.2 121.822C142.324 122.046 143.49 121.932 144.549 121.493C145.609 121.055 146.514 120.312 147.151 119.358C147.788 118.405 148.128 117.284 148.128 116.138C148.127 114.602 147.516 113.129 146.431 112.043C145.346 110.956 143.874 110.345 142.339 110.341ZM142.339 120.55C141.468 120.533 140.621 120.262 139.901 119.77C139.182 119.279 138.621 118.589 138.288 117.784H146.389C146.055 118.589 145.495 119.28 144.776 119.772C144.057 120.264 143.21 120.537 142.339 120.556V120.55Z" fill="white"/>
<path opacity="0.1" d="M311.387 8.37016C310.027 7.58216 308.188 8.33513 307.255 9.60177C306.321 10.8684 306.087 12.5203 305.825 14.0554C305.305 17.5051 304.926 21.4684 307.255 24.0717C303.449 12.5319 292.506 3.68886 280.408 2.39888" stroke="#6C63FF" stroke-width="3" stroke-miterlimit="10"/>
<path opacity="0.1" d="M232.264 206.396C231.389 205.888 230.21 206.396 229.609 207.189C229.076 208.055 228.759 209.036 228.686 210.05C228.354 212.273 228.103 214.818 229.609 216.47C228.327 212.766 226.031 209.496 222.982 207.032C219.933 204.569 216.253 203.012 212.362 202.537" stroke="#6C63FF" stroke-width="3" stroke-miterlimit="10"/>
<path opacity="0.1" d="M220.022 32.639C219.146 32.137 217.968 32.6389 217.366 33.4328C216.833 34.2999 216.516 35.2831 216.444 36.2988C216.112 38.5168 215.861 41.0618 217.366 42.7195C216.083 39.0157 213.787 35.7463 210.738 33.2832C207.689 30.82 204.01 29.2621 200.12 28.7865" stroke="#6C63FF" stroke-width="3" stroke-miterlimit="10"/>
<path d="M167.038 403.88C167.621 404.983 168.718 405.66 169.775 406.261C177.114 410.47 184.847 413.951 192.863 416.657C193.063 416.772 193.286 416.842 193.516 416.859C193.746 416.877 193.977 416.843 194.192 416.76C194.408 416.676 194.601 416.545 194.759 416.377C194.917 416.209 195.035 416.007 195.104 415.787C196.027 414.234 197.036 411.701 196.797 409.652C197.556 409.193 198.106 408.456 198.332 407.598C198.648 406.555 199.129 405.57 199.756 404.679C200.847 403.033 202.166 401.381 202.341 399.379C202.326 398.665 202.395 397.952 202.546 397.255C202.855 396.332 203.678 395.725 204.297 394.99C205.26 393.822 205.721 392.316 206.158 390.851C207.979 384.763 209.8 378.675 211.318 372.494C211.808 370.492 212.263 368.484 212.934 366.54C213.518 364.836 214.265 363.201 215.006 361.567C217.657 355.643 220.741 349.923 224.233 344.453C224.779 346.29 225.44 348.092 226.212 349.846C226.609 350.751 227.035 351.644 227.437 352.549C228.961 355.958 228.686 360.335 230.56 363.54C231.338 364.855 232.105 366.168 232.859 367.48C233.288 368.123 233.62 368.825 233.846 369.564C233.968 370.077 233.98 370.614 234.068 371.134C234.464 373.469 236.361 375.115 237.412 377.198C238.375 379.101 238.579 381.284 239.163 383.38C240.546 388.225 243.943 392.433 244.287 397.482C244.33 398.845 244.297 400.209 244.188 401.568C244.101 403.948 244.259 406.33 244.66 408.678C244.692 408.914 244.755 409.146 244.847 409.366C241.857 413.817 237.252 416.928 232.007 418.04C231.015 418.239 229.877 418.449 229.358 419.359C228.733 420.445 229.439 421.939 230.525 422.523C231.61 423.107 232.859 423.048 234.027 422.943C242.4 422.243 250.683 420.714 258.755 418.379C259.163 418.295 259.537 418.091 259.829 417.795C260.117 417.368 260.243 416.853 260.185 416.342C260.181 414.455 259.741 412.596 258.901 410.907L259.485 410.703C259.811 408.368 258.609 406.109 257.675 403.944C256.053 400.167 255.166 396.087 253.882 392.159C251.407 384.571 247.409 377.49 246.446 369.552C246.184 367.369 245.53 365.151 245.39 362.956C245.11 358.485 244.806 353.991 243.832 349.636C243.015 346.052 241.725 342.632 240.914 339.007C240.102 335.382 239.84 331.57 241.03 328.103C241.369 327.111 241.824 326.171 242.133 325.185C243.301 321.327 242.186 317.147 241.054 313.271C240.696 312.046 240.342 310.824 239.991 309.606C239.519 308.001 239.052 306.39 238.538 304.796C238.608 304.732 238.672 304.668 238.742 304.592C239.77 303.424 239.758 301.638 240.493 300.243C240.855 299.525 241.404 298.936 241.789 298.235C242.517 296.721 242.704 295.003 242.32 293.367C242.011 291.733 241.392 290.18 240.925 288.587C239.657 284.213 239.561 279.584 240.645 275.162C241.118 273.276 241.812 271.426 241.912 269.482C241.945 268.183 241.826 266.884 241.556 265.612C240.651 260.709 238.877 255.736 235.276 252.496C233.355 250.745 230.758 249.21 230.554 246.548C230.244 246.429 229.903 246.417 229.585 246.513C229.421 245.908 229.311 245.288 229.258 244.663H229.288C229.466 244.683 229.646 244.683 229.825 244.663C229.976 244.653 230.123 244.612 230.256 244.541C230.332 244.496 230.402 244.443 230.467 244.383C230.693 244.15 230.89 243.889 231.05 243.607C231.289 243.21 231.505 242.784 231.686 242.492C231.867 242.2 232.159 241.733 232.387 241.324C233.068 240.157 233.7 238.97 234.283 237.764V237.717C234.342 237.606 234.394 237.489 234.447 237.378L234.517 237.221L234.622 236.982C234.622 236.923 234.675 236.859 234.698 236.801C234.721 236.742 234.762 236.655 234.791 236.579L234.873 236.386C234.902 236.316 234.925 236.246 234.955 236.17C234.983 236.105 235.009 236.039 235.031 235.972C235.06 235.902 235.083 235.832 235.106 235.762C235.13 235.692 235.153 235.627 235.182 235.557C235.211 235.487 235.223 235.417 235.246 235.347L235.316 235.137C235.316 235.067 235.352 235.003 235.375 234.933L235.433 234.717L235.486 234.513L235.538 234.291C235.538 234.227 235.538 234.162 235.579 234.092C235.62 234.022 235.579 233.94 235.62 233.865C235.661 233.789 235.62 233.736 235.62 233.672L235.655 233.444V233.252C235.655 233.17 235.655 233.094 235.655 233.018C235.655 232.942 235.655 232.89 235.655 232.826C235.655 232.761 235.655 232.668 235.655 232.592V232.458C235.655 232.376 235.655 232.3 235.655 232.219C235.655 232.137 235.655 232.102 235.655 232.043C235.655 231.985 235.655 231.88 235.655 231.798C235.655 231.717 235.655 231.687 235.655 231.635C235.627 231.406 235.582 231.18 235.521 230.958C235.128 229.598 234.33 228.391 233.233 227.496C232.172 226.63 230.993 225.921 229.731 225.389C229.424 225.271 229.143 225.095 228.902 224.87C228.622 224.462 228.389 224.023 228.208 223.562C227.694 222.663 226.667 222.261 225.704 222.021C224.741 221.782 223.708 221.63 222.903 221.017C222.831 220.955 222.747 220.908 222.658 220.877C222.534 220.867 222.41 220.894 222.302 220.953L220.055 221.951C220.032 221.812 219.982 221.678 219.907 221.558C219.833 221.438 219.735 221.334 219.62 221.252C219.505 221.17 219.375 221.112 219.237 221.081C219.099 221.049 218.956 221.046 218.817 221.07C218.263 221.204 217.759 221.494 217.364 221.905C217.296 221.835 217.247 221.749 217.223 221.654C217.2 221.56 217.202 221.461 217.23 221.368L215.479 222.535C215.263 222.675 214.866 222.71 214.895 222.442C213.921 223.505 213.077 224.681 212.38 225.944C212.162 226.33 211.978 226.734 211.831 227.152V227.152C211.831 227.24 211.779 227.327 211.755 227.415C211.753 227.432 211.753 227.45 211.755 227.467C211.755 227.543 211.72 227.625 211.709 227.707C211.706 227.73 211.706 227.753 211.709 227.777C211.709 227.876 211.709 227.981 211.709 228.08C211.703 228.193 211.703 228.306 211.709 228.419C211.727 228.743 211.83 229.057 212.007 229.329C212.184 229.602 212.429 229.823 212.718 229.971C212.942 230.054 213.18 230.092 213.419 230.082C213.92 230.023 214.416 229.921 214.901 229.779C215.059 229.74 215.218 229.713 215.38 229.697C215.455 229.691 215.532 229.691 215.607 229.697C215.912 229.69 216.21 229.791 216.448 229.983L216.483 230.018C215.208 230.935 214.172 232.145 213.461 233.546C212.75 234.946 212.385 236.497 212.397 238.067C212.395 239.613 212.746 241.138 213.425 242.527C213.191 242.656 212.999 242.848 212.87 243.081C212.741 243.315 212.68 243.58 212.695 243.846C212.542 243.398 212.462 242.929 212.456 242.457C211.499 242.264 210.804 243.385 210.46 244.348C209.752 246.525 209.203 248.751 208.82 251.008C208.522 252.508 208.236 254.008 207.933 255.508C207.629 257.008 207.349 258.619 207.127 260.178C206.612 264.224 206.795 268.329 207.67 272.313C207.612 272.441 207.559 272.576 207.507 272.704C207.331 273.171 206.835 273.568 206.777 274.064C206.462 277.035 208.341 279.714 210.115 282.043C210.261 282.282 210.461 282.482 210.699 282.627C210.959 282.735 211.243 282.771 211.522 282.732C212.229 282.698 212.934 282.628 213.635 282.522C213.676 282.919 213.722 283.31 213.769 283.689C214.271 287.88 215.129 292.071 215.123 296.292C215.117 300.512 214.317 304.79 215.934 308.549C216.203 309.191 216.722 309.717 216.775 310.382H216.874C215.885 312.397 215.077 314.494 214.458 316.651C213.816 319.184 213.681 321.846 212.963 324.356C212.351 326.486 211.329 328.442 210.506 330.52C209.166 333.895 208.378 337.465 208.172 341.091C208.15 342.756 207.813 344.401 207.18 345.941C206.236 347.788 205.409 349.693 204.705 351.644C203.538 355.111 201.571 358.397 201.203 362.069C200.999 364.147 201.297 366.365 200.427 368.245C200.089 368.98 199.587 369.616 199.19 370.311C198.61 371.424 198.158 372.599 197.842 373.813L192.064 392.976C191.845 394.029 191.359 395.008 190.651 395.819C190.114 396.332 189.408 396.612 188.9 397.144C188.083 397.972 187.879 399.187 187.873 400.424C187.254 400.536 186.653 400.732 186.087 401.008C183.644 402.052 181.014 402.59 178.357 402.59C175.7 402.59 173.07 402.052 170.627 401.008C169.693 400.605 168.631 400.126 167.709 400.587C166.629 401.148 166.454 402.776 167.038 403.88ZM213.069 258.724C213.415 257.138 214.065 255.634 214.983 254.294C216.29 252.14 217.668 250.01 218.916 247.809L219.273 247.465C219.372 247.745 219.465 248.049 219.553 248.311C219.769 249.059 219.943 249.82 220.072 250.588C220.257 251.549 220.311 252.53 220.236 253.506L220.154 253.57C219.682 253.874 219.301 254.299 219.051 254.802C218.887 255.303 218.887 255.842 219.051 256.343L218.998 256.401L219.057 256.36C219.261 257.166 219.64 257.995 219.518 258.812C219.383 259.798 218.59 260.516 218.094 261.363C216.926 263.4 217.3 266.494 215.38 267.743L215.345 267.824C214.933 267.727 214.548 267.537 214.222 267.267C213.895 266.998 213.634 266.658 213.46 266.272V266.272C213.611 263.779 212.677 261.223 213.069 258.724Z" fill="url(#paint0_linear)"/>
<path d="M260.949 416.452C261.011 416.958 260.88 417.469 260.582 417.883C260.271 418.179 259.882 418.382 259.461 418.466C251.034 420.773 242.409 422.282 233.7 422.972C232.451 423.066 231.132 423.136 230.029 422.558C228.926 421.98 228.19 420.503 228.862 419.435C229.404 418.536 230.612 418.326 231.622 418.134C237.088 417.067 241.931 413.93 245.139 409.378C245.522 408.726 246.021 408.148 246.61 407.674C247.73 406.909 249.219 407.09 250.543 407.353C252.878 407.831 255.977 408.397 258.084 409.541C260.191 410.685 260.914 414.217 260.949 416.452Z" fill="#3F3D56"/>
<path opacity="0.1" d="M260.949 416.452C261.011 416.958 260.88 417.469 260.582 417.883C260.271 418.179 259.882 418.382 259.461 418.466C251.034 420.773 242.409 422.282 233.7 422.972C232.451 423.066 231.132 423.136 230.029 422.558C228.926 421.98 228.19 420.503 228.862 419.435C229.404 418.536 230.612 418.326 231.622 418.134C237.088 417.067 241.931 413.93 245.139 409.378C245.522 408.726 246.021 408.148 246.61 407.674C247.73 406.909 249.219 407.09 250.543 407.353C252.878 407.831 255.977 408.397 258.084 409.541C260.191 410.685 260.914 414.217 260.949 416.452Z" fill="black"/>
<path d="M193.126 415.886C192.898 416.344 192.51 416.702 192.034 416.89C191.615 416.961 191.183 416.91 190.791 416.744C182.469 414.087 174.414 410.654 166.734 406.489C165.637 405.905 164.493 405.228 163.88 404.154C163.267 403.08 163.454 401.428 164.58 400.885C165.526 400.43 166.635 400.885 167.604 401.3C172.771 403.384 178.545 403.384 183.712 401.3C184.389 400.96 185.123 400.746 185.877 400.669C187.225 400.64 188.387 401.591 189.379 402.543C191.083 404.218 193.365 406.384 194.509 408.485C195.653 410.586 194.311 413.989 193.126 415.886Z" fill="#3F3D56"/>
<path opacity="0.1" d="M193.126 415.886C192.898 416.344 192.51 416.702 192.034 416.89C191.615 416.961 191.183 416.91 190.791 416.744C182.469 414.087 174.414 410.654 166.734 406.489C165.637 405.905 164.493 405.228 163.88 404.154C163.267 403.08 163.454 401.428 164.58 400.885C165.526 400.43 166.635 400.885 167.604 401.3C172.771 403.384 178.545 403.384 183.712 401.3C184.389 400.96 185.123 400.746 185.877 400.669C187.225 400.64 188.387 401.591 189.379 402.543C191.083 404.218 193.365 406.384 194.509 408.485C195.653 410.586 194.311 413.989 193.126 415.886Z" fill="black"/>
<path d="M237.61 304.107C238.48 306.442 239.209 308.777 239.945 311.112L241.054 314.731C242.221 318.554 243.388 322.675 242.18 326.486C241.859 327.473 241.386 328.401 241.013 329.405C239.776 332.825 240.062 336.625 240.89 340.168C241.719 343.711 243.061 347.114 243.913 350.675C244.946 354.971 245.244 359.431 245.536 363.814C245.682 365.98 246.359 368.169 246.639 370.322C247.643 378.15 251.804 385.166 254.384 392.626C255.72 396.496 256.642 400.517 258.341 404.247C259.31 406.384 260.564 408.596 260.226 410.913C255.481 412.594 250.223 412.565 245.752 410.259C245.47 410.158 245.226 409.974 245.051 409.731C244.876 409.489 244.779 409.199 244.771 408.899C244.361 406.589 244.205 404.24 244.305 401.895C244.416 400.559 244.449 399.218 244.404 397.879C244.048 392.9 240.505 388.75 239.069 383.964C238.486 381.926 238.217 379.749 237.213 377.87C236.116 375.815 234.144 374.175 233.712 371.887C233.618 371.373 233.607 370.848 233.484 370.34C233.244 369.605 232.896 368.911 232.451 368.28L230.07 364.375C228.115 361.211 228.401 356.891 226.819 353.529C226.399 352.636 225.949 351.778 225.535 350.868C224.735 349.139 224.047 347.361 223.475 345.544C219.84 350.912 216.621 356.55 213.845 362.407C213.042 364.006 212.321 365.644 211.685 367.316C210.985 369.231 210.518 371.216 209.999 373.188C208.423 379.288 206.497 385.294 204.623 391.283C204.168 392.731 203.684 394.202 202.686 395.369C202.044 396.093 201.192 396.688 200.865 397.605C200.71 398.29 200.639 398.992 200.655 399.694C200.468 401.673 199.096 403.302 197.958 404.948C197.305 405.831 196.804 406.818 196.476 407.866C196.342 408.336 196.108 408.772 195.791 409.144C195.475 409.516 195.082 409.815 194.639 410.023C194.197 410.23 193.715 410.34 193.227 410.346C192.738 410.352 192.254 410.252 191.807 410.055H191.76C191.297 409.824 190.853 409.559 190.43 409.261C189.325 408.567 188.277 407.787 187.296 406.926C186.427 406.088 185.645 405.165 184.961 404.171C184.843 404.002 184.767 403.808 184.737 403.604C184.707 403.4 184.725 403.191 184.79 402.996C184.854 402.8 184.964 402.622 185.109 402.475C185.254 402.329 185.431 402.218 185.626 402.152C185.504 400.529 185.469 398.679 186.636 397.558C187.179 397.033 187.914 396.753 188.474 396.251C189.204 395.463 189.711 394.496 189.945 393.449C191.937 387.176 193.926 380.903 195.91 374.63C196.242 373.423 196.714 372.26 197.316 371.163C197.731 370.474 198.25 369.85 198.606 369.126C199.511 367.27 199.19 365.087 199.412 363.032C199.791 359.407 201.822 356.174 203.054 352.753C203.79 350.821 204.652 348.94 205.633 347.12C206.293 345.612 206.644 343.986 206.666 342.34C206.882 338.751 207.703 335.224 209.094 331.909C209.946 329.878 211.014 327.934 211.65 325.827C212.403 323.352 212.538 320.725 213.215 318.239C213.864 316.095 214.71 314.016 215.742 312.028C216.588 310.277 217.458 308.485 218.852 307.125C221.14 304.895 224.508 304.166 227.7 304.066C230.893 303.967 234.429 304.44 237.61 304.107Z" fill="#3F3D56"/>
<path d="M218.018 258.649C222.127 256.22 226.191 253.714 230.21 251.13C229.248 249.833 228.715 248.268 228.687 246.653C228.687 246.589 228.687 246.525 228.687 246.461C228.628 244.891 229.224 243.542 227.245 243.747C225.345 243.992 223.466 244.382 221.625 244.914C221.099 245.048 216.547 246.724 216.372 246.554C217.387 247.758 218.136 249.162 218.572 250.675C218.796 251.413 218.978 252.164 219.115 252.922C219.512 254.93 219.529 257.289 218.018 258.649Z" fill="#A0616A"/>
<path d="M212.502 285.575C213.028 289.707 213.921 293.846 213.915 298.002C213.909 302.158 213.074 306.39 214.761 310.114C215.041 310.744 215.578 311.234 215.636 311.923C217.971 312.326 220.247 311.234 222.471 310.446C224.51 309.732 226.625 309.258 228.774 309.034C230.525 308.859 232.322 308.847 234.062 308.514C235.795 308.243 237.396 307.425 238.631 306.179C239.699 305.012 239.688 303.261 240.435 301.889C240.814 301.183 241.386 300.605 241.789 299.91C242.542 298.427 242.736 296.722 242.338 295.107C241.933 293.511 241.448 291.937 240.884 290.39C239.56 286.09 239.459 281.506 240.592 277.152C241.083 275.29 241.795 273.463 241.911 271.543C241.946 270.26 241.823 268.978 241.544 267.725C240.598 262.892 238.748 257.983 235.001 254.79C232.999 253.08 230.291 251.545 230.081 248.953C229.218 248.615 228.29 249.193 227.548 249.741L219.226 255.876C218.732 256.167 218.328 256.59 218.059 257.096C217.539 258.339 218.736 259.705 218.543 261.048C218.403 262.022 217.574 262.729 217.061 263.569C215.835 265.571 216.232 268.624 214.23 269.856C214.049 270.229 213.88 270.614 213.728 271.023C213.013 273.063 212.533 275.178 212.298 277.327C212.019 280.074 212.088 282.845 212.502 285.575V285.575Z" fill="#3F3D56"/>
<path opacity="0.1" d="M216.395 246.566C217.41 247.77 218.16 249.174 218.596 250.687C219.258 250.835 219.936 250.909 220.615 250.909C224.012 250.909 226.288 247.015 227.974 244.342C227.922 242.772 229.223 243.554 227.245 243.758C225.344 244.004 223.465 244.394 221.625 244.926C221.099 245.06 216.547 246.735 216.395 246.566Z" fill="black"/>
<path d="M220.615 250.109C225.888 250.109 230.163 245.834 230.163 240.56C230.163 235.286 225.888 231.01 220.615 231.01C215.342 231.01 211.067 235.286 211.067 240.56C211.067 245.834 215.342 250.109 220.615 250.109Z" fill="#A0616A"/>
<path d="M213.311 247.321L215.518 249.74C216.242 250.533 217.471 250.589 218.264 249.865L225.678 243.097C226.47 242.373 226.526 241.143 225.803 240.351L223.595 237.932C222.872 237.139 221.643 237.083 220.85 237.807L213.436 244.575C212.643 245.299 212.587 246.528 213.311 247.321Z" fill="#3F3D56"/>
<path opacity="0.1" d="M213.311 247.321L215.518 249.74C216.242 250.533 217.471 250.589 218.264 249.865L225.678 243.097C226.47 242.373 226.526 241.143 225.803 240.351L223.595 237.932C222.872 237.139 221.643 237.083 220.85 237.807L213.436 244.575C212.643 245.299 212.587 246.528 213.311 247.321Z" fill="black"/>
<path d="M221.21 243.145C221.649 243.145 222.004 242.79 222.004 242.352C222.004 241.913 221.649 241.558 221.21 241.558C220.772 241.558 220.417 241.913 220.417 242.352C220.417 242.79 220.772 243.145 221.21 243.145Z" fill="white"/>
<path opacity="0.1" d="M212.502 285.575C219.868 284.489 226.556 280.065 231.675 274.578C232.631 273.675 233.372 272.568 233.84 271.338C234.097 270.311 234.186 269.248 234.102 268.192L233.98 263.978C233.927 262.133 233.852 260.219 232.959 258.608C232.066 256.997 230.075 255.835 228.36 256.506C223.848 258.257 220.912 262.262 218.333 266.359C217.595 267.636 216.79 268.873 215.922 270.066C215.485 270.62 214.889 271.186 214.172 271.111C214.02 271.097 213.872 271.058 213.734 270.994C213.019 273.034 212.539 275.149 212.304 277.298C212.02 280.054 212.087 282.835 212.502 285.575Z" fill="black"/>
<path d="M211.843 260.966C212.209 259.388 212.887 257.899 213.839 256.588C216.693 252.123 219.903 247.763 221.426 242.678C219.203 243.081 218.852 246.91 216.6 247.08L216.775 244.319C216.775 243.852 216.775 243.286 216.395 243.04C216.016 242.795 215.339 243.116 215.088 243.577C214.837 244.038 214.784 244.599 214.551 245.072C214.318 245.544 213.769 245.965 213.284 245.755L213.086 244.838C212.878 244.795 212.662 244.799 212.456 244.851C212.25 244.903 212.058 245.002 211.895 245.139C211.733 245.276 211.604 245.449 211.518 245.643C211.432 245.838 211.391 246.05 211.399 246.262C211.24 245.822 211.156 245.359 211.148 244.891C210.15 244.704 209.427 245.807 209.071 246.759C208.332 248.9 207.758 251.096 207.355 253.325L206.439 257.767C206.118 259.302 205.802 260.837 205.592 262.384C205.043 266.49 205.26 270.662 206.234 274.689C207.457 274.011 208.644 273.268 209.789 272.465C210.67 271.718 211.656 270.871 211.989 269.733C212.812 266.861 211.359 263.855 211.843 260.966Z" fill="#A0616A"/>
<path d="M228.36 255.316C230.075 254.644 232.066 255.806 232.959 257.417C233.851 259.028 233.927 260.919 233.98 262.787L234.097 267.013C234.184 268.069 234.098 269.132 233.84 270.159C233.37 271.386 232.632 272.493 231.68 273.399C226.019 279.463 218.449 284.221 210.162 284.623C209.872 284.662 209.576 284.626 209.304 284.518C209.068 284.37 208.869 284.17 208.72 283.935C206.87 281.635 204.915 278.991 205.219 276.06C205.271 275.57 205.802 275.173 205.977 274.718C207.089 272.065 209.128 269.907 211.714 268.647L212.216 268.414C212.41 268.8 212.686 269.139 213.026 269.406C213.367 269.672 213.762 269.86 214.183 269.955C214.884 270.025 215.485 269.465 215.934 268.91C216.802 267.716 217.607 266.477 218.344 265.198C220.912 261.059 223.854 257.073 228.36 255.316Z" fill="#3F3D56"/>
<path d="M227.77 246.805C226.959 246.385 226.831 245.305 226.749 244.395C226.658 243.334 226.496 242.281 226.265 241.243C226.014 240.075 225.599 238.873 224.607 238.254C224.259 238.038 223.861 237.915 223.452 237.895C223.043 237.874 222.635 237.958 222.268 238.139C221.9 238.319 221.583 238.589 221.349 238.925C221.114 239.261 220.968 239.65 220.924 240.058C220.936 240.252 220.878 240.445 220.761 240.601C220.683 240.674 220.586 240.724 220.481 240.746C220.023 240.851 219.542 240.782 219.133 240.55C218.724 240.319 218.416 239.944 218.269 239.497C218.1 238.914 218.228 238.161 217.814 237.682C217.399 237.203 216.909 237.215 216.506 236.9C216.262 236.659 216.076 236.365 215.962 236.042C215.848 235.718 215.808 235.373 215.847 235.032C215.847 234.162 215.963 233.123 215.263 232.586C214.207 231.763 212.619 233.071 211.376 232.586C211.032 232.419 210.746 232.152 210.556 231.82C210.365 231.488 210.279 231.106 210.308 230.724C210.38 229.96 210.64 229.226 211.067 228.588C211.798 227.336 212.678 226.178 213.687 225.138C213.687 225.395 214.09 225.366 214.312 225.226L216.156 224.105C216.125 224.198 216.123 224.298 216.149 224.393C216.174 224.487 216.228 224.572 216.302 224.636C216.721 224.23 217.244 223.947 217.814 223.819C218.1 223.766 218.395 223.827 218.637 223.99C218.878 224.152 219.046 224.404 219.103 224.689L221.438 223.679C221.533 223.614 221.648 223.584 221.762 223.596C221.876 223.608 221.983 223.66 222.062 223.743C222.903 224.327 223.977 224.496 224.981 224.73C225.984 224.963 227.052 225.366 227.589 226.253C227.781 226.708 228.026 227.139 228.319 227.537C228.577 227.765 228.876 227.941 229.2 228.057C230.516 228.574 231.753 229.272 232.877 230.129C234.005 230.997 234.838 232.191 235.264 233.549C235.894 235.82 234.984 238.219 233.928 240.315C233.122 241.916 232.217 243.466 231.22 244.955C230.846 245.539 230.332 246.642 229.731 246.98C229.078 247.162 228.381 247.1 227.77 246.805V246.805Z" fill="#3F3D56"/>
<path opacity="0.1" d="M211.393 230.205C212.637 230.683 214.224 229.376 215.28 230.205C215.963 230.742 215.864 231.781 215.864 232.65C215.826 232.991 215.865 233.337 215.979 233.66C216.094 233.984 216.28 234.277 216.524 234.518C216.926 234.834 217.498 234.909 217.831 235.3C218.164 235.692 218.117 236.509 218.286 237.116C218.433 237.562 218.741 237.938 219.15 238.169C219.559 238.4 220.04 238.47 220.498 238.365C220.603 238.343 220.7 238.292 220.778 238.219C220.895 238.063 220.953 237.871 220.942 237.676C220.985 237.269 221.131 236.879 221.366 236.543C221.601 236.208 221.917 235.937 222.285 235.757C222.653 235.577 223.06 235.493 223.47 235.513C223.879 235.533 224.276 235.657 224.624 235.873C225.617 236.491 226.031 237.717 226.282 238.861C226.513 239.9 226.675 240.953 226.766 242.013C226.848 242.924 226.976 244.003 227.788 244.424C228.408 244.727 229.12 244.79 229.784 244.599C230.367 244.26 230.898 243.14 231.272 242.573C232.271 241.075 233.175 239.515 233.98 237.904C234.65 236.658 235.134 235.321 235.416 233.935C235.836 236.083 234.972 238.312 233.98 240.291C233.174 241.892 232.27 243.442 231.272 244.932C230.898 245.515 230.385 246.618 229.784 246.957C229.12 247.148 228.408 247.085 227.788 246.782C226.976 246.362 226.848 245.282 226.766 244.371C226.675 243.311 226.513 242.258 226.282 241.219C226.031 240.052 225.617 238.849 224.624 238.231C224.276 238.015 223.879 237.891 223.47 237.871C223.06 237.851 222.653 237.935 222.285 238.115C221.917 238.295 221.601 238.566 221.366 238.902C221.131 239.237 220.985 239.627 220.942 240.034C220.953 240.229 220.895 240.421 220.778 240.577C220.7 240.651 220.603 240.701 220.498 240.723C220.04 240.828 219.559 240.758 219.15 240.527C218.741 240.296 218.433 239.92 218.286 239.474C218.117 238.89 218.245 238.137 217.831 237.659C217.417 237.18 216.926 237.192 216.524 236.876C216.28 236.635 216.094 236.342 215.979 236.018C215.865 235.695 215.826 235.35 215.864 235.009C215.864 234.139 215.981 233.1 215.28 232.563C214.224 231.74 212.637 233.047 211.393 232.563C211.049 232.395 210.763 232.128 210.573 231.796C210.382 231.464 210.296 231.083 210.325 230.701C210.346 230.28 210.445 229.866 210.617 229.481C210.785 229.804 211.059 230.06 211.393 230.205V230.205Z" fill="black"/>
<defs>
<linearGradient id="paint0_linear" x1="213.454" y1="423.013" x2="213.454" y2="220.866" gradientUnits="userSpaceOnUse">
<stop stop-color="#808080" stop-opacity="0.25"/>
<stop offset="0.54" stop-color="#808080" stop-opacity="0.12"/>
<stop offset="1" stop-color="#808080" stop-opacity="0.1"/>
</linearGradient>
</defs>
</svg>
