<svg width="64" height="64" viewBox="0 0 64 64" fill="none" xmlns="http://www.w3.org/2000/svg">
<path d="M0.9375 16.0344C1.45525 16.0344 1.875 15.6148 1.875 15.0969V10.1188C1.875 9.2278 2.59987 8.50293 3.49088 8.50293H49.2896C50.1806 8.50293 50.9056 9.2278 50.9056 10.1188V13.0968C50.9056 13.6147 51.3252 14.0343 51.8431 14.0343C52.361 14.0343 52.7806 13.6147 52.7806 13.0968V10.1188C52.7806 8.19405 51.2146 6.62793 49.2896 6.62793H3.49088C1.566 6.62793 0 8.19405 0 10.1188V15.0969C0 15.6148 0.41975 16.0344 0.9375 16.0344Z" fill="white"/>
<path d="M50.2944 45.2877C50.0064 45.5168 49.659 45.6379 49.2896 45.6379H30.7045H22.0761H3.491C2.82275 45.6379 2.24787 45.2302 2.00225 44.6504C1.92037 44.4572 1.875 44.2448 1.875 44.0221V41.6414H38.2671C38.785 41.6414 39.2046 41.2218 39.2046 40.7039C39.2046 40.1861 38.785 39.7664 38.2671 39.7664H1.875V18.8468C1.875 18.3289 1.45525 17.9093 0.9375 17.9093C0.41975 17.9093 0 18.3289 0 18.8468V40.7038V44.0219C0 44.6234 0.152875 45.1899 0.422 45.6844C1.01388 46.7726 2.16762 47.5127 3.491 47.5127H20.8765L19.7183 52.1638H16.624C15.0679 52.1638 13.8018 53.4298 13.8018 54.9859V56.4342C13.8018 56.9521 14.2215 57.3717 14.7393 57.3717H30.1252C30.643 57.3717 31.0627 56.9521 31.0627 56.4342C31.0627 55.9163 30.643 55.4967 30.1252 55.4967H15.6768V54.9859C15.6768 54.4637 16.1016 54.0388 16.624 54.0388H20.4509H32.3298H36.1566C36.679 54.0388 37.1039 54.4637 37.1039 54.9859V55.4967H33.875C33.3571 55.4967 32.9375 55.9163 32.9375 56.4342C32.9375 56.9521 33.3571 57.3717 33.875 57.3717H38.0414C38.5592 57.3717 38.9789 56.9521 38.9789 56.4342V54.9862C38.9789 53.4301 37.7127 52.1641 36.1566 52.1641H33.0624L31.9041 47.5129H49.2896C50.0761 47.5129 50.8476 47.2437 51.4619 46.7548C51.867 46.4324 51.934 45.8426 51.6116 45.4376C51.2894 45.0322 50.6995 44.9652 50.2944 45.2877ZM31.1301 52.1641H21.6505L22.8089 47.5129H29.972L31.1301 52.1641Z" fill="white"/>
<path d="M36.498 16.9719V14.1183C36.498 13.6004 36.0784 13.1808 35.5605 13.1808H9.15363V12.7365C9.15363 12.2186 8.73388 11.799 8.21613 11.799C7.69837 11.799 7.27863 12.2186 7.27863 12.7365V14.1183V16.9719V18.3535C7.27863 18.8714 7.69837 19.291 8.21613 19.291C8.73388 19.291 9.15363 18.8714 9.15363 18.3535V17.9094H35.5605C36.0784 17.9094 36.498 17.4898 36.498 16.9719ZM34.623 16.0344H9.15363V15.0558H34.623V16.0344Z" fill="white"/>
<path d="M8.21613 20.8634C7.69837 20.8634 7.27863 21.283 7.27863 21.8009V23.1827V26.0362V27.4179C7.27863 27.9358 7.69837 28.3554 8.21613 28.3554C8.73388 28.3554 9.15363 27.9358 9.15363 27.4179V26.9737H25.0544C25.5721 26.9737 25.9919 26.554 25.9919 26.0362V23.1827C25.9919 22.6648 25.5721 22.2452 25.0544 22.2452H9.15363V21.8009C9.15363 21.2832 8.734 20.8634 8.21613 20.8634ZM24.117 24.1202V25.0987H9.15363V24.1202H24.117Z" fill="white"/>
<path d="M7.27863 32.2469V35.1005V36.4822C7.27863 37.0001 7.69837 37.4197 8.21613 37.4197C8.73388 37.4197 9.15363 37.0001 9.15363 36.4822V36.038H30.971C31.4888 36.038 31.9085 35.6184 31.9085 35.1005V32.2469C31.9085 31.729 31.4888 31.3094 30.971 31.3094H9.15363V30.8652C9.15363 30.3474 8.73388 29.9277 8.21613 29.9277C7.69837 29.9277 7.27863 30.3474 7.27863 30.8652V32.2469ZM30.0335 33.1844V34.163H9.15363V33.1844H30.0335Z" fill="white"/>
<path d="M50.148 15.6852C42.51 15.6852 36.296 21.8992 36.296 29.5372C36.296 37.1752 42.51 43.3892 50.148 43.3892C57.786 43.3892 64 37.1753 64 29.5373C64 21.8993 57.786 15.6852 50.148 15.6852ZM50.148 41.5143C43.5439 41.5143 38.171 36.1414 38.171 29.5373C38.171 22.9332 43.5439 17.5603 50.148 17.5603C56.7521 17.5603 62.125 22.9332 62.125 29.5373C62.125 36.1414 56.7521 41.5143 50.148 41.5143Z" fill="white"/>
<path d="M60.4728 29.1378C58.5974 25.1568 54.5446 22.5846 50.1479 22.5846C45.7511 22.5846 41.6984 25.1568 39.823 29.1378C39.7039 29.3908 39.7039 29.6838 39.823 29.937C41.6984 33.918 45.7511 36.4902 50.1479 36.4902C54.5446 36.4902 58.5974 33.918 60.4728 29.937C60.5919 29.6838 60.5919 29.3908 60.4728 29.1378ZM50.148 33.5145C48.2339 33.5145 46.6312 32.1552 46.2546 30.3513C46.3539 30.3606 46.454 30.3652 46.5546 30.3652C48.3166 30.3652 49.75 28.9317 49.75 27.1698C49.75 26.623 49.613 26.0996 49.3611 25.6388C49.6193 25.5867 49.883 25.5601 50.148 25.5601C52.341 25.5601 54.1251 27.3442 54.1251 29.5372C54.1251 31.7302 52.341 33.5145 50.148 33.5145ZM41.7192 29.5373C42.8255 27.4507 44.6656 25.8732 46.8255 25.0645C46.8142 25.1192 46.8061 25.175 46.8049 25.2321C46.7976 25.5635 46.9661 25.8741 47.2479 26.0488C47.6406 26.2925 47.8751 26.7117 47.8751 27.17C47.8751 27.8981 47.2829 28.4903 46.5547 28.4903C46.2836 28.4903 46.0224 28.4076 45.7993 28.2511C45.5273 28.0605 45.1749 28.0278 44.8725 28.1653C44.5703 28.303 44.3634 28.5902 44.3285 28.9205C44.3069 29.1262 44.2959 29.3337 44.2959 29.5373C44.2959 31.1403 44.9441 32.5945 45.9917 33.6525C44.1949 32.7781 42.6801 31.3497 41.7192 29.5373ZM54.3042 33.6523C55.3519 32.5943 56.0001 31.1402 56.0001 29.5372C56.0001 27.9342 55.3519 26.4801 54.3042 25.4221C56.101 26.2965 57.6158 27.7247 58.5766 29.5372C57.6158 31.3497 56.101 32.7781 54.3042 33.6523Z" fill="white"/>
</svg>
