<svg width="64" height="64" viewBox="0 0 64 64" fill="none" xmlns="http://www.w3.org/2000/svg">
<g clip-path="url(#clip0)">
<path d="M57.7195 0.124847H6.28079C2.81739 0.124847 0 2.94273 0 6.4071V39.8633C0 43.3579 2.84327 46.2012 6.33791 46.2012H19.9859L18.7237 51.4883H16.0953C13.3643 51.4883 11.1426 53.71 11.1426 56.441V58.148C11.1426 58.6729 11.5679 59.0987 12.0928 59.0987H21.3922L20.9771 62.9898C20.9483 63.2579 21.0352 63.526 21.2154 63.7262C21.3956 63.9269 21.6524 64.0416 21.922 64.0416L59.9118 64.0411C60.1809 64.0411 60.4377 63.9274 60.6179 63.7272C60.7981 63.5274 60.885 63.2604 60.8572 62.9928L60.1326 56.0196C60.0784 55.4976 59.6125 55.1177 59.0891 55.1724C58.5671 55.2266 58.1877 55.6939 58.2419 56.2159L58.8576 62.1402H44.9011L42.7453 41.9444C42.694 41.461 42.2863 41.0947 41.8005 41.0947H31.3234L32.171 32.9399H36.2033V35.0303C36.2033 35.5552 36.629 35.9809 37.1539 35.9809C37.6789 35.9809 38.1046 35.5552 38.1046 35.0303V32.9399H49.8898V35.0303C49.8898 35.5552 50.3151 35.9809 50.8405 35.9809C51.3654 35.9809 51.7907 35.5552 51.7907 35.0303V32.9399H55.823L57.9074 52.9996C57.9582 53.4883 58.3708 53.8516 58.8518 53.8516C58.8845 53.8516 58.9177 53.8502 58.9509 53.8467C59.4734 53.7925 59.8523 53.3253 59.7981 52.8028L59.095 46.0362C61.9119 45.3799 63.9998 42.836 63.9998 39.8633V6.4071C64.0002 2.94273 61.1824 0.124847 57.7195 0.124847ZM21.94 46.2012H22.7686L22.2047 51.4883H20.6778L21.94 46.2012ZM13.0435 57.1978V56.441C13.0435 54.7584 14.4122 53.3892 16.0953 53.3892H22.0015L21.5953 57.1978H13.0435ZM42.9889 62.1402H22.9796L25.023 42.9956H40.9455L42.9889 62.1402ZM38.1046 31.0385V28.7578C38.1046 25.5087 40.7477 22.8652 43.9972 22.8652C47.2463 22.8652 49.8898 25.5087 49.8898 28.7578V31.0385H38.1046ZM51.7912 31.0385V28.7578C51.7912 24.4604 48.2946 20.9643 43.9972 20.9643C39.6999 20.9643 36.2038 24.4604 36.2038 28.7578V31.0385H31.3146C30.8278 31.0385 30.4195 31.4067 30.3693 31.8911L29.7052 38.2778H13.3233C12.7984 38.2778 12.3731 38.7031 12.3731 39.228C12.3731 39.7529 12.7984 40.1787 13.3233 40.1787H29.5074L29.4122 41.0947H24.1685C23.6827 41.0947 23.275 41.461 23.2232 41.9444L22.9718 44.3003H6.33791C3.99806 44.3003 2.07618 42.4785 1.91358 40.1792H10.1548C10.6797 40.1792 11.105 39.7539 11.105 39.229C11.105 38.7041 10.6797 38.2783 10.1548 38.2783H1.90089V6.4071C1.90089 3.99107 3.86574 2.02573 6.28079 2.02573H57.7195C60.1345 2.02573 62.0994 3.99107 62.0994 6.4071V38.2778H58.2893L57.6257 31.8911C57.5754 31.4067 57.1672 31.0385 56.6804 31.0385H51.7912ZM58.8967 44.1245L58.4865 40.1787H62.0867C61.9534 42.042 60.6521 43.6133 58.8967 44.1245Z" fill="white"/>
<path d="M30.1261 11.917H22.4434V9.06538C22.4434 7.35346 21.0504 5.96039 19.3384 5.96039C17.6265 5.96039 16.2334 7.35346 16.2334 9.06538V11.917H8.55079C7.30127 11.917 6.28467 12.9336 6.28467 14.1826V15.7339C6.28467 16.7363 6.93994 17.5874 7.84376 17.8857L9.14552 27.8052C9.39796 29.7295 11.0518 31.1802 12.9922 31.1802H25.6847C27.6251 31.1802 29.2784 29.7295 29.5314 27.8052L30.8331 17.8857C31.7369 17.5879 32.3922 16.7363 32.3922 15.7339V14.1826C32.3917 12.9336 31.3751 11.917 30.1261 11.917ZM30.1261 13.8178C30.3273 13.8178 30.4908 13.9814 30.4908 14.1826V15.7339C30.4908 15.935 30.3273 16.0991 30.1261 16.0991H22.4434V13.8178H30.1261ZM18.1343 9.06538C18.1343 8.40132 18.6744 7.86127 19.3384 7.86127C20.002 7.86127 20.5421 8.40132 20.5421 9.06538V19.3306C20.5421 19.9946 20.002 20.5347 19.3384 20.5347C18.6744 20.5347 18.1343 19.9946 18.1343 19.3306V9.06538ZM8.18556 14.1826C8.18556 13.9814 8.34962 13.8178 8.55079 13.8178H16.2334V16.0991H8.55079C8.34962 16.0991 8.18556 15.935 8.18556 15.7339V14.1826ZM27.6461 27.5581C27.5177 28.5391 26.6739 29.2793 25.6847 29.2793H12.9922C12.0025 29.2793 11.1592 28.5391 11.0303 27.5581L9.77638 18H16.2334V19.3306C16.2334 21.043 17.6265 22.4356 19.3384 22.4356C21.0508 22.4356 22.4434 21.043 22.4434 19.3306V18H28.901L27.6461 27.5581Z" fill="white"/>
<path d="M29.8478 49.9698V45.8829C29.8478 45.358 29.4225 44.9327 28.8976 44.9327C28.3727 44.9327 27.9469 45.358 27.9469 45.8829V49.9698C27.9469 52.7476 30.2067 55.0074 32.9845 55.0074C35.7619 55.0074 38.0217 52.7476 38.0217 49.9698V45.8829C38.0217 45.358 37.5964 44.9327 37.0715 44.9327C36.5465 44.9327 36.1208 45.358 36.1208 45.8829V49.9698C36.1208 51.6993 34.714 53.1065 32.9845 53.1065C31.255 53.1065 29.8478 51.6993 29.8478 49.9698Z" fill="white"/>
<path d="M40.985 9.78021H36.9293C36.4044 9.78021 35.9791 10.206 35.9791 10.7309C35.9791 11.2558 36.4044 11.6811 36.9293 11.6811H40.985C41.5099 11.6811 41.9352 11.2558 41.9352 10.7309C41.9352 10.206 41.5099 9.78021 40.985 9.78021Z" fill="white"/>
<path d="M45.1672 11.6811H58.3474C58.8723 11.6811 59.2976 11.2558 59.2976 10.7309C59.2976 10.206 58.8723 9.78021 58.3474 9.78021H45.1672C44.6418 9.78021 44.2165 10.206 44.2165 10.7309C44.2165 11.2558 44.6418 11.6811 45.1672 11.6811Z" fill="white"/>
<path d="M40.985 14.2162H36.9293C36.4044 14.2162 35.9791 14.6415 35.9791 15.1664C35.9791 15.6913 36.4044 16.1171 36.9293 16.1171H40.985C41.5099 16.1171 41.9352 15.6913 41.9352 15.1664C41.9352 14.6415 41.5099 14.2162 40.985 14.2162Z" fill="white"/>
<path d="M59.2976 15.1664C59.2976 14.6415 58.8723 14.2162 58.3474 14.2162H45.1672C44.6418 14.2162 44.2165 14.6415 44.2165 15.1664C44.2165 15.6913 44.6418 16.1171 45.1672 16.1171H58.3474C58.8723 16.1171 59.2976 15.6913 59.2976 15.1664Z" fill="white"/>
</g>
<defs>
<clipPath id="clip0">
<rect width="64" height="64" fill="white"/>
</clipPath>
</defs>
</svg>
