<svg width="30" height="26" viewBox="0 0 30 26" fill="none" xmlns="http://www.w3.org/2000/svg">
<g clip-path="url(#clip0)">
<path d="M22.5743 6.18079L10.2363 12.7552C9.53809 13.1281 9.20768 13.8647 9.43262 14.5459L10.7667 18.6014C10.8806 18.9471 11.2363 19.177 11.6455 19.177C11.6683 19.177 11.6913 19.1763 11.7144 19.1748C12.1519 19.1473 12.4981 18.8654 12.5562 18.4897L12.9031 16.266C12.9499 15.9668 13.1165 15.6885 13.3719 15.4827L23.5535 7.29453C23.8611 7.0477 23.9018 6.64352 23.6483 6.35441C23.3943 6.06506 22.9329 5.99023 22.5743 6.18079ZM12.5578 14.7256C12.1003 15.0941 11.8023 15.5919 11.7186 16.1276L11.5504 17.2062L10.582 14.2623C10.5033 14.0239 10.6192 13.766 10.8635 13.6355L19.9021 8.81929L12.5578 14.7256Z" fill="#DD4F24"/>
<path d="M29.5119 1.89505C29.1264 1.61239 28.5945 1.53457 28.1234 1.69203L0.88361 10.7835C0.344137 10.9635 -0.00273763 11.403 1.62783e-05 11.9031C0.00282878 12.4036 0.354801 12.8406 0.897438 13.0166L7.26013 15.0711L9.74211 21.9768C9.8784 22.3565 10.2224 22.6515 10.6622 22.7659C11.1018 22.8803 11.5765 22.7985 11.9313 22.5474L15.631 19.9381C15.8086 19.8128 16.0623 19.8066 16.2478 19.9231L22.9207 24.1145C23.1607 24.2655 23.444 24.3432 23.7306 24.3432C23.8985 24.3432 24.0675 24.3165 24.2296 24.2623C24.6683 24.1155 24.9873 23.7902 25.0828 23.3922L29.9712 3.04848C30.0738 2.62012 29.8979 2.17818 29.5119 1.89505ZM28.801 2.83836L23.9126 23.1821C23.8949 23.2556 23.8337 23.2861 23.7988 23.2979C23.7636 23.3096 23.6942 23.3226 23.6232 23.2779L16.9501 19.0863C16.6518 18.899 16.3011 18.806 15.951 18.806C15.5691 18.806 15.1877 18.9167 14.876 19.1364L11.1755 21.7464C11.1097 21.793 11.0413 21.7847 11.0065 21.7756C10.9715 21.7665 10.9089 21.7407 10.8835 21.6699L8.31447 14.5218C8.25957 14.3691 8.12597 14.2469 7.95277 14.1909L1.31615 12.0479C1.21677 12.0158 1.19562 11.9487 1.19533 11.898C1.19504 11.8479 1.21543 11.7811 1.31386 11.7483L28.5537 2.65683C28.5538 2.65678 28.554 2.65672 28.5542 2.65667C28.6426 2.62712 28.7081 2.66108 28.7393 2.6839C28.7705 2.70696 28.8203 2.75766 28.801 2.83836Z" fill="#DD4F24"/>
<path d="M25.0477 12.7819C24.7251 12.7213 24.407 12.8985 24.3369 13.1775L24.2461 13.5395C24.1761 13.8185 24.3808 14.0939 24.7034 14.1544C24.7461 14.1624 24.7887 14.1663 24.8308 14.1663C25.1059 14.1663 25.3534 14.0009 25.4142 13.7589L25.5051 13.3969C25.575 13.1179 25.3702 12.8425 25.0477 12.7819Z" fill="#DD4F24"/>
<path d="M24.4501 15.1637C24.1271 15.1032 23.8092 15.2803 23.7392 15.5593L22.3647 21.0368C22.2947 21.3159 22.4994 21.5912 22.8219 21.6518C22.8647 21.6598 22.9073 21.6637 22.9493 21.6637C23.2244 21.6637 23.4719 21.4983 23.5327 21.2562L24.9073 15.7787C24.9773 15.4996 24.7726 15.2243 24.4501 15.1637Z" fill="#DD4F24"/>
</g>
<defs>
<clipPath id="clip0">
<rect width="30" height="25.9551" fill="white"/>
</clipPath>
</defs>
</svg>
