<svg width="30" height="30" viewBox="0 0 30 30" fill="none" xmlns="http://www.w3.org/2000/svg">
<g clip-path="url(#clip0)">
<path d="M13.6221 22.8706C13.3935 23.099 13.3935 23.47 13.6221 23.6989C13.8513 23.9275 14.222 23.9275 14.4505 23.6989C14.6796 23.47 14.6796 23.099 14.4505 22.8706C14.222 22.6415 13.8513 22.6415 13.6221 22.8706Z" fill="#DD4F24"/>
<path d="M28.6484 21.853L24.1999 18.0702C24.1793 18.0528 24.1575 18.0368 24.1349 18.0224C22.9678 17.2794 21.4693 17.444 20.4908 18.4222L18.0654 20.8475C17.8974 21.0157 17.6468 21.0654 17.427 20.9747C14.6882 19.8418 12.4383 18.1361 10.7398 15.9057C9.44455 14.2049 8.97764 12.8533 8.91607 12.6629C8.90874 12.6222 8.89707 12.5816 8.88059 12.542C8.78972 12.3223 8.83939 12.0721 9.00785 11.9041L11.4331 9.47823C12.4115 8.49976 12.5759 7.00127 11.8329 5.8342C11.827 5.82482 11.8208 5.81566 11.8144 5.80651L8.60181 1.34217C7.59107 -0.225899 5.38946 -0.462791 4.06812 0.858314L3.58243 1.344C3.5822 1.34446 3.58175 1.34492 3.58129 1.34515L1.84728 3.07915C-0.220438 5.1471 -0.558725 8.2544 0.869268 12.0657C2.09241 15.3305 4.54099 18.9036 7.76388 22.1265C11.063 25.4256 14.7326 27.9195 18.0967 29.1488C21.4265 30.3653 24.9685 30.5152 27.4754 28.008L29.1108 26.3729C30.4262 25.0573 30.1966 22.8701 28.6484 21.853ZM23.4739 18.9908L27.9185 22.7703C27.9389 22.7877 27.9606 22.8037 27.9833 22.8181C28.9327 23.4226 29.0764 24.7501 28.282 25.5444L28.1607 25.6659L20.5799 19.9901L21.3194 19.2508C21.8973 18.6726 22.7781 18.568 23.4739 18.9908ZM7.62288 1.98601C7.62884 1.9954 7.63502 2.00478 7.64142 2.01371L10.8526 6.47645C11.2889 7.17476 11.1879 8.06626 10.6045 8.64968L9.8879 9.36654L4.75911 1.82442L4.89667 1.68687C5.69433 0.889213 7.0207 1.04005 7.62288 1.98601ZM18.4987 28.0481C15.2916 26.8762 11.7734 24.4789 8.59243 21.2979C5.48513 18.1908 3.13199 14.7661 1.9663 11.6547C1.09128 9.31916 0.504202 6.07934 2.67583 3.90794L3.91569 2.66785L9.04447 10.21L8.17952 11.0754C7.68743 11.5665 7.5327 12.2935 7.7783 12.9408C7.96323 13.6997 8.81421 15.2751 9.67275 16.436C10.9362 18.1444 13.2293 20.5062 16.9791 22.0576C17.6381 22.3302 18.3895 22.1805 18.8939 21.6763L19.7429 20.8271L27.3237 26.5029L26.6469 27.1795C24.3189 29.5077 20.931 28.9368 18.4987 28.0481Z" fill="#DD4F24"/>
<path d="M12.5226 21.4717C11.9037 20.929 10.8332 19.9956 10.2695 19.4157C8.88702 17.995 7.4366 16.2729 6.57417 15.0287C6.38992 14.7627 6.02486 14.6963 5.75889 14.8808C5.49293 15.0651 5.42679 15.4301 5.61104 15.6961C6.69868 17.2653 8.29674 19.0684 9.42947 20.2325C10.0246 20.845 11.1042 21.7866 11.7499 22.3527C11.9927 22.5655 12.3628 22.5422 12.5768 22.2984C12.7901 22.0553 12.7659 21.685 12.5226 21.4717Z" fill="#DD4F24"/>
</g>
<defs>
<clipPath id="clip0">
<rect width="30" height="30" fill="white"/>
</clipPath>
</defs>
</svg>
