<svg width="521" height="451" viewBox="0 0 521 451" fill="none" xmlns="http://www.w3.org/2000/svg">
<g opacity="0.9">
<path opacity="0.9" d="M431.384 114.491H428.801C428.038 114.491 427.419 115.11 427.419 115.874V157.207C427.419 157.971 428.038 158.59 428.801 158.59H431.384C432.147 158.59 432.766 157.971 432.766 157.207V115.874C432.766 115.11 432.147 114.491 431.384 114.491Z" fill="#3A3768"/>
<path opacity="0.9" d="M251.366 79.9458H251.131C250.367 79.9458 249.749 80.565 249.749 81.3288V93.0815C249.749 93.8453 250.367 94.4645 251.131 94.4645H251.366C252.129 94.4645 252.748 93.8453 252.748 93.0815V81.3288C252.748 80.565 252.129 79.9458 251.366 79.9458Z" fill="#3A3768"/>
<path opacity="0.9" d="M251.637 106.525H251.022C250.259 106.525 249.64 107.144 249.64 107.908V130.411C249.64 131.175 250.259 131.794 251.022 131.794H251.637C252.401 131.794 253.019 131.175 253.019 130.411V107.908C253.019 107.144 252.401 106.525 251.637 106.525Z" fill="#3A3768"/>
<path opacity="0.9" d="M251.529 140.635H251.076C250.313 140.635 249.694 141.254 249.694 142.018V164.738C249.694 165.502 250.313 166.121 251.076 166.121H251.529C252.292 166.121 252.911 165.502 252.911 164.738V142.018C252.911 141.254 252.292 140.635 251.529 140.635Z" fill="#3A3768"/>
<path opacity="0.9" d="M406.776 31.9688H274.978C261.984 31.9688 251.45 42.5114 251.45 55.5163V372.228C251.45 385.233 261.984 395.776 274.978 395.776H406.776C419.77 395.776 430.303 385.233 430.303 372.228V55.5163C430.303 42.5114 419.77 31.9688 406.776 31.9688Z" fill="#3A3768"/>
<path opacity="0.9" d="M346.26 42.8276H325.954C324.665 42.8276 323.619 43.8741 323.619 45.1649V45.5635C323.619 46.8543 324.665 47.9007 325.954 47.9007H346.26C347.549 47.9007 348.595 46.8543 348.595 45.5635V45.1649C348.595 43.8741 347.549 42.8276 346.26 42.8276Z" fill="#E6E8EC"/>
<path opacity="0.9" d="M355.25 48.2508C356.84 48.2508 358.129 46.9611 358.129 45.37C358.129 43.779 356.84 42.4893 355.25 42.4893C353.661 42.4893 352.372 43.779 352.372 45.37C352.372 46.9611 353.661 48.2508 355.25 48.2508Z" fill="#E6E8EC"/>
</g>
<path opacity="0.1" d="M143.638 416.454C210.279 416.454 264.303 410.944 264.303 404.146C264.303 397.349 210.279 391.838 143.638 391.838C76.9959 391.838 22.9721 397.349 22.9721 404.146C22.9721 410.944 76.9959 416.454 143.638 416.454Z" fill="#6C63FF"/>
<path opacity="0.1" d="M411.942 451C443.161 451 468.47 448.418 468.47 445.232C468.47 442.047 443.161 439.465 411.942 439.465C380.722 439.465 355.413 442.047 355.413 445.232C355.413 448.418 380.722 451 411.942 451Z" fill="#6C63FF"/>
<path d="M405.032 41.4385H384.576V43.9086C384.576 47.0128 383.344 49.9898 381.151 52.1848C378.958 54.3798 375.984 55.6129 372.882 55.6129H307.604C304.503 55.6129 301.528 54.3798 299.335 52.1848C297.142 49.9898 295.91 47.0128 295.91 43.9086V41.4385H276.697C274.832 41.4385 272.986 41.8062 271.262 42.5208C269.539 43.2353 267.974 44.2826 266.655 45.6028C265.337 46.9231 264.291 48.4903 263.578 50.2152C262.865 51.94 262.498 53.7885 262.499 55.6552V372.077C262.498 373.944 262.865 375.792 263.578 377.517C264.291 379.242 265.337 380.809 266.655 382.13C267.974 383.45 269.539 384.497 271.262 385.212C272.986 385.926 274.832 386.294 276.697 386.294H405.032C408.8 386.294 412.413 384.796 415.076 382.13C417.74 379.464 419.237 375.848 419.237 372.077V55.6552C419.237 51.8847 417.74 48.2686 415.076 45.6025C412.413 42.9363 408.8 41.4385 405.032 41.4385Z" fill="#6C63FF"/>
<path d="M492.22 16.0066C492.22 16.0066 441.412 12.9386 447.404 48.5711C447.404 48.5711 446.198 54.8701 451.918 57.7268C451.918 57.7268 452.008 55.0876 457.125 55.9814C458.949 56.2899 460.802 56.3791 462.647 56.2471C465.141 56.0805 467.512 55.1028 469.399 53.463C469.399 53.463 483.676 47.5564 489.233 24.1961C489.233 24.1961 493.343 19.0988 493.18 17.7883L484.605 21.4542C484.605 21.4542 487.532 27.6446 485.209 32.7901C485.209 32.7901 484.931 21.6776 483.284 21.9192C482.946 21.9675 478.824 24.0632 478.824 24.0632C478.824 24.0632 483.869 34.8435 480.031 42.6826C480.031 42.6826 481.473 29.396 477.219 24.8423L471.185 28.3693C471.185 28.3693 477.074 39.5059 473.086 48.5952C473.086 48.5952 474.106 34.6563 469.918 29.2269L464.451 33.4967C464.451 33.4967 469.984 44.4703 466.611 52.0075C466.611 52.0075 466.165 35.7857 463.262 34.5597C463.262 34.5597 458.477 38.7872 457.747 40.5145C457.747 40.5145 461.536 48.4865 459.189 52.6899C459.189 52.6899 457.747 41.8794 456.564 41.819C456.564 41.819 451.797 48.9817 451.302 53.8978C451.302 53.8978 451.508 46.5962 455.406 41.1426C455.406 41.1426 450.802 41.9338 448.11 44.9233C448.11 44.9233 448.853 39.8623 456.558 39.4153C456.558 39.4153 460.499 33.9799 461.555 33.6538C461.555 33.6538 453.861 33.0075 449.197 35.0791C449.197 35.0791 453.3 30.3019 462.967 32.4761L468.361 28.0613C468.361 28.0613 458.236 26.6782 453.939 28.2062C453.939 28.2062 458.887 23.9786 469.821 27.0587L475.699 23.5438C475.699 23.5438 467.064 21.6776 461.917 22.3359C461.917 22.3359 467.347 19.4068 477.418 22.5835L481.642 20.6932C481.642 20.6932 475.312 19.4491 473.46 19.2498C471.608 19.0505 471.511 18.5432 471.511 18.5432C475.549 17.8718 479.693 18.3446 483.477 19.9081C483.477 19.9081 492.371 16.5683 492.22 16.0066Z" fill="#6C63FF"/>
<path d="M440.109 0.159121C440.109 0.159121 417.179 -1.2239 419.858 14.8771C419.858 14.8771 419.321 17.7217 421.898 19.0141C421.898 19.0141 421.94 17.8062 424.251 18.2229C425.074 18.3616 425.911 18.4021 426.743 18.3437C427.87 18.2679 428.942 17.827 429.797 17.0875C429.797 17.0875 436.247 14.4181 438.757 3.86127C438.757 3.86127 440.616 1.56026 440.568 0.968402L436.694 2.62319C436.694 2.62319 438.015 5.41944 436.971 7.7446C436.971 7.7446 436.851 2.72586 436.102 2.84061C435.952 2.84061 434.093 3.81296 434.093 3.81296C434.093 3.81296 436.368 8.68071 434.648 12.2258C434.648 12.2258 435.3 6.22268 433.381 4.16324L430.654 5.75764C430.654 5.75764 433.315 10.7885 431.51 14.8952C431.51 14.8952 431.975 8.59616 430.08 6.14416L427.606 8.07677C427.606 8.07677 430.11 13.0351 428.584 16.4413C428.584 16.4413 428.385 9.10951 427.075 8.55388C427.075 8.55388 424.909 10.4623 424.583 11.2475C424.583 11.2475 426.291 14.8711 425.229 16.7493C425.229 16.7493 424.577 11.8635 424.022 11.8393C424.022 11.8393 421.868 15.0764 421.645 17.2748C421.749 15.2253 422.387 13.2389 423.497 11.5132C422.255 11.7483 421.11 12.3425 420.202 13.2223C420.202 13.2223 420.534 10.9334 424.028 10.7341C424.028 10.7341 425.808 8.27607 426.285 8.12508C426.285 8.12508 422.809 7.83519 420.703 8.7713C420.703 8.7713 422.556 6.61524 426.924 7.56342L429.338 5.57042C429.338 5.57042 424.764 4.96648 422.821 5.63685C422.821 5.63685 425.06 3.7284 429.996 5.11746L432.651 3.5291C432.651 3.5291 428.753 2.68963 426.43 2.9916C426.43 2.9916 428.879 1.66897 433.429 3.10031L435.33 2.24875C435.33 2.24875 432.476 1.68709 431.637 1.5965C430.798 1.50591 430.756 1.27641 430.756 1.27641C432.566 0.974988 434.423 1.18412 436.12 1.88035C436.12 1.88035 440.175 0.412775 440.109 0.159121Z" fill="#6C63FF"/>
<path d="M24.2634 378.165C37.6638 378.165 48.5269 376.326 48.5269 374.058C48.5269 371.79 37.6638 369.951 24.2634 369.951C10.8631 369.951 0 371.79 0 374.058C0 376.326 10.8631 378.165 24.2634 378.165Z" fill="#6C63FF"/>
<path d="M34.2923 367.336C35.4016 366.436 36.2099 365.218 36.6094 363.845C36.9051 362.456 36.3137 360.826 34.9922 360.288C33.5078 359.714 31.9208 360.747 30.72 361.786C29.5192 362.825 28.1374 364.014 26.5625 363.791C27.3692 363.055 27.9716 362.122 28.3111 361.084C28.6506 360.046 28.7155 358.937 28.4994 357.866C28.4344 357.421 28.2463 357.003 27.9564 356.658C27.1357 355.777 25.6392 356.157 24.6496 356.852C21.5119 359.062 20.6369 363.326 20.6248 367.167C20.305 365.778 20.5705 364.334 20.5645 362.939C20.5585 361.544 20.1662 359.92 18.9715 359.183C18.2306 358.784 17.3986 358.587 16.5578 358.609C15.1458 358.561 13.5769 358.7 12.6114 359.732C11.4046 361.013 11.7244 363.169 12.7683 364.564C13.8122 365.959 15.3932 366.859 16.8474 367.837C18.0188 368.532 19.0174 369.484 19.768 370.621C19.857 370.779 19.9298 370.945 19.9852 371.117H28.8253C30.8101 370.11 32.6491 368.838 34.2923 367.336Z" fill="#6C63FF"/>
<path d="M501.181 316.654C501.181 316.654 506.401 323.49 498.767 333.806C491.134 344.121 484.846 352.83 487.393 359.262C487.393 359.262 498.906 340.105 508.277 339.833C517.648 339.561 511.487 328.177 501.181 316.654Z" fill="#6C63FF"/>
<path opacity="0.1" d="M501.181 316.654C501.635 317.315 501.995 318.037 502.249 318.798C511.391 329.548 516.26 339.585 507.469 339.833C499.286 340.069 489.463 354.72 487.115 358.416C487.19 358.704 487.282 358.986 487.393 359.262C487.393 359.262 498.906 340.105 508.277 339.833C517.648 339.561 511.487 328.177 501.181 316.654Z" fill="black"/>
<path d="M510.884 325.386C510.884 327.802 510.612 329.741 510.281 329.741C509.949 329.741 509.677 327.79 509.677 325.386C509.677 322.983 510.015 324.118 510.347 324.118C510.679 324.118 510.884 322.971 510.884 325.386Z" fill="#FFD037"/>
<path d="M514.215 328.237C512.103 329.385 510.269 330.085 510.106 329.789C509.943 329.493 511.53 328.328 513.642 327.174C515.754 326.021 514.915 326.866 515.078 327.174C515.241 327.482 516.327 327.084 514.215 328.237Z" fill="#FFD037"/>
<path d="M473.605 316.654C473.605 316.654 468.385 323.49 476.018 333.806C483.652 344.121 489.939 352.83 487.399 359.262C487.399 359.262 475.886 340.105 466.515 339.833C457.144 339.561 463.298 328.177 473.605 316.654Z" fill="#6C63FF"/>
<path opacity="0.1" d="M473.605 316.654C473.148 317.313 472.788 318.036 472.537 318.798C463.395 329.548 458.525 339.585 467.311 339.833C475.5 340.069 485.317 354.72 487.671 358.416C487.593 358.703 487.501 358.985 487.393 359.262C487.393 359.262 475.88 340.105 466.509 339.833C457.138 339.561 463.298 328.177 473.605 316.654Z" fill="black"/>
<path d="M463.896 325.386C463.896 327.802 464.167 329.741 464.499 329.741C464.831 329.741 465.103 327.79 465.103 325.386C465.103 322.983 464.765 324.118 464.433 324.118C464.101 324.118 463.896 322.971 463.896 325.386Z" fill="#FFD037"/>
<path d="M460.547 328.237C462.653 329.385 464.493 330.085 464.65 329.789C464.807 329.493 463.232 328.328 461.12 327.174C459.008 326.021 459.841 326.866 459.684 327.174C459.527 327.482 458.459 327.084 460.547 328.237Z" fill="#FFD037"/>
<path d="M465.561 358.368C465.561 358.368 480.158 357.915 484.557 354.78C488.956 351.646 507.01 347.901 508.09 352.932C509.17 357.963 530.024 377.941 513.521 378.074C497.017 378.207 475.228 375.501 470.841 372.826C466.454 370.151 465.561 358.368 465.561 358.368Z" fill="#A8A8A8"/>
<path opacity="0.2" d="M513.853 376.323C497.373 376.456 475.56 373.75 471.173 371.075C467.824 369.039 466.497 361.726 466.05 358.35H465.561C465.561 358.35 466.485 370.132 470.877 372.808C475.27 375.483 497.078 378.189 513.557 378.056C518.312 378.014 519.959 376.323 519.869 373.829C519.205 375.344 517.395 376.293 513.853 376.323Z" fill="black"/>
<path opacity="0.3" d="M399.801 258.887H352.716V306.012H399.801V258.887Z" fill="#3A3768"/>
<path opacity="0.3" d="M330.408 196.681H283.323V243.807H330.408V196.681Z" fill="#3A3768"/>
<path opacity="0.3" d="M334.933 320.03H287.849V367.155H334.933V320.03Z" fill="#3A3768"/>
<path d="M324.428 80.9727H277.343V128.098H324.428V80.9727Z" fill="white"/>
<path d="M310.024 96.3667L308.353 98.0336C308.901 98.5816 309.337 99.2326 309.634 99.9492C309.931 100.666 310.083 101.434 310.083 102.21C310.083 102.986 309.931 103.754 309.634 104.47C309.337 105.187 308.901 105.838 308.353 106.386L310.024 108.065C311.574 106.513 312.444 104.41 312.444 102.216C312.444 100.022 311.574 97.9183 310.024 96.3667Z" fill="#6C63FF"/>
<path d="M313.367 93.148L311.72 94.7967C313.683 96.7647 314.786 99.4321 314.786 102.213C314.786 104.994 313.683 107.661 311.72 109.629L313.367 111.278C315.767 108.875 317.115 105.617 317.115 102.219C317.115 98.8217 315.767 95.5632 313.367 93.1601V93.148ZM305.523 99.3202V91.771H303.2L296.248 97.5688H286.98L284.663 98.7284V106.851L286.98 108.011L292.797 117.293H296.272L294.1 108.011H296.272L303.224 112.655H305.547V105.106C306.203 104.958 306.789 104.591 307.21 104.065C307.63 103.54 307.859 102.886 307.859 102.213C307.859 101.54 307.63 100.887 307.21 100.361C306.789 99.8352 306.203 99.4682 305.547 99.3202H305.523Z" fill="#6C63FF"/>
<path d="M390.364 241.896L355.45 273.515L387.041 308.458L421.955 276.84L390.364 241.896Z" fill="white"/>
<path d="M375.067 268.701L378.482 265.596L397.188 286.233L393.748 289.349L375.067 268.701ZM383.134 288.027L386.574 284.916L392.005 290.956L388.565 294.066L383.134 288.027ZM390.339 275.247L393.779 272.131L402.329 281.595L398.896 284.705L390.339 275.247ZM390.828 265.415L394.267 262.299L407.488 276.92L404.049 280.037L390.828 265.415Z" fill="#6C63FF"/>
<path d="M399.022 137.761H351.938V184.886H399.022V137.761Z" fill="white"/>
<path d="M384.42 155.68L378.102 165.343C378.611 165.962 378.889 166.739 378.886 167.541C378.849 168.439 378.466 169.288 377.818 169.911C377.169 170.533 376.306 170.881 375.408 170.881C374.509 170.881 373.646 170.533 372.997 169.911C372.349 169.288 371.966 168.439 371.929 167.541C371.931 167.324 371.951 167.108 371.989 166.895L367.814 164.479C367.273 164.996 366.58 165.325 365.838 165.418C365.097 165.512 364.344 165.365 363.692 164.998L359.251 169.16V173.309C359.253 174.13 359.579 174.917 360.159 175.498C360.74 176.078 361.526 176.405 362.347 176.407H388.619C389.439 176.404 390.225 176.076 390.805 175.496C391.385 174.916 391.712 174.129 391.715 173.309V157.896L387.491 155.076C386.884 155.554 386.134 155.813 385.361 155.812C385.051 155.811 384.743 155.768 384.444 155.686L384.42 155.68Z" fill="#6C63FF"/>
<path d="M365.406 158.494C365.863 158.493 366.315 158.583 366.738 158.757C367.16 158.932 367.544 159.188 367.867 159.511C368.191 159.834 368.447 160.218 368.622 160.64C368.798 161.063 368.888 161.516 368.888 161.973C368.888 162.124 368.888 162.281 368.857 162.426L373.214 164.842C373.833 164.329 374.613 164.051 375.417 164.056C375.668 164.056 375.919 164.085 376.165 164.141L382.501 154.321C382.185 153.875 381.978 153.36 381.899 152.819C381.819 152.278 381.867 151.726 382.04 151.207C382.214 150.688 382.507 150.218 382.896 149.834C383.285 149.449 383.759 149.163 384.28 148.996C384.8 148.83 385.353 148.789 385.892 148.876C386.432 148.963 386.943 149.177 387.384 149.499C387.826 149.821 388.185 150.243 388.434 150.731C388.682 151.218 388.812 151.757 388.812 152.304C388.812 152.58 388.779 152.856 388.716 153.125L391.733 155.124V149.314C391.73 148.494 391.403 147.709 390.822 147.129C390.242 146.55 389.457 146.224 388.637 146.222H362.347C361.527 146.222 360.74 146.548 360.16 147.127C359.579 147.707 359.253 148.494 359.251 149.314V165.947L362.147 163.169C362.005 162.782 361.931 162.373 361.93 161.961C361.933 161.04 362.301 160.159 362.952 159.509C363.604 158.859 364.486 158.494 365.406 158.494Z" fill="#6C63FF"/>
<path d="M339.501 190.304H292.416V237.429H339.501V190.304Z" fill="white"/>
<path d="M330.166 198.855L301.202 214.558C301.104 214.612 301.022 214.692 300.967 214.79C300.911 214.888 300.884 214.999 300.888 215.111C300.893 215.224 300.929 215.333 300.991 215.426C301.054 215.519 301.142 215.593 301.244 215.639L306.186 217.505C306.472 217.616 306.706 217.832 306.838 218.109L310.676 226.02C310.748 226.371 311.394 226.467 311.4 226.111L310.797 219.57C310.831 219.085 311.017 218.622 311.328 218.248L326.341 203.524C326.384 203.482 326.437 203.451 326.495 203.435C326.552 203.418 326.613 203.415 326.673 203.427C326.729 203.441 326.781 203.468 326.823 203.507C326.866 203.546 326.898 203.596 326.917 203.65C326.935 203.705 326.94 203.764 326.93 203.821C326.92 203.878 326.896 203.931 326.86 203.977L313.916 219.812C313.643 220.199 313.469 220.647 313.409 221.116L312.637 226.763C312.697 227.259 313.084 227.446 313.397 227.005L316.185 223.725C316.279 223.602 316.416 223.52 316.569 223.495C316.722 223.47 316.878 223.505 317.006 223.593L324.192 228.835C324.273 228.887 324.364 228.919 324.459 228.928C324.554 228.938 324.65 228.925 324.739 228.89C324.828 228.855 324.907 228.8 324.971 228.728C325.034 228.657 325.08 228.571 325.104 228.478L330.999 199.489C331.018 199.381 331.006 199.27 330.967 199.167C330.927 199.065 330.86 198.976 330.773 198.908C330.686 198.841 330.582 198.799 330.473 198.787C330.364 198.774 330.254 198.792 330.154 198.837L330.166 198.855Z" fill="#6C63FF"/>
<path d="M184.58 304.001C184.93 307.818 182.051 311.514 182.89 315.247C183.071 316.044 183.415 316.799 183.542 317.602C183.886 319.818 182.564 321.92 181.303 323.774L170.478 339.682C170.039 340.38 169.518 341.023 168.927 341.597C166.851 343.408 163.75 343.245 161.028 343.795C159.118 344.186 157.315 344.985 155.742 346.138C155.67 346.192 155.622 346.273 155.609 346.362C155.595 346.451 155.617 346.542 155.67 346.615C156.12 347.227 156.716 347.716 157.403 348.039C158.09 348.362 158.846 348.508 159.604 348.463C159.888 348.838 159.604 349.387 159.212 349.671C158.608 350.076 157.83 350.178 157.715 351.169C157.675 351.512 157.744 351.859 157.915 352.159C158.35 352.829 159.03 353.301 159.809 353.476C163.557 354.623 167.611 352.612 170.411 349.852C173.211 347.092 175.239 343.65 177.99 340.854C179.517 339.314 181.249 337.985 182.818 336.487C185.955 333.504 188.387 329.844 190.74 326.22C191.507 325.164 192.087 323.983 192.454 322.729C192.744 321.485 192.611 320.175 192.949 318.943C193.383 317.336 194.566 316.05 195.544 314.715C197.469 312.07 198.748 308.827 198.494 305.565C198.241 302.304 196.226 299.079 193.148 297.974C192.189 297.587 191.131 297.521 190.131 297.787C188.87 298.179 187.941 299.224 187.078 300.203L185.026 302.582C184.507 303.099 184.097 303.715 183.819 304.394C183.687 304.736 183.657 305.109 183.732 305.468C183.807 305.827 183.984 306.156 184.242 306.417" fill="#FBBEBE"/>
<path opacity="0.05" d="M184.58 304.001C184.93 307.818 182.051 311.514 182.89 315.247C183.071 316.044 183.415 316.799 183.542 317.602C183.886 319.818 182.564 321.92 181.303 323.774L170.478 339.682C170.039 340.38 169.518 341.023 168.927 341.597C166.851 343.408 163.75 343.245 161.028 343.795C159.118 344.186 157.315 344.985 155.742 346.138C155.67 346.192 155.622 346.273 155.609 346.362C155.595 346.451 155.617 346.542 155.67 346.615C156.12 347.227 156.716 347.716 157.403 348.039C158.09 348.362 158.846 348.508 159.604 348.463C159.888 348.838 159.604 349.387 159.212 349.671C158.608 350.076 157.83 350.178 157.715 351.169C157.675 351.512 157.744 351.859 157.915 352.159C158.35 352.829 159.03 353.301 159.809 353.476C163.557 354.623 167.611 352.612 170.411 349.852C173.211 347.092 175.239 343.65 177.99 340.854C179.517 339.314 181.249 337.985 182.818 336.487C185.955 333.504 188.387 329.844 190.74 326.22C191.507 325.164 192.087 323.983 192.454 322.729C192.744 321.485 192.611 320.175 192.949 318.943C193.383 317.336 194.566 316.05 195.544 314.715C197.469 312.07 198.748 308.827 198.494 305.565C198.241 302.304 196.226 299.079 193.148 297.974C192.189 297.587 191.131 297.521 190.131 297.787C188.87 298.179 187.941 299.224 187.078 300.203L185.026 302.582C184.507 303.099 184.097 303.715 183.819 304.394C183.687 304.736 183.657 305.109 183.732 305.468C183.807 305.827 183.984 306.156 184.242 306.417" fill="black"/>
<path d="M102.116 320.217C102.72 322.125 103.323 324.034 104.053 325.894C105.388 329.119 107.069 332.189 109.068 335.05C110.355 336.932 111.739 338.746 113.213 340.485C115.06 342.665 117.123 344.858 117.775 347.642C118.155 349.248 118.029 350.933 118.186 352.576C118.342 354.219 118.879 355.964 120.207 356.949C121.215 357.573 122.356 357.95 123.538 358.048C124.371 358.181 125.414 358.223 125.849 357.498C126.001 357.203 126.08 356.876 126.078 356.544L126.283 354.128C126.326 353.609 126.507 352.92 127.026 352.92C127.545 352.92 127.81 353.591 128.232 353.899C128.39 353.984 128.563 354.035 128.741 354.051C128.919 354.066 129.098 354.045 129.268 353.989C129.438 353.932 129.594 353.841 129.727 353.722C129.86 353.603 129.968 353.457 130.043 353.295C130.313 352.619 130.33 351.868 130.091 351.181C129.73 349.814 129.086 348.539 128.199 347.439C127.312 346.339 126.202 345.439 124.944 344.797C124.069 344.438 123.229 344 122.434 343.487C121.626 342.788 120.957 341.944 120.46 340.999C115.899 333.48 111.313 325.9 108.09 317.741C107.456 316.279 107.027 314.737 106.817 313.157C106.752 311.544 106.818 309.928 107.016 308.325C107.205 305.427 106.936 302.516 106.22 299.701C106.063 298.961 105.783 298.253 105.393 297.606C104.072 295.588 100.952 295.292 98.9847 296.681C98.2609 297.24 97.6609 297.943 97.2226 298.745C96.7842 299.548 96.5172 300.433 96.4383 301.344C96.2935 302.969 97.2348 304.666 97.7115 306.175C99.1879 310.854 100.656 315.534 102.116 320.217Z" fill="#FBBEBE"/>
<path opacity="0.05" d="M102.116 320.217C102.72 322.125 103.323 324.034 104.053 325.894C105.388 329.119 107.069 332.189 109.068 335.05C110.355 336.932 111.739 338.746 113.213 340.485C115.06 342.665 117.123 344.858 117.775 347.642C118.155 349.248 118.029 350.933 118.186 352.576C118.342 354.219 118.879 355.964 120.207 356.949C121.215 357.573 122.356 357.95 123.538 358.048C124.371 358.181 125.414 358.223 125.849 357.498C126.001 357.203 126.08 356.876 126.078 356.544L126.283 354.128C126.326 353.609 126.507 352.92 127.026 352.92C127.545 352.92 127.81 353.591 128.232 353.899C128.39 353.984 128.563 354.035 128.741 354.051C128.919 354.066 129.098 354.045 129.268 353.989C129.438 353.932 129.594 353.841 129.727 353.722C129.86 353.603 129.968 353.457 130.043 353.295C130.313 352.619 130.33 351.868 130.091 351.181C129.73 349.814 129.086 348.539 128.199 347.439C127.312 346.339 126.202 345.439 124.944 344.797C124.069 344.438 123.229 344 122.434 343.487C121.626 342.788 120.957 341.944 120.46 340.999C115.899 333.48 111.313 325.9 108.09 317.741C107.456 316.279 107.027 314.737 106.817 313.157C106.752 311.544 106.818 309.928 107.016 308.325C107.205 305.427 106.936 302.516 106.22 299.701C106.063 298.961 105.783 298.253 105.393 297.606C104.072 295.588 100.952 295.292 98.9847 296.681C98.2609 297.24 97.6609 297.943 97.2226 298.745C96.7842 299.548 96.5172 300.433 96.4383 301.344C96.2935 302.969 97.2348 304.666 97.7115 306.175C99.1879 310.854 100.656 315.534 102.116 320.217Z" fill="black"/>
<path d="M193.685 391.929C191.32 393.372 188.375 393.457 185.624 393.137C185.183 393.082 184.658 393.046 184.374 393.39C183.964 393.885 184.447 394.598 184.948 395.021C186.572 396.236 188.478 397.02 190.487 397.298C192.286 397.549 194.101 397.67 195.918 397.66C200.86 397.745 205.826 397.823 210.72 397.11C211.003 397.092 211.279 397.011 211.528 396.875C211.838 396.651 212.053 396.319 212.132 395.945C212.25 395.295 212.193 394.625 211.966 394.005C211.739 393.385 211.35 392.837 210.84 392.418C209.812 391.596 208.642 390.967 207.389 390.564L203.092 388.891C202.085 388.498 200.462 387.453 199.369 387.538C197.342 387.671 195.393 390.926 193.685 391.929Z" fill="#3F3D56"/>
<path d="M204.48 402.033C202.501 403.807 199.926 404.769 197.269 404.726C196.594 404.726 195.652 404.853 195.652 405.53C195.662 405.731 195.729 405.926 195.845 406.091C196.687 407.491 198.015 408.532 199.575 409.014C201.048 409.365 202.57 409.461 204.076 409.298L208.481 409.069C209.314 409.026 210.152 408.984 210.979 408.881C211.806 408.779 212.705 408.61 213.568 408.477C215.692 408.177 217.839 408.076 219.982 408.175C220.26 408.229 220.547 408.22 220.821 408.146C221.095 408.073 221.349 407.938 221.563 407.752C221.955 407.257 221.726 406.544 221.599 405.94C221.334 404.666 221.599 403.325 221.352 402.039C220.929 399.792 218.999 398.065 216.856 397.25C214.877 396.495 211.365 395.631 209.489 396.887C207.473 398.222 206.26 400.42 204.48 402.033Z" fill="#3F3D56"/>
<path d="M195.779 344.984C193.969 347.37 192.159 350.124 192.581 353.071C192.822 354.659 193.709 356.061 194.361 357.534C195.18 359.555 195.787 361.656 196.171 363.803C196.841 366.925 197.511 370.054 197.927 373.218C198.39 376.802 198.521 380.421 198.319 384.029C198.265 384.899 198.169 385.841 197.565 386.445C197.324 386.686 197.01 386.886 196.907 387.212C196.842 387.521 196.892 387.843 197.046 388.118C198.152 390.383 200.069 392.149 202.417 393.064C204.748 393.959 207.222 394.421 209.718 394.429C210.049 394.467 210.385 394.423 210.696 394.302C211.031 394.1 211.294 393.798 211.45 393.438C213.26 389.996 212.252 385.841 212.283 381.964C212.283 378.72 213.067 375.507 212.928 372.264C212.814 369.667 212.12 367.131 211.866 364.54C211.45 360.312 212.228 356.024 213.007 351.827C213.61 348.614 214.213 345.395 214.968 342.212C215.351 340.251 216.052 338.366 217.044 336.632C217.888 335.297 219.035 334.18 220 332.924C222.67 329.415 223.858 324.997 223.307 320.621C223.247 320.187 217.092 322.18 216.561 322.433C214.342 323.366 212.3 324.676 210.527 326.304C209.103 327.657 207.986 329.469 206.737 330.991C204.975 333.137 203.241 335.295 201.536 337.465C199.589 339.953 197.67 342.46 195.779 344.984Z" fill="#464353"/>
<path opacity="0.05" d="M195.779 344.984C193.969 347.37 192.159 350.124 192.581 353.071C192.822 354.659 193.709 356.061 194.361 357.534C195.18 359.555 195.787 361.656 196.171 363.803C196.841 366.925 197.511 370.054 197.927 373.218C198.39 376.802 198.521 380.421 198.319 384.029C198.265 384.899 198.169 385.841 197.565 386.445C197.324 386.686 197.01 386.886 196.907 387.212C196.842 387.521 196.892 387.843 197.046 388.118C198.152 390.383 200.069 392.149 202.417 393.064C204.748 393.959 207.222 394.421 209.718 394.429C210.049 394.467 210.385 394.423 210.696 394.302C211.031 394.1 211.294 393.798 211.45 393.438C213.26 389.996 212.252 385.841 212.283 381.964C212.283 378.72 213.067 375.507 212.928 372.264C212.814 369.667 212.12 367.131 211.866 364.54C211.45 360.312 212.228 356.024 213.007 351.827C213.61 348.614 214.213 345.395 214.968 342.212C215.351 340.251 216.052 338.366 217.044 336.632C217.888 335.297 219.035 334.18 220 332.924C222.67 329.415 223.858 324.997 223.307 320.621C223.247 320.187 217.092 322.18 216.561 322.433C214.342 323.366 212.3 324.676 210.527 326.304C209.103 327.657 207.986 329.469 206.737 330.991C204.975 333.137 203.241 335.295 201.536 337.465C199.589 339.953 197.67 342.46 195.779 344.984Z" fill="black"/>
<path d="M208.849 326.637C209.235 328.485 211.027 329.898 211.076 331.788C211.118 333.298 210.044 334.566 209.265 335.865C208.534 337.208 207.916 338.61 207.419 340.056C205.953 343.817 204.135 347.431 201.988 350.849C200.956 352.491 199.798 354.273 200.039 356.2C200.201 357.099 200.517 357.963 200.974 358.754L204.076 364.92C204.756 366.151 205.287 367.459 205.657 368.816C205.929 369.988 205.953 371.232 206.11 372.391C206.598 376.172 208.366 379.977 207.316 383.643C207.226 383.957 206.894 384.337 206.647 384.12C207.672 386.034 208.499 387.967 208.415 390.159C208.378 391.301 208.028 392.484 208.451 393.547C208.687 393.945 208.847 394.383 208.921 394.84C208.921 395.148 208.777 395.444 208.747 395.752C208.662 396.621 209.459 397.352 210.291 397.63C211.124 397.908 212.029 397.89 212.868 398.137C214.485 398.62 215.632 400.009 217.019 400.976C218.421 401.948 220.076 402.487 221.78 402.528C222.022 402.553 222.266 402.505 222.48 402.389C222.602 402.283 222.7 402.152 222.767 402.005C222.835 401.858 222.871 401.699 222.873 401.537C222.947 400.764 222.83 399.985 222.532 399.267C222.234 398.55 221.765 397.917 221.165 397.425C220.914 397.254 220.707 397.027 220.561 396.76C220.484 396.521 220.463 396.266 220.501 396.017C220.755 392.627 220.694 389.22 220.32 385.841C220.156 384.77 220.104 383.685 220.163 382.604C220.342 381.715 220.429 380.811 220.423 379.904C220.232 379.02 219.955 378.156 219.596 377.325C219.119 375.785 219.252 374.131 219.204 372.494C219.023 369.7 218.567 366.93 217.84 364.226C217.681 363.136 217.237 362.107 216.555 361.242C215.909 360.566 214.865 359.926 215.113 359.026C215.25 358.693 215.455 358.392 215.716 358.144C216.017 357.768 216.238 357.335 216.365 356.871C216.493 356.407 216.524 355.922 216.458 355.445C216.729 355.514 217.016 355.486 217.269 355.367C217.522 355.249 217.726 355.045 217.846 354.792C222.975 352.253 226.895 347.791 228.756 342.375C228.862 341.985 229.027 341.612 229.245 341.27C229.709 340.618 230.524 340.334 231.242 339.972C233.499 338.836 235.056 336.704 236.486 334.621C237.386 333.457 238.072 332.142 238.513 330.738C238.708 329.816 238.802 328.877 238.791 327.935L238.917 323.104C238.942 322.785 238.912 322.464 238.827 322.156C238.704 321.866 238.526 321.604 238.302 321.382C236.925 319.93 235.119 318.956 233.149 318.604C231.827 318.369 230.476 318.411 229.136 318.302C226.541 318.085 223.977 317.282 221.376 317.469C217.297 317.771 213.664 320.603 211.721 324.215C211.009 325.507 210.297 326.594 208.849 326.637Z" fill="#464353"/>
<path d="M73.4481 400.601C74.3388 400.91 75.2854 401.023 76.2238 400.934C76.2902 400.167 77.322 399.997 78.0883 400.034C78.4694 400.015 78.8485 400.098 79.1866 400.275C79.3797 400.396 79.5245 400.577 79.7115 400.704C80.0445 400.887 80.4181 400.982 80.7977 400.982L84.7923 401.32C86.5724 401.471 88.4128 401.61 90.0903 400.97C90.4246 400.871 90.7211 400.673 90.9412 400.402C91.3937 399.756 90.9412 398.826 90.3377 398.355C89.7343 397.884 88.9076 397.666 88.2801 397.183C86.8922 396.126 86.7052 394.163 85.969 392.569C85.4531 391.568 84.8124 390.637 84.0622 389.797C83.5175 389.075 82.8828 388.425 82.1735 387.864C80.5744 386.705 78.728 386.729 76.8513 386.566C75.5238 386.445 74.2747 386.367 73.3213 387.544C72.1447 389.006 72.6153 391.953 72.6878 393.698C72.7593 396.016 73.0135 398.324 73.4481 400.601Z" fill="#514E7F"/>
<path opacity="0.05" d="M73.4481 400.601C74.3388 400.91 75.2854 401.023 76.2238 400.934C76.2902 400.167 77.322 399.997 78.0883 400.034C78.4694 400.015 78.8485 400.098 79.1866 400.275C79.3797 400.396 79.5245 400.577 79.7115 400.704C80.0445 400.887 80.4181 400.982 80.7977 400.982L84.7923 401.32C86.5724 401.471 88.4128 401.61 90.0903 400.97C90.4246 400.871 90.7211 400.673 90.9412 400.402C91.3937 399.756 90.9412 398.826 90.3377 398.355C89.7343 397.884 88.9076 397.666 88.2801 397.183C86.8922 396.126 86.7052 394.163 85.969 392.569C85.4531 391.568 84.8124 390.637 84.0622 389.797C83.5175 389.075 82.8828 388.425 82.1735 387.864C80.5744 386.705 78.728 386.729 76.8513 386.566C75.5238 386.445 74.2747 386.367 73.3213 387.544C72.1447 389.006 72.6153 391.953 72.6878 393.698C72.7593 396.016 73.0135 398.324 73.4481 400.601Z" fill="black"/>
<path d="M75.0652 322.886C73.8584 323.279 73.3153 324.801 73.5386 326.069C73.7619 327.337 74.5222 328.425 75.1497 329.542C76.9238 332.725 77.6961 336.366 79.1866 339.688C80.3029 342.17 81.8115 344.465 82.9157 346.935C84.02 349.405 84.726 352.232 84.032 354.871C83.7062 356.157 83.0786 357.341 82.6562 358.597C82.2437 359.975 81.9728 361.392 81.8477 362.825C81.3079 367.67 81.2109 372.554 81.558 377.416C81.5637 378.011 81.6889 378.598 81.9261 379.143C82.1735 379.627 82.608 380.134 82.3968 380.635C82.3123 380.834 82.1313 380.979 82.0408 381.179C81.7873 381.734 82.3002 382.314 82.7649 382.707C82.6821 382.855 82.5698 382.986 82.435 383.09C82.3001 383.194 82.1454 383.269 81.9804 383.311C82.3164 383.524 82.5747 383.84 82.7171 384.212C82.8595 384.584 82.8783 384.992 82.7709 385.376C82.3545 385.436 82.3304 386.071 82.5959 386.403C82.8614 386.735 83.2657 386.946 83.4528 387.321C83.5637 387.63 83.5524 387.969 83.4211 388.27C83.2899 388.571 83.0486 388.811 82.7468 388.939C82.1338 389.178 81.4636 389.229 80.8219 389.084C79.7308 388.934 78.6534 388.698 77.5996 388.378C77.2441 388.291 76.9083 388.137 76.61 387.925C76.0783 387.408 75.7615 386.709 75.723 385.968C75.4765 383.965 75.4018 381.944 75.4997 379.928C75.6747 370.169 75.4997 360.397 75.0773 350.643C74.9023 346.718 73.7256 342.889 72.205 339.265C71.3673 337.406 70.4327 335.591 69.4052 333.83C67.2208 329.808 65.2778 325.375 65.7847 320.815C65.839 320.326 66.02 319.734 66.5027 319.655C66.6926 319.634 66.8846 319.665 67.0579 319.746C68.0675 320.221 69.0451 320.762 69.9845 321.365C71.5302 322.276 73.2736 322.798 75.0652 322.886Z" fill="#464353"/>
<path opacity="0.05" d="M75.0652 322.886C73.8584 323.279 73.3153 324.801 73.5386 326.069C73.7619 327.337 74.5222 328.425 75.1497 329.542C76.9238 332.725 77.6961 336.366 79.1866 339.688C80.3029 342.17 81.8115 344.465 82.9157 346.935C84.02 349.405 84.726 352.232 84.032 354.871C83.7062 356.157 83.0786 357.341 82.6562 358.597C82.2437 359.975 81.9728 361.392 81.8477 362.825C81.3079 367.67 81.2109 372.554 81.558 377.416C81.5637 378.011 81.6889 378.598 81.9261 379.143C82.1735 379.627 82.608 380.134 82.3968 380.635C82.3123 380.834 82.1313 380.979 82.0408 381.179C81.7873 381.734 82.3002 382.314 82.7649 382.707C82.6821 382.855 82.5698 382.986 82.435 383.09C82.3001 383.194 82.1454 383.269 81.9804 383.311C82.3164 383.524 82.5747 383.84 82.7171 384.212C82.8595 384.584 82.8783 384.992 82.7709 385.376C82.3545 385.436 82.3304 386.071 82.5959 386.403C82.8614 386.735 83.2657 386.946 83.4528 387.321C83.5637 387.63 83.5524 387.969 83.4211 388.27C83.2899 388.571 83.0486 388.811 82.7468 388.939C82.1338 389.178 81.4636 389.229 80.8219 389.084C79.7308 388.934 78.6534 388.698 77.5996 388.378C77.2441 388.291 76.9083 388.137 76.61 387.925C76.0783 387.408 75.7615 386.709 75.723 385.968C75.4765 383.965 75.4018 381.944 75.4997 379.928C75.6747 370.169 75.4997 360.397 75.0773 350.643C74.9023 346.718 73.7256 342.889 72.205 339.265C71.3673 337.406 70.4327 335.591 69.4052 333.83C67.2208 329.808 65.2778 325.375 65.7847 320.815C65.839 320.326 66.02 319.734 66.5027 319.655C66.6926 319.634 66.8846 319.665 67.0579 319.746C68.0675 320.221 69.0451 320.762 69.9845 321.365C71.5302 322.276 73.2736 322.798 75.0652 322.886Z" fill="black"/>
<path d="M58.5798 311.019C57.9431 310.612 57.2104 310.381 56.4558 310.349C55.5864 310.486 54.7799 310.886 54.1447 311.496C53.3388 312.12 52.573 312.793 51.8517 313.513C50.3548 315.109 49.3114 317.077 48.8297 319.213C48.348 321.348 48.4456 323.574 49.1122 325.659C49.8424 327.827 51.1638 329.741 52.4672 331.613L55.1223 335.43C59.1712 341.252 63.2262 347.074 67.4682 352.757C67.4722 352.893 67.5185 353.025 67.6008 353.133C67.683 353.241 67.797 353.321 67.9268 353.361C68.0837 353.403 68.2707 353.397 68.3673 353.524C68.4099 353.604 68.4287 353.694 68.4216 353.784C68.4068 354.196 68.3274 354.604 68.1863 354.992C68.117 355.119 68.0997 355.269 68.138 355.409C68.2707 355.729 68.856 355.547 69.0371 355.849C69.1638 356.043 69.0371 356.302 68.844 356.453C68.6509 356.604 68.4819 356.81 68.5121 357.057C68.5423 357.305 68.9466 357.534 68.9285 357.836C68.9285 358.006 68.7836 358.132 68.6811 358.265C68.5364 358.476 68.4704 358.732 68.4947 358.987C68.5189 359.242 68.6319 359.48 68.8138 359.66C69.0914 362.438 67.607 365.066 67.2872 367.844C66.8105 372.21 68.7836 376.474 69.025 380.859C69.0129 381.352 69.1054 381.841 69.2965 382.296C69.7069 383.051 70.7568 383.504 70.7206 384.367C70.6461 384.722 70.5473 385.071 70.4249 385.412C70.4327 385.913 70.4852 386.412 70.5818 386.904C70.5818 387.405 70.1594 388.003 69.6948 387.81C70.0448 388.969 70.3545 390.139 70.6241 391.319L79.9167 392.086C80.0153 391.249 79.9869 390.402 79.8322 389.573C79.6391 388.68 79.2288 387.84 79.0236 386.946C78.8868 386.508 78.8489 386.046 78.9125 385.591C78.9762 385.137 79.1399 384.702 79.3917 384.319C79.1483 384.323 78.9115 384.24 78.7235 384.085C78.5356 383.93 78.4089 383.713 78.3659 383.474C78.2815 382.996 78.2815 382.508 78.3659 382.03C78.6133 379.614 77.5935 377.199 77.6237 374.783C77.6539 372.862 78.3237 371.02 78.6676 369.136C79.3917 365.102 78.6375 360.723 80.4296 357.057C81.5158 354.835 83.0183 352.371 81.7994 350.221C81.196 349.158 80.14 348.409 79.4521 347.431C78.888 346.49 78.4632 345.473 78.1909 344.411C76.7548 339.966 74.4437 335.865 72.4102 331.656C71.8484 330.599 71.4303 329.472 71.1671 328.304C71.0232 327.28 70.9727 326.245 71.0163 325.212C71.0105 323.354 70.8957 321.499 70.6723 319.655C70.6293 318.846 70.3979 318.058 69.9965 317.354C69.6029 316.825 69.1112 316.376 68.5483 316.032C65.501 313.954 61.8685 312.752 58.5798 311.019Z" fill="#464353"/>
<path d="M69.7129 404.007C70.6036 404.316 71.5503 404.429 72.4886 404.34C72.561 403.573 73.5868 403.403 74.3532 403.44C74.7246 403.428 75.0927 403.513 75.4212 403.687C75.6143 403.808 75.7591 403.989 75.9522 404.116C76.2846 404.3 76.6586 404.396 77.0384 404.394L81.027 404.732C82.8071 404.883 84.6475 405.022 86.331 404.382C86.6628 404.281 86.9569 404.083 87.1758 403.814C87.6284 403.168 87.1758 402.238 86.5724 401.767C85.969 401.296 85.1423 401.078 84.5087 400.595C83.1269 399.538 82.9338 397.576 82.1976 395.981C81.6817 394.98 81.041 394.049 80.2908 393.209C79.7483 392.487 79.1156 391.838 78.4082 391.276C76.8031 390.117 74.9626 390.141 73.086 389.978C71.7525 389.857 70.5034 389.779 69.556 390.956C68.3492 392.418 68.844 395.365 68.9164 397.11C69.0035 399.427 69.2698 401.732 69.7129 404.007Z" fill="#514E7F"/>
<path d="M167.183 333.957H120.098V381.082H167.183V333.957Z" fill="white"/>
<path d="M157.552 355.94C157.552 361.315 155.036 364.697 151.06 364.697C149.026 364.697 147.475 363.61 147.204 361.997H146.914C146.577 362.814 145.992 363.505 145.242 363.972C144.491 364.439 143.614 364.659 142.733 364.6C139.197 364.6 136.837 361.762 136.837 357.54C136.837 353.488 139.215 350.667 142.684 350.667C143.504 350.635 144.315 350.842 145.019 351.264C145.723 351.685 146.29 352.303 146.649 353.041H146.938V351.024H149.829V360.415C149.799 360.663 149.825 360.914 149.905 361.151C149.984 361.387 150.116 361.603 150.289 361.782C150.462 361.961 150.673 362.1 150.907 362.187C151.141 362.275 151.391 362.309 151.639 362.287C153.642 362.287 154.922 359.871 154.922 356.067C154.922 350.027 150.396 345.987 143.716 345.987C137.036 345.987 132.402 350.818 132.402 357.631C132.402 364.606 137.06 369.063 144.313 369.063C145.634 369.07 146.953 368.957 148.254 368.725C148.544 368.678 148.842 368.743 149.085 368.909C149.328 369.075 149.498 369.328 149.56 369.616C149.622 369.904 149.571 370.204 149.418 370.455C149.265 370.707 149.021 370.889 148.737 370.966C147.248 371.303 145.725 371.469 144.199 371.461C135.383 371.461 129.717 366.026 129.717 357.57C129.717 349.309 135.479 343.638 143.873 343.638C151.959 343.589 157.552 348.632 157.552 355.94ZM139.963 357.607C139.963 360.288 141.218 361.913 143.27 361.913C145.43 361.913 146.794 360.246 146.794 357.607C146.794 354.967 145.43 353.337 143.306 353.337C141.182 353.337 139.963 354.919 139.963 357.607Z" fill="#6C63FF"/>
<path d="M110.89 294.918C115.972 294.918 120.092 290.794 120.092 285.708C120.092 280.621 115.972 276.498 110.89 276.498C105.808 276.498 101.688 280.621 101.688 285.708C101.688 290.794 105.808 294.918 110.89 294.918Z" fill="#FBBEBE"/>
<path d="M102.213 288.438C100.892 289.579 99.0028 289.646 97.271 289.839C93.5706 290.216 89.9687 291.26 86.6388 292.919C86.1852 293.119 85.7752 293.406 85.432 293.764C85.1409 294.156 84.9353 294.605 84.8285 295.081C84.5141 296.117 84.3954 297.202 84.4786 298.282C84.5993 299.332 84.8993 300.353 85.3656 301.302C86.6431 303.95 88.6163 306.2 91.0739 307.812C91.4911 308.118 91.9618 308.344 92.4618 308.476C93.6686 308.73 94.8453 308.023 96.034 307.709C97.1219 307.428 98.2677 307.466 99.3347 307.818C100.336 308.15 101.392 308.76 102.352 308.356C102.974 308.005 103.459 307.454 103.728 306.791C104.668 305.007 105.506 303.17 106.238 301.29C106.502 300.56 106.806 299.847 107.149 299.152C108.217 297.116 110.063 295.528 110.981 293.438C111.074 293.277 111.129 293.096 111.144 292.91C111.159 292.724 111.132 292.538 111.065 292.363C110.895 292.128 110.66 291.948 110.389 291.844C109.031 291.065 107.793 290.093 106.715 288.957C106.111 288.353 104.995 286.807 104.126 286.668C103.172 286.541 102.877 287.87 102.213 288.438Z" fill="#FBBEBE"/>
<path d="M102.43 307.154C101.362 307.667 100.107 307.438 98.9485 307.196C95.9676 306.592 92.9566 305.94 90.1989 304.647C89.3363 304.321 88.589 303.748 88.0508 302.999C87.7099 302.359 87.5045 301.656 87.4474 300.933L86.9405 297.509C86.7655 296.301 87.0732 295.202 87.0974 293.994C87.1166 293.859 87.1089 293.722 87.0747 293.59C87.0406 293.459 86.9806 293.335 86.8983 293.227C86.7298 293.087 86.5128 293.02 86.2948 293.04C84.913 293.04 84.0803 294.507 83.1088 295.492C82.5525 296.058 81.8874 296.506 81.1537 296.808C80.2667 297.171 79.1745 297.412 78.8185 298.312C78.6676 298.68 78.6857 299.103 78.5349 299.472C77.9315 300.945 75.2764 300.456 74.6066 301.887C74.4135 302.298 74.4256 302.817 74.1058 303.143C73.786 303.47 73.2007 303.458 72.7179 303.542C70.7991 303.856 69.8638 306.079 68.2225 307.123C66.8406 308.005 65.0606 307.987 63.5761 308.676C62.8033 309.139 61.9964 309.543 61.1625 309.883C60.2384 310.045 59.2981 310.091 58.3626 310.022C58.2617 310.013 58.16 310.025 58.0636 310.056C57.9672 310.087 57.878 310.137 57.8014 310.204C57.7462 310.293 57.7096 310.392 57.6941 310.496C57.6785 310.6 57.6842 310.706 57.7109 310.807C58.1669 313.717 59.3721 316.457 61.2078 318.758C63.0436 321.059 65.4466 322.842 68.1802 323.931C68.4958 324.033 68.7962 324.177 69.0733 324.36C69.912 324.964 70.0569 326.335 71.0042 326.776C71.3479 326.893 71.7172 326.915 72.0723 326.839C72.4274 326.762 72.755 326.59 73.0196 326.341C73.537 325.836 74.0227 325.299 74.4739 324.734C75.3417 323.831 76.4786 323.234 77.7142 323.031C78.8547 322.85 80.1279 322.983 81.0511 322.282C81.4287 321.935 81.7797 321.559 82.1011 321.159C82.7941 320.516 83.6173 320.03 84.5148 319.734C86.9274 318.801 89.4741 318.263 92.0575 318.139C94.4711 318 96.9753 318.224 99.2623 317.433C99.8574 317.253 100.405 316.943 100.867 316.527C101.361 315.994 101.728 315.356 101.941 314.661C102.773 312.247 102.942 309.655 102.43 307.154Z" fill="#514E7F"/>
<path d="M90.567 293.583C91.2489 293.523 91.9308 293.583 92.6126 293.583C93.4152 293.583 94.2056 293.39 95.0263 293.384C96.295 293.404 97.5239 293.831 98.5335 294.6C99.5431 295.369 100.28 296.441 100.638 297.66C100.707 297.854 100.72 298.063 100.674 298.264C100.647 298.363 100.586 298.45 100.5 298.507C100.415 298.565 100.312 298.59 100.21 298.578C99.9453 297.85 99.5991 297.155 99.1778 296.506C98.4122 295.469 97.3263 294.713 96.0883 294.356C94.8506 294.005 93.5467 293.958 92.2868 294.217C91.7678 294.314 91.2549 294.453 90.742 294.598L88.2378 295.274C87.7853 295.395 87.3327 295.522 86.8922 295.685C86.5543 295.806 85.969 296.289 85.6371 296.289C85.1845 296.289 85.5526 295.896 85.7518 295.63C86.1511 295.083 86.7127 294.675 87.3568 294.465C88.3865 294.04 89.4647 293.743 90.567 293.583Z" fill="#514E7F"/>
<path d="M96.7702 321.25C97.3736 323.158 97.977 325.067 98.7072 326.927C100.043 330.152 101.727 333.222 103.728 336.083C105.015 337.965 106.398 339.779 107.873 341.518C109.72 343.698 111.783 345.89 112.435 348.675C112.815 350.281 112.688 351.966 112.845 353.609C113.002 355.252 113.539 356.997 114.867 357.981C115.875 358.606 117.016 358.982 118.198 359.081C119.03 359.213 120.074 359.256 120.509 358.531C120.661 358.236 120.739 357.909 120.738 357.577L120.937 355.161C120.985 354.642 121.166 353.953 121.685 353.953C122.204 353.953 122.47 354.623 122.892 354.931C123.049 355.016 123.223 355.068 123.401 355.084C123.579 355.099 123.758 355.078 123.928 355.021C124.097 354.965 124.254 354.874 124.387 354.755C124.52 354.635 124.627 354.49 124.702 354.328C124.969 353.651 124.986 352.902 124.751 352.214C124.392 350.847 123.75 349.571 122.865 348.47C121.98 347.369 120.873 346.467 119.616 345.824C118.741 345.465 117.9 345.026 117.105 344.513C116.296 343.816 115.627 342.972 115.132 342.025C110.564 334.506 105.978 326.927 102.762 318.768C102.128 317.306 101.699 315.763 101.489 314.184C101.423 312.57 101.49 310.955 101.688 309.352C101.884 306.45 101.621 303.536 100.91 300.716C100.753 299.976 100.473 299.268 100.083 298.62C98.7615 296.603 95.6418 296.307 93.6746 297.696C92.9509 298.255 92.3508 298.957 91.9125 299.76C91.4742 300.562 91.2071 301.447 91.1282 302.359C90.9834 303.983 91.9247 305.68 92.4014 307.19C93.8577 311.881 95.3139 316.567 96.7702 321.25Z" fill="#FBBEBE"/>
<path d="M124.28 279.197C124.352 278.43 123.677 277.736 122.886 277.247C122.064 276.82 121.274 276.336 120.521 275.797C119.821 275.193 119.441 274.402 118.741 273.798C117.948 273.192 117.047 272.743 116.086 272.476C114.045 271.756 111.901 271.371 109.738 271.334C107.6 271.277 105.492 271.835 103.661 272.941C103.258 273.19 102.907 273.516 102.629 273.901C102.366 274.373 102.196 274.892 102.129 275.429C101.736 277.081 101.205 278.697 100.542 280.26C99.8597 282 99.1295 283.799 97.5244 285.14C95.8047 286.577 93.1678 287.405 92.0333 289.138C91.9096 289.293 91.8229 289.474 91.78 289.668C91.7371 289.862 91.7392 290.063 91.7859 290.255C91.9489 290.69 92.4738 290.986 92.9505 291.264C95.7444 292.871 98.152 294.948 99.395 297.436C100.046 298.64 100.338 300.005 100.238 301.37C100.137 302.734 99.648 304.042 98.8278 305.137C98.1822 305.982 97.2891 306.985 97.9227 307.836C98.8821 309.129 102.195 308.392 102.955 309.757C103.113 310.21 103.148 310.698 103.058 311.17C103.058 312.601 104.44 313.882 106.117 314.54C107.889 315.142 109.749 315.448 111.62 315.446C112.126 314.321 112.176 313.043 111.759 311.883C111.634 311.632 111.586 311.351 111.62 311.073C111.751 310.766 111.959 310.498 112.224 310.294C114.245 308.386 113.817 305.577 112.604 303.313C111.391 301.048 109.508 298.97 108.808 296.585C108.458 295.377 108.452 294.066 109.412 293.082C109.951 292.609 110.53 292.185 111.144 291.814C112.232 291.071 113.073 290.019 113.557 288.794C114.118 287.224 114.034 285.333 115.687 284.295C117.341 283.256 119.483 283.594 121.227 282.924C122.633 282.362 124.171 280.315 124.28 279.197Z" fill="#464353"/>
<path d="M175.878 292.496C181.42 292.496 185.913 288 185.913 282.453C185.913 276.906 181.42 272.409 175.878 272.409C170.336 272.409 165.843 276.906 165.843 282.453C165.843 288 170.336 292.496 175.878 292.496Z" fill="#FBBEBE"/>
<path d="M184.911 282.03C185.838 283.511 187.052 284.79 188.483 285.791C189.914 286.792 191.531 287.495 193.239 287.858L192.484 290.6C191.181 295.322 189.709 300.323 186.064 303.596C186.222 302.785 186.214 301.95 186.038 301.142C185.863 300.334 185.525 299.57 185.044 298.898C184.08 297.558 182.935 296.358 181.641 295.334L175.866 290.304C175.689 290.175 175.541 290.01 175.432 289.821C175.29 289.468 175.29 289.074 175.432 288.721C176.168 286.426 178.268 284.995 179.969 283.449C180.827 282.648 181.594 281.755 182.256 280.786C183.439 279.155 184.181 280.804 184.911 282.03Z" fill="#FBBEBE"/>
<path d="M186.191 295.02C186.247 295.772 186.146 296.526 185.895 297.237C185.755 297.583 185.495 297.868 185.163 298.039C184.83 298.209 184.448 298.255 184.085 298.167C184.296 297.69 183.741 297.146 183.222 297.207C182.967 297.264 182.729 297.383 182.529 297.552C182.33 297.721 182.174 297.936 182.075 298.179C181.727 298.873 181.611 299.66 181.744 300.426C181.906 301.38 182.456 302.292 182.311 303.246C182.196 304.037 181.611 304.828 181.925 305.571C182.126 305.906 182.378 306.208 182.673 306.465C183.081 306.969 183.28 307.611 183.23 308.258C183.179 308.906 182.883 309.509 182.401 309.944L190.246 310.095C189.956 311.405 190.547 312.746 191.217 313.905C193.093 317.102 195.682 319.82 198.783 321.846C201.884 323.873 205.412 325.153 209.09 325.586C208.892 325.702 208.722 325.862 208.592 326.052C208.463 326.243 208.377 326.459 208.341 326.687C208.305 326.914 208.321 327.147 208.385 327.368C208.45 327.589 208.563 327.793 208.716 327.965C209.356 328.599 210.43 328.521 211.227 328.11C211.982 327.624 212.702 327.085 213.381 326.498C214.661 325.579 216.228 325.15 217.798 325.29C218.781 325.38 219.729 325.694 220.712 325.749C223.609 325.906 226.101 323.816 228.87 322.965C230.904 322.361 233.203 322.361 234.905 321.068C235.641 320.525 236.244 319.631 236.027 318.737C235.846 318.227 235.558 317.762 235.182 317.372C234.199 316.098 233.625 314.57 232.919 313.144C231.528 310.286 229.61 307.717 227.265 305.571C225.501 304.022 223.63 302.599 221.666 301.313C221.188 300.962 220.679 300.657 220.145 300.401C219.434 300.17 218.74 299.887 218.069 299.556C217.146 298.952 216.621 297.955 215.915 297.14C214.364 295.328 211.981 294.501 210.068 293.076C208.789 292.121 207.654 290.865 206.128 290.4C205.385 290.177 204.589 290.159 203.847 289.935C202.157 289.422 200.926 287.918 199.267 287.314C197.957 286.831 196.509 286.958 195.121 286.783C193.593 286.593 192.132 286.04 190.861 285.17C190.448 284.83 189.983 284.557 189.485 284.361C187.392 283.757 187.223 287.634 187.023 288.987C186.71 290.962 186.191 292.985 186.191 295.02Z" fill="#3F3D56"/>
<path d="M188.236 308.132C188.586 311.943 185.708 315.639 186.547 319.377C186.728 320.175 187.066 320.93 187.192 321.733C187.542 323.949 186.221 326.045 184.96 327.899L174.098 343.807C173.667 344.508 173.148 345.152 172.553 345.721C170.478 347.563 167.376 347.37 164.655 347.926C162.742 348.315 160.937 349.115 159.363 350.269C159.293 350.324 159.248 350.403 159.235 350.491C159.223 350.579 159.245 350.668 159.296 350.74C159.745 351.353 160.341 351.843 161.028 352.166C161.715 352.489 162.473 352.634 163.231 352.588C163.514 352.963 163.231 353.518 162.838 353.796C162.235 354.201 161.457 354.309 161.342 355.294C161.302 355.638 161.369 355.986 161.535 356.29C161.975 356.959 162.656 357.431 163.436 357.607C167.183 358.754 171.232 356.737 174.038 353.983C176.844 351.229 178.865 347.781 181.617 344.985C183.143 343.438 184.875 342.116 186.444 340.618C189.576 337.598 192.014 333.975 194.367 330.351C195.134 329.292 195.714 328.109 196.081 326.854C196.37 325.616 196.238 324.3 196.576 323.074C197.01 321.461 198.187 320.175 199.17 318.846C201.095 316.195 202.374 312.958 202.121 309.69C201.868 306.423 199.846 303.21 196.775 302.099C195.815 301.714 194.756 301.65 193.758 301.918C192.496 302.304 191.567 303.349 190.704 304.333L188.647 306.713C188.131 307.233 187.721 307.848 187.44 308.525C187.308 308.867 187.278 309.24 187.353 309.599C187.427 309.958 187.604 310.287 187.862 310.548" fill="#FBBEBE"/>
<path d="M193.715 292.472C192.291 292.556 190.698 292.695 189.715 293.68C189.294 294.147 188.956 294.682 188.713 295.262C187.735 297.249 186.782 299.333 186.716 301.549C186.655 303.319 187.168 305.052 187.44 306.803C187.663 308.259 187.096 309.745 186.987 311.218C188.955 310.682 190.864 309.948 192.683 309.026C193.736 308.339 194.854 307.759 196.02 307.293C197.716 306.725 200.576 307.697 202.181 308.5C202.272 307.365 201.421 305.39 201.512 304.273C201.523 303.793 201.608 303.319 201.765 302.866C202.005 302.387 202.289 301.932 202.616 301.507C203.233 300.505 203.517 299.334 203.427 298.161C203.337 296.988 202.878 295.874 202.115 294.978C200.685 293.366 198.44 292.762 196.298 292.508C194.948 292.353 193.588 292.307 192.231 292.369" fill="#3F3D56"/>
<path d="M162.657 272.355L162.428 270.464C164.015 270.869 165.518 269.528 166.531 268.133C167.545 266.738 168.48 265.113 170.019 264.51C171.896 263.803 173.881 264.932 175.673 265.862C177.675 266.994 179.879 267.724 182.16 268.012C182.524 268.028 182.884 268.087 183.234 268.187C184.399 268.604 184.954 270.066 185.123 271.394C185.292 272.723 185.243 274.136 185.817 275.32C186.257 276.214 187.023 276.884 187.458 277.736C188.665 280.109 187.5 283.358 188.797 285.69L185.581 282.742C185.286 282.471 184.869 282.187 184.549 282.416C184.23 282.646 184.272 283.02 184.163 283.304C184.072 283.513 183.939 283.7 183.773 283.856C183.607 284.012 183.411 284.132 183.198 284.21C182.984 284.288 182.757 284.322 182.53 284.309C182.302 284.297 182.08 284.238 181.876 284.138C181.063 283.674 180.364 283.034 179.831 282.265C178.494 280.553 176.734 279.219 174.726 278.394C173.855 278.058 172.922 277.912 171.991 277.967C171.059 278.023 170.15 278.277 169.325 278.714C167.823 279.566 166.724 281.541 164.884 281.607C162.362 281.704 161.312 277.005 160.147 275.151C160.573 274.828 160.873 274.366 160.994 273.846C161.115 273.325 161.05 272.778 160.811 272.3C160.986 272.24 162.621 272.065 162.657 272.355Z" fill="#464353"/>
<path d="M433.532 443.469C433.043 441.397 432.747 439.585 432.747 439.585C432.788 438.216 432.479 436.858 431.848 435.642V435.074V430.907C432.134 430.151 432.485 429.421 432.898 428.727C433.646 427.422 432.898 422.627 432.898 422.627C432.898 422.627 430.122 415.869 430.792 411.581C431.462 407.293 425.096 392.538 425.096 392.538C425.136 391.111 425.339 389.693 425.699 388.311C425.768 388.022 425.795 387.725 425.778 387.429C425.781 387.393 425.781 387.357 425.778 387.32V387.357C425.681 384.53 423.449 379.228 423.449 379.228L423.75 369.13C423.75 369.13 425.174 363.169 422.851 355.173C422.037 352.383 421.518 350.154 421.186 348.427C421.15 348.234 421.113 348.046 421.083 347.865C425.868 347.134 429.531 346.524 429.531 346.524C429.531 346.524 426.755 334.899 424.879 332.863C423.002 330.828 421.506 324.438 421.506 324.438C421.506 324.438 420.528 316.225 422.109 313.827C423.69 311.429 423.919 307.286 423.919 307.286C423.919 307.286 427.54 304.671 427.968 303.506C428.607 301.851 429.014 300.115 429.175 298.348C429.175 296.965 428.723 295.733 428.873 295.002C429.024 294.272 427.823 291.518 428.427 290.207C428.582 289.804 428.662 289.376 428.662 288.945C428.665 288.933 428.665 288.92 428.662 288.909C428.665 287.764 428.557 286.621 428.342 285.496C427.303 284.616 426.09 283.966 424.782 283.588L424.704 283.28L424.499 282.465C424.385 282.385 424.266 282.315 424.143 282.253V281.951V280.743L424.704 278.086C425.814 273.478 419.659 272.789 419.659 272.789C419.287 272.08 418.666 271.534 417.915 271.255C416.708 270.821 417.71 278.201 418.289 278.672C418.724 279.022 420.1 281.341 420.703 282.477L420.812 282.664C420.709 282.754 420.614 282.853 420.528 282.96L420.763 284.56L420.8 284.808C420.391 285.314 420.059 285.877 419.816 286.481C419.816 286.481 420.944 287.719 420.715 289.102C420.628 290.181 420.755 291.267 421.089 292.297C421.023 292.218 420.232 291.361 419.442 291.572C418.652 291.783 416.425 292.442 416.425 292.442C416.425 292.442 414.772 292.732 414.922 293.094C415.073 293.456 413.8 295.057 413.8 295.057L409.365 290.829C409.317 290.702 409.274 290.575 409.232 290.449C409.051 289.858 408.923 289.251 408.852 288.637C409.333 288.522 409.805 288.37 410.264 288.184C410.723 288.022 411.137 287.753 411.471 287.399C411.843 286.819 412.086 286.166 412.183 285.484C412.533 284.192 413.287 283.038 413.83 281.812C414.726 279.752 415.023 277.481 414.687 275.26C414.618 274.571 414.387 273.908 414.011 273.327C413.287 272.33 411.972 271.926 410.994 271.129C410.017 270.331 409.425 269.124 408.309 268.526C407.248 268.063 406.066 267.961 404.942 268.236C402.724 268.597 400.593 269.372 398.66 270.519C398.009 270.905 397.303 271.346 396.554 271.213C395.938 271.025 395.404 270.633 395.04 270.102C395.037 270.08 395.037 270.058 395.04 270.035L394.985 269.981C394.52 271.026 394.286 272.159 394.298 273.303C394.298 273.478 394.298 273.653 394.298 273.834C394.298 273.895 394.298 273.955 394.298 274.015C394.301 274.068 394.301 274.12 394.298 274.172C394.294 274.252 394.282 274.331 394.261 274.408C394.17 274.637 394.03 274.843 393.851 275.012C393.712 275.163 393.59 275.329 393.489 275.507C393.489 275.447 393.525 275.386 393.549 275.326C393.265 275.737 393.103 276.221 393.085 276.721C393.061 277.087 393.182 277.447 393.423 277.724C393.642 277.948 393.882 278.15 394.141 278.328C394.055 278.814 394.013 279.307 394.014 279.801C394.022 281.279 394.41 282.729 395.141 284.012C395.873 285.296 396.923 286.369 398.19 287.127L398.34 287.507C398.982 289.033 399.257 290.688 399.143 292.339C399.143 292.46 399.143 292.574 399.089 292.695L398.932 292.876C398.932 292.876 391.606 292.949 389.881 291.385C388.155 289.821 385.53 295.202 385.53 295.202C385.53 295.202 382.905 295.715 382.38 295.202C381.855 294.688 378.76 295.129 378.76 295.129C377.501 294.014 375.866 293.418 374.186 293.462C373.161 292.68 372.029 292.05 370.825 291.59L370.74 291.56C370.211 291.368 369.646 291.298 369.087 291.355C369.087 291.355 365.466 288.371 364.44 286.777C363.415 285.182 358.406 279.246 358.364 279.215V278.932L358.304 278.068C358.156 278.092 358.007 278.106 357.857 278.11C357.857 278.02 357.797 277.923 357.755 277.808C357.466 276.975 357.111 276.168 356.693 275.392C356.693 275.392 356.692 274.305 357.012 274.034C357.332 273.762 356.88 269.764 356.88 269.764C356.88 269.764 353.633 262.172 350.731 267.837C350.731 267.837 345.234 271.503 349.844 275.779C349.844 275.779 351.654 276.667 351.944 277.373C352.119 277.832 352.74 279.119 353.15 279.97L353.338 280.351L353.283 280.393L353.356 281.106V281.383C352.487 281.873 351.901 282.362 352.04 282.736C352.298 283.365 352.475 284.025 352.565 284.699C352.565 284.699 358.943 292.689 359.77 296.108C359.77 296.108 376.871 306.278 382.495 307.009L381.523 312.094C381.378 313.47 381.303 314.853 381.3 316.237C381.372 317.324 380.624 322.276 380.624 322.276C380.624 322.276 379.647 329.523 378.814 330.556C377.981 331.589 378.138 335.937 378.138 335.937C377.943 338.023 377.567 340.088 377.016 342.11C376.189 344.876 376.792 348.288 376.792 348.288C376.792 348.288 373.938 354.829 380.769 350.396C380.769 350.396 384.118 350.19 388.01 350.057C388.01 350.184 388.01 350.311 388.01 350.444C388.01 350.939 388.01 351.477 388.01 352.044C387.962 355.789 387.938 360.952 388.106 364.86C388.408 371.763 390.52 385.394 390.52 385.394V392.255C390.389 392.901 390.324 393.558 390.327 394.217C390.277 396.638 390.917 399.022 392.174 401.09L392.698 405.668C392.698 405.668 393.905 408.688 393.954 410.5C393.949 410.646 393.931 410.792 393.899 410.935C393.854 411.165 393.834 411.4 393.839 411.635C393.773 413.713 395.046 418.689 395.046 418.689C395.046 418.689 395.124 423.702 395.872 423.992C396.512 424.239 395.016 426.885 394.569 427.615C394.556 427.568 394.546 427.519 394.539 427.47C394.485 427.567 394.448 427.621 394.448 427.621C394.293 428.026 394.213 428.456 394.213 428.89C394.169 429.232 394.225 429.581 394.372 429.893C394.52 430.206 394.753 430.469 395.046 430.653C396.47 431.529 397.236 432.254 396.029 432.543C395.584 432.611 395.143 432.704 394.708 432.821C394.708 432.767 394.66 432.706 394.642 432.652C394.484 432.723 394.353 432.843 394.268 432.994C394.183 433.145 394.149 433.32 394.171 433.492C394.184 434.085 394.339 434.667 394.623 435.189C395.152 436.5 395.833 437.744 396.651 438.897L397.254 438.83C397.167 439.045 397.053 439.248 396.916 439.434C396.7 439.749 396.41 440.007 396.072 440.183C395.757 440.37 395.408 440.491 395.046 440.54C394.639 440.55 394.239 440.648 393.872 440.826C393.506 441.004 393.182 441.259 392.922 441.572C392.174 442.539 391.715 443.861 393.181 445.021L398.546 446.869C398.546 446.869 407.772 448.077 407.283 445.999C406.794 443.922 406.499 442.116 406.499 442.116C406.535 440.848 406.277 439.589 405.744 438.438C405.652 438.248 405.543 438.066 405.419 437.894L405.744 437.858C405.744 437.858 406.42 433.28 407.319 432.423C407.53 432.223 407.579 432.066 407.524 431.946C407.621 431.698 407.386 431.553 407.084 431.468L407.018 431.65C406.724 431.588 406.425 431.555 406.125 431.553C406.125 431.553 405.823 429.137 406.794 428.28C406.874 428.18 406.932 428.066 406.965 427.943C406.998 427.821 407.006 427.693 406.987 427.567C406.993 427.238 406.958 426.909 406.885 426.589L406.849 426.649C406.295 424.712 405.574 422.827 404.694 421.014C404.694 421.014 404.622 418.834 405.219 417.958C405.817 417.083 405.147 406.115 405.147 406.115C405.147 406.115 405.37 400.812 404.694 398.342C404.019 395.872 405.521 392.961 405.521 392.961V392.804V392.768C405.521 392.768 405.485 392.442 405.431 391.929V391.983C405.28 390.576 404.996 388.033 404.785 386.861C404.483 385.189 404.857 377.198 404.857 377.198L406.209 373.786L408.623 379.669L411.169 387.52C411.897 388.492 412.345 389.645 412.466 390.854C412.466 390.938 412.466 391.023 412.466 391.101C412.455 391.276 412.455 391.452 412.466 391.627C412.424 392.618 412.696 393.597 413.245 394.423C413.245 394.423 413.921 398.131 414.971 399.073C416.021 400.015 416.021 401.833 416.021 401.833C416.021 401.833 417.294 407.214 417.897 408.156C418.404 408.954 418.428 411.14 418.422 411.78V411.979C418.422 411.979 418.597 413.9 418.591 415.518C418.591 415.712 418.591 415.911 418.591 416.122V416.08C418.59 416.52 418.537 416.957 418.434 417.385V417.463C418.434 417.372 418.434 417.276 418.434 417.191C418.165 418.288 418.036 419.414 418.048 420.543C418.012 422.476 418.308 424.771 419.478 426.105C421.506 428.431 422.779 428.141 422.779 428.141C422.779 428.141 421.801 431.046 420.601 431.631C420.556 431.653 420.513 431.68 420.474 431.71C420.474 431.656 420.474 431.595 420.444 431.541C420.313 431.688 420.215 431.861 420.155 432.048C420.094 432.235 420.074 432.432 420.094 432.628C420.148 434.179 420.665 435.679 421.578 436.934C421.86 437.217 422.209 437.425 422.592 437.538L422.405 437.653C422.27 437.727 422.131 437.793 421.988 437.852C421.797 437.936 421.593 437.989 421.385 438.009C420.978 438.02 420.578 438.118 420.212 438.296C419.845 438.474 419.521 438.728 419.261 439.042C418.513 440.008 418.054 441.331 419.52 442.49L424.885 444.338C424.885 444.338 433.996 445.57 433.532 443.469Z" fill="url(#paint0_linear)"/>
<path d="M398.292 446.899L393.097 445.051C391.667 443.892 392.125 442.569 392.849 441.603C393.096 441.292 393.407 441.039 393.762 440.86C394.116 440.682 394.505 440.583 394.901 440.57C395.254 440.522 395.593 440.401 395.897 440.214C396.226 440.033 396.507 439.776 396.717 439.465C397.102 438.864 397.311 438.167 397.321 437.454C397.321 437.454 403.023 435.787 404.562 437.454C404.841 437.757 405.075 438.098 405.256 438.468C405.769 439.625 406.016 440.882 405.98 442.146C405.98 442.146 406.269 443.958 406.74 446.03C407.211 448.101 398.292 446.899 398.292 446.899Z" fill="#2D293D"/>
<path d="M423.702 444.363L418.513 442.515C417.077 441.355 417.535 440.033 418.259 439.072C418.506 438.759 418.818 438.504 419.173 438.325C419.529 438.145 419.919 438.046 420.317 438.034C420.525 438.015 420.729 437.962 420.92 437.877C421.058 437.82 421.191 437.753 421.319 437.677C422.773 436.88 422.737 434.917 422.737 434.917C422.737 434.917 428.433 433.244 429.978 434.917C430.186 435.143 430.369 435.393 430.521 435.66C431.133 436.884 431.434 438.241 431.396 439.61C431.396 439.61 431.685 441.422 432.156 443.493C432.627 445.565 423.702 444.363 423.702 444.363Z" fill="#2D293D"/>
<path opacity="0.1" d="M404.568 437.454C404.847 437.757 405.081 438.098 405.262 438.468L396.717 439.459C397.102 438.858 397.311 438.161 397.321 437.448C397.321 437.448 403.011 435.787 404.568 437.454Z" fill="black"/>
<path opacity="0.1" d="M430.527 435.636V437.236C429.199 439.428 422.773 438.951 420.908 437.84C421.046 437.783 421.179 437.717 421.307 437.641C422.761 436.844 422.725 434.881 422.725 434.881C422.725 434.881 428.421 433.208 429.966 434.881C430.181 435.11 430.37 435.363 430.527 435.636Z" fill="black"/>
<path d="M431.547 428.733C431.146 429.429 430.805 430.159 430.527 430.913V436.656C429.079 439.072 421.524 438.257 420.51 436.946C419.496 435.636 418.404 432.224 419.563 431.644C420.721 431.064 421.669 428.153 421.669 428.153C421.669 428.153 420.462 428.443 418.477 426.118C416.491 423.793 417.101 418.635 417.463 417.397C417.825 416.159 417.463 412.022 417.463 412.022C417.463 412.022 417.535 409.117 416.956 408.169C416.377 407.22 415.146 401.845 415.146 401.845C415.146 401.845 415.146 400.034 414.132 399.085C413.118 398.137 412.46 394.435 412.46 394.435C411.866 393.509 411.61 392.406 411.736 391.313C411.954 389.501 410.499 387.532 410.499 387.532L408.031 379.681L405.708 373.792L404.405 377.205C404.405 377.205 404.037 385.201 404.332 386.868C404.628 388.535 405.057 392.967 405.057 392.967C405.057 392.967 403.602 395.878 404.26 398.349C404.918 400.819 404.694 406.121 404.694 406.121C404.694 406.121 405.346 417.095 404.767 417.971C404.188 418.846 404.26 420.99 404.26 420.99C404.26 420.99 407.235 427.386 406.288 428.238C405.34 429.089 405.636 431.511 405.636 431.511C405.636 431.511 407.669 431.511 406.8 432.381C405.931 433.25 405.274 437.816 405.274 437.816L396.482 438.927C395.689 437.769 395.029 436.525 394.515 435.219C393.356 432.532 394.732 432.803 395.903 432.532C397.073 432.26 396.331 431.517 394.949 430.641C393.567 429.765 394.346 427.809 394.346 427.809C394.346 427.809 396.452 424.245 395.728 423.956C395.004 423.666 394.925 418.653 394.925 418.653C394.925 418.653 393.477 412.692 393.839 411.098C394.201 409.503 392.674 405.662 392.674 405.662L392.167 401.084C390.62 398.481 390.063 395.406 390.599 392.424V385.352C390.599 385.352 388.565 371.691 388.269 364.818C388.088 360.397 388.137 354.364 388.197 350.595C388.233 348.487 388.269 347.086 388.269 347.086L419.647 343.819C419.697 345.387 419.889 346.948 420.22 348.481C420.54 350.202 421.041 352.437 421.826 355.227C424.076 363.217 422.7 369.178 422.7 369.178L422.411 379.276C422.411 379.276 425.168 386.034 424.589 388.335C424.231 389.718 424.029 391.136 423.986 392.563C423.986 392.563 430.159 407.317 429.507 411.605C428.855 415.893 431.547 422.621 431.547 422.621C431.547 422.621 432.271 427.452 431.547 428.733Z" fill="#464353"/>
<path opacity="0.05" d="M413.613 390.878L423.135 389.604C423.135 389.604 417.752 395.123 413.613 390.878Z" fill="black"/>
<path opacity="0.1" d="M421.777 380.267C421.777 380.267 422.109 383.643 420.039 384.917C420.039 384.917 423.738 384.337 421.777 380.267Z" fill="black"/>
<path opacity="0.1" d="M421.192 369.51C421.192 369.51 413.215 376.087 410.33 375.55C407.446 375.012 421.192 369.51 421.192 369.51Z" fill="black"/>
<path opacity="0.1" d="M401.774 393.964C401.774 393.964 395.74 395.347 395.535 397.781C395.329 400.215 401.774 393.964 401.774 393.964Z" fill="black"/>
<path opacity="0.05" d="M403.107 424.263C403.107 424.263 394.545 425.864 396.977 426.957C399.063 427.782 401.212 428.436 403.403 428.914C403.403 428.914 406.161 429.059 403.107 424.263Z" fill="black"/>
<g opacity="0.05">
<path opacity="0.05" d="M395.245 428.661C395.029 428.525 394.847 428.343 394.711 428.128C394.575 427.913 394.49 427.669 394.46 427.417L394.376 427.574C394.376 427.574 393.573 429.53 394.979 430.406C395.136 430.503 395.287 430.605 395.426 430.702C395.679 430.654 395.957 430.617 396.216 430.551C397.363 430.285 396.627 429.554 395.245 428.661Z" fill="black"/>
<path opacity="0.05" d="M406.281 428.105C406.517 427.887 406.505 427.326 406.366 426.607C406.015 427.252 405.846 427.981 405.877 428.715C405.963 428.483 406.102 428.274 406.281 428.105Z" fill="black"/>
<path opacity="0.05" d="M404.96 391.953C404.638 392.811 404.435 393.709 404.357 394.622C404.522 393.999 404.744 393.393 405.02 392.81C405.02 392.81 405.032 392.46 404.96 391.953Z" fill="black"/>
<path opacity="0.05" d="M424.577 388.136C424.634 387.874 424.66 387.607 424.656 387.339C424.547 387.882 424.475 388.39 424.42 388.831C424.468 388.601 424.517 388.372 424.577 388.136Z" fill="black"/>
<path opacity="0.05" d="M404.755 417.789C404.923 417.269 404.997 416.723 404.972 416.177C404.701 416.821 404.56 417.513 404.556 418.212C404.605 418.064 404.672 417.922 404.755 417.789Z" fill="black"/>
<path opacity="0.05" d="M406.553 431.487C406.104 432.946 405.772 434.438 405.557 435.95L396.778 436.971C395.981 435.815 395.321 434.57 394.81 433.262C394.717 433.054 394.634 432.84 394.563 432.622C394.038 432.864 393.827 433.407 394.521 435.038C395.03 436.345 395.69 437.587 396.488 438.74L405.262 437.719C405.262 437.719 405.919 433.142 406.788 432.284C407.217 431.819 406.945 431.602 406.553 431.487Z" fill="black"/>
<path opacity="0.05" d="M394.955 418.436C394.955 418.436 395.028 423.454 395.752 423.744C396.12 422.917 396.355 422.132 396.035 421.999C395.311 421.709 395.239 416.696 395.239 416.696C395.239 416.696 393.785 410.735 394.153 409.135C394.521 407.535 392.988 403.7 392.988 403.7L392.481 399.122C390.929 396.524 390.361 393.455 390.882 390.473V383.413C390.882 383.413 388.849 369.752 388.559 362.849C388.372 358.428 388.426 352.395 388.487 348.626C388.487 347.95 388.487 347.346 388.487 346.814H388.239C388.239 346.814 388.203 348.21 388.167 350.323C388.107 354.086 388.052 360.125 388.239 364.546C388.529 371.449 390.562 385.11 390.562 385.11V392.158C390.03 395.168 390.611 398.268 392.198 400.879L392.705 405.457C392.705 405.457 394.231 409.304 393.863 410.892C393.495 412.481 394.955 418.436 394.955 418.436Z" fill="black"/>
<path opacity="0.05" d="M420.8 435.008C420.086 433.974 419.612 432.794 419.412 431.553C418.513 432.363 419.545 435.509 420.51 436.753C421.476 437.997 429.079 438.861 430.533 436.457V435.074C428.566 437.025 421.765 436.246 420.8 435.008Z" fill="black"/>
<path opacity="0.05" d="M431.836 426.794C431.439 427.492 431.1 428.221 430.822 428.975V429.995C430.985 429.621 431.221 429.126 431.547 428.54C431.779 427.965 431.888 427.348 431.866 426.728L431.836 426.794Z" fill="black"/>
<path opacity="0.05" d="M421.246 427.942C421.524 427.382 421.764 426.805 421.964 426.214C421.964 426.214 420.757 426.504 418.766 424.179C417.342 422.488 417.264 419.293 417.463 417.204C417.101 418.442 416.515 423.599 418.477 425.924C419.762 427.452 420.721 427.845 421.246 427.942Z" fill="black"/>
<path opacity="0.05" d="M417.463 411.829C417.588 413.26 417.637 414.698 417.608 416.135C417.656 415.851 417.71 415.621 417.752 415.458C418.121 414.25 417.752 410.083 417.752 410.083C417.752 410.083 417.825 407.172 417.246 406.23C416.666 405.288 415.435 399.907 415.435 399.907C415.435 399.907 415.435 398.095 414.422 397.147C413.408 396.199 412.75 392.497 412.75 392.497C412.154 391.571 411.896 390.468 412.02 389.374C412.243 387.562 410.813 385.594 410.813 385.594L408.345 377.742L405.992 371.89L404.682 375.302C404.682 375.302 404.682 375.731 404.64 376.408L405.702 373.636L408.025 379.518L410.493 387.369C410.493 387.369 411.942 389.332 411.7 391.144C411.591 392.23 411.857 393.322 412.454 394.236C412.454 394.236 413.106 397.938 414.12 398.886C415.134 399.834 415.14 401.646 415.14 401.646C415.14 401.646 416.346 407.021 416.95 407.969C417.553 408.918 417.463 411.829 417.463 411.829Z" fill="black"/>
</g>
<path d="M423.557 278.128L423.014 280.786L423.044 281.994V282.863L420.027 283.177L419.689 282.573C419.086 281.438 417.758 279.125 417.336 278.769C416.775 278.298 415.779 270.917 416.974 271.358C417.707 271.64 418.31 272.185 418.664 272.886C418.664 272.886 424.631 273.514 423.557 278.128Z" fill="#FFCDD3"/>
<path opacity="0.1" d="M423.069 282.833L420.051 283.147L419.714 282.543C420.121 282.078 420.677 281.769 421.287 281.669C421.896 281.569 422.522 281.684 423.056 281.994L423.069 282.833Z" fill="black"/>
<path d="M423.829 284.271L419.84 285.201L419.756 284.597L419.526 282.996C419.744 282.706 420.018 282.461 420.331 282.277C420.643 282.092 420.99 281.972 421.35 281.923C421.709 281.873 422.075 281.896 422.426 281.989C422.777 282.082 423.106 282.244 423.394 282.465L423.594 283.28L423.829 284.271Z" fill="#DCE6F2"/>
<path d="M359.118 278.418L354.858 280.713L354.472 279.904C354.062 279.053 353.458 277.772 353.265 277.313C353.012 276.607 351.232 275.713 351.232 275.713C346.766 271.443 352.082 267.777 352.082 267.777C354.9 262.106 358.038 269.697 358.038 269.697C358.038 269.697 358.473 273.702 358.165 273.967C357.857 274.233 357.857 275.332 357.857 275.332C358.264 276.109 358.609 276.917 358.889 277.748C359.052 278.171 359.118 278.418 359.118 278.418Z" fill="#FFCDD3"/>
<path opacity="0.1" d="M359.118 278.418L354.858 280.713L354.472 279.904C355.075 279.403 357.206 277.669 357.905 277.748C358.243 277.782 358.582 277.782 358.919 277.748C359.052 278.17 359.118 278.418 359.118 278.418Z" fill="black"/>
<path d="M359.553 279.711L354.762 282.072L354.665 281.039L354.599 280.333C354.599 280.333 357.374 277.947 358.219 278.038C358.635 278.097 359.058 278.097 359.474 278.038L359.529 278.901L359.553 279.711Z" fill="#DCE6F2"/>
<path d="M411.942 295.751C411.942 295.751 391.045 298.112 394.949 296.844C397.671 295.956 398.751 294.229 398.98 292.309C399.085 290.66 398.819 289.009 398.202 287.477C397.707 286.157 397.08 284.891 396.331 283.696C396.331 283.696 412.304 274.903 409.111 282.899C408.615 284.107 408.309 285.384 408.206 286.686C408.108 287.976 408.245 289.274 408.611 290.515C409.217 292.535 410.37 294.347 411.942 295.751Z" fill="#FFCDD3"/>
<path opacity="0.1" d="M409.111 282.893C408.615 284.101 408.309 285.378 408.206 286.68C406.698 287.942 405.05 287.888 402.932 287.888C401.303 287.888 399.499 288.286 398.202 287.501C397.707 286.181 397.08 284.915 396.331 283.721C396.331 283.721 412.304 274.897 409.111 282.893Z" fill="black"/>
<path d="M402.649 288.419C407.421 288.419 411.29 284.547 411.29 279.771C411.29 274.995 407.421 271.123 402.649 271.123C397.877 271.123 394.008 274.995 394.008 279.771C394.008 284.547 397.877 288.419 402.649 288.419Z" fill="#FFCDD3"/>
<path opacity="0.1" d="M411.942 295.752C411.942 295.752 391.045 298.113 394.949 296.845C397.671 295.957 398.751 294.23 398.98 292.309C400.018 291.18 402.106 290.364 403.451 289.936C404.676 289.524 405.998 289.503 407.235 289.875C407.721 290.007 408.185 290.21 408.611 290.479C409.211 292.512 410.364 294.338 411.942 295.752Z" fill="black"/>
<path opacity="0.1" d="M423.829 284.27L419.84 285.201L419.756 284.597C420.182 284.008 420.779 283.566 421.466 283.33C422.153 283.095 422.896 283.077 423.594 283.28L423.829 284.27Z" fill="black"/>
<path opacity="0.1" d="M359.553 279.711L354.762 282.072L354.665 281.039C356.219 280.207 357.832 279.492 359.492 278.901L359.553 279.711Z" fill="black"/>
<path opacity="0.1" d="M420.208 348.451C412.117 349.725 400.597 351.392 398.769 350.837C397.254 350.372 392.415 350.42 388.197 350.565C388.233 348.457 388.269 347.056 388.269 347.056L419.647 343.789C419.693 345.356 419.881 346.917 420.208 348.451Z" fill="black"/>
<path d="M428.276 346.524C428.276 346.524 401.629 351.102 398.769 350.226C395.909 349.351 381.228 350.305 381.228 350.305C374.62 354.732 377.384 348.197 377.384 348.197C377.384 348.197 376.78 344.779 377.601 342.019C378.133 339.993 378.497 337.927 378.687 335.841C378.687 335.841 378.542 331.48 379.339 330.465C380.135 329.451 381.083 322.179 381.083 322.179C381.083 322.179 381.813 317.239 381.74 316.14C381.668 315.041 381.958 312.003 381.958 312.003L382.899 306.912C377.468 306.187 360.898 296.011 360.898 296.011C360.102 292.598 353.929 284.602 353.929 284.602C353.84 283.93 353.669 283.271 353.422 282.639C352.988 281.48 359.523 279.155 359.523 279.155C359.523 279.155 364.386 285.116 365.4 286.71C366.414 288.304 369.901 291.288 369.901 291.288C370.444 291.233 370.991 291.306 371.5 291.499H371.585C372.752 291.96 373.846 292.588 374.831 293.365C376.469 293.325 378.058 293.925 379.26 295.038C379.26 295.038 382.241 294.604 382.748 295.111C383.255 295.618 385.765 295.111 385.765 295.111C385.765 295.111 388.312 289.736 389.989 291.294C391.667 292.852 398.745 292.786 398.745 292.786C399.692 291.53 401.985 290.63 403.427 290.165C404.652 289.753 405.974 289.731 407.211 290.104C407.749 290.255 408.256 290.5 408.707 290.829L413.004 295.057C413.004 295.057 414.21 293.456 414.096 293.094C413.981 292.731 415.55 292.441 415.55 292.441C415.55 292.441 417.656 291.789 418.452 291.566C419.249 291.342 419.985 292.218 420.045 292.29C419.723 291.258 419.6 290.174 419.683 289.096C419.749 288.143 419.437 287.204 418.814 286.481C421.379 280.272 427.117 285.526 427.117 285.526C427.117 285.526 427.769 288.939 427.19 290.249C426.611 291.56 427.793 294.32 427.624 295.044C427.455 295.769 427.914 297.007 427.914 298.384C427.76 300.149 427.37 301.886 426.755 303.548C426.315 304.707 422.833 307.323 422.833 307.323C422.833 307.323 422.616 311.466 421.089 313.863C419.563 316.261 420.486 324.474 420.486 324.474C420.486 324.474 421.934 330.87 423.75 332.93C425.567 334.989 428.276 346.524 428.276 346.524Z" fill="#3F3D56"/>
<path opacity="0.1" d="M389.434 298.735C389.434 298.735 388.638 296.319 387.907 296.114C387.185 295.847 386.482 295.533 385.801 295.172L386.272 294.278C386.272 294.278 389 295.027 389.434 295.824C389.869 296.621 389.434 298.735 389.434 298.735Z" fill="black"/>
<path opacity="0.1" d="M374.862 293.426C374.717 294.157 368.26 294.809 368.26 294.809L371.525 291.53L371.609 291.56C372.778 292.02 373.874 292.649 374.862 293.426Z" fill="black"/>
<path d="M356.143 284.035C356.463 284.035 356.723 283.775 356.723 283.455C356.723 283.135 356.463 282.875 356.143 282.875C355.824 282.875 355.564 283.135 355.564 283.455C355.564 283.775 355.824 284.035 356.143 284.035Z" fill="#575988"/>
<path d="M356.886 285.201C357.206 285.201 357.465 284.941 357.465 284.621C357.465 284.301 357.206 284.041 356.886 284.041C356.566 284.041 356.306 284.301 356.306 284.621C356.306 284.941 356.566 285.201 356.886 285.201Z" fill="#575988"/>
<path d="M357.616 286.27C357.936 286.27 358.195 286.01 358.195 285.69C358.195 285.369 357.936 285.11 357.616 285.11C357.296 285.11 357.036 285.369 357.036 285.69C357.036 286.01 357.296 286.27 357.616 286.27Z" fill="#575988"/>
<path d="M358.376 287.435C358.696 287.435 358.955 287.175 358.955 286.855C358.955 286.535 358.696 286.275 358.376 286.275C358.056 286.275 357.797 286.535 357.797 286.855C357.797 287.175 358.056 287.435 358.376 287.435Z" fill="#575988"/>
<path d="M426.816 287.26C427.076 287.26 427.286 287.049 427.286 286.789C427.286 286.529 427.076 286.318 426.816 286.318C426.556 286.318 426.345 286.529 426.345 286.789C426.345 287.049 426.556 287.26 426.816 287.26Z" fill="#575988"/>
<path d="M426.888 288.335C427.148 288.335 427.359 288.124 427.359 287.864C427.359 287.604 427.148 287.393 426.888 287.393C426.628 287.393 426.418 287.604 426.418 287.864C426.418 288.124 426.628 288.335 426.888 288.335Z" fill="#575988"/>
<path d="M426.949 289.404C427.208 289.404 427.419 289.193 427.419 288.933C427.419 288.673 427.208 288.462 426.949 288.462C426.689 288.462 426.478 288.673 426.478 288.933C426.478 289.193 426.689 289.404 426.949 289.404Z" fill="#575988"/>
<path opacity="0.1" d="M389.47 318.423C389.404 318.339 405.763 339.023 418.477 327.072C418.477 327.072 398.395 329.795 389.47 318.423Z" fill="black"/>
<path opacity="0.1" d="M380.069 329.18C380.069 329.18 389.862 329.445 390.888 332.266V335.201C390.611 335.354 390.3 335.434 389.983 335.434C389.667 335.434 389.355 335.354 389.078 335.201C388.088 334.669 382.169 331.656 380.081 333.105L380.069 329.18Z" fill="black"/>
<path d="M380.25 329.18C380.25 329.18 389.615 329.433 390.599 332.121V334.923C390.331 335.07 390.032 335.147 389.727 335.147C389.422 335.147 389.122 335.07 388.855 334.923C387.907 334.41 382.217 331.541 380.25 332.924V329.18Z" fill="#3F3D56"/>
<path opacity="0.1" d="M385.415 307.873C386.416 310.189 387.69 312.376 389.211 314.389C390.867 316.618 392.877 318.56 395.16 320.139C395.16 320.139 385.578 309.244 385.415 307.873Z" fill="black"/>
<path opacity="0.1" d="M382.211 296.506C382.211 296.506 383.846 303.566 388.052 305.964L382.211 296.506Z" fill="black"/>
<path opacity="0.1" d="M379.689 297.219C379.647 297.086 378.235 302.8 385.12 305.964C385.12 305.964 382.211 304.974 379.689 297.219Z" fill="black"/>
<path opacity="0.1" d="M422.471 292.484C422.363 292.484 425.862 294.719 426.816 295.751C426.816 295.751 424.541 292.339 422.471 292.484Z" fill="black"/>
<path d="M400.314 287.604C400.381 288.066 400.62 288.484 400.983 288.776C401.238 288.897 401.516 288.958 401.798 288.957C404.435 289.12 407.175 289.235 409.643 288.221C410.105 288.062 410.519 287.79 410.849 287.429C411.197 286.849 411.415 286.2 411.489 285.527C411.833 284.235 412.563 283.111 413.088 281.855C413.969 279.776 414.264 277.495 413.939 275.26C413.873 274.573 413.648 273.911 413.281 273.327C412.581 272.331 411.308 271.926 410.385 271.129C409.461 270.332 408.864 269.118 407.79 268.52C406.766 268.064 405.62 267.962 404.532 268.23C402.377 268.6 400.313 269.377 398.449 270.519C397.846 270.906 397.134 271.346 396.416 271.214C395.799 271.016 395.27 270.611 394.919 270.066C394.405 271.25 394.184 272.541 394.273 273.829C394.303 274.017 394.303 274.208 394.273 274.396C394.181 274.623 394.043 274.828 393.869 275C393.218 275.755 392.813 276.951 393.453 277.712C393.736 278.044 394.165 278.225 394.436 278.563C394.925 279.167 394.756 280.043 394.744 280.822C394.721 281.092 394.789 281.363 394.937 281.589C395.079 281.72 395.251 281.811 395.438 281.856C395.625 281.9 395.82 281.896 396.005 281.843C396.373 281.732 396.758 281.696 397.14 281.734C397.545 281.87 397.894 282.138 398.129 282.495C399.324 284.041 399.801 285.738 400.314 287.604Z" fill="#2D293D"/>
<g opacity="0.1">
<path opacity="0.1" d="M411.067 286.765C410.738 287.125 410.322 287.395 409.86 287.55C407.446 288.57 404.682 288.45 402.051 288.286C401.769 288.292 401.49 288.23 401.237 288.105C400.87 287.818 400.628 287.401 400.561 286.94C400.048 285.074 399.577 283.37 398.359 281.824C398.125 281.465 397.776 281.197 397.369 281.063C396.987 281.025 396.602 281.062 396.235 281.172C396.05 281.225 395.854 281.229 395.667 281.185C395.48 281.14 395.308 281.049 395.167 280.918C395.017 280.692 394.951 280.421 394.979 280.151C394.979 279.372 395.154 278.497 394.666 277.893C394.394 277.554 393.966 277.373 393.682 277.041C393.501 276.793 393.39 276.5 393.361 276.194C393.332 275.888 393.387 275.579 393.519 275.302C393.055 276.039 392.855 276.981 393.392 277.621C393.676 277.953 394.105 278.134 394.376 278.472C394.865 279.076 394.696 279.952 394.684 280.731C394.66 281.001 394.728 281.271 394.877 281.498C395.018 281.629 395.19 281.721 395.378 281.765C395.565 281.81 395.76 281.805 395.945 281.752C396.312 281.641 396.698 281.604 397.079 281.643C397.485 281.779 397.833 282.047 398.069 282.404C399.276 283.956 399.758 285.653 400.271 287.519C400.338 287.981 400.578 288.399 400.941 288.691C401.196 288.812 401.474 288.873 401.756 288.872C404.393 289.035 407.132 289.15 409.6 288.136C410.061 287.975 410.476 287.704 410.807 287.344C410.971 287.134 411.098 286.897 411.181 286.644C411.145 286.686 411.121 286.734 411.067 286.765Z" fill="black"/>
<path opacity="0.1" d="M394.279 274.166C394.399 274.04 394.489 273.89 394.545 273.726C394.575 273.538 394.575 273.346 394.545 273.158C394.47 272.099 394.608 271.035 394.949 270.029L394.901 269.975C394.385 271.158 394.163 272.45 394.255 273.738C394.275 273.88 394.284 274.023 394.279 274.166Z" fill="black"/>
</g>
<path opacity="0.1" d="M398.769 292.847C398.769 292.847 409.564 294.278 410.536 292.653L398.769 292.847Z" fill="black"/>
<path opacity="0.1" d="M419.756 288.377C419.756 288.377 425.748 288.377 427.069 290.636L419.756 288.377Z" fill="black"/>
<defs>
<linearGradient id="paint0_linear" x1="390.828" y1="447.249" x2="390.828" y2="265.669" gradientUnits="userSpaceOnUse">
<stop stop-color="#808080" stop-opacity="0.25"/>
<stop offset="0.54" stop-color="#808080" stop-opacity="0.12"/>
<stop offset="1" stop-color="#808080" stop-opacity="0.1"/>
</linearGradient>
</defs>
</svg>
