<svg width="613" height="447" viewBox="0 0 613 447" fill="none" xmlns="http://www.w3.org/2000/svg">
<g clip-path="url(#clip0)">
<g opacity="0.1">
<path opacity="0.1" d="M37.189 66.8526C42.9044 76.7934 39.7385 89.6968 33.5301 99.3352C27.3216 108.974 18.4908 116.624 11.61 125.82C-2.06762 144.167 -5.6033 173.138 11.6436 188.214C15.3586 191.463 19.9533 194.033 22.217 198.413C25.3437 204.456 23.0295 211.736 20.6705 218.138L20.4744 218.664C11.5596 242.819 24.6937 269.589 49.3089 277.166C62.9305 281.361 75.2242 288.16 84.3239 299.154C92.275 308.764 96.8697 320.62 102.114 331.933C111.595 352.369 123.833 371.909 140.743 386.79C157.654 401.67 179.72 411.532 202.245 410.72C253.695 408.867 291.578 354.716 342.977 351.865C346.681 351.658 350.626 351.798 353.725 353.837C358.095 356.715 359.434 362.366 361.272 367.278C371.005 393.28 400.31 405.265 426.551 414.372L475.859 431.498C502.643 440.795 530.772 450.231 558.788 445.925C586.805 441.618 614.16 418.623 612.944 390.307C611.947 367.048 592.66 346.578 595.187 323.432C596.935 307.437 608.921 294.001 610.927 278.034C613.017 261.418 603.928 245.462 593.467 232.38C563.366 194.722 520.467 169.901 478.599 145.959C449.109 129.09 419.468 112.155 387.72 100.035C309.453 70.2353 223.431 71.5178 140.054 63.3859C125.715 61.9858 110.727 60.3393 97.5869 54.0052C87.501 49.144 79.6171 37.9039 68.5506 35.5237C60.1177 33.7091 47.6448 37.4558 40.282 41.5498C26.8622 49.0656 30.5603 55.3213 37.189 66.8526Z" fill="#6C63FF"/>
</g>
<path d="M553.532 0H103.201C101.14 0.00880206 99.0998 0.42369 97.1986 1.22095C95.2974 2.0182 93.572 3.18219 92.1212 4.64635C90.6703 6.11052 89.5224 7.84615 88.7431 9.75401C87.9638 11.6619 87.5684 13.7046 87.5794 15.7653V332.303C87.5684 334.363 87.9638 336.406 88.7431 338.314C89.5224 340.222 90.6703 341.957 92.1212 343.422C93.572 344.886 95.2974 346.05 97.1986 346.847C99.0998 347.644 101.14 348.059 103.201 348.068H553.532C555.594 348.059 557.634 347.644 559.535 346.847C561.436 346.05 563.162 344.886 564.613 343.422C566.063 341.957 567.211 340.222 567.991 338.314C568.77 336.406 569.165 334.363 569.154 332.303V15.7653C569.165 13.7046 568.77 11.6619 567.991 9.75401C567.211 7.84615 566.063 6.11052 564.613 4.64635C563.162 3.18219 561.436 2.0182 559.535 1.22095C557.634 0.42369 555.594 0.00880206 553.532 0Z" fill="url(#paint0_linear)"/>
<path d="M567.12 33.5355V328.528C567.12 332.634 565.489 336.571 562.584 339.474C559.68 342.377 555.74 344.008 551.633 344.008H105.28C101.173 344.008 97.2334 342.377 94.3289 339.474C91.4244 336.571 89.7927 332.634 89.7927 328.528V33.5355H567.12Z" fill="#F6F7F9"/>
<path d="M206.392 185.582V344.002H105.28C96.7296 344.002 89.7927 336.934 89.7927 328.22V185.582H206.392Z" fill="#DDE1EC"/>
<path d="M435.342 69.6528H241.009V75.1133H435.342V69.6528Z" fill="#DDE1EC"/>
<path d="M358.213 108.498H241.009V113.958H358.213V108.498Z" fill="#DDE1EC"/>
<path d="M423.805 108.498H384.33V113.958H423.805V108.498Z" fill="#DDE1EC"/>
<g opacity="0.1">
<path opacity="0.1" d="M165.095 244.762H125.62V250.223H165.095V244.762Z" fill="#6C63FF"/>
</g>
<path d="M423.805 159.484H384.33V164.944H423.805V159.484Z" fill="#DDE1EC"/>
<path d="M423.805 210.471H384.33V215.931H423.805V210.471Z" fill="#DDE1EC"/>
<path d="M423.805 125.495H384.33V130.955H423.805V125.495Z" fill="#DDE1EC"/>
<path d="M491.818 125.495H452.342V130.955H491.818V125.495Z" fill="#DDE1EC"/>
<path d="M423.805 142.487H384.33V147.947H423.805V142.487Z" fill="#DDE1EC"/>
<path d="M491.818 142.487H452.342V147.947H491.818V142.487Z" fill="#DDE1EC"/>
<path d="M491.818 174.051H452.342V179.511H491.818V174.051Z" fill="#DDE1EC"/>
<path d="M491.818 191.048H452.342V196.509H491.818V191.048Z" fill="#DDE1EC"/>
<path d="M491.818 227.468H452.342V232.928H491.818V227.468Z" fill="#DDE1EC"/>
<path d="M358.213 125.495H241.009V130.955H358.213V125.495Z" fill="#DDE1EC"/>
<path d="M358.213 142.487H241.009V147.947H358.213V142.487Z" fill="#DDE1EC"/>
<path d="M358.213 159.484H241.009V164.944H358.213V159.484Z" fill="#DDE1EC"/>
<path d="M358.213 176.481H241.009V181.942H358.213V176.481Z" fill="#DDE1EC"/>
<path d="M358.213 193.473H241.009V198.934H358.213V193.473Z" fill="#DDE1EC"/>
<path d="M358.213 210.471H241.009V215.931H358.213V210.471Z" fill="#DDE1EC"/>
<path d="M358.213 227.468H241.009V232.928H358.213V227.468Z" fill="#DDE1EC"/>
<path d="M206.392 33.2331H89.7927V188.618H206.392V33.2331Z" fill="#DDE1EC"/>
<path d="M567.12 17.7534C567.119 13.6489 565.486 9.71307 562.582 6.81128C559.678 3.9095 555.739 2.27938 551.633 2.27938H105.28C101.173 2.27938 97.2334 3.91027 94.3289 6.81326C91.4244 9.71626 89.7927 13.6536 89.7927 17.759V35.3612H567.12V17.7534Z" fill="#E8EAF1"/>
<path d="M108.62 24.7372C111.974 24.7372 114.694 22.0192 114.694 18.6663C114.694 15.3134 111.974 12.5954 108.62 12.5954C105.265 12.5954 102.546 15.3134 102.546 18.6663C102.546 22.0192 105.265 24.7372 108.62 24.7372Z" fill="#FF5252" fill-opacity="0.5"/>
<path d="M128.657 24.7372C132.012 24.7372 134.731 22.0192 134.731 18.6663C134.731 15.3134 132.012 12.5954 128.657 12.5954C125.303 12.5954 122.583 15.3134 122.583 18.6663C122.583 22.0192 125.303 24.7372 128.657 24.7372Z" fill="#FFFF00" fill-opacity="0.5"/>
<path d="M148.7 24.7372C152.055 24.7372 154.774 22.0192 154.774 18.6663C154.774 15.3134 152.055 12.5954 148.7 12.5954C145.346 12.5954 142.626 15.3134 142.626 18.6663C142.626 22.0192 145.346 24.7372 148.7 24.7372Z" fill="#69F0AE" fill-opacity="0.5"/>
<path d="M182.107 110.928C182.117 118.713 179.442 126.263 174.531 132.305C174.346 132.535 174.161 132.759 173.971 132.983C173.934 133.021 173.9 133.062 173.87 133.106C172.13 135.118 170.161 136.921 168.003 138.477L167.723 138.684C167.337 138.958 166.944 139.244 166.547 139.479L166.272 139.653L165.684 140.017C165.597 140.072 165.507 140.122 165.415 140.168C165.342 140.22 165.265 140.267 165.185 140.308C164.322 140.812 163.431 141.277 162.518 141.703C162.417 141.759 162.305 141.803 162.198 141.854C162.092 141.904 161.969 141.966 161.845 142.011C161.722 142.055 161.481 142.173 161.285 142.246C159.328 143.074 157.296 143.711 155.217 144.15C153.235 144.574 151.219 144.82 149.193 144.884H148.885H148.084C145.41 144.893 142.745 144.586 140.144 143.971L139.656 143.853C138.513 143.554 137.393 143.207 136.294 142.811C135.628 142.565 134.966 142.296 134.322 142.011C134.16 141.938 134.003 141.871 133.84 141.792L133.353 141.574L132.927 141.355L132.479 141.126L131.98 140.863L131.42 140.543L131.33 140.493C128.941 139.138 126.725 137.5 124.729 135.615C124.561 135.452 124.387 135.296 124.225 135.122C124.062 134.948 123.872 134.775 123.704 134.596C119.822 130.6 116.982 125.713 115.434 120.364C113.885 115.014 113.676 109.366 114.823 103.917C115.971 98.4674 118.44 93.3832 122.015 89.1114C125.59 84.8396 130.16 81.5112 135.323 79.4187C140.486 77.3263 146.085 76.5339 151.627 77.1114C157.169 77.6889 162.483 79.6184 167.104 82.7304C171.724 85.8424 175.509 90.0415 178.125 94.9584C180.741 99.8752 182.109 105.359 182.107 110.928Z" fill="white"/>
<path d="M167.225 124.543V124.588L167.264 124.627C167.253 124.593 167.236 124.571 167.225 124.543ZM132.955 141.344C132.899 140.56 132.843 139.854 132.792 139.25C132.753 138.824 132.714 138.443 132.68 138.13C132.677 138.115 132.677 138.099 132.68 138.085C132.68 138.006 132.68 137.934 132.68 137.861C132.14 138.685 131.697 139.568 131.358 140.493L131.448 140.543L132.008 140.863L132.507 141.126L132.955 141.355C132.955 141.606 132.974 141.867 133.011 142.139C132.983 141.871 132.972 141.613 132.955 141.361V141.344ZM140.413 109.326L140.441 109.377C140.443 109.39 140.443 109.403 140.441 109.416C140.436 109.39 140.426 109.366 140.413 109.343V109.326Z" fill="url(#paint1_linear)"/>
<path d="M150.168 103.608C150.168 103.608 148.145 112.692 153.704 117.492C159.262 122.291 140.575 126.049 137.281 122.034C133.986 118.018 139.567 115.969 139.567 115.969C139.567 115.969 142.368 113.695 139.567 106.885L150.168 103.608Z" fill="#E0A17E"/>
<path d="M155.211 144.161C153.229 144.585 151.213 144.831 149.188 144.895H148.879H148.078C145.406 144.9 142.743 144.59 140.144 143.971L139.656 143.853C138.513 143.554 137.393 143.207 136.294 142.811L135.734 134.411L138.166 122.779L139.595 115.924L139.998 114.008L140.407 114.568L140.497 114.692L140.609 114.837L145.092 120.802L149.681 115.862L149.916 115.605L151.177 114.244L151.653 113.734L151.877 115.465L152.684 121.687L154.18 133.162L155.211 144.161Z" fill="#F0F1F5"/>
<path opacity="0.1" d="M167.718 138.684C167.331 138.958 166.939 139.244 166.541 139.479L166.266 139.653L165.678 140.017C165.591 140.072 165.501 140.122 165.409 140.168C165.336 140.22 165.259 140.267 165.179 140.308C163.945 139.256 163.018 137.89 162.495 136.354C162.429 136.159 162.373 135.961 162.327 135.761C162.325 135.729 162.325 135.697 162.327 135.665L162.008 136.505L161.027 138.93C161.027 138.93 161.319 140.118 161.84 141.999C161.657 142.085 161.47 142.164 161.279 142.235C159.323 143.063 157.29 143.7 155.211 144.139C153.229 144.563 151.213 144.808 149.188 144.872H148.879C148.596 142.269 148.497 139.649 148.582 137.032L149.322 122.935L149.698 115.823L149.905 111.903C149.905 111.903 149.978 111.981 150.118 112.11C150.258 112.239 150.353 112.334 150.521 112.485C153.022 114.669 156.173 115.97 159.486 116.187C160.402 116.213 161.298 116.45 162.107 116.88C162.916 117.309 163.614 117.919 164.148 118.662C165.161 120.102 165.813 121.763 166.048 123.507L166.216 125.047L166.261 125.484L166.322 126.044L167.718 138.684Z" fill="black"/>
<path d="M167.998 138.482L167.718 138.69C167.331 138.964 166.939 139.25 166.541 139.485L166.266 139.658L165.678 140.022C164.361 138.964 163.357 137.566 162.776 135.979C162.749 135.913 162.726 135.846 162.708 135.777C162.647 135.581 162.591 135.374 162.546 135.172L162.316 135.772L162.002 136.584L161.285 138.454C161.285 138.454 161.616 139.798 162.198 141.871C162.081 141.927 161.969 141.983 161.845 142.027C161.722 142.072 161.481 142.19 161.285 142.263C159.328 143.091 157.296 143.728 155.217 144.167C153.235 144.591 151.219 144.836 149.193 144.9C148.866 142.128 148.748 139.335 148.84 136.545L149.557 122.885L149.938 115.605L150.123 112.171L150.157 111.46C150.187 111.494 150.219 111.526 150.252 111.555C152.834 114.032 156.207 115.518 159.778 115.75C160.68 115.776 161.565 116.007 162.365 116.425C163.165 116.843 163.859 117.438 164.395 118.164C165.436 119.616 166.105 121.3 166.345 123.07L166.642 125.831V125.87L166.704 126.43L167.998 138.482Z" fill="#293158"/>
<path opacity="0.1" d="M140.755 113.168V113.51L140.665 114.809L140.351 119.256C140.351 119.256 140.166 120.539 140.032 123.428C139.836 127.237 139.718 133.834 140.172 143.982L139.684 143.864C138.541 143.566 137.421 143.218 136.322 142.823C135.656 142.576 134.995 142.307 134.35 142.022C134.188 141.949 134.031 141.882 133.868 141.803C133.706 139.563 133.51 138.191 133.51 138.191C133.51 138.191 133.358 138.382 133.129 138.751C133.033 138.902 132.916 139.087 132.792 139.311L132.764 139.362C132.656 139.548 132.54 139.761 132.417 140C132.277 140.28 132.137 140.56 132.002 140.913L131.442 140.594L131.352 140.543C128.964 139.189 126.748 137.551 124.752 135.665C125.654 132.49 126.433 129.298 126.713 128.889C127.758 127.285 128.56 125.535 129.094 123.697C129.467 122.449 130.113 121.299 130.986 120.33C131.858 119.362 132.934 118.599 134.137 118.097C136.651 116.919 138.899 115.242 140.743 113.168H140.755Z" fill="black"/>
<path d="M140.76 113.011C138.592 114.847 136.175 116.368 133.582 117.531C132.379 118.033 131.303 118.796 130.431 119.764C129.559 120.733 128.913 121.883 128.54 123.132C128.005 124.97 127.203 126.719 126.158 128.323C125.884 128.732 125.099 131.93 124.197 135.111C124.359 135.279 124.533 135.441 124.701 135.604C126.697 137.489 128.913 139.127 131.302 140.482L131.392 140.532C131.718 139.7 132.132 138.904 132.624 138.158L132.652 138.113C132.848 137.822 132.972 137.665 132.972 137.665C132.972 137.665 133.022 138.034 133.095 138.701C133.168 139.367 133.263 140.381 133.353 141.557L133.84 141.775C133.997 141.854 134.154 141.921 134.322 141.994C134.966 142.279 135.628 142.554 136.294 142.795C137.382 143.194 138.502 143.541 139.656 143.836C139.197 133.789 139.298 127.169 139.483 123.266C139.628 120.118 139.825 118.724 139.825 118.724L140.536 114.636L140.738 113.482L140.833 112.922L140.76 113.011Z" fill="#293158"/>
<path opacity="0.1" d="M144.363 112.446C143.103 112.447 141.86 112.162 140.727 111.611C140.531 110.16 140.141 108.742 139.567 107.394L150.168 104.118C149.782 106.148 149.708 108.226 149.95 110.278C148.422 111.671 146.43 112.444 144.363 112.446Z" fill="black"/>
<path d="M144.363 111.942C148.965 111.942 152.695 108.213 152.695 103.614C152.695 99.0146 148.965 95.2861 144.363 95.2861C139.761 95.2861 136.031 99.0146 136.031 103.614C136.031 108.213 139.761 111.942 144.363 111.942Z" fill="#E0A17E"/>
<g opacity="0.1">
<path opacity="0.1" d="M161.296 142.257C160.641 139.955 160.277 138.443 160.277 138.443L161.537 135.161C161.636 135.623 161.781 136.073 161.969 136.505L161.997 136.578L161.28 138.449C161.28 138.449 161.61 139.793 162.193 141.865C162.075 141.921 161.963 141.977 161.84 142.022C161.717 142.067 161.476 142.184 161.296 142.257Z" fill="black"/>
</g>
<path d="M171.13 126.576C171.13 126.576 170.374 119.256 171.13 115.722C171.887 112.188 162.294 116.226 164.311 121.02C165.39 123.678 166.744 126.215 168.351 128.592L171.13 126.576Z" fill="#E0A17E"/>
<path opacity="0.1" d="M173.864 133.106C172.125 135.118 170.156 136.921 167.998 138.477L167.718 138.684C167.331 138.958 166.939 139.244 166.541 139.479C165.638 138.408 164.831 137.26 164.132 136.046L164.059 135.917L166.081 125.316L166.294 125.534C166.384 125.618 166.502 125.73 166.642 125.842H166.67C167.718 126.738 169.931 128.082 170.996 124.957C171.175 124.41 171.305 123.848 171.382 123.277L171.59 124.05L171.713 124.504L173.954 132.955L173.864 133.106Z" fill="black"/>
<path d="M173.864 133.106C172.125 135.118 170.156 136.921 167.998 138.477L167.718 138.684C167.331 138.958 166.939 139.244 166.541 139.479L166.266 139.653C165.445 138.635 164.707 137.552 164.059 136.416L164.132 136.041L166.081 125.814C166.081 125.814 166.182 125.932 166.356 126.094L166.703 126.402C166.849 126.525 167.017 126.66 167.202 126.783C168.362 127.578 170.127 128.178 171.024 125.383C171.189 124.864 171.309 124.332 171.382 123.792L171.64 124.744L173.864 133.106Z" fill="#293158"/>
<path opacity="0.02" d="M173.864 133.106C172.125 135.118 170.156 136.921 167.998 138.477L167.718 138.684C167.331 138.958 166.939 139.244 166.541 139.479L166.266 139.653C165.445 138.635 164.707 137.552 164.059 136.416L164.132 136.041L166.081 125.814C166.081 125.814 166.182 125.932 166.356 126.094L166.703 126.402C166.849 126.525 167.017 126.66 167.202 126.783C168.362 127.578 170.127 128.178 171.024 125.383C171.189 124.864 171.309 124.332 171.382 123.792L171.64 124.744L173.864 133.106Z" fill="black"/>
<path opacity="0.1" d="M132.68 138.135L132.652 138.18C132.652 138.152 132.652 138.118 132.652 138.096C133.005 136.869 133.325 136.041 133.61 135.794C133.61 135.794 133.986 138.286 134.322 142.022C134.16 141.949 134.003 141.882 133.84 141.803L133.353 141.585C133.269 140.381 133.179 139.401 133.095 138.729C133.011 138.057 132.972 137.693 132.972 137.693C132.972 137.693 132.876 137.844 132.68 138.135Z" fill="black"/>
<path opacity="0.1" d="M144.464 101.318C144.9 101.079 145.401 100.989 145.893 101.06C146.105 101.15 146.296 101.283 146.453 101.452C147.109 102.074 147.759 102.796 148.644 102.987C149.191 103.07 149.749 103.045 150.286 102.914C151.229 102.805 152.144 102.526 152.987 102.091C154.864 100.971 155.463 98.5455 155.581 96.367C155.62 95.6333 155.469 94.6868 154.746 94.53C153.827 94.334 153.155 95.7285 152.225 95.5773C151.942 95.5087 151.687 95.3541 151.496 95.1349C150.863 94.502 150.432 93.6899 149.815 93.0515C148.83 92.131 147.553 91.5842 146.207 91.5058C144.871 91.4334 143.532 91.5598 142.234 91.881C141.518 91.9991 140.827 92.2357 140.189 92.5811C139.873 92.7538 139.599 92.9938 139.386 93.2842C139.173 93.5745 139.026 93.908 138.956 94.2612C138.894 94.7484 139.023 95.2525 138.928 95.7341C138.834 96.0595 138.674 96.362 138.458 96.6231C138.242 96.8841 137.975 97.0981 137.673 97.2518C137.113 97.5991 136.451 97.8119 135.902 98.2375C135.03 98.9152 134.424 99.8791 134.193 100.959C133.969 102.034 133.939 103.139 134.104 104.224C134.334 106.109 134.859 107.947 135.661 109.668C135.926 110.269 136.267 110.834 136.675 111.348C137.275 112.002 137.963 112.567 138.721 113.028C138.858 113.153 139.021 113.245 139.199 113.298C139.376 113.352 139.563 113.365 139.746 113.336C139.851 113.299 139.948 113.242 140.032 113.168C140.749 112.569 140.816 111.488 140.592 110.575C140.368 109.662 139.987 108.794 139.942 107.865C139.914 107.604 139.964 107.34 140.088 107.109C140.237 106.921 140.406 106.75 140.592 106.599C140.835 106.32 141.025 105.999 141.153 105.653C141.581 104.796 141.874 103.877 142.021 102.931C142.102 102.151 141.931 101.366 141.534 100.691C141.918 101.052 142.395 101.302 142.911 101.412C143.428 101.523 143.965 101.49 144.464 101.318Z" fill="black"/>
<path d="M144.464 101.027C144.9 100.788 145.401 100.697 145.893 100.769C146.105 100.859 146.296 100.992 146.453 101.161C147.109 101.783 147.759 102.505 148.644 102.695C149.191 102.779 149.749 102.754 150.286 102.623C151.229 102.514 152.144 102.235 152.987 101.799C154.864 100.679 155.463 98.2543 155.581 96.0757C155.62 95.3421 155.469 94.3956 154.746 94.2388C153.827 94.0428 153.155 95.4373 152.225 95.2861C151.942 95.2175 151.687 95.0629 151.496 94.8436C150.863 94.2108 150.432 93.3987 149.815 92.7603C148.83 91.8398 147.553 91.293 146.207 91.2146C144.871 91.1421 143.532 91.2686 142.234 91.5898C141.518 91.7079 140.827 91.9445 140.189 92.2898C139.873 92.4626 139.599 92.7026 139.386 92.9929C139.173 93.2833 139.026 93.6168 138.956 93.97C138.894 94.4572 139.023 94.9613 138.928 95.4429C138.834 95.7682 138.674 96.0708 138.458 96.3319C138.242 96.5929 137.975 96.8069 137.673 96.9606C137.113 97.3078 136.451 97.5207 135.902 97.9463C135.03 98.624 134.424 99.5879 134.193 100.668C133.969 101.742 133.939 102.848 134.104 103.933C134.334 105.818 134.859 107.655 135.661 109.377C135.926 109.978 136.267 110.542 136.675 111.057C137.275 111.71 137.963 112.276 138.721 112.737C138.858 112.861 139.021 112.954 139.199 113.007C139.376 113.06 139.563 113.073 139.746 113.045C139.851 113.007 139.948 112.95 140.032 112.877C140.749 112.278 140.816 111.197 140.592 110.284C140.368 109.371 139.987 108.503 139.942 107.573C139.914 107.313 139.964 107.049 140.088 106.817C140.237 106.63 140.406 106.459 140.592 106.308C140.835 106.029 141.025 105.708 141.153 105.361C141.581 104.504 141.874 103.586 142.021 102.639C142.102 101.86 141.931 101.075 141.534 100.399C141.918 100.761 142.395 101.011 142.911 101.121C143.428 101.232 143.965 101.199 144.464 101.027Z" fill="#463E3B"/>
<path d="M110.184 344.189C117.979 344.189 124.298 341.87 124.298 339.009C124.298 336.148 117.979 333.828 110.184 333.828C102.388 333.828 96.0688 336.148 96.0688 339.009C96.0688 341.87 102.388 344.189 110.184 344.189Z" fill="#CD9494"/>
<path opacity="0.05" d="M110.184 341.075C114.16 341.075 117.384 339.892 117.384 338.432C117.384 336.972 114.16 335.788 110.184 335.788C106.207 335.788 102.983 336.972 102.983 338.432C102.983 339.892 106.207 341.075 110.184 341.075Z" fill="black"/>
<path d="M96.0633 337.872C96.0633 337.872 111.618 346.508 124.293 339.026C124.293 339.026 122.567 368.971 113.921 371.85H102.406C102.406 371.85 92.6117 351.671 96.0633 337.872Z" fill="#FF7361"/>
<path d="M122.371 282.987C126.332 297.453 109.444 338.661 109.444 338.661C109.444 338.661 73.9247 311.779 69.9631 297.319C68.0617 290.373 68.9989 282.956 72.5685 276.701C76.1382 270.445 82.0478 265.863 88.9975 263.963C95.9472 262.062 103.368 262.999 109.626 266.567C115.885 270.135 120.469 276.041 122.371 282.987Z" fill="#57B894"/>
<path opacity="0.1" d="M122.371 282.987C126.332 297.453 109.444 338.661 109.444 338.661C109.444 338.661 73.9247 311.779 69.9631 297.319C68.0617 290.373 68.9989 282.956 72.5685 276.701C76.1382 270.445 82.0478 265.863 88.9975 263.963C95.9472 262.062 103.368 262.999 109.626 266.567C115.885 270.135 120.469 276.041 122.371 282.987Z" fill="black"/>
<path d="M89.1432 264.041C89.1432 264.041 111.254 297.403 109.59 338.734" stroke="#535461" stroke-miterlimit="10"/>
<path d="M128.013 309.422C128.013 309.422 107.942 298.517 110.503 338.762C110.503 338.762 127.229 338.163 133.163 324.526C134.322 321.874 134.469 318.889 133.574 316.137C132.68 313.384 130.807 311.055 128.31 309.59L128.013 309.422Z" fill="#57B894"/>
<path d="M128.344 309.489C128.344 309.489 125.755 330.378 110.503 338.762" stroke="#535461" stroke-miterlimit="10"/>
<path opacity="0.05" d="M122.41 339.983C121.85 346.872 119.435 368.265 112.201 370.679H101.874C102.204 371.413 102.406 371.833 102.406 371.833H113.932C122.567 368.949 124.298 338.992 124.298 338.992C123.686 339.354 123.056 339.685 122.41 339.983Z" fill="black"/>
<path d="M358.213 264.795H241.009V332.779H358.213V264.795Z" fill="#DDE1EC"/>
<path opacity="0.1" d="M477.821 88.4647C481.542 92.0223 483.698 96.9107 483.815 102.056C483.933 107.201 482.003 112.183 478.448 115.907L327.849 273.487L296.829 284.828L294.733 291.414L336.052 276.293L486.674 118.769C490.228 115.045 492.159 110.063 492.041 104.918C491.923 99.7725 489.767 94.8842 486.046 91.3266C482.944 88.3552 478.94 86.501 474.666 86.0565C475.797 86.75 476.854 87.5569 477.821 88.4647Z" fill="white"/>
<path d="M571.14 317.59C571.14 317.59 555.482 321.379 549.284 328.462C546.964 330.863 544.107 332.678 540.948 333.759V323.047C544.528 317.032 548.142 310.342 548.142 310.342C548.305 310.013 549.61 305.4 549.61 305.4C552.546 303.094 549.447 295.023 549.447 295.023C549.447 295.023 551.241 289.916 550.262 288.928C549.284 287.939 550.099 285.304 550.915 284.151C551.509 283.042 551.737 281.773 551.567 280.527C551.567 279.538 550.262 278.056 548.142 277.232C546.022 276.408 548.305 275.091 549.61 274.761C550.915 274.432 551.241 271.302 549.773 269.655C548.305 268.007 549.936 267.019 550.752 265.207C551.567 263.395 548.142 263.724 548.142 263.724V247.09L548.144 247.089C548.144 247.089 547.165 241.653 546.186 232.095C545.208 222.542 541.455 221.554 541.455 221.554C539.443 220.931 537.48 220.159 535.583 219.246C533.583 218.31 531.509 217.539 529.383 216.943C526.683 216.915 523.998 216.543 521.392 215.836C519.625 215.236 517.794 214.84 515.936 214.655C515.736 214.561 515.545 214.463 515.349 214.364C510.933 212.122 507.434 208.415 505.45 203.877C505.35 203.651 505.257 203.427 505.167 203.205C506.141 202.135 507.014 200.977 507.774 199.746L507.791 199.718C507.793 199.886 507.798 200.054 507.798 200.222C507.798 200.293 507.796 200.363 507.796 200.434C507.794 200.84 507.79 201.246 507.779 201.651L507.781 201.648L507.781 201.683C510.385 197.087 517.93 196.037 518.649 190.791C518.68 190.553 518.696 190.312 518.696 190.072L518.697 190.039C518.697 189.862 518.689 189.685 518.676 189.509C518.579 188.044 518.077 186.585 517.98 185.104C517.955 184.681 517.962 184.256 518 183.834L518.003 183.857C518.34 179.782 521.413 176.239 522.821 172.281C523.196 171.216 523.442 170.11 523.555 168.987L523.558 168.957C523.593 168.617 523.616 168.276 523.628 167.935C523.631 167.85 523.631 167.765 523.632 167.68C523.636 167.443 523.635 167.206 523.628 166.969C523.584 164.864 523.11 162.791 522.235 160.876C521.359 158.962 520.1 157.247 518.536 155.838C515.936 153.577 512.499 152.157 510.7 149.208C509.86 147.831 509.446 146.214 508.531 144.888C506.808 142.389 503.637 141.371 500.643 141.01C497.649 140.649 494.562 140.77 491.695 139.828C489.663 139.16 487.819 137.981 485.766 137.386C483.528 136.787 481.161 136.887 478.983 137.673C476.804 138.458 474.918 139.892 473.577 141.781C472.495 143.359 471.786 145.25 470.328 146.483C467.339 149.008 462.268 147.912 459.649 150.826C458.211 152.426 458.046 154.607 458.221 156.837L458.227 156.915C458.241 157.088 458.257 157.261 458.274 157.434C458.282 157.515 458.29 157.595 458.299 157.676C458.308 157.762 458.318 157.848 458.328 157.934C458.421 158.733 458.536 159.528 458.637 160.295C458.652 160.411 458.664 160.529 458.678 160.646C458.706 160.884 458.734 161.122 458.757 161.36C458.774 161.534 458.789 161.709 458.803 161.883C458.821 162.099 458.837 162.315 458.85 162.531C458.861 162.701 458.873 162.87 458.881 163.039C459.176 169.121 457.887 175.175 455.14 180.608C452.673 185.454 449.002 189.913 448.363 195.323C448.264 196.209 448.24 197.101 448.293 197.991C448.298 198.096 448.301 198.201 448.308 198.305C448.319 198.466 448.336 198.626 448.352 198.786C448.369 198.969 448.386 199.153 448.408 199.337C448.421 199.441 448.437 199.546 448.452 199.651C448.485 199.894 448.521 200.138 448.562 200.381C448.571 200.433 448.581 200.485 448.59 200.537C449.238 204.224 450.705 207.863 451.487 211.562C451.777 212.936 451.972 214.328 452.07 215.728L452.072 215.757C452.103 216.202 452.124 216.648 452.136 217.094C452.151 217.697 452.143 218.301 452.123 218.904C450.885 219.382 449.614 219.772 448.321 220.071C446.036 220.403 439.347 226.333 439.836 227.815C440.321 229.278 436.842 239.69 436.744 239.997L436.739 240.002L436.74 240.003L436.739 240.004L431.236 277.891C431.236 277.891 428.331 280.691 429.239 282.503C430.147 284.315 429.063 287.445 429.063 287.445C429.063 287.445 424.154 289.586 425.243 290.904C426.333 292.222 425.836 294.693 425.085 296.34C424.335 297.988 423.111 300.953 425.085 301.447C427.059 301.941 425.425 308.365 425.425 308.365C425.425 308.365 432.309 307.575 431.803 311.66C431.642 312.965 436.619 316.541 438.696 317.973V337.653C435.915 336.926 433.19 336.002 430.541 334.887C426.3 332.91 402.486 329.121 397.267 340.487C392.047 351.853 404.444 367.008 407.543 368.656C407.543 368.656 410.479 370.962 411.131 372.115C411.783 373.268 415.535 373.598 415.535 373.598C415.535 373.598 419.45 375.41 420.428 376.398C421.15 377.127 427.111 379.021 434.183 380.494L434.181 380.495C434.181 380.495 428.472 393.638 437.785 392.553C447.098 391.468 451.636 386.886 458.203 386.886C460.827 386.886 465.701 386.52 470.607 386.08C471.838 386.297 473.056 386.584 474.254 386.94C477.019 387.807 479.858 388.413 482.736 388.752C482.736 388.752 490.075 392.706 493.99 391.718C494.315 391.619 494.617 391.458 494.879 391.242C494.909 391.235 494.94 391.231 494.969 391.223C495.941 390.804 496.763 390.099 497.326 389.202C502.225 389.703 507.803 390.416 509.903 391.227C513.962 392.794 542.977 390.624 542.977 390.624C542.977 390.624 561.722 390.992 567.095 392.617C572.468 394.241 570.558 376.033 560.648 373.983C557.991 373.476 555.29 373.237 552.585 373.27C553.272 372.564 553.898 371.803 554.458 370.993C558.029 370.668 560.375 370.468 560.375 370.468C560.375 370.468 569.835 365.855 575.218 363.055C578.659 361.185 581.749 358.733 584.352 355.807C584.352 355.807 589.082 352.842 591.039 351.689C592.997 350.536 593.975 346.747 593.975 346.747C608.818 313.143 571.14 317.59 571.14 317.59ZM528.665 275.436C528.666 274.881 528.668 274.327 528.67 273.775C529.191 274.151 529.115 274.74 528.665 275.436ZM528.82 287.086C529.214 287.606 529.598 288.08 529.874 288.433C530.928 289.785 529.02 290.443 529.158 292.71C529.189 293.219 529.233 293.923 529.281 294.708H529.281C529.08 291.461 528.916 288.766 528.82 287.086H528.82Z" fill="url(#paint2_linear)"/>
<path d="M443.916 339.073C443.916 339.073 434.782 336.953 430.541 334.995C426.3 333.038 402.486 329.287 397.267 340.541C392.047 351.795 404.444 366.801 407.543 368.433C410.642 370.064 440.817 347.718 440.817 347.718L464.631 357.749L469.198 342.172L443.916 339.073Z" fill="#65617D"/>
<path d="M541.014 342.172H470.575C461.413 342.172 453.986 349.599 453.986 358.76V361.631C453.986 370.792 461.413 378.219 470.575 378.219H541.014C550.175 378.219 557.602 370.792 557.602 361.631V358.76C557.602 349.599 550.175 342.172 541.014 342.172Z" fill="#65617D"/>
<path opacity="0.1" d="M557.602 360.194C557.602 364.974 555.704 369.559 552.324 372.939C548.945 376.32 544.361 378.219 539.58 378.221H472.01C467.229 378.221 462.645 376.322 459.265 372.941C455.884 369.561 453.985 364.977 453.985 360.196C453.985 355.416 455.884 350.832 459.265 347.451C462.645 344.071 467.229 342.172 472.01 342.172H539.58C544.36 342.173 548.944 344.072 552.323 347.451C555.703 350.831 557.602 355.414 557.602 360.194Z" fill="black"/>
<path d="M501.187 361.248C501.187 361.248 490.799 363.917 482.322 363.797C473.844 363.678 434.181 380.155 434.181 380.155C434.181 380.155 428.472 393.17 437.785 392.095C447.099 391.02 451.636 386.483 458.203 386.483C464.77 386.483 485.426 384.215 485.426 384.215L505.305 369.528L501.187 361.248Z" fill="#FBBEBE"/>
<path d="M507.691 238.435L489.053 242.11L487.844 242.35C487.844 242.35 473.111 238.435 472.621 238.107C472.132 237.784 458.759 219.758 458.759 219.758C458.759 219.758 465.521 219.831 470.835 216.768C471.026 216.66 471.212 216.543 471.398 216.425C473.742 215.022 475.524 212.845 476.438 210.27C476.531 210.001 476.614 209.722 476.693 209.433C477.3 206.786 477.246 204.03 476.536 201.408C474.735 193.804 478.909 191.71 484.473 191.891C492.507 192.155 503.449 197.171 503.449 197.171C503.589 199.73 504.17 202.246 505.166 204.608C505.254 204.828 505.352 205.049 505.45 205.274C507.445 209.779 510.944 213.45 515.349 215.657C515.545 215.755 515.736 215.853 515.936 215.946C516.528 216.23 517.155 216.499 517.806 216.744C531.996 222.126 507.691 238.435 507.691 238.435Z" fill="#FBBEBE"/>
<path opacity="0.1" d="M505.45 205.274C501.907 209.288 497.1 211.971 491.824 212.88C486.548 213.788 481.119 212.867 476.438 210.27C477.316 207.386 477.35 204.311 476.536 201.408C472.132 182.814 503.449 197.171 503.449 197.171C503.606 199.973 504.285 202.721 505.45 205.274Z" fill="black"/>
<path d="M511.332 188.754C511.339 193.149 510.106 197.457 507.774 201.183C507.014 202.404 506.14 203.55 505.166 204.608C501.058 209.116 495.351 211.839 489.263 212.198C488.793 212.227 488.319 212.242 487.844 212.242C483.199 212.242 478.658 210.864 474.795 208.283C470.933 205.703 467.922 202.034 466.144 197.742C464.367 193.451 463.902 188.728 464.808 184.172C465.714 179.616 467.951 175.431 471.236 172.146C474.521 168.861 478.706 166.624 483.262 165.718C487.818 164.812 492.541 165.277 496.832 167.054C501.124 168.832 504.793 171.843 507.373 175.705C509.954 179.568 511.332 184.109 511.332 188.754Z" fill="#FBBEBE"/>
<path opacity="0.1" d="M507.691 238.435L489.053 242.11L487.844 242.35C487.844 242.35 473.111 238.435 472.621 238.107C472.132 237.784 458.759 219.758 458.759 219.758C458.759 219.758 465.521 219.831 470.835 216.768C471.026 216.66 471.212 216.543 471.398 216.425C473.433 218.608 475.894 220.35 478.628 221.546C481.362 222.742 484.312 223.366 487.296 223.379C488.407 223.372 489.516 223.284 490.614 223.115C493.237 222.713 495.879 222.454 498.516 222.18C503.566 221.651 511.293 220.12 515.349 215.657C515.545 215.755 515.736 215.853 515.936 215.946C516.528 216.23 517.155 216.499 517.806 216.744C531.996 222.126 507.691 238.435 507.691 238.435Z" fill="black"/>
<path d="M528.732 286.061C528.894 289.653 531.507 330.1 531.507 330.1H450.112L450.665 304.636L451.111 284.265L451.257 277.581L451.908 254.422L449.555 252.347L436.739 241.043L436.744 241.039C436.842 240.735 440.321 230.425 439.837 228.977C439.347 227.509 446.036 221.637 448.321 221.309C449.622 221.01 450.901 220.621 452.148 220.144C455.994 218.794 461.127 216.807 461.695 217.115C462.492 217.546 470.498 216.802 470.835 216.768H470.845C472.884 219.137 475.408 221.041 478.246 222.35C481.084 223.66 484.17 224.344 487.296 224.357C488.407 224.351 489.516 224.263 490.614 224.093C493.237 223.692 495.879 223.433 498.516 223.159C503.821 222.606 512.071 220.942 515.936 215.946C517.793 216.129 519.624 216.521 521.392 217.115C523.999 217.815 526.684 218.184 529.383 218.212C531.508 218.801 533.582 219.564 535.583 220.492C537.481 221.396 539.444 222.16 541.455 222.777C541.455 222.777 545.208 223.756 546.186 233.214C547.165 242.678 548.144 248.06 548.144 248.06L528.732 264.859C528.732 264.859 528.571 282.475 528.732 286.061Z" fill="#6C63FF"/>
<path d="M436.739 314.281L439.591 318.848L450.277 322.614L457.617 309.224L450.85 304.657L440.001 300.417L433.803 304.005L436.739 314.281Z" fill="#FBBEBE"/>
<path d="M527.917 336.79C527.917 336.79 543.086 335.648 549.284 328.634C555.482 321.62 571.14 317.869 571.14 317.869C571.14 317.869 608.818 313.465 593.975 346.739C593.975 346.739 592.997 350.491 591.039 351.632C589.082 352.774 584.352 355.71 584.352 355.71L526.459 350.654L527.917 336.79Z" fill="#65617D"/>
<path opacity="0.1" d="M557.602 360.194C557.607 363.738 556.563 367.204 554.603 370.157C544.865 371.023 523.296 373.049 518.784 374.306C513.24 375.843 502.02 373.166 500.792 372.863C500.718 372.848 500.679 372.838 500.679 372.838C500.679 372.838 498.516 366.276 497.484 362.078C497.019 360.169 496.784 358.75 497.087 358.648C498.066 358.32 507.04 355.873 506.874 357.258C506.712 358.648 533.787 346.737 533.787 346.737L534.619 357.178C537.378 360.344 557.602 355.663 557.602 360.194Z" fill="black"/>
<path d="M585.494 351.469L584.352 355.71C581.745 358.612 578.654 361.04 575.218 362.887C569.835 365.66 560.375 370.227 560.375 370.227C560.375 370.227 525.633 373.163 519.761 374.794C513.889 376.425 501.656 373.326 501.656 373.326C501.656 373.326 497.089 359.462 498.068 359.135C499.046 358.809 508.017 356.362 507.854 357.749C507.691 359.135 534.767 347.228 534.767 347.228L585.494 351.469Z" fill="#65617D"/>
<path d="M488.769 388.035C488.769 388.035 505.843 389.229 509.903 390.782C513.963 392.334 542.977 390.185 542.977 390.185C542.977 390.185 561.722 390.549 567.095 392.158C572.468 393.767 570.558 375.737 560.648 373.707C550.738 371.678 536.768 374.663 536.768 374.663C536.768 374.663 521.007 372.633 519.097 372.394C517.186 372.155 504.592 372.51 504.592 372.51L488.769 388.035Z" fill="#FBBEBE"/>
<path opacity="0.1" d="M421.666 343.022C421.666 343.022 444.233 345.051 450.442 348.753L421.666 343.022Z" fill="black"/>
<path opacity="0.1" d="M562.439 328.216C562.439 328.216 544.768 332.514 537.842 338.843L562.439 328.216Z" fill="black"/>
<path opacity="0.1" d="M422.98 337.887C423.338 338.007 433.368 339.32 433.129 340.275C432.89 341.231 422.98 337.887 422.98 337.887Z" fill="black"/>
<path opacity="0.1" d="M407.217 363.05L408.521 367.943C409.848 368.94 411.052 370.09 412.11 371.368C412.762 372.51 416.514 372.836 416.514 372.836C416.514 372.836 420.428 374.631 421.407 375.609C422.386 376.588 432.988 379.687 442.937 380.992C452.887 382.297 471.318 384.743 475.233 386.048C477.999 386.906 480.838 387.507 483.714 387.842C483.714 387.842 491.054 391.757 494.969 390.778C498.883 389.8 505.571 372.021 505.571 372.021C505.571 372.021 479.8 365.986 478.984 364.029C478.169 362.071 453.376 352.943 453.376 352.943L438.696 353.29L407.217 363.05Z" fill="black"/>
<path d="M406.238 363.539L407.543 368.433C408.869 369.429 410.074 370.579 411.131 371.858C411.783 373 415.535 373.326 415.535 373.326C415.535 373.326 419.45 375.12 420.428 376.099C421.407 377.077 432.009 380.176 441.958 381.481C451.908 382.786 470.339 385.233 474.254 386.538C477.02 387.395 479.859 387.996 482.736 388.332C482.736 388.332 490.075 392.246 493.99 391.268C497.905 390.289 504.592 372.51 504.592 372.51C504.592 372.51 478.821 366.475 478.005 364.518C477.19 362.561 440.817 347.718 440.817 347.718L429.399 345.108L406.238 363.539Z" fill="#65617D"/>
<path d="M439.59 239.414L436.739 241.045L431.236 278.56C431.236 278.56 428.331 281.333 429.239 283.127C430.147 284.921 429.063 288.02 429.063 288.02C429.063 288.02 424.154 290.141 425.243 291.445C426.333 292.75 425.836 295.197 425.085 296.828C424.335 298.459 423.111 301.395 425.085 301.884C427.059 302.374 425.425 308.735 425.425 308.735C425.425 308.735 432.309 307.953 431.803 311.997C431.6 313.628 439.59 318.848 439.59 318.848C439.59 318.848 430.51 302.374 450.85 304.657L452.599 295.369C452.599 295.369 454.348 290.141 452.599 288.51C450.85 286.878 452.992 279.131 452.992 279.131L453.376 245.449L439.59 239.414Z" fill="#6C63FF"/>
<path opacity="0.1" d="M435.159 287.859C435.517 288.456 446.502 289.674 447.218 291.632C447.934 293.59 435.159 287.859 435.159 287.859Z" fill="black"/>
<path opacity="0.1" d="M431.696 297.172C431.696 297.172 433.185 292.515 436.739 293.351C440.293 294.187 431.696 297.172 431.696 297.172Z" fill="black"/>
<path opacity="0.1" d="M429.786 303.978C429.786 303.978 432.412 297.769 435.994 298.247C439.576 298.724 429.786 303.978 429.786 303.978Z" fill="black"/>
<path d="M549.284 303.842L548.142 310.692C548.142 310.692 536.398 332.223 534.278 332.549C532.157 332.875 520.577 318.195 520.577 318.195L517.478 303.842L529.678 301.529L535.093 296.176C535.093 296.176 548.794 297.48 549.284 303.842Z" fill="#FBBEBE"/>
<path d="M543.738 244.96L548.142 248.059V264.533C548.142 264.533 551.567 264.206 550.752 266.001C549.936 267.795 548.305 268.773 549.773 270.405C551.241 272.036 550.915 275.135 549.61 275.461C548.305 275.787 546.022 277.092 548.142 277.908C550.262 278.723 551.567 280.191 551.567 281.17C551.737 282.405 551.509 283.662 550.915 284.758C550.099 285.9 549.284 288.51 550.262 289.488C551.241 290.467 549.447 295.523 549.447 295.523C549.447 295.523 552.546 303.515 549.61 305.799C549.61 305.799 548.305 310.366 548.142 310.692C548.142 310.692 550.197 294.813 529.678 301.529C529.678 301.529 529.296 295.478 529.158 293.234C529.02 290.989 530.928 290.337 529.874 288.999C528.82 287.66 526.181 284.594 527.427 283.779C528.673 282.964 528.243 281.496 527.753 280.354C527.264 279.212 525.537 279.213 527.1 277.826C528.663 276.439 529.585 275.138 528.669 274.484C527.753 273.83 526.16 271.705 527.427 270.731C528.694 269.756 528.732 255.562 528.732 255.562C528.732 255.562 533.952 234.684 543.738 244.96Z" fill="#6C63FF"/>
<path opacity="0.1" d="M541.663 273.024C541.663 273.024 547.934 271.323 548.142 273.024C548.35 274.725 541.663 273.024 541.663 273.024Z" fill="black"/>
<path opacity="0.1" d="M534.619 277.71C534.619 277.71 543.215 275.561 544.29 277.232C545.365 278.904 534.619 277.71 534.619 277.71Z" fill="black"/>
<path opacity="0.1" d="M532.708 282.247C532.708 282.247 545.603 280.456 546.439 283.083C547.275 285.71 532.708 282.247 532.708 282.247Z" fill="black"/>
<path opacity="0.1" d="M534.619 287.859C535.096 287.978 547.036 288.814 547.275 291.083C547.514 293.351 534.619 287.859 534.619 287.859Z" fill="black"/>
<path d="M530.482 295.211H449.163C443.383 295.211 438.696 299.898 438.696 305.678V342.823C438.696 348.604 443.383 353.29 449.163 353.29H530.482C536.262 353.29 540.949 348.604 540.949 342.823V305.678C540.949 299.898 536.262 295.211 530.482 295.211Z" fill="#3F3D56"/>
<path d="M489.822 328.022C491.905 328.022 493.594 326.334 493.594 324.251C493.594 322.168 491.905 320.479 489.822 320.479C487.739 320.479 486.051 322.168 486.051 324.251C486.051 326.334 487.739 328.022 489.822 328.022Z" fill="#E7EFFD"/>
<path opacity="0.1" d="M455.823 259.615C455.823 259.615 465.622 267.107 473.2 261.398C473.2 261.398 460.39 262.563 455.823 259.615Z" fill="black"/>
<path opacity="0.1" d="M505.45 261.629C505.45 261.629 515.25 269.12 522.828 263.411C522.828 263.411 510.017 264.577 505.45 261.629Z" fill="black"/>
<path opacity="0.1" d="M511.332 188.754C511.339 193.149 510.106 197.457 507.774 201.183C507.579 194.641 506.037 188.099 502.48 182.638C499.221 177.632 489.317 168.858 482.506 171.3C481.793 171.562 481.153 171.989 480.636 172.545C480.119 173.101 479.74 173.771 479.531 174.5C478.855 177.064 480.832 178.131 482.1 180.171C484.253 183.674 485.094 187.827 484.473 191.891C484.386 192.438 484.272 192.98 484.13 193.515C483.059 197.538 480.602 202.142 483.137 205.445C484.903 207.745 488.701 208.538 489.214 211.39C489.262 211.657 489.278 211.928 489.263 212.198C489.146 214.116 487.507 215.809 486.792 217.698C485.951 219.919 486.425 222.126 487.296 224.357C488.431 227.269 490.237 230.215 490.672 233.288C491.103 236.317 490.168 239.213 489.053 242.11C487.852 244.77 486.949 247.555 486.362 250.414C485.574 255.836 487.56 262.104 484.15 266.39C483.803 266.909 483.267 267.27 482.657 267.398C480.47 267.628 480.842 263.699 479.085 262.378C479.271 264.663 479.447 267.041 478.62 269.18C477.789 271.318 475.636 273.128 473.37 272.771C473.111 271.063 472.851 269.354 472.592 267.643C471.052 269.16 469.198 270.321 467.16 271.044C467.96 265.588 469.89 260.36 472.827 255.694C467.082 258.459 463.735 264.448 460.745 270.075C458.881 273.593 456.953 277.439 457.604 281.369C457.868 282.969 458.558 284.491 458.71 286.105C458.862 287.72 458.274 289.599 456.772 290.216C456.097 290.425 455.374 290.424 454.699 290.214C454.024 290.005 453.428 289.596 452.99 289.041C452.936 288.978 452.882 288.914 452.828 288.846C452.735 288.728 452.648 288.606 452.569 288.479C452.404 288.233 452.258 287.974 452.133 287.705C451.723 286.74 451.414 285.735 451.213 284.706L451.111 284.265C449.594 277.596 448.224 270.721 449.334 263.978C449.745 261.492 450.494 259.031 450.406 256.511C450.339 255.087 450.052 253.683 449.555 252.347C448.224 248.618 445.66 245.188 444.196 241.43C444.183 241.403 444.171 241.375 444.162 241.347C443.394 239.355 443.017 236.869 444.436 235.274C445.258 234.541 446.175 233.92 447.162 233.43C450 231.58 451.272 228.071 451.791 224.724C452.029 223.209 452.149 221.678 452.148 220.144C455.994 218.794 461.127 216.807 461.695 217.115C462.492 217.546 470.498 216.802 470.835 216.768C473.442 215.369 475.438 213.054 476.438 210.27C476.531 210.001 476.614 209.722 476.692 209.433C473.038 207.462 469.971 204.558 467.804 201.016C465.637 197.474 464.447 193.421 464.357 189.27C464.266 185.119 465.277 181.017 467.288 177.384C469.298 173.751 472.235 170.716 475.801 168.587C479.366 166.459 483.432 165.314 487.584 165.268C491.736 165.222 495.825 166.278 499.437 168.328C503.048 170.377 506.051 173.348 508.141 176.936C510.23 180.524 511.331 184.602 511.332 188.754Z" fill="black"/>
<path d="M484.13 192.535C483.056 196.559 480.603 201.163 483.139 204.466C484.906 206.768 488.702 207.557 489.212 210.414C489.616 212.674 487.604 214.573 486.792 216.721C484.854 221.845 489.903 226.883 490.671 232.307C491.503 238.192 487.216 243.556 486.361 249.437C485.574 254.857 487.561 261.125 484.148 265.41C483.803 265.93 483.267 266.292 482.656 266.419C480.47 266.651 480.841 262.723 479.083 261.402C479.272 263.687 479.448 266.065 478.619 268.203C477.79 270.34 475.635 272.151 473.37 271.793L472.592 266.663C471.051 268.179 469.197 269.341 467.16 270.066C467.96 264.61 469.89 259.382 472.826 254.716C467.084 257.482 463.736 263.468 460.748 269.098C458.881 272.614 456.955 276.46 457.605 280.388C457.871 281.99 458.559 283.51 458.711 285.126C458.863 286.743 458.275 288.62 456.772 289.236C456.055 289.452 455.287 289.436 454.579 289.191C453.871 288.945 453.259 288.483 452.829 287.869C451.996 286.622 451.445 285.208 451.215 283.727C449.657 276.919 448.198 269.889 449.336 262.998C449.747 260.512 450.495 258.05 450.405 255.532C450.208 250.024 446.144 245.51 444.16 240.369C443.392 238.377 443.018 235.892 444.434 234.295C445.258 233.562 446.176 232.942 447.163 232.451C450 230.601 451.273 227.094 451.793 223.747C452.353 220.127 452.249 216.434 451.486 212.851C450.34 207.486 447.714 202.251 448.363 196.804C449.002 191.447 452.673 187.031 455.14 182.234C458.314 176.026 459.533 169.002 458.635 162.088C458.21 158.871 457.468 155.147 459.649 152.744C462.268 149.859 467.339 150.944 470.328 148.443C471.786 147.223 472.495 145.351 473.577 143.788C474.929 141.913 476.818 140.493 478.994 139.716C481.171 138.939 483.532 138.841 485.766 139.436C487.819 140.025 489.663 141.193 491.695 141.854C494.562 142.787 497.649 142.667 500.643 143.025C503.637 143.383 506.808 144.39 508.531 146.864C509.446 148.178 509.86 149.779 510.7 151.142C512.499 154.062 515.936 155.468 518.536 157.707C520.767 159.695 522.363 162.297 523.125 165.186C523.886 168.076 523.78 171.126 522.819 173.956C521.266 178.28 517.674 182.101 517.979 186.685C518.105 188.568 518.906 190.415 518.647 192.284C517.928 197.479 510.383 198.518 507.779 203.07C507.986 195.606 506.554 187.916 502.481 181.659C499.22 176.652 489.316 167.879 482.507 170.32C481.794 170.583 481.154 171.009 480.637 171.565C480.12 172.121 479.741 172.791 479.531 173.521C478.857 176.085 480.831 177.151 482.098 179.194C483.316 181.167 484.124 183.365 484.473 185.658C484.822 187.95 484.705 190.289 484.13 192.535Z" fill="#3F3D56"/>
<g opacity="0.2">
<path opacity="0.2" d="M452.138 218.399C452.193 216.054 451.975 213.71 451.487 211.415C450.513 206.854 448.476 202.386 448.285 197.802C448.024 202.904 450.41 207.836 451.487 212.883C451.874 214.698 452.091 216.544 452.138 218.399Z" fill="black"/>
<path opacity="0.2" d="M471.577 255.43C471.974 254.702 472.386 253.982 472.828 253.28C467.086 256.046 463.738 262.032 460.75 267.661C459.021 270.918 457.246 274.457 457.508 278.082C457.726 274.972 459.255 271.945 460.75 269.129C463.513 263.923 466.589 258.418 471.577 255.43Z" fill="black"/>
<path opacity="0.2" d="M458.683 284.938C458.642 285.54 458.444 286.121 458.109 286.623C457.775 287.125 457.314 287.531 456.774 287.8C456.056 288.016 455.289 288 454.581 287.755C453.873 287.509 453.26 287.047 452.831 286.433C451.998 285.186 451.447 283.772 451.217 282.291C449.959 277.444 449.198 272.481 448.945 267.481C448.836 272.927 449.993 278.411 451.217 283.759C451.447 285.24 451.998 286.654 452.831 287.901C453.26 288.515 453.873 288.977 454.581 289.223C455.289 289.468 456.056 289.484 456.774 289.268C458.276 288.652 458.864 286.775 458.713 285.158C458.706 285.084 458.693 285.012 458.683 284.938Z" fill="black"/>
<path opacity="0.2" d="M484.66 187.631C484.609 188.803 484.432 189.966 484.131 191.099C483.336 194.082 481.784 197.383 482.066 200.237C482.282 197.754 483.469 195.05 484.131 192.567C484.555 190.958 484.733 189.294 484.66 187.631Z" fill="black"/>
<path opacity="0.2" d="M458.917 165.857C458.958 164.117 458.864 162.377 458.637 160.652C458.469 159.38 458.254 158.031 458.187 156.714C458.17 158.526 458.321 160.335 458.637 162.12C458.8 163.359 458.893 164.607 458.917 165.857Z" fill="black"/>
<path opacity="0.2" d="M489.214 210.446C489.207 210.406 489.193 210.37 489.184 210.331C488.837 212.029 487.439 213.578 486.794 215.285C486.414 216.303 486.277 217.396 486.393 218.477C486.45 217.887 486.585 217.307 486.794 216.753C487.606 214.605 489.618 212.706 489.214 210.446Z" fill="black"/>
<path opacity="0.2" d="M450.407 254.096C450.209 248.588 446.146 244.074 444.162 238.933C443.844 238.127 443.629 237.284 443.524 236.425C443.413 237.782 443.632 239.146 444.162 240.401C446.113 245.456 450.066 249.908 450.385 255.291C450.408 254.894 450.421 254.496 450.407 254.096Z" fill="black"/>
<path opacity="0.2" d="M502.482 180.223C499.222 175.216 489.318 166.443 482.509 168.884C481.796 169.147 481.156 169.573 480.639 170.129C480.121 170.685 479.743 171.355 479.532 172.085C479.372 172.643 479.354 173.233 479.481 173.8C479.498 173.718 479.51 173.638 479.532 173.553C479.743 172.823 480.121 172.153 480.639 171.597C481.156 171.041 481.796 170.615 482.509 170.352C489.318 167.911 499.222 176.684 502.482 181.691C506.172 187.358 507.69 194.2 507.79 200.985C507.898 193.726 506.439 186.299 502.482 180.223Z" fill="black"/>
<path opacity="0.2" d="M518.649 190.848C517.932 196.032 510.419 197.078 507.799 201.605C507.8 202.104 507.794 202.603 507.781 203.102C510.385 198.55 517.93 197.511 518.649 192.316C518.713 191.806 518.714 191.289 518.654 190.778C518.651 190.802 518.652 190.825 518.649 190.848Z" fill="black"/>
<path opacity="0.2" d="M522.821 172.52C521.268 176.844 517.676 180.665 517.981 185.249C517.986 185.317 517.997 185.384 518.003 185.451C518.34 181.415 521.413 177.907 522.821 173.988C523.453 172.197 523.724 170.298 523.619 168.401C523.559 169.806 523.29 171.195 522.821 172.52Z" fill="black"/>
<path opacity="0.2" d="M484.15 263.974C483.805 264.493 483.269 264.856 482.658 264.983C480.472 265.215 480.843 261.287 479.085 259.965C479.128 260.486 479.169 261.011 479.199 261.536C480.821 262.942 480.523 266.678 482.658 266.451C483.269 266.324 483.805 265.961 484.15 265.442C486.097 262.997 486.286 259.907 486.236 256.698C486.186 259.373 485.798 261.904 484.15 263.974Z" fill="black"/>
<path opacity="0.2" d="M478.621 266.766C477.792 268.904 475.637 270.715 473.372 270.357C473.113 268.647 472.853 266.937 472.594 265.227C471.122 266.673 469.364 267.796 467.434 268.524C467.335 269.047 467.238 269.571 467.162 270.097C469.198 269.373 471.052 268.211 472.594 266.695C472.853 268.405 473.113 270.115 473.372 271.825C475.637 272.183 477.792 270.372 478.621 268.234C479.136 266.744 479.342 265.165 479.224 263.593C479.199 264.677 478.995 265.749 478.621 266.766Z" fill="black"/>
<path opacity="0.2" d="M486.363 248.001C486.187 249.379 486.121 250.769 486.165 252.157C486.174 251.258 486.241 250.36 486.363 249.469C487.178 243.863 491.107 238.727 490.753 233.163C490.437 238.172 487.106 242.891 486.363 248.001Z" fill="black"/>
</g>
</g>
<defs>
<linearGradient id="paint0_linear" x1="328.37" y1="348.068" x2="328.37" y2="0" gradientUnits="userSpaceOnUse">
<stop stop-color="#808080" stop-opacity="0.25"/>
<stop offset="0.54" stop-color="#808080" stop-opacity="0.12"/>
<stop offset="1" stop-color="#808080" stop-opacity="0.1"/>
</linearGradient>
<linearGradient id="paint1_linear" x1="-11766.3" y1="10108.8" x2="-11766.3" y2="8185.27" gradientUnits="userSpaceOnUse">
<stop stop-color="#808080" stop-opacity="0.25"/>
<stop offset="0.54" stop-color="#808080" stop-opacity="0.12"/>
<stop offset="1" stop-color="#808080" stop-opacity="0.1"/>
</linearGradient>
<linearGradient id="paint2_linear" x1="496.719" y1="392.719" x2="496.719" y2="136.982" gradientUnits="userSpaceOnUse">
<stop stop-color="#808080" stop-opacity="0.25"/>
<stop offset="0.53514" stop-color="#808080" stop-opacity="0.12"/>
<stop offset="1" stop-color="#808080" stop-opacity="0.1"/>
</linearGradient>
<clipPath id="clip0">
<rect width="613" height="447" fill="white"/>
</clipPath>
</defs>
</svg>
