<svg width="629" height="466" viewBox="0 0 629 466" fill="none" xmlns="http://www.w3.org/2000/svg">
<g clip-path="url(#clip0)">
<path d="M547.892 466C592.687 466 629 461.288 629 455.475C629 449.662 592.687 444.95 547.892 444.95C503.098 444.95 466.784 449.662 466.784 455.475C466.784 461.288 503.098 466 547.892 466Z" fill="#3F3D56"/>
<path d="M234.861 15.4434H10C4.47715 15.4434 0 19.9205 0 25.4434V158.193C0 163.716 4.47715 168.193 10 168.193H234.861C240.384 168.193 244.861 163.716 244.861 158.193V25.4434C244.861 19.9205 240.384 15.4434 234.861 15.4434Z" fill="#FDFDFD"/>
<path d="M250.305 0.561523H25.4442C19.9214 0.561523 15.4442 5.03867 15.4442 10.5615V143.311C15.4442 148.834 19.9214 153.311 25.4442 153.311H250.305C255.828 153.311 260.305 148.834 260.305 143.311V10.5615C260.305 5.03868 255.828 0.561523 250.305 0.561523Z" stroke="#3F3D56" stroke-width="2" stroke-miterlimit="10"/>
<path d="M175.484 113.983C182.867 106.6 187.895 97.1943 189.932 86.9543C191.969 76.7143 190.924 66.1003 186.928 56.4545C182.932 46.8086 176.166 38.5642 167.485 32.7637C158.803 26.9632 148.596 23.8672 138.155 23.8672V76.6558L175.484 113.983Z" fill="#3F3D56"/>
<path d="M138.155 23.8672C126.422 23.8686 115.023 27.7785 105.759 34.9794C96.4947 42.1803 89.8935 52.2618 86.9976 63.632C84.1016 75.0022 85.076 87.0131 89.7668 97.7679C94.4575 108.523 102.597 117.409 112.901 123.022L138.155 76.6558V23.8672Z" fill="#6C63FF"/>
<path d="M175.484 113.983L138.155 76.6558L112.901 123.022C122.912 128.468 134.415 130.531 145.695 128.902C156.974 127.273 167.424 122.039 175.484 113.983Z" fill="#575A89"/>
<path d="M34.8196 121.582H24.7107V131.691H34.8196V121.582Z" fill="#6C63FF"/>
<path d="M49.4214 121.582H39.3125V131.691H49.4214V121.582Z" fill="#3F3D56"/>
<path d="M64.0232 121.582H53.9143V131.691H64.0232V121.582Z" fill="#575A89"/>
<path d="M240.929 123.829H199.371V125.513H240.929V123.829Z" fill="#3F3D56"/>
<path d="M240.929 128.883H199.371V130.568H240.929V128.883Z" fill="#3F3D56"/>
<path d="M240.929 133.937H199.371V135.622H240.929V133.937Z" fill="#3F3D56"/>
<path d="M206.219 228.283H86.9402C81.4173 228.283 76.9402 232.76 76.9402 238.283V371.033C76.9402 376.555 81.4173 381.033 86.9402 381.033H206.219C211.742 381.033 216.219 376.555 216.219 371.033V238.283C216.219 232.76 211.742 228.283 206.219 228.283Z" fill="#FDFDFD"/>
<path d="M220.259 213.682H100.98C95.4575 213.682 90.9803 218.159 90.9803 223.682V356.432C90.9803 361.954 95.4575 366.432 100.98 366.432H220.259C225.782 366.432 230.259 361.954 230.259 356.432V223.682C230.259 218.159 225.782 213.682 220.259 213.682Z" stroke="#3F3D56" stroke-width="2" stroke-miterlimit="10"/>
<path d="M105.791 349.199H98.2812V356.708H105.791V349.199Z" fill="#6C63FF"/>
<path d="M116.638 349.199H109.128V356.708H116.638V349.199Z" fill="#3F3D56"/>
<path d="M127.485 349.199H119.975V356.708H127.485V349.199Z" fill="#575A89"/>
<path d="M211.726 352.46H182.522V353.644H211.726V352.46Z" fill="#3F3D56"/>
<path d="M211.726 356.012H182.522V357.196H211.726V356.012Z" fill="#3F3D56"/>
<path d="M211.726 359.563H182.522V360.747H211.726V359.563Z" fill="#3F3D56"/>
<path d="M160.62 240.637V252.992C167.951 252.992 175.117 255.166 181.212 259.238C187.308 263.311 192.059 269.1 194.864 275.872C197.67 282.645 198.404 290.097 196.973 297.287C195.543 304.477 192.013 311.081 186.829 316.265L195.566 325.001C202.478 318.09 207.184 309.284 209.091 299.698C210.998 290.111 210.02 280.175 206.279 271.144C202.538 262.114 196.204 254.396 188.077 248.966C179.949 243.536 170.394 240.637 160.62 240.637Z" fill="#3F3D56"/>
<path d="M195.566 325.001L186.829 316.265C180.492 322.603 172.073 326.43 163.13 327.036C154.188 327.642 145.329 324.987 138.194 319.563L130.716 329.402C140.23 336.633 152.043 340.171 163.966 339.362C175.889 338.553 187.116 333.451 195.566 325.001Z" fill="#575A89"/>
<path d="M123.554 290.056C123.554 280.226 127.459 270.799 134.41 263.848C141.361 256.897 150.789 252.992 160.62 252.992V240.637C150.274 240.637 140.189 243.884 131.786 249.919C123.384 255.955 117.087 264.475 113.784 274.279C110.481 284.083 110.339 294.676 113.376 304.566C116.414 314.455 122.479 323.142 130.716 329.401L138.194 319.562C133.641 316.109 129.949 311.647 127.409 306.528C124.869 301.409 123.549 295.771 123.554 290.056Z" fill="#6C63FF"/>
<path d="M523.207 79.179C523.207 79.179 520.915 96.2008 526.808 98.1649C532.7 100.129 531.064 115.187 531.064 115.187L513.386 128.608L497.673 129.917L493.745 109.622L496.036 104.384C496.036 104.384 504.875 93.9094 498.655 83.1071C492.435 72.3047 523.207 79.179 523.207 79.179Z" fill="#FFB9B9"/>
<path opacity="0.1" d="M523.207 79.179C523.207 79.179 520.915 96.2008 526.808 98.1649C532.7 100.129 531.064 115.187 531.064 115.187L513.386 128.608L497.673 129.917L493.745 109.622L496.036 104.384C496.036 104.384 504.875 93.9094 498.655 83.1071C492.435 72.3047 523.207 79.179 523.207 79.179Z" fill="black"/>
<path d="M506.839 211.753L486.215 260.2C486.215 260.2 470.175 251.034 460.681 252.016C451.188 252.998 439.403 241.541 439.403 241.541L451.188 184.584L473.121 124.025L503.565 143.338L506.839 211.753Z" fill="#575A89"/>
<path opacity="0.1" d="M506.839 211.753L486.215 260.2C486.215 260.2 470.175 251.034 460.681 252.016C451.188 252.998 439.403 241.541 439.403 241.541L451.188 184.584L473.121 124.025L503.565 143.338L506.839 211.753Z" fill="black"/>
<path d="M539.247 417.652V433.364H524.516L526.808 415.033L539.247 417.652Z" fill="#575A89"/>
<path d="M577.548 390.483L588.351 397.03L580.494 415.034L572.311 414.051L564.454 402.922L577.548 390.483Z" fill="#575A89"/>
<path d="M542.194 207.17L561.508 252.671C561.508 252.671 554.633 303.082 554.961 307.337C555.288 311.593 555.615 313.23 553.979 316.83C552.342 320.431 551.687 322.723 552.669 326.978C553.651 331.234 553.979 332.87 553.324 334.507C552.669 336.144 548.086 403.576 545.795 408.159C543.503 412.742 547.104 420.271 544.813 420.926C542.521 421.58 525.498 419.944 524.516 416.015C523.534 412.087 527.79 402.594 525.498 399.648C523.207 396.702 525.826 290.643 522.552 283.441C519.279 276.24 483.269 269.693 483.269 269.693C483.269 269.693 479.996 248.743 481.96 245.47C483.924 242.196 486.543 221.574 486.543 221.574L542.194 207.17Z" fill="#2F2E41"/>
<path d="M523.207 430.746C523.207 430.746 532.373 419.944 540.23 430.746C540.23 430.746 540.884 443.512 546.449 446.131C552.014 448.75 549.396 459.225 541.539 459.552C533.682 459.879 523.534 461.189 523.207 456.933C522.88 452.678 524.516 450.059 521.57 448.75C518.624 447.44 521.57 439.911 521.57 439.911L523.207 430.746Z" fill="#2F2E41"/>
<path d="M524.189 274.276C524.189 274.276 523.862 297.845 521.57 301.118C519.279 304.391 517.969 306.356 519.279 309.956C520.588 313.557 522.552 320.104 521.57 321.413C520.588 322.723 522.552 329.597 522.552 329.597C522.552 329.597 547.759 341.709 559.544 366.914C559.544 366.914 571.656 386.882 575.257 387.209C578.858 387.537 583.114 384.918 581.149 392.447C579.185 399.976 571.656 409.796 566.091 408.814C560.526 407.832 556.27 398.339 556.27 398.339C556.27 398.339 512.731 354.148 508.148 352.838C503.565 351.529 490.471 341.054 488.18 334.507C485.888 327.96 480.978 273.294 483.269 269.693C485.561 266.092 494.072 261.182 494.072 261.182L524.189 274.276Z" fill="#2F2E41"/>
<path d="M580.822 389.173C580.822 389.173 601.118 389.828 601.446 394.738C601.773 399.648 592.934 428.782 594.244 435.656C595.553 442.53 584.096 458.243 576.566 454.969C569.037 451.696 574.93 434.674 574.93 434.674C574.93 434.674 567.4 411.433 568.71 411.105C570.019 410.778 583.114 406.85 582.459 402.922C581.804 398.994 580.822 389.173 580.822 389.173Z" fill="#2F2E41"/>
<path d="M507.985 96.6921C519.194 96.6921 528.281 87.6056 528.281 76.3969C528.281 65.1881 519.194 56.1016 507.985 56.1016C496.776 56.1016 487.689 65.1881 487.689 76.3969C487.689 87.6056 496.776 96.6921 507.985 96.6921Z" fill="#FFB9B9"/>
<path d="M528.445 107.658C528.445 107.658 517.314 119.442 509.13 117.478C500.946 115.514 496.691 101.438 496.691 101.438L481.96 98.8197C481.96 98.8197 471.484 145.302 471.484 149.885C471.484 154.468 481.96 203.897 481.96 212.735C481.96 221.573 473.448 226.811 486.543 226.484C499.637 226.156 493.417 221.901 512.404 221.573C531.391 221.246 534.337 225.502 538.265 218.627C540.945 214.142 544.252 210.064 548.086 206.516L541.212 182.292L540.23 113.877C540.23 113.877 531.837 97.5103 528.013 98.8197C528.013 98.8197 530.081 106.021 528.445 107.658Z" fill="#FAFAFA"/>
<path d="M524.413 95.9246C524.413 95.9246 541.866 97.8377 546.777 101.438C551.687 105.039 565.436 107.658 565.109 110.277C564.782 112.896 549.068 150.213 549.068 150.213C549.068 150.213 541.866 179.674 548.086 186.548C554.306 193.422 577.548 268.384 573.62 274.603C569.692 280.823 557.252 255.617 557.252 255.617C557.252 255.617 540.557 201.606 531.391 192.44C522.225 183.274 521.57 133.845 521.57 131.554C521.57 129.263 524.413 95.9246 524.413 95.9246Z" fill="#575A89"/>
<path d="M498.883 99.7211C498.883 99.7211 477.377 91.618 469.847 94.8915C462.318 98.1649 457.735 98.8196 457.735 98.8196L455.116 130.899C455.116 130.899 454.134 177.055 445.623 188.184C437.112 199.314 431.546 245.797 432.856 250.38C434.165 254.962 430.564 262.819 436.129 260.855C441.695 258.891 457.08 213.717 457.08 213.717C457.08 213.717 457.08 187.857 466.247 180.655C475.413 173.454 490.471 143.666 491.126 136.464C491.78 129.263 498 109.295 498 109.295L498.883 99.7211Z" fill="#575A89"/>
<path d="M572.638 202.915C572.638 202.915 562.817 221.246 561.508 224.52C560.198 227.793 551.032 250.052 537.938 245.142C524.844 240.232 550.705 216.336 550.705 216.336L556.598 196.368C556.598 196.368 571.983 193.095 572.638 202.915Z" fill="#FFB9B9"/>
<path d="M461.009 98.8198H457.735C457.735 98.8198 454.462 96.2011 450.533 97.8378C446.605 99.4745 437.439 97.1831 437.439 98.1651C437.439 99.1472 427.291 95.219 423.035 97.1831C418.779 99.1472 403.394 99.8018 403.394 99.8018C403.394 99.8018 397.174 115.514 401.429 118.46C405.685 121.407 411.905 119.115 414.851 121.407C417.797 123.698 423.363 121.079 425.327 124.025C427.291 126.971 434.493 132.209 436.13 128.935C437.766 125.662 434.493 122.716 441.367 126.317C448.242 129.917 459.045 129.917 459.045 129.917L461.009 98.8198Z" fill="#575A89"/>
<path d="M509.814 61.4017C507.068 60.7671 504.217 61.4703 501.435 61.9262C498.653 62.3821 495.588 62.5324 493.235 60.9803C491.497 59.8342 490.428 57.938 489.425 56.114C489.006 55.4626 488.727 54.7315 488.606 53.9668C488.488 52.6179 489.346 51.3871 490.257 50.3855C494.49 45.7329 500.675 43.1864 506.913 42.3775C512.041 41.7126 517.387 42.1579 522.122 44.2347C526.858 46.3114 530.928 50.1146 532.79 54.9383C533.647 57.4071 534.183 59.9761 534.383 62.5819C534.664 64.4991 534.7 66.4443 534.49 68.3706C534.24 69.7987 533.864 71.202 533.368 72.5645L530.285 81.8759C530.063 82.7559 529.649 83.5756 529.072 84.2762C528.776 84.6193 528.376 84.8572 527.933 84.9542C527.49 85.0512 527.028 85.0022 526.615 84.8144C526.862 83.803 526.9 82.7519 526.726 81.7254C526.629 81.2139 526.382 80.7429 526.015 80.3733C525.649 80.0036 525.18 79.7522 524.669 79.6514C523.532 79.5308 522.561 80.4119 521.483 80.7914C520.965 80.9451 520.42 80.9898 519.883 80.9227C519.346 80.8556 518.829 80.6782 518.364 80.4015C517.9 80.1248 517.497 79.755 517.182 79.3152C516.867 78.8754 516.647 78.3751 516.535 77.846C516.365 76.7815 516.65 75.6418 516.247 74.6421C515.774 73.4709 514.52 72.8571 513.579 72.0155C512.719 71.2224 512.104 70.2005 511.805 69.0698C511.507 67.9391 511.537 66.7467 511.893 65.6328C512.145 64.8579 512.858 64.5056 512.715 63.6153C512.528 62.4474 510.806 61.6309 509.814 61.4017Z" fill="#2F2E41"/>
<path d="M414.013 132.814H294.735C289.212 132.814 284.735 137.291 284.735 142.814V275.564C284.735 281.087 289.212 285.564 294.735 285.564H414.013C419.536 285.564 424.013 281.087 424.013 275.564V142.814C424.013 137.291 419.536 132.814 414.013 132.814Z" fill="#FDFDFD"/>
<path d="M428.054 118.213H308.775C303.252 118.213 298.775 122.69 298.775 128.213V260.963C298.775 266.485 303.252 270.963 308.775 270.963H428.054C433.576 270.963 438.054 266.485 438.054 260.963V128.213C438.054 122.69 433.576 118.213 428.054 118.213Z" stroke="#3F3D56" stroke-width="2" stroke-miterlimit="10"/>
<path d="M312.254 127.76V244.568H425.137" stroke="#3F3D56" stroke-width="2" stroke-miterlimit="10"/>
<path d="M343.704 203.573H318.431V244.007H343.704V203.573Z" fill="#575A89"/>
<path d="M380.208 176.056H354.936V244.007H380.208V176.056Z" fill="#3F3D56"/>
<path d="M416.713 144.045H391.44V244.007H416.713V144.045Z" fill="#6C63FF"/>
<path d="M318.078 253.73H310.569V261.239H318.078V253.73Z" fill="#6C63FF"/>
<path d="M328.925 253.73H321.416V261.239H328.925V253.73Z" fill="#3F3D56"/>
<path d="M339.772 253.73H332.263V261.239H339.772V253.73Z" fill="#575A89"/>
<path d="M424.013 256.991H394.81V258.175H424.013V256.991Z" fill="#3F3D56"/>
<path d="M424.013 260.543H394.81V261.727H424.013V260.543Z" fill="#3F3D56"/>
<path d="M424.013 264.095H394.81V265.279H424.013V264.095Z" fill="#3F3D56"/>
<path d="M406.776 99.783C412.745 100.043 417.181 105.455 416.535 111.395C415.95 116.776 413.792 123.471 406.995 126.043C394.882 130.626 395.537 104.766 397.828 103.784C399.356 103.129 401.757 99.5648 406.776 99.783Z" fill="#FFB9B9"/>
<path d="M561.508 108.528L565.109 110.277C565.109 110.277 572.966 126.316 573.293 128.608C573.62 130.899 578.858 139.41 576.894 141.702C574.93 143.993 571.984 149.885 573.948 152.177C575.912 154.468 580.495 163.634 580.495 166.907C580.495 170.181 575.584 179.019 578.858 180.001C582.132 180.983 581.15 193.749 580.495 194.731C579.84 195.713 571.329 211.753 571.329 211.753C571.329 211.753 569.692 193.422 553.651 200.951C553.651 200.951 552.342 191.785 553.651 191.13C554.961 190.476 558.234 186.548 555.616 185.893C552.997 185.238 549.396 177.382 550.05 176.4C550.705 175.418 552.342 174.109 550.705 173.127C549.068 172.145 547.759 166.58 548.086 165.598C548.414 164.616 544.485 160.033 544.485 160.033L561.508 108.528Z" fill="#575A89"/>
</g>
<defs>
<clipPath id="clip0">
<rect width="629" height="466" fill="white"/>
</clipPath>
</defs>
</svg>
