<svg width="64" height="64" viewBox="0 0 64 64" fill="none" xmlns="http://www.w3.org/2000/svg">
<g clip-path="url(#clip0)">
<path d="M60.5625 5.75H39.7056L39.3164 4.04639C38.9565 2.47363 37.5786 1.375 35.9653 1.375H3.4375C1.54199 1.375 0 2.91699 0 4.8125V48.5625C0 50.458 1.54199 52 3.4375 52H29.5088C29.7842 53.5986 30.8638 54.9478 32.417 55.5557L33.9263 56.1465C34.2124 57.0059 34.8291 57.7148 35.625 58.123V59.6875C35.625 61.3071 36.9429 62.625 38.5625 62.625H48.3125C49.9321 62.625 51.25 61.3071 51.25 59.6875V58.1226C52.3618 57.5527 53.125 56.3955 53.125 55.0625V48.25H58.6875C59.5493 48.25 60.25 47.5493 60.25 46.6875V12H62.125V48.5625C62.125 49.4243 61.4243 50.125 60.5625 50.125H56.5625C56.0444 50.125 55.625 50.5449 55.625 51.0625C55.625 51.5801 56.0444 52 56.5625 52H60.5625C62.458 52 64 50.458 64 48.5625V9.1875C64 7.29199 62.458 5.75 60.5625 5.75ZM37.4883 4.46436L37.7822 5.75H29.7056L29.3164 4.04639C29.252 3.76416 29.1533 3.49805 29.0278 3.25H35.9653C36.6987 3.25 37.3252 3.74951 37.4883 4.46436ZM25.9653 3.25C26.6987 3.25 27.3252 3.74951 27.4888 4.46436L27.7822 5.75H18.6851L18.2954 4.04639C18.231 3.76416 18.1323 3.49805 18.0068 3.25H25.9653ZM3.4375 3.25H14.9443C15.6777 3.25 16.3042 3.74951 16.4678 4.46436L17.0234 6.89648C17.1211 7.32275 17.5005 7.625 17.9375 7.625H60.5625C61.4243 7.625 62.125 8.32617 62.125 9.1875V10.125H1.875V4.8125C1.875 3.95068 2.57568 3.25 3.4375 3.25ZM31.3125 51.1904V45.9795C31.3125 45.3105 31.8564 44.7637 32.5254 44.7607C32.853 44.7583 33.1597 44.8848 33.3911 45.1152C33.6226 45.3457 33.7495 45.6523 33.7495 45.9785L33.75 49.125V54.064L33.1001 53.8096C32.0142 53.3848 31.3125 52.3564 31.3125 51.1904ZM53.25 31.375V37H47.8823V31.375H53.25ZM46.0073 37H40V36.1821C40 35.3296 39.6484 34.4956 39.0361 33.8945C38.4331 33.3022 37.645 32.9863 36.8154 33.0005C35.1255 33.0322 33.75 34.4341 33.75 36.125V37H30.25V31.375H46.0073V37ZM48.3125 60.75H38.5625C37.9766 60.75 37.5 60.2734 37.5 59.6875V58.5H49.375V59.6875C49.375 60.2734 48.8984 60.75 48.3125 60.75ZM51.25 55.0625C51.25 55.9243 50.5493 56.625 49.6875 56.625H37.1875C36.3257 56.625 35.625 55.9243 35.625 55.0625V36.125C35.625 35.4487 36.1748 34.8877 36.8511 34.875H36.8726C37.186 34.875 37.4873 35.0015 37.7227 35.2324C37.9785 35.4834 38.125 35.8296 38.125 36.1821V47.75C38.125 48.2676 38.5449 48.6875 39.0625 48.6875C39.5806 48.6875 40 48.2676 40 47.75V45.5C40 44.8105 40.561 44.25 41.25 44.25C41.9395 44.25 42.5 44.8105 42.5 45.5V47.75C42.5 48.2676 42.9199 48.6875 43.4375 48.6875C43.9556 48.6875 44.375 48.2676 44.375 47.75V45.5C44.375 44.8105 44.936 44.25 45.625 44.25C46.3145 44.25 46.875 44.8105 46.875 45.5V47.75C46.875 48.2676 47.2949 48.6875 47.8125 48.6875C48.3306 48.6875 48.75 48.2676 48.75 47.75V45.5C48.75 44.8237 49.2998 44.2627 49.9761 44.25C50.2964 44.2437 50.6069 44.3711 50.8481 44.6074C51.1035 44.8584 51.2505 45.2046 51.2505 45.5571V55.0625H51.25ZM58.375 46.375H53.125V45.5571C53.125 44.7046 52.7734 43.8706 52.1611 43.2695C51.5581 42.6772 50.7744 42.3608 49.9404 42.3755C49.1167 42.3911 48.3672 42.7319 47.8159 43.2734C47.2515 42.7183 46.4775 42.375 45.625 42.375C44.7739 42.375 44.0015 42.7168 43.4375 43.2705C42.8735 42.7168 42.1011 42.375 41.25 42.375C40.8057 42.375 40.3828 42.4683 40 42.6357V38.875H53.5625C54.4243 38.875 55.125 38.1743 55.125 37.3125V31.0625C55.125 30.2007 54.4243 29.5 53.5625 29.5H29.9375C29.0757 29.5 28.375 30.2007 28.375 31.0625V37.3125C28.375 38.1743 29.0757 38.875 29.9375 38.875H33.75V43.1343C33.3701 42.9717 32.9575 42.8857 32.5317 42.8857C32.5269 42.8857 32.5215 42.8857 32.5166 42.8857C30.8188 42.8936 29.4375 44.2817 29.4375 45.9795V46.375H5.625V15.4375C5.625 14.9199 5.20557 14.5 4.6875 14.5C4.16943 14.5 3.75 14.9199 3.75 15.4375V46.6875C3.75 47.5493 4.45068 48.25 5.3125 48.25H29.4375V50.125H3.4375C2.57568 50.125 1.875 49.4243 1.875 48.5625V12H58.375V46.375Z" fill="white"/>
<path d="M29.9375 27.625H53.5625C54.4243 27.625 55.125 26.9243 55.125 26.0625V19.8125C55.125 18.9507 54.4243 18.25 53.5625 18.25H29.9375C29.0757 18.25 28.375 18.9507 28.375 19.8125V26.0625C28.375 26.9243 29.0757 27.625 29.9375 27.625ZM53.25 25.75H47.8823V20.125H53.25V25.75ZM30.25 20.125H46.0073V25.75H30.25V20.125Z" fill="white"/>
<path d="M9.75 20.125H23.75C24.2681 20.125 24.6875 19.7051 24.6875 19.1875C24.6875 18.6699 24.2681 18.25 23.75 18.25H9.75C9.23193 18.25 8.8125 18.6699 8.8125 19.1875C8.8125 19.7051 9.23193 20.125 9.75 20.125Z" fill="white"/>
<path d="M9.75 23.875H23.75C24.2681 23.875 24.6875 23.4551 24.6875 22.9375C24.6875 22.4199 24.2681 22 23.75 22H9.75C9.23193 22 8.8125 22.4199 8.8125 22.9375C8.8125 23.4551 9.23193 23.875 9.75 23.875Z" fill="white"/>
<path d="M9.75 27.625H19.5C20.0181 27.625 20.4375 27.2051 20.4375 26.6875C20.4375 26.1699 20.0181 25.75 19.5 25.75H9.75C9.23193 25.75 8.8125 26.1699 8.8125 26.6875C8.8125 27.2051 9.23193 27.625 9.75 27.625Z" fill="white"/>
<path d="M9.75 31.375H23.75C24.2681 31.375 24.6875 30.9551 24.6875 30.4375C24.6875 29.9199 24.2681 29.5 23.75 29.5H9.75C9.23193 29.5 8.8125 29.9199 8.8125 30.4375C8.8125 30.9551 9.23193 31.375 9.75 31.375Z" fill="white"/>
<path d="M9.75 35.125H19.5C20.0181 35.125 20.4375 34.7051 20.4375 34.1875C20.4375 33.6699 20.0181 33.25 19.5 33.25H9.75C9.23193 33.25 8.8125 33.6699 8.8125 34.1875C8.8125 34.7051 9.23193 35.125 9.75 35.125Z" fill="white"/>
<path d="M9.75 38.75H15.75C16.2681 38.75 16.6875 38.3301 16.6875 37.8125C16.6875 37.2949 16.2681 36.875 15.75 36.875H9.75C9.23193 36.875 8.8125 37.2949 8.8125 37.8125C8.8125 38.3301 9.23193 38.75 9.75 38.75Z" fill="white"/>
<path d="M6.125 7.625H12.5C13.0181 7.625 13.4375 7.20508 13.4375 6.6875C13.4375 6.16992 13.0181 5.75 12.5 5.75H6.125C5.60693 5.75 5.1875 6.16992 5.1875 6.6875C5.1875 7.20508 5.60693 7.625 6.125 7.625Z" fill="white"/>
</g>
<defs>
<clipPath id="clip0">
<rect width="64" height="64" fill="white"/>
</clipPath>
</defs>
</svg>
