<svg width="30" height="30" viewBox="0 0 30 30" fill="none" xmlns="http://www.w3.org/2000/svg">
<path d="M25.5871 4.35242C22.7804 1.54587 19.0484 0 15.0792 0C11.9572 0 8.96917 0.957642 6.43819 2.7697C6.17498 2.95807 6.11433 3.32405 6.3027 3.58727C6.49129 3.85048 6.85728 3.9109 7.12026 3.72253C9.45119 2.05399 12.2033 1.17188 15.0792 1.17188C22.627 1.17188 28.7677 7.31255 28.7677 14.8606C28.7677 22.4084 22.627 28.5491 15.0792 28.5491C12.7798 28.5491 10.5059 27.968 8.50317 26.8684C8.37018 26.7957 8.21432 26.7771 8.06829 26.8165L1.54562 28.5793L3.32403 22.2324C3.36706 22.0791 3.34577 21.915 3.2652 21.7779C2.03863 19.6877 1.39043 17.2959 1.39043 14.8606C1.39043 11.9845 2.27254 9.23241 3.94109 6.9017C4.12946 6.63872 4.06881 6.27274 3.80582 6.08437C3.54261 5.896 3.17663 5.95642 2.98826 6.21964C1.1762 8.75038 0.218559 11.7384 0.218559 14.8606C0.218559 17.4202 0.878425 19.9358 2.12926 22.1532L0.138908 29.2559C0.0819161 29.4589 0.138679 29.6768 0.286765 29.8265C0.39846 29.9389 0.548835 30 0.703101 30C0.754142 30 0.805412 29.9934 0.855994 29.9796L8.14886 28.0087C10.2722 29.1296 12.6631 29.721 15.0789 29.721C19.0484 29.721 22.7804 28.1754 25.5869 25.3683C28.3937 22.5618 29.9396 18.8299 29.9396 14.8604C29.9396 10.8911 28.3939 7.15942 25.5871 4.35242Z" fill="#DD4F24"/>
<path d="M24.6837 21.9633C24.9529 22.1429 25.3168 22.0704 25.4965 21.8012C26.8698 19.7436 27.5958 17.3435 27.5958 14.8604C27.5958 11.5169 26.2939 8.37341 23.93 6.00952C21.5661 3.64563 18.4229 2.34375 15.0792 2.34375C11.7354 2.34375 8.59198 3.64563 6.22809 6.00952C3.8642 8.37341 2.56232 11.5169 2.56232 14.8606C2.56232 17.0876 3.15489 19.2744 4.27596 21.1846L4.65407 21.8291L3.50851 25.9174C3.45152 26.1202 3.50806 26.3381 3.65637 26.4878C3.80469 26.6375 4.02213 26.6961 4.2256 26.6412L8.44618 25.5004L9.06691 25.8412C10.8975 26.8462 12.9764 27.3772 15.0789 27.3772C17.5623 27.3772 19.9624 26.6512 22.0198 25.2777C22.289 25.0983 22.3615 24.7343 22.1818 24.4652C22.0022 24.196 21.6385 24.1235 21.3693 24.3031C19.5051 25.5476 17.33 26.2054 15.0789 26.2054C13.173 26.2054 11.2891 25.7243 9.63087 24.814L8.80324 24.3594C8.67049 24.2867 8.51462 24.2681 8.36836 24.3075L4.91499 25.2409L5.84975 21.9054C5.89255 21.752 5.87149 21.5879 5.79092 21.4508L5.28647 20.5914C4.27092 18.8608 3.73419 16.8791 3.73419 14.8604C3.73419 8.60481 8.82361 3.51562 15.0792 3.51562C21.3347 3.51562 26.4239 8.60481 26.4239 14.8606C26.4239 17.1112 25.7661 19.2863 24.5217 21.1507C24.342 21.4199 24.4146 21.7836 24.6837 21.9633Z" fill="#DD4F24"/>
<path d="M12.9378 13.0605L12.9765 13.0154C13.5013 12.4263 13.3688 11.7344 13.1651 11.2579C12.8641 10.554 12.0768 8.75503 12.0021 8.58474C11.8859 8.29086 11.4979 7.82531 10.7177 7.80906C10.1093 7.7967 9.90924 7.81387 9.86255 7.81959C9.85774 7.82005 9.85293 7.82074 9.84836 7.82142C9.75864 7.83447 7.64835 8.17596 7.28397 11.3389C7.11642 12.793 7.78979 14.5251 9.28531 16.4878C10.941 18.6606 12.4631 19.9545 14.7139 21.1021C15.8348 21.6736 17.472 22.3426 18.9961 22.3426C19.0455 22.3426 19.095 22.3419 19.1439 22.3403C20.8557 22.2904 21.7699 21.5791 22.2352 20.9911C22.7291 20.3669 22.8324 19.7519 22.8472 19.6452C22.8571 19.5775 22.8809 19.3637 22.896 18.8068C22.9171 18.0266 22.4703 17.6169 22.1823 17.4867C22.0196 17.4059 20.3419 16.5741 19.6541 16.2406C19.1897 16.0152 18.507 15.8865 17.8924 16.5533C17.8892 16.5567 17.8862 16.5601 17.8833 16.5631C17.8002 16.6357 17.718 16.7439 17.4683 17.0781C17.3145 17.2839 17.0076 17.6945 16.8771 17.8316C16.6015 17.851 15.68 17.4452 14.3738 16.4338C13.5505 15.7961 12.6714 14.8035 12.185 13.9626C12.1802 13.9507 12.1772 13.9289 12.1786 13.9179C12.3802 13.7106 12.7085 13.3295 12.9378 13.0605ZM13.6563 17.3603C14.0467 17.6627 14.8123 18.2259 15.5526 18.6015C15.9025 18.7789 16.9675 19.3193 17.6242 18.7382C17.8054 18.5777 18.0629 18.2397 18.4067 17.7796C18.5058 17.6471 18.6276 17.4844 18.6747 17.4281C18.7054 17.4001 18.7308 17.3727 18.7539 17.3475C18.8594 17.2331 18.9075 17.1809 19.1426 17.2949C19.8484 17.6373 21.6095 18.5107 21.6726 18.5418C21.6944 18.5635 21.7282 18.6343 21.7243 18.775C21.7113 19.2607 21.6923 19.4363 21.6884 19.4692C21.6859 19.4814 21.687 19.474 21.6857 19.4873C21.6788 19.5271 21.6051 19.9199 21.2821 20.3056C20.8267 20.8498 20.0959 21.1403 19.1098 21.1689C17.7915 21.208 16.2815 20.5862 15.2461 20.0581C13.1394 18.9838 11.7765 17.8236 10.2171 15.7774C8.92985 14.0882 8.31805 12.5996 8.44783 11.4728C8.69228 9.35127 9.85499 9.01802 10.0109 8.98277C10.0658 8.97934 10.2516 8.97155 10.6934 8.98071C10.8342 8.98369 10.903 9.02099 10.9239 9.04365C10.9529 9.11003 11.779 10.9969 12.0873 11.7184C12.2413 12.0789 12.1468 12.1851 12.1012 12.2361C12.093 12.2453 12.0859 12.2535 12.0797 12.2604L12.0461 12.3C11.7076 12.6966 11.4693 12.9665 11.3379 13.1013C10.9053 13.5458 10.9463 14.161 11.1679 14.5446C11.7314 15.521 12.7082 16.6261 13.6563 17.3603Z" fill="#DD4F24"/>
<path d="M4.98556 5.35249C5.12632 5.35249 5.26754 5.30213 5.37969 5.20005C5.6191 4.98239 5.63696 4.61183 5.41929 4.37242C5.20139 4.13301 4.83106 4.11538 4.59142 4.33305L4.5912 4.33328C4.35178 4.55094 4.33439 4.92127 4.55206 5.16091C4.66764 5.28794 4.82626 5.35249 4.98556 5.35249Z" fill="#DD4F24"/>
<path d="M23.082 22.9027L23.0818 22.9032C22.8641 23.1426 22.8819 23.5129 23.1214 23.7306C23.2335 23.8326 23.3745 23.883 23.5153 23.883C23.6746 23.883 23.8334 23.8182 23.949 23.691C24.1669 23.4516 24.149 23.081 23.9096 22.8633C23.6702 22.6457 23.2997 22.6633 23.082 22.9027Z" fill="#DD4F24"/>
</svg>
