<svg width="32" height="32" viewBox="0 0 32 32" fill="none" xmlns="http://www.w3.org/2000/svg">
<path d="M4.80945 27.2028L6.3769 21.6357C5.36894 19.9233 4.83824 17.975 4.83824 15.9736C4.83824 9.81099 9.85186 4.79736 16.0145 4.79736C22.177 4.79736 27.1906 9.81099 27.1906 15.9736C27.1906 22.1362 22.177 27.1498 16.0145 27.1498C14.0942 27.1498 12.214 26.6583 10.5506 25.7249L4.80945 27.2028ZM10.8441 23.6917L11.1862 23.9006C12.6365 24.7859 14.3061 25.2539 16.0145 25.2539C21.1316 25.2539 25.2947 21.0908 25.2947 15.9736C25.2947 10.8564 21.1316 6.69322 16.0145 6.69322C10.8973 6.69322 6.73409 10.8564 6.73409 15.9736C6.73409 17.7566 7.24085 19.4881 8.19945 20.9808L8.42983 21.3395L7.52719 24.5455L10.8441 23.6917Z" fill="#F6F6F6"/>
<path d="M12.8749 10.7718L12.1497 10.7323C11.9219 10.7198 11.6985 10.796 11.5263 10.9455C11.1748 11.2508 10.6126 11.8411 10.4399 12.6102C10.1825 13.7571 10.5804 15.1614 11.6102 16.5657C12.6401 17.9701 14.5594 20.217 17.9531 21.1767C19.0468 21.4859 19.9071 21.2774 20.5708 20.8528C21.0965 20.5166 21.4589 19.9768 21.5895 19.3666L21.7053 18.8258C21.7421 18.6539 21.6548 18.4795 21.4952 18.4059L19.0442 17.2762C18.8851 17.2029 18.6965 17.2492 18.5894 17.3879L17.6273 18.6352C17.5546 18.7295 17.4302 18.7668 17.3178 18.7274C16.6589 18.4958 14.4517 17.5714 13.2406 15.2385C13.1881 15.1373 13.2011 15.0145 13.2756 14.9282L14.1952 13.8644C14.2892 13.7558 14.3129 13.6031 14.2564 13.4711L13.2 10.9994C13.1437 10.8678 13.0177 10.7796 12.8749 10.7718Z" fill="#F6F6F6"/>
</svg>
